  0
SECTION
  2
HEADER
  9
$ACADVER
  1
AC1024
  9
$ACADMAINTVER
 70
6
  9
$DWGCODEPAGE
  3
ANSI_1252
  9
$LASTSAVEDBY
  1
ezdxf
  9
$INSBASE
 10
0.0
 20
0.0
 30
0.0
  9
$EXTMIN
 10
1e+20
 20
1e+20
 30
1e+20
  9
$EXTMAX
 10
-1e+20
 20
-1e+20
 30
-1e+20
  9
$LIMMIN
 10
0.0
 20
0.0
  9
$LIMMAX
 10
420.0
 20
297.0
  9
$ORTHOMODE
 70
0
  9
$REGENMODE
 70
1
  9
$FILLMODE
 70
1
  9
$QTEXTMODE
 70
0
  9
$MIRRTEXT
 70
1
  9
$LTSCALE
 40
1.0
  9
$ATTMODE
 70
1
  9
$TEXTSIZE
 40
2.5
  9
$TRACEWID
 40
1.0
  9
$TEXTSTYLE
  7
Standard
  9
$CLAYER
  8
0
  9
$CELTYPE
  6
ByLayer
  9
$CECOLOR
 62
256
  9
$CELTSCALE
 40
1.0
  9
$DISPSILH
 70
0
  9
$DIMSCALE
 40
1.0
  9
$DIMASZ
 40
2.5
  9
$DIMEXO
 40
0.625
  9
$DIMDLI
 40
3.75
  9
$DIMRND
 40
0.0
  9
$DIMDLE
 40
0.0
  9
$DIMEXE
 40
1.25
  9
$DIMTP
 40
0.0
  9
$DIMTM
 40
0.0
  9
$DIMTXT
 40
2.5
  9
$DIMCEN
 40
2.5
  9
$DIMTSZ
 40
0.0
  9
$DIMTOL
 70
0
  9
$DIMLIM
 70
0
  9
$DIMTIH
 70
0
  9
$DIMTOH
 70
0
  9
$DIMSE1
 70
0
  9
$DIMSE2
 70
0
  9
$DIMTAD
 70
1
  9
$DIMZIN
 70
8
  9
$DIMBLK
  1

  9
$DIMASO
 70
1
  9
$DIMSHO
 70
1
  9
$DIMPOST
  1

  9
$DIMAPOST
  1

  9
$DIMALT
 70
0
  9
$DIMALTD
 70
3
  9
$DIMALTF
 40
0.03937007874
  9
$DIMLFAC
 40
1.0
  9
$DIMTOFL
 70
1
  9
$DIMTVP
 40
0.0
  9
$DIMTIX
 70
0
  9
$DIMSOXD
 70
0
  9
$DIMSAH
 70
0
  9
$DIMBLK1
  1

  9
$DIMBLK2
  1

  9
$DIMSTYLE
  2
ISO-25
  9
$DIMCLRD
 70
0
  9
$DIMCLRE
 70
0
  9
$DIMCLRT
 70
0
  9
$DIMTFAC
 40
1.0
  9
$DIMGAP
 40
0.625
  9
$DIMJUST
 70
0
  9
$DIMSD1
 70
0
  9
$DIMSD2
 70
0
  9
$DIMTOLJ
 70
0
  9
$DIMTZIN
 70
8
  9
$DIMALTZ
 70
0
  9
$DIMALTTZ
 70
0
  9
$DIMUPT
 70
0
  9
$DIMDEC
 70
2
  9
$DIMTDEC
 70
2
  9
$DIMALTU
 70
2
  9
$DIMALTTD
 70
3
  9
$DIMTXSTY
  7
Standard
  9
$DIMAUNIT
 70
0
  9
$DIMADEC
 70
0
  9
$DIMALTRND
 40
0.0
  9
$DIMAZIN
 70
0
  9
$DIMDSEP
 70
44
  9
$DIMATFIT
 70
3
  9
$DIMFRAC
 70
0
  9
$DIMLDRBLK
  1

  9
$DIMLUNIT
 70
2
  9
$DIMLWD
 70
-2
  9
$DIMLWE
 70
-2
  9
$DIMTMOVE
 70
0
  9
$DIMFXL
 40
1.0
  9
$DIMFXLON
 70
0
  9
$DIMJOGANG
 40
0.785398163397
  9
$DIMTFILL
 70
0
  9
$DIMTFILLCLR
 70
0
  9
$DIMARCSYM
 70
0
  9
$DIMLTYPE
  6

  9
$DIMLTEX1
  6

  9
$DIMLTEX2
  6

  9
$DIMTXTDIRECTION
 70
0
  9
$LUNITS
 70
2
  9
$LUPREC
 70
4
  9
$SKETCHINC
 40
1.0
  9
$FILLETRAD
 40
10.0
  9
$AUNITS
 70
0
  9
$AUPREC
 70
2
  9
$MENU
  1
.
  9
$ELEVATION
 40
0.0
  9
$PELEVATION
 40
0.0
  9
$THICKNESS
 40
0.0
  9
$LIMCHECK
 70
0
  9
$CHAMFERA
 40
0.0
  9
$CHAMFERB
 40
0.0
  9
$CHAMFERC
 40
0.0
  9
$CHAMFERD
 40
0.0
  9
$SKPOLY
 70
0
  9
$TDCREATE
 40
2461147.203148148
  9
$TDUCREATE
 40
2458532.153996898
  9
$TDUPDATE
 40
2461147.203148148
  9
$TDUUPDATE
 40
2458532.1544311
  9
$TDINDWG
 40
0.0
  9
$TDUSRTIMER
 40
0.0
  9
$USRTIMER
 70
1
  9
$ANGBASE
 50
0.0
  9
$ANGDIR
 70
0
  9
$PDMODE
 70
0
  9
$PDSIZE
 40
0.0
  9
$PLINEWID
 40
0.0
  9
$SPLFRAME
 70
0
  9
$SPLINETYPE
 70
6
  9
$SPLINESEGS
 70
8
  9
$HANDSEED
  5
262
  9
$SURFTAB1
 70
6
  9
$SURFTAB2
 70
6
  9
$SURFTYPE
 70
6
  9
$SURFU
 70
6
  9
$SURFV
 70
6
  9
$UCSBASE
  2

  9
$UCSNAME
  2

  9
$UCSORG
 10
0.0
 20
0.0
 30
0.0
  9
$UCSXDIR
 10
1.0
 20
0.0
 30
0.0
  9
$UCSYDIR
 10
0.0
 20
1.0
 30
0.0
  9
$UCSORTHOREF
  2

  9
$UCSORTHOVIEW
 70
0
  9
$UCSORGTOP
 10
0.0
 20
0.0
 30
0.0
  9
$UCSORGBOTTOM
 10
0.0
 20
0.0
 30
0.0
  9
$UCSORGLEFT
 10
0.0
 20
0.0
 30
0.0
  9
$UCSORGRIGHT
 10
0.0
 20
0.0
 30
0.0
  9
$UCSORGFRONT
 10
0.0
 20
0.0
 30
0.0
  9
$UCSORGBACK
 10
0.0
 20
0.0
 30
0.0
  9
$PUCSBASE
  2

  9
$PUCSNAME
  2

  9
$PUCSORG
 10
0.0
 20
0.0
 30
0.0
  9
$PUCSXDIR
 10
1.0
 20
0.0
 30
0.0
  9
$PUCSYDIR
 10
0.0
 20
1.0
 30
0.0
  9
$PUCSORTHOREF
  2

  9
$PUCSORTHOVIEW
 70
0
  9
$PUCSORGTOP
 10
0.0
 20
0.0
 30
0.0
  9
$PUCSORGBOTTOM
 10
0.0
 20
0.0
 30
0.0
  9
$PUCSORGLEFT
 10
0.0
 20
0.0
 30
0.0
  9
$PUCSORGRIGHT
 10
0.0
 20
0.0
 30
0.0
  9
$PUCSORGFRONT
 10
0.0
 20
0.0
 30
0.0
  9
$PUCSORGBACK
 10
0.0
 20
0.0
 30
0.0
  9
$USERI1
 70
0
  9
$USERI2
 70
0
  9
$USERI3
 70
0
  9
$USERI4
 70
0
  9
$USERI5
 70
0
  9
$USERR1
 40
0.0
  9
$USERR2
 40
0.0
  9
$USERR3
 40
0.0
  9
$USERR4
 40
0.0
  9
$USERR5
 40
0.0
  9
$WORLDVIEW
 70
1
  9
$SHADEDGE
 70
3
  9
$SHADEDIF
 70
70
  9
$TILEMODE
 70
1
  9
$MAXACTVP
 70
64
  9
$PINSBASE
 10
0.0
 20
0.0
 30
0.0
  9
$PLIMCHECK
 70
0
  9
$PEXTMIN
 10
1e+20
 20
1e+20
 30
1e+20
  9
$PEXTMAX
 10
-1e+20
 20
-1e+20
 30
-1e+20
  9
$PLIMMIN
 10
0.0
 20
0.0
  9
$PLIMMAX
 10
420.0
 20
297.0
  9
$UNITMODE
 70
0
  9
$VISRETAIN
 70
1
  9
$PLINEGEN
 70
0
  9
$PSLTSCALE
 70
1
  9
$TREEDEPTH
 70
3020
  9
$CMLSTYLE
  2
Standard
  9
$CMLJUST
 70
0
  9
$CMLSCALE
 40
20.0
  9
$PROXYGRAPHICS
 70
1
  9
$MEASUREMENT
 70
1
  9
$CELWEIGHT
370
-1
  9
$ENDCAPS
280
0
  9
$JOINSTYLE
280
0
  9
$LWDISPLAY
290
0
  9
$INSUNITS
 70
6
  9
$HYPERLINKBASE
  1

  9
$STYLESHEET
  1

  9
$XEDIT
290
1
  9
$CEPSNTYPE
380
0
  9
$PSTYLEMODE
290
1
  9
$FINGERPRINTGUID
  2
{E7AE7E07-026F-48BA-9E85-57A125E303D2}
  9
$VERSIONGUID
  2
{C4203C71-5C39-4B6B-837F-B6243A44F6B0}
  9
$EXTNAMES
290
1
  9
$PSVPSCALE
 40
0.0
  9
$OLESTARTUP
290
0
  9
$SORTENTS
280
127
  9
$INDEXCTL
280
0
  9
$HIDETEXT
280
1
  9
$XCLIPFRAME
280
1
  9
$HALOGAP
280
0
  9
$OBSCOLOR
 70
257
  9
$OBSLTYPE
280
0
  9
$INTERSECTIONDISPLAY
280
0
  9
$INTERSECTIONCOLOR
 70
257
  9
$DIMASSOC
280
2
  9
$PROJECTNAME
  1

  9
$CAMERADISPLAY
290
0
  9
$LENSLENGTH
 40
50.0
  9
$CAMERAHEIGHT
 40
0.0
  9
$STEPSPERSEC
 40
24.0
  9
$STEPSIZE
 40
100.0
  9
$3DDWFPREC
 40
2.0
  9
$PSOLWIDTH
 40
0.005
  9
$PSOLHEIGHT
 40
0.08
  9
$LOFTANG1
 40
1.570796326795
  9
$LOFTANG2
 40
1.570796326795
  9
$LOFTMAG1
 40
0.0
  9
$LOFTMAG2
 40
0.0
  9
$LOFTPARAM
 70
7
  9
$LOFTNORMALS
280
1
  9
$LATITUDE
 40
37.795
  9
$LONGITUDE
 40
-122.394
  9
$NORTHDIRECTION
 40
0.0
  9
$TIMEZONE
 70
-8000
  9
$LIGHTGLYPHDISPLAY
280
1
  9
$TILEMODELIGHTSYNCH
280
1
  9
$CMATERIAL
347
20
  9
$SOLIDHIST
280
0
  9
$SHOWHIST
280
1
  9
$DWFFRAME
280
2
  9
$DGNFRAME
280
2
  9
$REALWORLDSCALE
290
1
  9
$INTERFERECOLOR
 62
256
  9
$CSHADOW
280
0
  9
$SHADOWPLANELOCATION
 40
0.0
  0
ENDSEC
  0
SECTION
  2
CLASSES
  0
CLASS
  1
ACDBDICTIONARYWDFLT
  2
AcDbDictionaryWithDefault
  3
ObjectDBX Classes
 90
0
 91
0
280
0
281
0
  0
CLASS
  1
SUN
  2
AcDbSun
  3
SCENEOE
 90
1153
 91
0
280
0
281
0
  0
CLASS
  1
VISUALSTYLE
  2
AcDbVisualStyle
  3
ObjectDBX Classes
 90
4095
 91
0
280
0
281
0
  0
CLASS
  1
MATERIAL
  2
AcDbMaterial
  3
ObjectDBX Classes
 90
1153
 91
0
280
0
281
0
  0
CLASS
  1
SCALE
  2
AcDbScale
  3
ObjectDBX Classes
 90
1153
 91
0
280
0
281
0
  0
CLASS
  1
TABLESTYLE
  2
AcDbTableStyle
  3
ObjectDBX Classes
 90
4095
 91
0
280
0
281
0
  0
CLASS
  1
MLEADERSTYLE
  2
AcDbMLeaderStyle
  3
ACDB_MLEADERSTYLE_CLASS
 90
4095
 91
0
280
0
281
0
  0
CLASS
  1
DICTIONARYVAR
  2
AcDbDictionaryVar
  3
ObjectDBX Classes
 90
0
 91
0
280
0
281
0
  0
CLASS
  1
CELLSTYLEMAP
  2
AcDbCellStyleMap
  3
ObjectDBX Classes
 90
1152
 91
0
280
0
281
0
  0
CLASS
  1
MENTALRAYRENDERSETTINGS
  2
AcDbMentalRayRenderSettings
  3
SCENEOE
 90
1024
 91
0
280
0
281
0
  0
CLASS
  1
ACDBDETAILVIEWSTYLE
  2
AcDbDetailViewStyle
  3
ObjectDBX Classes
 90
1025
 91
0
280
0
281
0
  0
CLASS
  1
ACDBSECTIONVIEWSTYLE
  2
AcDbSectionViewStyle
  3
ObjectDBX Classes
 90
1025
 91
0
280
0
281
0
  0
CLASS
  1
RASTERVARIABLES
  2
AcDbRasterVariables
  3
ISM
 90
0
 91
0
280
0
281
0
  0
CLASS
  1
LAYOUT
  2
AcDbLayout
  3
ObjectDBX Classes
 90
0
 91
0
280
0
281
0
  0
CLASS
  1
ACDBPLACEHOLDER
  2
AcDbPlaceHolder
  3
ObjectDBX Classes
 90
0
 91
0
280
0
281
0
  0
ENDSEC
  0
SECTION
  2
TABLES
  0
TABLE
  2
VPORT
  5
8
330
0
100
AcDbSymbolTable
 70
1
  0
VPORT
  5
23
330
8
100
AcDbSymbolTableRecord
100
AcDbViewportTableRecord
  2
*Active
 70
0
 10
0.0
 20
0.0
 11
1.0
 21
1.0
 12
0.0
 22
0.0
 13
0.0
 23
0.0
 14
0.5
 24
0.5
 15
0.5
 25
0.5
 16
0.0
 26
0.0
 36
1.0
 17
0.0
 27
0.0
 37
0.0
 40
1000.0
 41
1.34
 42
50.0
 43
0.0
 44
0.0
 50
0.0
 51
0.0
 71
0
 72
1000
 73
1
 74
3
 75
0
 76
0
 77
0
 78
0
281
0
 65
0
146
0.0
  0
ENDTAB
  0
TABLE
  2
LTYPE
  5
2
330
0
100
AcDbSymbolTable
 70
3
  0
LTYPE
  5
24
330
2
100
AcDbSymbolTableRecord
100
AcDbLinetypeTableRecord
  2
ByBlock
 70
0
  3

 72
65
 73
0
 40
0.0
  0
LTYPE
  5
25
330
2
100
AcDbSymbolTableRecord
100
AcDbLinetypeTableRecord
  2
ByLayer
 70
0
  3

 72
65
 73
0
 40
0.0
  0
LTYPE
  5
26
330
2
100
AcDbSymbolTableRecord
100
AcDbLinetypeTableRecord
  2
Continuous
 70
0
  3

 72
65
 73
0
 40
0.0
  0
ENDTAB
  0
TABLE
  2
LAYER
  5
1
330
0
100
AcDbSymbolTable
 70
12
  0
LAYER
  5
27
330
1
100
AcDbSymbolTableRecord
100
AcDbLayerTableRecord
  2
0
 70
0
 62
7
  6
Continuous
370
-3
390
13
347
21
  0
LAYER
  5
28
330
1
100
AcDbSymbolTableRecord
100
AcDbLayerTableRecord
  2
Defpoints
 70
0
 62
7
  6
Continuous
290
0
370
-3
390
13
347
21
  0
LAYER
  5
2F
330
1
100
AcDbSymbolTableRecord
100
AcDbLayerTableRecord
  2
CASEWORK-CABINETS
 70
0
 62
7
  6
Continuous
370
-3
390
13
347
21
  0
LAYER
  5
30
330
1
100
AcDbSymbolTableRecord
100
AcDbLayerTableRecord
  2
CASEWORK-COUNTERTOPS
 70
0
 62
3
  6
Continuous
370
-3
390
13
347
21
  0
LAYER
  5
31
330
1
100
AcDbSymbolTableRecord
100
AcDbLayerTableRecord
  2
CASEWORK-SINKS
 70
0
 62
5
  6
Continuous
370
-3
390
13
347
21
  0
LAYER
  5
32
330
1
100
AcDbSymbolTableRecord
100
AcDbLayerTableRecord
  2
CASEWORK-FIXTURES
 70
0
 62
6
  6
Continuous
370
-3
390
13
347
21
  0
LAYER
  5
33
330
1
100
AcDbSymbolTableRecord
100
AcDbLayerTableRecord
  2
CASEWORK-DIMENSIONS
 70
0
 62
2
  6
Continuous
370
-3
390
13
347
21
  0
LAYER
  5
34
330
1
100
AcDbSymbolTableRecord
100
AcDbLayerTableRecord
  2
CASEWORK-ANNOTATIONS
 70
0
 62
1
  6
Continuous
370
-3
390
13
347
21
  0
LAYER
  5
35
330
1
100
AcDbSymbolTableRecord
100
AcDbLayerTableRecord
  2
CASEWORK-FLAGS
 70
0
 62
1
  6
Continuous
370
-3
390
13
347
21
  0
LAYER
  5
36
330
1
100
AcDbSymbolTableRecord
100
AcDbLayerTableRecord
  2
CASEWORK-SECTIONS
 70
0
 62
4
  6
Continuous
370
-3
390
13
347
21
  0
LAYER
  5
37
330
1
100
AcDbSymbolTableRecord
100
AcDbLayerTableRecord
  2
CASEWORK-PRODUCT-NUMBERS
 70
0
 62
2
  6
Continuous
370
-3
390
13
347
21
  0
LAYER
  5
38
330
1
100
AcDbSymbolTableRecord
100
AcDbLayerTableRecord
  2
CASEWORK-OUTLINES
 70
0
 62
7
  6
Continuous
370
-3
390
13
347
21
  0
ENDTAB
  0
TABLE
  2
STYLE
  5
5
330
0
100
AcDbSymbolTable
 70
1
  0
STYLE
  5
29
330
5
100
AcDbSymbolTableRecord
100
AcDbTextStyleTableRecord
  2
Standard
 70
0
 40
0.0
 41
1.0
 50
0.0
 71
0
 42
2.5
  3
txt
  4

  0
ENDTAB
  0
TABLE
  2
VIEW
  5
7
330
0
100
AcDbSymbolTable
 70
0
  0
ENDTAB
  0
TABLE
  2
UCS
  5
6
330
0
100
AcDbSymbolTable
 70
0
  0
ENDTAB
  0
TABLE
  2
APPID
  5
3
330
0
100
AcDbSymbolTable
 70
3
  0
APPID
  5
2A
330
3
100
AcDbSymbolTableRecord
100
AcDbRegAppTableRecord
  2
ACAD
 70
0
  0
APPID
  5
25F
330
3
100
AcDbSymbolTableRecord
100
AcDbRegAppTableRecord
  2
HATCHBACKGROUNDCOLOR
 70
0
  0
APPID
  5
260
330
3
100
AcDbSymbolTableRecord
100
AcDbRegAppTableRecord
  2
EZDXF
 70
0
  0
ENDTAB
  0
TABLE
  2
DIMSTYLE
  5
4
330
0
100
AcDbSymbolTable
 70
1
100
AcDbDimStyleTable
  0
DIMSTYLE
105
2B
330
4
100
AcDbSymbolTableRecord
100
AcDbDimStyleTableRecord
  2
Standard
 70
0
 40
1.0
 41
2.5
 42
0.625
 43
3.75
 44
1.25
 45
0.0
 46
0.0
 47
0.0
 48
0.0
 49
2.5
140
2.5
141
2.5
142
0.0
143
0.03937007874
144
1.0
145
0.0
146
1.0
147
0.625
148
0.0
 69
0
 70
0
 71
0
 72
0
 73
0
 74
0
 75
0
 76
0
 77
1
 78
8
 79
3
170
0
171
3
172
1
173
0
174
0
175
0
176
0
177
0
178
0
179
2
271
2
272
2
273
2
274
3
275
0
276
0
277
2
278
44
279
0
280
0
281
0
282
0
283
0
284
8
285
0
286
0
288
0
289
3
290
0
371
-2
372
-2
  0
ENDTAB
  0
TABLE
  2
BLOCK_RECORD
  5
9
330
0
100
AcDbSymbolTable
 70
2
  0
BLOCK_RECORD
  5
17
330
9
100
AcDbSymbolTableRecord
100
AcDbBlockTableRecord
  2
*Model_Space
340
1A
 70
0
280
1
281
0
  0
BLOCK_RECORD
  5
1B
330
9
100
AcDbSymbolTableRecord
100
AcDbBlockTableRecord
  2
*Paper_Space
340
1E
 70
0
280
1
281
0
  0
ENDTAB
  0
ENDSEC
  0
SECTION
  2
BLOCKS
  0
BLOCK
  5
18
330
17
100
AcDbEntity
  8
0
100
AcDbBlockBegin
  2
*Model_Space
 70
0
 10
0.0
 20
0.0
 30
0.0
  3
*Model_Space
  1

  0
ENDBLK
  5
19
330
17
100
AcDbEntity
  8
0
100
AcDbBlockEnd
  0
BLOCK
  5
1C
330
1B
100
AcDbEntity
  8
0
100
AcDbBlockBegin
  2
*Paper_Space
 70
0
 10
0.0
 20
0.0
 30
0.0
  3
*Paper_Space
  1

  0
ENDBLK
  5
1D
330
1B
100
AcDbEntity
  8
0
100
AcDbBlockEnd
  0
ENDSEC
  0
SECTION
  2
ENTITIES
  0
LWPOLYLINE
  5
39
330
17
100
AcDbEntity
  8
CASEWORK-SINKS
 62
5
100
AcDbPolyline
 90
5
 70
0
 10
0.0
 20
0.0
 10
30.0
 20
0.0
 10
30.0
 20
40.4
 10
0.0
 20
40.4
 10
0.0
 20
0.0
  0
LINE
  5
3A
330
17
100
AcDbEntity
  8
CASEWORK-SINKS
 62
5
100
AcDbLine
 10
0.0
 20
4.0
 30
0.0
 11
30.0
 21
4.0
 31
0.0
  0
LINE
  5
3B
330
17
100
AcDbEntity
  8
CASEWORK-SINKS
 62
5
100
AcDbLine
 10
0.0
 20
11.28
 30
0.0
 11
30.0
 21
11.28
 31
0.0
  0
CIRCLE
  5
3C
330
17
100
AcDbEntity
  8
CASEWORK-SINKS
 62
5
100
AcDbCircle
 10
15.0
 20
7.64
 30
0.0
 40
0.5
  0
LINE
  5
3D
330
17
100
AcDbEntity
  8
CASEWORK-SINKS
 62
5
100
AcDbLine
 10
0.0
 20
18.56
 30
0.0
 11
30.0
 21
18.56
 31
0.0
  0
CIRCLE
  5
3E
330
17
100
AcDbEntity
  8
CASEWORK-SINKS
 62
5
100
AcDbCircle
 10
15.0
 20
14.919999999999998
 30
0.0
 40
0.5
  0
LINE
  5
3F
330
17
100
AcDbEntity
  8
CASEWORK-SINKS
 62
5
100
AcDbLine
 10
0.0
 20
25.839999999999996
 30
0.0
 11
30.0
 21
25.839999999999996
 31
0.0
  0
CIRCLE
  5
40
330
17
100
AcDbEntity
  8
CASEWORK-SINKS
 62
5
100
AcDbCircle
 10
15.0
 20
22.199999999999996
 30
0.0
 40
0.5
  0
LINE
  5
41
330
17
100
AcDbEntity
  8
CASEWORK-SINKS
 62
5
100
AcDbLine
 10
0.0
 20
33.12
 30
0.0
 11
30.0
 21
33.12
 31
0.0
  0
CIRCLE
  5
42
330
17
100
AcDbEntity
  8
CASEWORK-SINKS
 62
5
100
AcDbCircle
 10
15.0
 20
29.479999999999997
 30
0.0
 40
0.5
  0
LWPOLYLINE
  5
43
330
17
100
AcDbEntity
  8
CASEWORK-CABINETS
 62
7
100
AcDbPolyline
 90
5
 70
0
 10
30.0
 20
0.0
 10
37.0
 20
0.0
 10
37.0
 20
40.4
 10
30.0
 20
40.4
 10
30.0
 20
0.0
  0
LINE
  5
44
330
17
100
AcDbEntity
  8
CASEWORK-CABINETS
 62
7
100
AcDbLine
 10
30.0
 20
4.0
 30
0.0
 11
37.0
 21
4.0
 31
0.0
  0
CIRCLE
  5
45
330
17
100
AcDbEntity
  8
CASEWORK-CABINETS
 62
7
100
AcDbCircle
 10
34.0
 20
24.24
 30
0.0
 40
0.5
  0
LWPOLYLINE
  5
46
330
17
100
AcDbEntity
  8
CASEWORK-CABINETS
 62
7
100
AcDbPolyline
 90
5
 70
0
 10
37.0
 20
0.0
 10
49.0
 20
0.0
 10
49.0
 20
40.4
 10
37.0
 20
40.4
 10
37.0
 20
0.0
  0
LINE
  5
47
330
17
100
AcDbEntity
  8
CASEWORK-CABINETS
 62
7
100
AcDbLine
 10
37.0
 20
4.0
 30
0.0
 11
49.0
 21
4.0
 31
0.0
  0
LINE
  5
48
330
17
100
AcDbEntity
  8
CASEWORK-CABINETS
 62
7
100
AcDbLine
 10
37.0
 20
9.2
 30
0.0
 11
49.0
 21
9.2
 31
0.0
  0
CIRCLE
  5
49
330
17
100
AcDbEntity
  8
CASEWORK-CABINETS
 62
7
100
AcDbCircle
 10
43.0
 20
6.6
 30
0.0
 40
0.5
  0
LINE
  5
4A
330
17
100
AcDbEntity
  8
CASEWORK-CABINETS
 62
7
100
AcDbLine
 10
37.0
 20
14.4
 30
0.0
 11
49.0
 21
14.4
 31
0.0
  0
CIRCLE
  5
4B
330
17
100
AcDbEntity
  8
CASEWORK-CABINETS
 62
7
100
AcDbCircle
 10
43.0
 20
11.8
 30
0.0
 40
0.5
  0
LINE
  5
4C
330
17
100
AcDbEntity
  8
CASEWORK-CABINETS
 62
7
100
AcDbLine
 10
37.0
 20
19.6
 30
0.0
 11
49.0
 21
19.6
 31
0.0
  0
CIRCLE
  5
4D
330
17
100
AcDbEntity
  8
CASEWORK-CABINETS
 62
7
100
AcDbCircle
 10
43.0
 20
17.0
 30
0.0
 40
0.5
  0
LINE
  5
4E
330
17
100
AcDbEntity
  8
CASEWORK-CABINETS
 62
7
100
AcDbLine
 10
37.0
 20
24.8
 30
0.0
 11
49.0
 21
24.8
 31
0.0
  0
CIRCLE
  5
4F
330
17
100
AcDbEntity
  8
CASEWORK-CABINETS
 62
7
100
AcDbCircle
 10
43.0
 20
22.2
 30
0.0
 40
0.5
  0
LINE
  5
50
330
17
100
AcDbEntity
  8
CASEWORK-CABINETS
 62
7
100
AcDbLine
 10
37.0
 20
30.0
 30
0.0
 11
49.0
 21
30.0
 31
0.0
  0
CIRCLE
  5
51
330
17
100
AcDbEntity
  8
CASEWORK-CABINETS
 62
7
100
AcDbCircle
 10
43.0
 20
27.4
 30
0.0
 40
0.5
  0
LINE
  5
52
330
17
100
AcDbEntity
  8
CASEWORK-CABINETS
 62
7
100
AcDbLine
 10
37.0
 20
35.2
 30
0.0
 11
49.0
 21
35.2
 31
0.0
  0
CIRCLE
  5
53
330
17
100
AcDbEntity
  8
CASEWORK-CABINETS
 62
7
100
AcDbCircle
 10
43.0
 20
32.6
 30
0.0
 40
0.5
  0
LWPOLYLINE
  5
54
330
17
100
AcDbEntity
  8
CASEWORK-SINKS
 62
5
100
AcDbPolyline
 90
5
 70
0
 10
49.0
 20
0.0
 10
79.0
 20
0.0
 10
79.0
 20
40.4
 10
49.0
 20
40.4
 10
49.0
 20
0.0
  0
LINE
  5
55
330
17
100
AcDbEntity
  8
CASEWORK-SINKS
 62
5
100
AcDbLine
 10
49.0
 20
4.0
 30
0.0
 11
79.0
 21
4.0
 31
0.0
  0
LINE
  5
56
330
17
100
AcDbEntity
  8
CASEWORK-SINKS
 62
5
100
AcDbLine
 10
49.0
 20
11.28
 30
0.0
 11
79.0
 21
11.28
 31
0.0
  0
CIRCLE
  5
57
330
17
100
AcDbEntity
  8
CASEWORK-SINKS
 62
5
100
AcDbCircle
 10
64.0
 20
7.64
 30
0.0
 40
0.5
  0
LINE
  5
58
330
17
100
AcDbEntity
  8
CASEWORK-SINKS
 62
5
100
AcDbLine
 10
49.0
 20
18.56
 30
0.0
 11
79.0
 21
18.56
 31
0.0
  0
CIRCLE
  5
59
330
17
100
AcDbEntity
  8
CASEWORK-SINKS
 62
5
100
AcDbCircle
 10
64.0
 20
14.919999999999998
 30
0.0
 40
0.5
  0
LINE
  5
5A
330
17
100
AcDbEntity
  8
CASEWORK-SINKS
 62
5
100
AcDbLine
 10
49.0
 20
25.839999999999996
 30
0.0
 11
79.0
 21
25.839999999999996
 31
0.0
  0
CIRCLE
  5
5B
330
17
100
AcDbEntity
  8
CASEWORK-SINKS
 62
5
100
AcDbCircle
 10
64.0
 20
22.199999999999996
 30
0.0
 40
0.5
  0
LINE
  5
5C
330
17
100
AcDbEntity
  8
CASEWORK-SINKS
 62
5
100
AcDbLine
 10
49.0
 20
33.12
 30
0.0
 11
79.0
 21
33.12
 31
0.0
  0
CIRCLE
  5
5D
330
17
100
AcDbEntity
  8
CASEWORK-SINKS
 62
5
100
AcDbCircle
 10
64.0
 20
29.479999999999997
 30
0.0
 40
0.5
  0
LWPOLYLINE
  5
5E
330
17
100
AcDbEntity
  8
CASEWORK-SINKS
 62
5
100
AcDbPolyline
 90
5
 70
0
 10
79.0
 20
0.0
 10
91.0
 20
0.0
 10
91.0
 20
40.4
 10
79.0
 20
40.4
 10
79.0
 20
0.0
  0
LINE
  5
5F
330
17
100
AcDbEntity
  8
CASEWORK-SINKS
 62
5
100
AcDbLine
 10
79.0
 20
4.0
 30
0.0
 11
91.0
 21
4.0
 31
0.0
  0
LINE
  5
60
330
17
100
AcDbEntity
  8
CASEWORK-SINKS
 62
5
100
AcDbLine
 10
79.0
 20
8.55
 30
0.0
 11
91.0
 21
8.55
 31
0.0
  0
CIRCLE
  5
61
330
17
100
AcDbEntity
  8
CASEWORK-SINKS
 62
5
100
AcDbCircle
 10
85.0
 20
6.275
 30
0.0
 40
0.5
  0
LINE
  5
62
330
17
100
AcDbEntity
  8
CASEWORK-SINKS
 62
5
100
AcDbLine
 10
79.0
 20
13.1
 30
0.0
 11
91.0
 21
13.1
 31
0.0
  0
CIRCLE
  5
63
330
17
100
AcDbEntity
  8
CASEWORK-SINKS
 62
5
100
AcDbCircle
 10
85.0
 20
10.825
 30
0.0
 40
0.5
  0
LINE
  5
64
330
17
100
AcDbEntity
  8
CASEWORK-SINKS
 62
5
100
AcDbLine
 10
79.0
 20
17.65
 30
0.0
 11
91.0
 21
17.65
 31
0.0
  0
CIRCLE
  5
65
330
17
100
AcDbEntity
  8
CASEWORK-SINKS
 62
5
100
AcDbCircle
 10
85.0
 20
15.374999999999998
 30
0.0
 40
0.5
  0
LINE
  5
66
330
17
100
AcDbEntity
  8
CASEWORK-SINKS
 62
5
100
AcDbLine
 10
79.0
 20
22.2
 30
0.0
 11
91.0
 21
22.2
 31
0.0
  0
CIRCLE
  5
67
330
17
100
AcDbEntity
  8
CASEWORK-SINKS
 62
5
100
AcDbCircle
 10
85.0
 20
19.925
 30
0.0
 40
0.5
  0
LINE
  5
68
330
17
100
AcDbEntity
  8
CASEWORK-SINKS
 62
5
100
AcDbLine
 10
79.0
 20
26.75
 30
0.0
 11
91.0
 21
26.75
 31
0.0
  0
CIRCLE
  5
69
330
17
100
AcDbEntity
  8
CASEWORK-SINKS
 62
5
100
AcDbCircle
 10
85.0
 20
24.475
 30
0.0
 40
0.5
  0
LINE
  5
6A
330
17
100
AcDbEntity
  8
CASEWORK-SINKS
 62
5
100
AcDbLine
 10
79.0
 20
31.299999999999997
 30
0.0
 11
91.0
 21
31.299999999999997
 31
0.0
  0
CIRCLE
  5
6B
330
17
100
AcDbEntity
  8
CASEWORK-SINKS
 62
5
100
AcDbCircle
 10
85.0
 20
29.025
 30
0.0
 40
0.5
  0
LINE
  5
6C
330
17
100
AcDbEntity
  8
CASEWORK-SINKS
 62
5
100
AcDbLine
 10
79.0
 20
35.849999999999994
 30
0.0
 11
91.0
 21
35.849999999999994
 31
0.0
  0
CIRCLE
  5
6D
330
17
100
AcDbEntity
  8
CASEWORK-SINKS
 62
5
100
AcDbCircle
 10
85.0
 20
33.574999999999996
 30
0.0
 40
0.5
  0
LWPOLYLINE
  5
6E
330
17
100
AcDbEntity
  8
CASEWORK-SINKS
 62
5
100
AcDbPolyline
 90
5
 70
0
 10
91.0
 20
0.0
 10
109.0
 20
0.0
 10
109.0
 20
40.4
 10
91.0
 20
40.4
 10
91.0
 20
0.0
  0
LINE
  5
6F
330
17
100
AcDbEntity
  8
CASEWORK-SINKS
 62
5
100
AcDbLine
 10
91.0
 20
4.0
 30
0.0
 11
109.0
 21
4.0
 31
0.0
  0
LINE
  5
70
330
17
100
AcDbEntity
  8
CASEWORK-SINKS
 62
5
100
AcDbLine
 10
91.0
 20
9.2
 30
0.0
 11
109.0
 21
9.2
 31
0.0
  0
CIRCLE
  5
71
330
17
100
AcDbEntity
  8
CASEWORK-SINKS
 62
5
100
AcDbCircle
 10
100.0
 20
6.6
 30
0.0
 40
0.5
  0
LINE
  5
72
330
17
100
AcDbEntity
  8
CASEWORK-SINKS
 62
5
100
AcDbLine
 10
91.0
 20
14.4
 30
0.0
 11
109.0
 21
14.4
 31
0.0
  0
CIRCLE
  5
73
330
17
100
AcDbEntity
  8
CASEWORK-SINKS
 62
5
100
AcDbCircle
 10
100.0
 20
11.8
 30
0.0
 40
0.5
  0
LINE
  5
74
330
17
100
AcDbEntity
  8
CASEWORK-SINKS
 62
5
100
AcDbLine
 10
91.0
 20
19.6
 30
0.0
 11
109.0
 21
19.6
 31
0.0
  0
CIRCLE
  5
75
330
17
100
AcDbEntity
  8
CASEWORK-SINKS
 62
5
100
AcDbCircle
 10
100.0
 20
17.0
 30
0.0
 40
0.5
  0
LINE
  5
76
330
17
100
AcDbEntity
  8
CASEWORK-SINKS
 62
5
100
AcDbLine
 10
91.0
 20
24.8
 30
0.0
 11
109.0
 21
24.8
 31
0.0
  0
CIRCLE
  5
77
330
17
100
AcDbEntity
  8
CASEWORK-SINKS
 62
5
100
AcDbCircle
 10
100.0
 20
22.2
 30
0.0
 40
0.5
  0
LINE
  5
78
330
17
100
AcDbEntity
  8
CASEWORK-SINKS
 62
5
100
AcDbLine
 10
91.0
 20
30.0
 30
0.0
 11
109.0
 21
30.0
 31
0.0
  0
CIRCLE
  5
79
330
17
100
AcDbEntity
  8
CASEWORK-SINKS
 62
5
100
AcDbCircle
 10
100.0
 20
27.4
 30
0.0
 40
0.5
  0
LINE
  5
7A
330
17
100
AcDbEntity
  8
CASEWORK-SINKS
 62
5
100
AcDbLine
 10
91.0
 20
35.2
 30
0.0
 11
109.0
 21
35.2
 31
0.0
  0
CIRCLE
  5
7B
330
17
100
AcDbEntity
  8
CASEWORK-SINKS
 62
5
100
AcDbCircle
 10
100.0
 20
32.6
 30
0.0
 40
0.5
  0
LWPOLYLINE
  5
7C
330
17
100
AcDbEntity
  8
CASEWORK-SINKS
 62
5
100
AcDbPolyline
 90
5
 70
0
 10
109.0
 20
0.0
 10
130.0
 20
0.0
 10
130.0
 20
40.4
 10
109.0
 20
40.4
 10
109.0
 20
0.0
  0
LINE
  5
7D
330
17
100
AcDbEntity
  8
CASEWORK-SINKS
 62
5
100
AcDbLine
 10
109.0
 20
4.0
 30
0.0
 11
130.0
 21
4.0
 31
0.0
  0
LINE
  5
7E
330
17
100
AcDbEntity
  8
CASEWORK-SINKS
 62
5
100
AcDbLine
 10
109.0
 20
10.066666666666666
 30
0.0
 11
130.0
 21
10.066666666666666
 31
0.0
  0
CIRCLE
  5
7F
330
17
100
AcDbEntity
  8
CASEWORK-SINKS
 62
5
100
AcDbCircle
 10
119.5
 20
7.033333333333333
 30
0.0
 40
0.5
  0
LINE
  5
80
330
17
100
AcDbEntity
  8
CASEWORK-SINKS
 62
5
100
AcDbLine
 10
109.0
 20
16.133333333333333
 30
0.0
 11
130.0
 21
16.133333333333333
 31
0.0
  0
CIRCLE
  5
81
330
17
100
AcDbEntity
  8
CASEWORK-SINKS
 62
5
100
AcDbCircle
 10
119.5
 20
13.1
 30
0.0
 40
0.5
  0
LINE
  5
82
330
17
100
AcDbEntity
  8
CASEWORK-SINKS
 62
5
100
AcDbLine
 10
109.0
 20
22.2
 30
0.0
 11
130.0
 21
22.2
 31
0.0
  0
CIRCLE
  5
83
330
17
100
AcDbEntity
  8
CASEWORK-SINKS
 62
5
100
AcDbCircle
 10
119.5
 20
19.166666666666664
 30
0.0
 40
0.5
  0
LINE
  5
84
330
17
100
AcDbEntity
  8
CASEWORK-SINKS
 62
5
100
AcDbLine
 10
109.0
 20
28.266666666666666
 30
0.0
 11
130.0
 21
28.266666666666666
 31
0.0
  0
CIRCLE
  5
85
330
17
100
AcDbEntity
  8
CASEWORK-SINKS
 62
5
100
AcDbCircle
 10
119.5
 20
25.233333333333334
 30
0.0
 40
0.5
  0
LINE
  5
86
330
17
100
AcDbEntity
  8
CASEWORK-SINKS
 62
5
100
AcDbLine
 10
109.0
 20
34.33333333333333
 30
0.0
 11
130.0
 21
34.33333333333333
 31
0.0
  0
CIRCLE
  5
87
330
17
100
AcDbEntity
  8
CASEWORK-SINKS
 62
5
100
AcDbCircle
 10
119.5
 20
31.299999999999997
 30
0.0
 40
0.5
  0
LWPOLYLINE
  5
88
330
17
100
AcDbEntity
  8
CASEWORK-CABINETS
 62
7
100
AcDbPolyline
 90
5
 70
0
 10
130.0
 20
0.0
 10
148.0
 20
0.0
 10
148.0
 20
40.4
 10
130.0
 20
40.4
 10
130.0
 20
0.0
  0
LINE
  5
89
330
17
100
AcDbEntity
  8
CASEWORK-CABINETS
 62
7
100
AcDbLine
 10
130.0
 20
4.0
 30
0.0
 11
148.0
 21
4.0
 31
0.0
  0
LINE
  5
8A
330
17
100
AcDbEntity
  8
CASEWORK-CABINETS
 62
7
100
AcDbLine
 10
130.0
 20
10.066666666666666
 30
0.0
 11
148.0
 21
10.066666666666666
 31
0.0
  0
CIRCLE
  5
8B
330
17
100
AcDbEntity
  8
CASEWORK-CABINETS
 62
7
100
AcDbCircle
 10
139.0
 20
7.033333333333333
 30
0.0
 40
0.5
  0
LINE
  5
8C
330
17
100
AcDbEntity
  8
CASEWORK-CABINETS
 62
7
100
AcDbLine
 10
130.0
 20
16.133333333333333
 30
0.0
 11
148.0
 21
16.133333333333333
 31
0.0
  0
CIRCLE
  5
8D
330
17
100
AcDbEntity
  8
CASEWORK-CABINETS
 62
7
100
AcDbCircle
 10
139.0
 20
13.1
 30
0.0
 40
0.5
  0
LINE
  5
8E
330
17
100
AcDbEntity
  8
CASEWORK-CABINETS
 62
7
100
AcDbLine
 10
130.0
 20
22.2
 30
0.0
 11
148.0
 21
22.2
 31
0.0
  0
CIRCLE
  5
8F
330
17
100
AcDbEntity
  8
CASEWORK-CABINETS
 62
7
100
AcDbCircle
 10
139.0
 20
19.166666666666664
 30
0.0
 40
0.5
  0
LINE
  5
90
330
17
100
AcDbEntity
  8
CASEWORK-CABINETS
 62
7
100
AcDbLine
 10
130.0
 20
28.266666666666666
 30
0.0
 11
148.0
 21
28.266666666666666
 31
0.0
  0
CIRCLE
  5
91
330
17
100
AcDbEntity
  8
CASEWORK-CABINETS
 62
7
100
AcDbCircle
 10
139.0
 20
25.233333333333334
 30
0.0
 40
0.5
  0
LINE
  5
92
330
17
100
AcDbEntity
  8
CASEWORK-CABINETS
 62
7
100
AcDbLine
 10
130.0
 20
34.33333333333333
 30
0.0
 11
148.0
 21
34.33333333333333
 31
0.0
  0
CIRCLE
  5
93
330
17
100
AcDbEntity
  8
CASEWORK-CABINETS
 62
7
100
AcDbCircle
 10
139.0
 20
31.299999999999997
 30
0.0
 40
0.5
  0
LWPOLYLINE
  5
94
330
17
100
AcDbEntity
  8
CASEWORK-SINKS
 62
5
100
AcDbPolyline
 90
5
 70
0
 10
148.0
 20
0.0
 10
184.0
 20
0.0
 10
184.0
 20
40.4
 10
148.0
 20
40.4
 10
148.0
 20
0.0
  0
LINE
  5
95
330
17
100
AcDbEntity
  8
CASEWORK-SINKS
 62
5
100
AcDbLine
 10
148.0
 20
4.0
 30
0.0
 11
184.0
 21
4.0
 31
0.0
  0
LINE
  5
96
330
17
100
AcDbEntity
  8
CASEWORK-SINKS
 62
5
100
AcDbLine
 10
148.0
 20
8.55
 30
0.0
 11
184.0
 21
8.55
 31
0.0
  0
CIRCLE
  5
97
330
17
100
AcDbEntity
  8
CASEWORK-SINKS
 62
5
100
AcDbCircle
 10
166.0
 20
6.275
 30
0.0
 40
0.5
  0
LINE
  5
98
330
17
100
AcDbEntity
  8
CASEWORK-SINKS
 62
5
100
AcDbLine
 10
148.0
 20
13.1
 30
0.0
 11
184.0
 21
13.1
 31
0.0
  0
CIRCLE
  5
99
330
17
100
AcDbEntity
  8
CASEWORK-SINKS
 62
5
100
AcDbCircle
 10
166.0
 20
10.825
 30
0.0
 40
0.5
  0
LINE
  5
9A
330
17
100
AcDbEntity
  8
CASEWORK-SINKS
 62
5
100
AcDbLine
 10
148.0
 20
17.65
 30
0.0
 11
184.0
 21
17.65
 31
0.0
  0
CIRCLE
  5
9B
330
17
100
AcDbEntity
  8
CASEWORK-SINKS
 62
5
100
AcDbCircle
 10
166.0
 20
15.374999999999998
 30
0.0
 40
0.5
  0
LINE
  5
9C
330
17
100
AcDbEntity
  8
CASEWORK-SINKS
 62
5
100
AcDbLine
 10
148.0
 20
22.2
 30
0.0
 11
184.0
 21
22.2
 31
0.0
  0
CIRCLE
  5
9D
330
17
100
AcDbEntity
  8
CASEWORK-SINKS
 62
5
100
AcDbCircle
 10
166.0
 20
19.925
 30
0.0
 40
0.5
  0
LINE
  5
9E
330
17
100
AcDbEntity
  8
CASEWORK-SINKS
 62
5
100
AcDbLine
 10
148.0
 20
26.75
 30
0.0
 11
184.0
 21
26.75
 31
0.0
  0
CIRCLE
  5
9F
330
17
100
AcDbEntity
  8
CASEWORK-SINKS
 62
5
100
AcDbCircle
 10
166.0
 20
24.475
 30
0.0
 40
0.5
  0
LINE
  5
A0
330
17
100
AcDbEntity
  8
CASEWORK-SINKS
 62
5
100
AcDbLine
 10
148.0
 20
31.299999999999997
 30
0.0
 11
184.0
 21
31.299999999999997
 31
0.0
  0
CIRCLE
  5
A1
330
17
100
AcDbEntity
  8
CASEWORK-SINKS
 62
5
100
AcDbCircle
 10
166.0
 20
29.025
 30
0.0
 40
0.5
  0
LINE
  5
A2
330
17
100
AcDbEntity
  8
CASEWORK-SINKS
 62
5
100
AcDbLine
 10
148.0
 20
35.849999999999994
 30
0.0
 11
184.0
 21
35.849999999999994
 31
0.0
  0
CIRCLE
  5
A3
330
17
100
AcDbEntity
  8
CASEWORK-SINKS
 62
5
100
AcDbCircle
 10
166.0
 20
33.574999999999996
 30
0.0
 40
0.5
  0
LWPOLYLINE
  5
A4
330
17
100
AcDbEntity
  8
CASEWORK-SINKS
 62
5
100
AcDbPolyline
 90
5
 70
0
 10
184.0
 20
0.0
 10
199.0
 20
0.0
 10
199.0
 20
40.4
 10
184.0
 20
40.4
 10
184.0
 20
0.0
  0
LINE
  5
A5
330
17
100
AcDbEntity
  8
CASEWORK-SINKS
 62
5
100
AcDbLine
 10
184.0
 20
4.0
 30
0.0
 11
199.0
 21
4.0
 31
0.0
  0
LINE
  5
A6
330
17
100
AcDbEntity
  8
CASEWORK-SINKS
 62
5
100
AcDbLine
 10
184.0
 20
10.066666666666666
 30
0.0
 11
199.0
 21
10.066666666666666
 31
0.0
  0
CIRCLE
  5
A7
330
17
100
AcDbEntity
  8
CASEWORK-SINKS
 62
5
100
AcDbCircle
 10
191.5
 20
7.033333333333333
 30
0.0
 40
0.5
  0
LINE
  5
A8
330
17
100
AcDbEntity
  8
CASEWORK-SINKS
 62
5
100
AcDbLine
 10
184.0
 20
16.133333333333333
 30
0.0
 11
199.0
 21
16.133333333333333
 31
0.0
  0
CIRCLE
  5
A9
330
17
100
AcDbEntity
  8
CASEWORK-SINKS
 62
5
100
AcDbCircle
 10
191.5
 20
13.1
 30
0.0
 40
0.5
  0
LINE
  5
AA
330
17
100
AcDbEntity
  8
CASEWORK-SINKS
 62
5
100
AcDbLine
 10
184.0
 20
22.2
 30
0.0
 11
199.0
 21
22.2
 31
0.0
  0
CIRCLE
  5
AB
330
17
100
AcDbEntity
  8
CASEWORK-SINKS
 62
5
100
AcDbCircle
 10
191.5
 20
19.166666666666664
 30
0.0
 40
0.5
  0
LINE
  5
AC
330
17
100
AcDbEntity
  8
CASEWORK-SINKS
 62
5
100
AcDbLine
 10
184.0
 20
28.266666666666666
 30
0.0
 11
199.0
 21
28.266666666666666
 31
0.0
  0
CIRCLE
  5
AD
330
17
100
AcDbEntity
  8
CASEWORK-SINKS
 62
5
100
AcDbCircle
 10
191.5
 20
25.233333333333334
 30
0.0
 40
0.5
  0
LINE
  5
AE
330
17
100
AcDbEntity
  8
CASEWORK-SINKS
 62
5
100
AcDbLine
 10
184.0
 20
34.33333333333333
 30
0.0
 11
199.0
 21
34.33333333333333
 31
0.0
  0
CIRCLE
  5
AF
330
17
100
AcDbEntity
  8
CASEWORK-SINKS
 62
5
100
AcDbCircle
 10
191.5
 20
31.299999999999997
 30
0.0
 40
0.5
  0
LWPOLYLINE
  5
B0
330
17
100
AcDbEntity
  8
CASEWORK-SINKS
 62
5
100
AcDbPolyline
 90
5
 70
0
 10
199.0
 20
0.0
 10
214.0
 20
0.0
 10
214.0
 20
31.4
 10
199.0
 20
31.4
 10
199.0
 20
0.0
  0
LINE
  5
B1
330
17
100
AcDbEntity
  8
CASEWORK-SINKS
 62
5
100
AcDbLine
 10
199.0
 20
4.0
 30
0.0
 11
214.0
 21
4.0
 31
0.0
  0
LINE
  5
B2
330
17
100
AcDbEntity
  8
CASEWORK-SINKS
 62
5
100
AcDbLine
 10
199.0
 20
5.7125
 30
0.0
 11
214.0
 21
5.7125
 31
0.0
  0
CIRCLE
  5
B3
330
17
100
AcDbEntity
  8
CASEWORK-SINKS
 62
5
100
AcDbCircle
 10
206.5
 20
4.85625
 30
0.0
 40
0.5
  0
LINE
  5
B4
330
17
100
AcDbEntity
  8
CASEWORK-SINKS
 62
5
100
AcDbLine
 10
199.0
 20
7.425
 30
0.0
 11
214.0
 21
7.425
 31
0.0
  0
CIRCLE
  5
B5
330
17
100
AcDbEntity
  8
CASEWORK-SINKS
 62
5
100
AcDbCircle
 10
206.5
 20
6.56875
 30
0.0
 40
0.5
  0
LINE
  5
B6
330
17
100
AcDbEntity
  8
CASEWORK-SINKS
 62
5
100
AcDbLine
 10
199.0
 20
9.1375
 30
0.0
 11
214.0
 21
9.1375
 31
0.0
  0
CIRCLE
  5
B7
330
17
100
AcDbEntity
  8
CASEWORK-SINKS
 62
5
100
AcDbCircle
 10
206.5
 20
8.28125
 30
0.0
 40
0.5
  0
LINE
  5
B8
330
17
100
AcDbEntity
  8
CASEWORK-SINKS
 62
5
100
AcDbLine
 10
199.0
 20
10.85
 30
0.0
 11
214.0
 21
10.85
 31
0.0
  0
CIRCLE
  5
B9
330
17
100
AcDbEntity
  8
CASEWORK-SINKS
 62
5
100
AcDbCircle
 10
206.5
 20
9.99375
 30
0.0
 40
0.5
  0
LINE
  5
BA
330
17
100
AcDbEntity
  8
CASEWORK-SINKS
 62
5
100
AcDbLine
 10
199.0
 20
12.5625
 30
0.0
 11
214.0
 21
12.5625
 31
0.0
  0
CIRCLE
  5
BB
330
17
100
AcDbEntity
  8
CASEWORK-SINKS
 62
5
100
AcDbCircle
 10
206.5
 20
11.70625
 30
0.0
 40
0.5
  0
LINE
  5
BC
330
17
100
AcDbEntity
  8
CASEWORK-SINKS
 62
5
100
AcDbLine
 10
199.0
 20
14.274999999999999
 30
0.0
 11
214.0
 21
14.274999999999999
 31
0.0
  0
CIRCLE
  5
BD
330
17
100
AcDbEntity
  8
CASEWORK-SINKS
 62
5
100
AcDbCircle
 10
206.5
 20
13.41875
 30
0.0
 40
0.5
  0
LINE
  5
BE
330
17
100
AcDbEntity
  8
CASEWORK-SINKS
 62
5
100
AcDbLine
 10
199.0
 20
15.987499999999999
 30
0.0
 11
214.0
 21
15.987499999999999
 31
0.0
  0
CIRCLE
  5
BF
330
17
100
AcDbEntity
  8
CASEWORK-SINKS
 62
5
100
AcDbCircle
 10
206.5
 20
15.13125
 30
0.0
 40
0.5
  0
LINE
  5
C0
330
17
100
AcDbEntity
  8
CASEWORK-SINKS
 62
5
100
AcDbLine
 10
199.0
 20
17.7
 30
0.0
 11
214.0
 21
17.7
 31
0.0
  0
CIRCLE
  5
C1
330
17
100
AcDbEntity
  8
CASEWORK-SINKS
 62
5
100
AcDbCircle
 10
206.5
 20
16.84375
 30
0.0
 40
0.5
  0
LINE
  5
C2
330
17
100
AcDbEntity
  8
CASEWORK-SINKS
 62
5
100
AcDbLine
 10
199.0
 20
19.4125
 30
0.0
 11
214.0
 21
19.4125
 31
0.0
  0
CIRCLE
  5
C3
330
17
100
AcDbEntity
  8
CASEWORK-SINKS
 62
5
100
AcDbCircle
 10
206.5
 20
18.556250000000002
 30
0.0
 40
0.5
  0
LINE
  5
C4
330
17
100
AcDbEntity
  8
CASEWORK-SINKS
 62
5
100
AcDbLine
 10
199.0
 20
21.125
 30
0.0
 11
214.0
 21
21.125
 31
0.0
  0
CIRCLE
  5
C5
330
17
100
AcDbEntity
  8
CASEWORK-SINKS
 62
5
100
AcDbCircle
 10
206.5
 20
20.26875
 30
0.0
 40
0.5
  0
LINE
  5
C6
330
17
100
AcDbEntity
  8
CASEWORK-SINKS
 62
5
100
AcDbLine
 10
199.0
 20
22.8375
 30
0.0
 11
214.0
 21
22.8375
 31
0.0
  0
CIRCLE
  5
C7
330
17
100
AcDbEntity
  8
CASEWORK-SINKS
 62
5
100
AcDbCircle
 10
206.5
 20
21.98125
 30
0.0
 40
0.5
  0
LINE
  5
C8
330
17
100
AcDbEntity
  8
CASEWORK-SINKS
 62
5
100
AcDbLine
 10
199.0
 20
24.549999999999997
 30
0.0
 11
214.0
 21
24.549999999999997
 31
0.0
  0
CIRCLE
  5
C9
330
17
100
AcDbEntity
  8
CASEWORK-SINKS
 62
5
100
AcDbCircle
 10
206.5
 20
23.693749999999998
 30
0.0
 40
0.5
  0
LINE
  5
CA
330
17
100
AcDbEntity
  8
CASEWORK-SINKS
 62
5
100
AcDbLine
 10
199.0
 20
26.2625
 30
0.0
 11
214.0
 21
26.2625
 31
0.0
  0
CIRCLE
  5
CB
330
17
100
AcDbEntity
  8
CASEWORK-SINKS
 62
5
100
AcDbCircle
 10
206.5
 20
25.40625
 30
0.0
 40
0.5
  0
LINE
  5
CC
330
17
100
AcDbEntity
  8
CASEWORK-SINKS
 62
5
100
AcDbLine
 10
199.0
 20
27.974999999999998
 30
0.0
 11
214.0
 21
27.974999999999998
 31
0.0
  0
CIRCLE
  5
CD
330
17
100
AcDbEntity
  8
CASEWORK-SINKS
 62
5
100
AcDbCircle
 10
206.5
 20
27.11875
 30
0.0
 40
0.5
  0
LINE
  5
CE
330
17
100
AcDbEntity
  8
CASEWORK-SINKS
 62
5
100
AcDbLine
 10
199.0
 20
29.6875
 30
0.0
 11
214.0
 21
29.6875
 31
0.0
  0
CIRCLE
  5
CF
330
17
100
AcDbEntity
  8
CASEWORK-SINKS
 62
5
100
AcDbCircle
 10
206.5
 20
28.83125
 30
0.0
 40
0.5
  0
LWPOLYLINE
  5
D0
330
17
100
AcDbEntity
  8
CASEWORK-CABINETS
 62
7
100
AcDbPolyline
 90
5
 70
0
 10
214.0
 20
0.0
 10
226.0
 20
0.0
 10
226.0
 20
38.0
 10
214.0
 20
38.0
 10
214.0
 20
0.0
  0
LINE
  5
D1
330
17
100
AcDbEntity
  8
CASEWORK-CABINETS
 62
7
100
AcDbLine
 10
214.0
 20
4.0
 30
0.0
 11
226.0
 21
4.0
 31
0.0
  0
LINE
  5
D2
330
17
100
AcDbEntity
  8
CASEWORK-CABINETS
 62
7
100
AcDbLine
 10
214.0
 20
7.777777777777778
 30
0.0
 11
226.0
 21
7.777777777777778
 31
0.0
  0
CIRCLE
  5
D3
330
17
100
AcDbEntity
  8
CASEWORK-CABINETS
 62
7
100
AcDbCircle
 10
220.0
 20
5.888888888888889
 30
0.0
 40
0.5
  0
LINE
  5
D4
330
17
100
AcDbEntity
  8
CASEWORK-CABINETS
 62
7
100
AcDbLine
 10
214.0
 20
11.555555555555555
 30
0.0
 11
226.0
 21
11.555555555555555
 31
0.0
  0
CIRCLE
  5
D5
330
17
100
AcDbEntity
  8
CASEWORK-CABINETS
 62
7
100
AcDbCircle
 10
220.0
 20
9.666666666666666
 30
0.0
 40
0.5
  0
LINE
  5
D6
330
17
100
AcDbEntity
  8
CASEWORK-CABINETS
 62
7
100
AcDbLine
 10
214.0
 20
15.333333333333332
 30
0.0
 11
226.0
 21
15.333333333333332
 31
0.0
  0
CIRCLE
  5
D7
330
17
100
AcDbEntity
  8
CASEWORK-CABINETS
 62
7
100
AcDbCircle
 10
220.0
 20
13.444444444444443
 30
0.0
 40
0.5
  0
LINE
  5
D8
330
17
100
AcDbEntity
  8
CASEWORK-CABINETS
 62
7
100
AcDbLine
 10
214.0
 20
19.11111111111111
 30
0.0
 11
226.0
 21
19.11111111111111
 31
0.0
  0
CIRCLE
  5
D9
330
17
100
AcDbEntity
  8
CASEWORK-CABINETS
 62
7
100
AcDbCircle
 10
220.0
 20
17.22222222222222
 30
0.0
 40
0.5
  0
LINE
  5
DA
330
17
100
AcDbEntity
  8
CASEWORK-CABINETS
 62
7
100
AcDbLine
 10
214.0
 20
22.88888888888889
 30
0.0
 11
226.0
 21
22.88888888888889
 31
0.0
  0
CIRCLE
  5
DB
330
17
100
AcDbEntity
  8
CASEWORK-CABINETS
 62
7
100
AcDbCircle
 10
220.0
 20
21.0
 30
0.0
 40
0.5
  0
LINE
  5
DC
330
17
100
AcDbEntity
  8
CASEWORK-CABINETS
 62
7
100
AcDbLine
 10
214.0
 20
26.666666666666664
 30
0.0
 11
226.0
 21
26.666666666666664
 31
0.0
  0
CIRCLE
  5
DD
330
17
100
AcDbEntity
  8
CASEWORK-CABINETS
 62
7
100
AcDbCircle
 10
220.0
 20
24.777777777777775
 30
0.0
 40
0.5
  0
LINE
  5
DE
330
17
100
AcDbEntity
  8
CASEWORK-CABINETS
 62
7
100
AcDbLine
 10
214.0
 20
30.444444444444443
 30
0.0
 11
226.0
 21
30.444444444444443
 31
0.0
  0
CIRCLE
  5
DF
330
17
100
AcDbEntity
  8
CASEWORK-CABINETS
 62
7
100
AcDbCircle
 10
220.0
 20
28.555555555555554
 30
0.0
 40
0.5
  0
LINE
  5
E0
330
17
100
AcDbEntity
  8
CASEWORK-CABINETS
 62
7
100
AcDbLine
 10
214.0
 20
34.22222222222222
 30
0.0
 11
226.0
 21
34.22222222222222
 31
0.0
  0
CIRCLE
  5
E1
330
17
100
AcDbEntity
  8
CASEWORK-CABINETS
 62
7
100
AcDbCircle
 10
220.0
 20
32.333333333333336
 30
0.0
 40
0.5
  0
LWPOLYLINE
  5
E2
330
17
100
AcDbEntity
  8
CASEWORK-CABINETS
 62
7
100
AcDbPolyline
 90
5
 70
0
 10
226.0
 20
0.0
 10
238.0
 20
0.0
 10
238.0
 20
38.0
 10
226.0
 20
38.0
 10
226.0
 20
0.0
  0
LINE
  5
E3
330
17
100
AcDbEntity
  8
CASEWORK-CABINETS
 62
7
100
AcDbLine
 10
226.0
 20
4.0
 30
0.0
 11
238.0
 21
4.0
 31
0.0
  0
LINE
  5
E4
330
17
100
AcDbEntity
  8
CASEWORK-CABINETS
 62
7
100
AcDbLine
 10
226.0
 20
8.25
 30
0.0
 11
238.0
 21
8.25
 31
0.0
  0
CIRCLE
  5
E5
330
17
100
AcDbEntity
  8
CASEWORK-CABINETS
 62
7
100
AcDbCircle
 10
232.0
 20
6.125
 30
0.0
 40
0.5
  0
LINE
  5
E6
330
17
100
AcDbEntity
  8
CASEWORK-CABINETS
 62
7
100
AcDbLine
 10
226.0
 20
12.5
 30
0.0
 11
238.0
 21
12.5
 31
0.0
  0
CIRCLE
  5
E7
330
17
100
AcDbEntity
  8
CASEWORK-CABINETS
 62
7
100
AcDbCircle
 10
232.0
 20
10.375
 30
0.0
 40
0.5
  0
LINE
  5
E8
330
17
100
AcDbEntity
  8
CASEWORK-CABINETS
 62
7
100
AcDbLine
 10
226.0
 20
16.75
 30
0.0
 11
238.0
 21
16.75
 31
0.0
  0
CIRCLE
  5
E9
330
17
100
AcDbEntity
  8
CASEWORK-CABINETS
 62
7
100
AcDbCircle
 10
232.0
 20
14.625
 30
0.0
 40
0.5
  0
LINE
  5
EA
330
17
100
AcDbEntity
  8
CASEWORK-CABINETS
 62
7
100
AcDbLine
 10
226.0
 20
21.0
 30
0.0
 11
238.0
 21
21.0
 31
0.0
  0
CIRCLE
  5
EB
330
17
100
AcDbEntity
  8
CASEWORK-CABINETS
 62
7
100
AcDbCircle
 10
232.0
 20
18.875
 30
0.0
 40
0.5
  0
LINE
  5
EC
330
17
100
AcDbEntity
  8
CASEWORK-CABINETS
 62
7
100
AcDbLine
 10
226.0
 20
25.25
 30
0.0
 11
238.0
 21
25.25
 31
0.0
  0
CIRCLE
  5
ED
330
17
100
AcDbEntity
  8
CASEWORK-CABINETS
 62
7
100
AcDbCircle
 10
232.0
 20
23.125
 30
0.0
 40
0.5
  0
LINE
  5
EE
330
17
100
AcDbEntity
  8
CASEWORK-CABINETS
 62
7
100
AcDbLine
 10
226.0
 20
29.5
 30
0.0
 11
238.0
 21
29.5
 31
0.0
  0
CIRCLE
  5
EF
330
17
100
AcDbEntity
  8
CASEWORK-CABINETS
 62
7
100
AcDbCircle
 10
232.0
 20
27.375
 30
0.0
 40
0.5
  0
LINE
  5
F0
330
17
100
AcDbEntity
  8
CASEWORK-CABINETS
 62
7
100
AcDbLine
 10
226.0
 20
33.75
 30
0.0
 11
238.0
 21
33.75
 31
0.0
  0
CIRCLE
  5
F1
330
17
100
AcDbEntity
  8
CASEWORK-CABINETS
 62
7
100
AcDbCircle
 10
232.0
 20
31.625
 30
0.0
 40
0.5
  0
LWPOLYLINE
  5
F2
330
17
100
AcDbEntity
  8
CASEWORK-CABINETS
 62
7
100
AcDbPolyline
 90
5
 70
0
 10
238.0
 20
0.0
 10
244.0
 20
0.0
 10
244.0
 20
38.0
 10
238.0
 20
38.0
 10
238.0
 20
0.0
  0
LINE
  5
F3
330
17
100
AcDbEntity
  8
CASEWORK-CABINETS
 62
7
100
AcDbLine
 10
238.0
 20
4.0
 30
0.0
 11
244.0
 21
4.0
 31
0.0
  0
LINE
  5
F4
330
17
100
AcDbEntity
  8
CASEWORK-CABINETS
 62
7
100
AcDbLine
 10
238.0
 20
7.090909090909091
 30
0.0
 11
244.0
 21
7.090909090909091
 31
0.0
  0
CIRCLE
  5
F5
330
17
100
AcDbEntity
  8
CASEWORK-CABINETS
 62
7
100
AcDbCircle
 10
241.0
 20
5.545454545454545
 30
0.0
 40
0.5
  0
LINE
  5
F6
330
17
100
AcDbEntity
  8
CASEWORK-CABINETS
 62
7
100
AcDbLine
 10
238.0
 20
10.181818181818182
 30
0.0
 11
244.0
 21
10.181818181818182
 31
0.0
  0
CIRCLE
  5
F7
330
17
100
AcDbEntity
  8
CASEWORK-CABINETS
 62
7
100
AcDbCircle
 10
241.0
 20
8.636363636363637
 30
0.0
 40
0.5
  0
LINE
  5
F8
330
17
100
AcDbEntity
  8
CASEWORK-CABINETS
 62
7
100
AcDbLine
 10
238.0
 20
13.272727272727273
 30
0.0
 11
244.0
 21
13.272727272727273
 31
0.0
  0
CIRCLE
  5
F9
330
17
100
AcDbEntity
  8
CASEWORK-CABINETS
 62
7
100
AcDbCircle
 10
241.0
 20
11.727272727272728
 30
0.0
 40
0.5
  0
LINE
  5
FA
330
17
100
AcDbEntity
  8
CASEWORK-CABINETS
 62
7
100
AcDbLine
 10
238.0
 20
16.363636363636363
 30
0.0
 11
244.0
 21
16.363636363636363
 31
0.0
  0
CIRCLE
  5
FB
330
17
100
AcDbEntity
  8
CASEWORK-CABINETS
 62
7
100
AcDbCircle
 10
241.0
 20
14.818181818181818
 30
0.0
 40
0.5
  0
LINE
  5
FC
330
17
100
AcDbEntity
  8
CASEWORK-CABINETS
 62
7
100
AcDbLine
 10
238.0
 20
19.454545454545453
 30
0.0
 11
244.0
 21
19.454545454545453
 31
0.0
  0
CIRCLE
  5
FD
330
17
100
AcDbEntity
  8
CASEWORK-CABINETS
 62
7
100
AcDbCircle
 10
241.0
 20
17.909090909090907
 30
0.0
 40
0.5
  0
LINE
  5
FE
330
17
100
AcDbEntity
  8
CASEWORK-CABINETS
 62
7
100
AcDbLine
 10
238.0
 20
22.545454545454547
 30
0.0
 11
244.0
 21
22.545454545454547
 31
0.0
  0
CIRCLE
  5
FF
330
17
100
AcDbEntity
  8
CASEWORK-CABINETS
 62
7
100
AcDbCircle
 10
241.0
 20
21.0
 30
0.0
 40
0.5
  0
LINE
  5
100
330
17
100
AcDbEntity
  8
CASEWORK-CABINETS
 62
7
100
AcDbLine
 10
238.0
 20
25.636363636363637
 30
0.0
 11
244.0
 21
25.636363636363637
 31
0.0
  0
CIRCLE
  5
101
330
17
100
AcDbEntity
  8
CASEWORK-CABINETS
 62
7
100
AcDbCircle
 10
241.0
 20
24.09090909090909
 30
0.0
 40
0.5
  0
LINE
  5
102
330
17
100
AcDbEntity
  8
CASEWORK-CABINETS
 62
7
100
AcDbLine
 10
238.0
 20
28.727272727272727
 30
0.0
 11
244.0
 21
28.727272727272727
 31
0.0
  0
CIRCLE
  5
103
330
17
100
AcDbEntity
  8
CASEWORK-CABINETS
 62
7
100
AcDbCircle
 10
241.0
 20
27.18181818181818
 30
0.0
 40
0.5
  0
LINE
  5
104
330
17
100
AcDbEntity
  8
CASEWORK-CABINETS
 62
7
100
AcDbLine
 10
238.0
 20
31.818181818181817
 30
0.0
 11
244.0
 21
31.818181818181817
 31
0.0
  0
CIRCLE
  5
105
330
17
100
AcDbEntity
  8
CASEWORK-CABINETS
 62
7
100
AcDbCircle
 10
241.0
 20
30.27272727272727
 30
0.0
 40
0.5
  0
LINE
  5
106
330
17
100
AcDbEntity
  8
CASEWORK-CABINETS
 62
7
100
AcDbLine
 10
238.0
 20
34.90909090909091
 30
0.0
 11
244.0
 21
34.90909090909091
 31
0.0
  0
CIRCLE
  5
107
330
17
100
AcDbEntity
  8
CASEWORK-CABINETS
 62
7
100
AcDbCircle
 10
241.0
 20
33.36363636363636
 30
0.0
 40
0.5
  0
LWPOLYLINE
  5
108
330
17
100
AcDbEntity
  8
CASEWORK-SINKS
 62
5
100
AcDbPolyline
 90
5
 70
0
 10
244.0
 20
0.0
 10
256.0
 20
0.0
 10
256.0
 20
38.0
 10
244.0
 20
38.0
 10
244.0
 20
0.0
  0
LINE
  5
109
330
17
100
AcDbEntity
  8
CASEWORK-SINKS
 62
5
100
AcDbLine
 10
244.0
 20
4.0
 30
0.0
 11
256.0
 21
4.0
 31
0.0
  0
LINE
  5
10A
330
17
100
AcDbEntity
  8
CASEWORK-SINKS
 62
5
100
AcDbLine
 10
244.0
 20
6.125
 30
0.0
 11
256.0
 21
6.125
 31
0.0
  0
CIRCLE
  5
10B
330
17
100
AcDbEntity
  8
CASEWORK-SINKS
 62
5
100
AcDbCircle
 10
250.0
 20
5.0625
 30
0.0
 40
0.5
  0
LINE
  5
10C
330
17
100
AcDbEntity
  8
CASEWORK-SINKS
 62
5
100
AcDbLine
 10
244.0
 20
8.25
 30
0.0
 11
256.0
 21
8.25
 31
0.0
  0
CIRCLE
  5
10D
330
17
100
AcDbEntity
  8
CASEWORK-SINKS
 62
5
100
AcDbCircle
 10
250.0
 20
7.1875
 30
0.0
 40
0.5
  0
LINE
  5
10E
330
17
100
AcDbEntity
  8
CASEWORK-SINKS
 62
5
100
AcDbLine
 10
244.0
 20
10.375
 30
0.0
 11
256.0
 21
10.375
 31
0.0
  0
CIRCLE
  5
10F
330
17
100
AcDbEntity
  8
CASEWORK-SINKS
 62
5
100
AcDbCircle
 10
250.0
 20
9.3125
 30
0.0
 40
0.5
  0
LINE
  5
110
330
17
100
AcDbEntity
  8
CASEWORK-SINKS
 62
5
100
AcDbLine
 10
244.0
 20
12.5
 30
0.0
 11
256.0
 21
12.5
 31
0.0
  0
CIRCLE
  5
111
330
17
100
AcDbEntity
  8
CASEWORK-SINKS
 62
5
100
AcDbCircle
 10
250.0
 20
11.4375
 30
0.0
 40
0.5
  0
LINE
  5
112
330
17
100
AcDbEntity
  8
CASEWORK-SINKS
 62
5
100
AcDbLine
 10
244.0
 20
14.625
 30
0.0
 11
256.0
 21
14.625
 31
0.0
  0
CIRCLE
  5
113
330
17
100
AcDbEntity
  8
CASEWORK-SINKS
 62
5
100
AcDbCircle
 10
250.0
 20
13.5625
 30
0.0
 40
0.5
  0
LINE
  5
114
330
17
100
AcDbEntity
  8
CASEWORK-SINKS
 62
5
100
AcDbLine
 10
244.0
 20
16.75
 30
0.0
 11
256.0
 21
16.75
 31
0.0
  0
CIRCLE
  5
115
330
17
100
AcDbEntity
  8
CASEWORK-SINKS
 62
5
100
AcDbCircle
 10
250.0
 20
15.6875
 30
0.0
 40
0.5
  0
LINE
  5
116
330
17
100
AcDbEntity
  8
CASEWORK-SINKS
 62
5
100
AcDbLine
 10
244.0
 20
18.875
 30
0.0
 11
256.0
 21
18.875
 31
0.0
  0
CIRCLE
  5
117
330
17
100
AcDbEntity
  8
CASEWORK-SINKS
 62
5
100
AcDbCircle
 10
250.0
 20
17.8125
 30
0.0
 40
0.5
  0
LINE
  5
118
330
17
100
AcDbEntity
  8
CASEWORK-SINKS
 62
5
100
AcDbLine
 10
244.0
 20
21.0
 30
0.0
 11
256.0
 21
21.0
 31
0.0
  0
CIRCLE
  5
119
330
17
100
AcDbEntity
  8
CASEWORK-SINKS
 62
5
100
AcDbCircle
 10
250.0
 20
19.9375
 30
0.0
 40
0.5
  0
LINE
  5
11A
330
17
100
AcDbEntity
  8
CASEWORK-SINKS
 62
5
100
AcDbLine
 10
244.0
 20
23.125
 30
0.0
 11
256.0
 21
23.125
 31
0.0
  0
CIRCLE
  5
11B
330
17
100
AcDbEntity
  8
CASEWORK-SINKS
 62
5
100
AcDbCircle
 10
250.0
 20
22.0625
 30
0.0
 40
0.5
  0
LINE
  5
11C
330
17
100
AcDbEntity
  8
CASEWORK-SINKS
 62
5
100
AcDbLine
 10
244.0
 20
25.25
 30
0.0
 11
256.0
 21
25.25
 31
0.0
  0
CIRCLE
  5
11D
330
17
100
AcDbEntity
  8
CASEWORK-SINKS
 62
5
100
AcDbCircle
 10
250.0
 20
24.1875
 30
0.0
 40
0.5
  0
LINE
  5
11E
330
17
100
AcDbEntity
  8
CASEWORK-SINKS
 62
5
100
AcDbLine
 10
244.0
 20
27.375
 30
0.0
 11
256.0
 21
27.375
 31
0.0
  0
CIRCLE
  5
11F
330
17
100
AcDbEntity
  8
CASEWORK-SINKS
 62
5
100
AcDbCircle
 10
250.0
 20
26.3125
 30
0.0
 40
0.5
  0
LINE
  5
120
330
17
100
AcDbEntity
  8
CASEWORK-SINKS
 62
5
100
AcDbLine
 10
244.0
 20
29.5
 30
0.0
 11
256.0
 21
29.5
 31
0.0
  0
CIRCLE
  5
121
330
17
100
AcDbEntity
  8
CASEWORK-SINKS
 62
5
100
AcDbCircle
 10
250.0
 20
28.4375
 30
0.0
 40
0.5
  0
LINE
  5
122
330
17
100
AcDbEntity
  8
CASEWORK-SINKS
 62
5
100
AcDbLine
 10
244.0
 20
31.625
 30
0.0
 11
256.0
 21
31.625
 31
0.0
  0
CIRCLE
  5
123
330
17
100
AcDbEntity
  8
CASEWORK-SINKS
 62
5
100
AcDbCircle
 10
250.0
 20
30.5625
 30
0.0
 40
0.5
  0
LINE
  5
124
330
17
100
AcDbEntity
  8
CASEWORK-SINKS
 62
5
100
AcDbLine
 10
244.0
 20
33.75
 30
0.0
 11
256.0
 21
33.75
 31
0.0
  0
CIRCLE
  5
125
330
17
100
AcDbEntity
  8
CASEWORK-SINKS
 62
5
100
AcDbCircle
 10
250.0
 20
32.6875
 30
0.0
 40
0.5
  0
LINE
  5
126
330
17
100
AcDbEntity
  8
CASEWORK-SINKS
 62
5
100
AcDbLine
 10
244.0
 20
35.875
 30
0.0
 11
256.0
 21
35.875
 31
0.0
  0
CIRCLE
  5
127
330
17
100
AcDbEntity
  8
CASEWORK-SINKS
 62
5
100
AcDbCircle
 10
250.0
 20
34.8125
 30
0.0
 40
0.5
  0
LWPOLYLINE
  5
128
330
17
100
AcDbEntity
  8
CASEWORK-CABINETS
 62
7
100
AcDbPolyline
 90
5
 70
0
 10
256.0
 20
0.0
 10
268.0
 20
0.0
 10
268.0
 20
38.0
 10
256.0
 20
38.0
 10
256.0
 20
0.0
  0
LINE
  5
129
330
17
100
AcDbEntity
  8
CASEWORK-CABINETS
 62
7
100
AcDbLine
 10
256.0
 20
4.0
 30
0.0
 11
268.0
 21
4.0
 31
0.0
  0
LINE
  5
12A
330
17
100
AcDbEntity
  8
CASEWORK-CABINETS
 62
7
100
AcDbLine
 10
256.0
 20
7.090909090909091
 30
0.0
 11
268.0
 21
7.090909090909091
 31
0.0
  0
CIRCLE
  5
12B
330
17
100
AcDbEntity
  8
CASEWORK-CABINETS
 62
7
100
AcDbCircle
 10
262.0
 20
5.545454545454545
 30
0.0
 40
0.5
  0
LINE
  5
12C
330
17
100
AcDbEntity
  8
CASEWORK-CABINETS
 62
7
100
AcDbLine
 10
256.0
 20
10.181818181818182
 30
0.0
 11
268.0
 21
10.181818181818182
 31
0.0
  0
CIRCLE
  5
12D
330
17
100
AcDbEntity
  8
CASEWORK-CABINETS
 62
7
100
AcDbCircle
 10
262.0
 20
8.636363636363637
 30
0.0
 40
0.5
  0
LINE
  5
12E
330
17
100
AcDbEntity
  8
CASEWORK-CABINETS
 62
7
100
AcDbLine
 10
256.0
 20
13.272727272727273
 30
0.0
 11
268.0
 21
13.272727272727273
 31
0.0
  0
CIRCLE
  5
12F
330
17
100
AcDbEntity
  8
CASEWORK-CABINETS
 62
7
100
AcDbCircle
 10
262.0
 20
11.727272727272728
 30
0.0
 40
0.5
  0
LINE
  5
130
330
17
100
AcDbEntity
  8
CASEWORK-CABINETS
 62
7
100
AcDbLine
 10
256.0
 20
16.363636363636363
 30
0.0
 11
268.0
 21
16.363636363636363
 31
0.0
  0
CIRCLE
  5
131
330
17
100
AcDbEntity
  8
CASEWORK-CABINETS
 62
7
100
AcDbCircle
 10
262.0
 20
14.818181818181818
 30
0.0
 40
0.5
  0
LINE
  5
132
330
17
100
AcDbEntity
  8
CASEWORK-CABINETS
 62
7
100
AcDbLine
 10
256.0
 20
19.454545454545453
 30
0.0
 11
268.0
 21
19.454545454545453
 31
0.0
  0
CIRCLE
  5
133
330
17
100
AcDbEntity
  8
CASEWORK-CABINETS
 62
7
100
AcDbCircle
 10
262.0
 20
17.909090909090907
 30
0.0
 40
0.5
  0
LINE
  5
134
330
17
100
AcDbEntity
  8
CASEWORK-CABINETS
 62
7
100
AcDbLine
 10
256.0
 20
22.545454545454547
 30
0.0
 11
268.0
 21
22.545454545454547
 31
0.0
  0
CIRCLE
  5
135
330
17
100
AcDbEntity
  8
CASEWORK-CABINETS
 62
7
100
AcDbCircle
 10
262.0
 20
21.0
 30
0.0
 40
0.5
  0
LINE
  5
136
330
17
100
AcDbEntity
  8
CASEWORK-CABINETS
 62
7
100
AcDbLine
 10
256.0
 20
25.636363636363637
 30
0.0
 11
268.0
 21
25.636363636363637
 31
0.0
  0
CIRCLE
  5
137
330
17
100
AcDbEntity
  8
CASEWORK-CABINETS
 62
7
100
AcDbCircle
 10
262.0
 20
24.09090909090909
 30
0.0
 40
0.5
  0
LINE
  5
138
330
17
100
AcDbEntity
  8
CASEWORK-CABINETS
 62
7
100
AcDbLine
 10
256.0
 20
28.727272727272727
 30
0.0
 11
268.0
 21
28.727272727272727
 31
0.0
  0
CIRCLE
  5
139
330
17
100
AcDbEntity
  8
CASEWORK-CABINETS
 62
7
100
AcDbCircle
 10
262.0
 20
27.18181818181818
 30
0.0
 40
0.5
  0
LINE
  5
13A
330
17
100
AcDbEntity
  8
CASEWORK-CABINETS
 62
7
100
AcDbLine
 10
256.0
 20
31.818181818181817
 30
0.0
 11
268.0
 21
31.818181818181817
 31
0.0
  0
CIRCLE
  5
13B
330
17
100
AcDbEntity
  8
CASEWORK-CABINETS
 62
7
100
AcDbCircle
 10
262.0
 20
30.27272727272727
 30
0.0
 40
0.5
  0
LINE
  5
13C
330
17
100
AcDbEntity
  8
CASEWORK-CABINETS
 62
7
100
AcDbLine
 10
256.0
 20
34.90909090909091
 30
0.0
 11
268.0
 21
34.90909090909091
 31
0.0
  0
CIRCLE
  5
13D
330
17
100
AcDbEntity
  8
CASEWORK-CABINETS
 62
7
100
AcDbCircle
 10
262.0
 20
33.36363636363636
 30
0.0
 40
0.5
  0
LWPOLYLINE
  5
13E
330
17
100
AcDbEntity
  8
CASEWORK-SINKS
 62
5
100
AcDbPolyline
 90
5
 70
0
 10
268.0
 20
0.0
 10
280.0
 20
0.0
 10
280.0
 20
38.0
 10
268.0
 20
38.0
 10
268.0
 20
0.0
  0
LINE
  5
13F
330
17
100
AcDbEntity
  8
CASEWORK-SINKS
 62
5
100
AcDbLine
 10
268.0
 20
4.0
 30
0.0
 11
280.0
 21
4.0
 31
0.0
  0
LINE
  5
140
330
17
100
AcDbEntity
  8
CASEWORK-SINKS
 62
5
100
AcDbLine
 10
268.0
 20
7.777777777777778
 30
0.0
 11
280.0
 21
7.777777777777778
 31
0.0
  0
CIRCLE
  5
141
330
17
100
AcDbEntity
  8
CASEWORK-SINKS
 62
5
100
AcDbCircle
 10
274.0
 20
5.888888888888889
 30
0.0
 40
0.5
  0
LINE
  5
142
330
17
100
AcDbEntity
  8
CASEWORK-SINKS
 62
5
100
AcDbLine
 10
268.0
 20
11.555555555555555
 30
0.0
 11
280.0
 21
11.555555555555555
 31
0.0
  0
CIRCLE
  5
143
330
17
100
AcDbEntity
  8
CASEWORK-SINKS
 62
5
100
AcDbCircle
 10
274.0
 20
9.666666666666666
 30
0.0
 40
0.5
  0
LINE
  5
144
330
17
100
AcDbEntity
  8
CASEWORK-SINKS
 62
5
100
AcDbLine
 10
268.0
 20
15.333333333333332
 30
0.0
 11
280.0
 21
15.333333333333332
 31
0.0
  0
CIRCLE
  5
145
330
17
100
AcDbEntity
  8
CASEWORK-SINKS
 62
5
100
AcDbCircle
 10
274.0
 20
13.444444444444443
 30
0.0
 40
0.5
  0
LINE
  5
146
330
17
100
AcDbEntity
  8
CASEWORK-SINKS
 62
5
100
AcDbLine
 10
268.0
 20
19.11111111111111
 30
0.0
 11
280.0
 21
19.11111111111111
 31
0.0
  0
CIRCLE
  5
147
330
17
100
AcDbEntity
  8
CASEWORK-SINKS
 62
5
100
AcDbCircle
 10
274.0
 20
17.22222222222222
 30
0.0
 40
0.5
  0
LINE
  5
148
330
17
100
AcDbEntity
  8
CASEWORK-SINKS
 62
5
100
AcDbLine
 10
268.0
 20
22.88888888888889
 30
0.0
 11
280.0
 21
22.88888888888889
 31
0.0
  0
CIRCLE
  5
149
330
17
100
AcDbEntity
  8
CASEWORK-SINKS
 62
5
100
AcDbCircle
 10
274.0
 20
21.0
 30
0.0
 40
0.5
  0
LINE
  5
14A
330
17
100
AcDbEntity
  8
CASEWORK-SINKS
 62
5
100
AcDbLine
 10
268.0
 20
26.666666666666664
 30
0.0
 11
280.0
 21
26.666666666666664
 31
0.0
  0
CIRCLE
  5
14B
330
17
100
AcDbEntity
  8
CASEWORK-SINKS
 62
5
100
AcDbCircle
 10
274.0
 20
24.777777777777775
 30
0.0
 40
0.5
  0
LINE
  5
14C
330
17
100
AcDbEntity
  8
CASEWORK-SINKS
 62
5
100
AcDbLine
 10
268.0
 20
30.444444444444443
 30
0.0
 11
280.0
 21
30.444444444444443
 31
0.0
  0
CIRCLE
  5
14D
330
17
100
AcDbEntity
  8
CASEWORK-SINKS
 62
5
100
AcDbCircle
 10
274.0
 20
28.555555555555554
 30
0.0
 40
0.5
  0
LINE
  5
14E
330
17
100
AcDbEntity
  8
CASEWORK-SINKS
 62
5
100
AcDbLine
 10
268.0
 20
34.22222222222222
 30
0.0
 11
280.0
 21
34.22222222222222
 31
0.0
  0
CIRCLE
  5
14F
330
17
100
AcDbEntity
  8
CASEWORK-SINKS
 62
5
100
AcDbCircle
 10
274.0
 20
32.333333333333336
 30
0.0
 40
0.5
  0
LWPOLYLINE
  5
150
330
17
100
AcDbEntity
  8
CASEWORK-SINKS
 62
5
100
AcDbPolyline
 90
5
 70
0
 10
280.0
 20
0.0
 10
310.0
 20
0.0
 10
310.0
 20
38.0
 10
280.0
 20
38.0
 10
280.0
 20
0.0
  0
LINE
  5
151
330
17
100
AcDbEntity
  8
CASEWORK-SINKS
 62
5
100
AcDbLine
 10
280.0
 20
4.0
 30
0.0
 11
310.0
 21
4.0
 31
0.0
  0
LINE
  5
152
330
17
100
AcDbEntity
  8
CASEWORK-SINKS
 62
5
100
AcDbLine
 10
295.0
 20
4.0
 30
0.0
 11
295.0
 21
38.0
 31
0.0
  0
CIRCLE
  5
153
330
17
100
AcDbEntity
  8
CASEWORK-SINKS
 62
5
100
AcDbCircle
 10
293.0
 20
22.8
 30
0.0
 40
0.5
  0
CIRCLE
  5
154
330
17
100
AcDbEntity
  8
CASEWORK-SINKS
 62
5
100
AcDbCircle
 10
297.0
 20
22.8
 30
0.0
 40
0.5
  0
LWPOLYLINE
  5
155
330
17
100
AcDbEntity
  8
CASEWORK-SINKS
 62
5
100
AcDbPolyline
 90
5
 70
0
 10
310.0
 20
0.0
 10
334.0
 20
0.0
 10
334.0
 20
38.0
 10
310.0
 20
38.0
 10
310.0
 20
0.0
  0
LINE
  5
156
330
17
100
AcDbEntity
  8
CASEWORK-SINKS
 62
5
100
AcDbLine
 10
310.0
 20
4.0
 30
0.0
 11
334.0
 21
4.0
 31
0.0
  0
LINE
  5
157
330
17
100
AcDbEntity
  8
CASEWORK-SINKS
 62
5
100
AcDbLine
 10
310.0
 20
12.5
 30
0.0
 11
334.0
 21
12.5
 31
0.0
  0
CIRCLE
  5
158
330
17
100
AcDbEntity
  8
CASEWORK-SINKS
 62
5
100
AcDbCircle
 10
322.0
 20
8.25
 30
0.0
 40
0.5
  0
LINE
  5
159
330
17
100
AcDbEntity
  8
CASEWORK-SINKS
 62
5
100
AcDbLine
 10
310.0
 20
21.0
 30
0.0
 11
334.0
 21
21.0
 31
0.0
  0
CIRCLE
  5
15A
330
17
100
AcDbEntity
  8
CASEWORK-SINKS
 62
5
100
AcDbCircle
 10
322.0
 20
16.75
 30
0.0
 40
0.5
  0
LINE
  5
15B
330
17
100
AcDbEntity
  8
CASEWORK-SINKS
 62
5
100
AcDbLine
 10
310.0
 20
29.5
 30
0.0
 11
334.0
 21
29.5
 31
0.0
  0
CIRCLE
  5
15C
330
17
100
AcDbEntity
  8
CASEWORK-SINKS
 62
5
100
AcDbCircle
 10
322.0
 20
25.25
 30
0.0
 40
0.5
  0
LWPOLYLINE
  5
15D
330
17
100
AcDbEntity
  8
CASEWORK-CABINETS
 62
7
100
AcDbPolyline
 90
5
 70
0
 10
334.0
 20
0.0
 10
346.0
 20
0.0
 10
346.0
 20
33.4
 10
334.0
 20
33.4
 10
334.0
 20
0.0
  0
LINE
  5
15E
330
17
100
AcDbEntity
  8
CASEWORK-CABINETS
 62
7
100
AcDbLine
 10
334.0
 20
4.0
 30
0.0
 11
346.0
 21
4.0
 31
0.0
  0
LINE
  5
15F
330
17
100
AcDbEntity
  8
CASEWORK-CABINETS
 62
7
100
AcDbLine
 10
334.0
 20
11.35
 30
0.0
 11
346.0
 21
11.35
 31
0.0
  0
CIRCLE
  5
160
330
17
100
AcDbEntity
  8
CASEWORK-CABINETS
 62
7
100
AcDbCircle
 10
340.0
 20
7.675
 30
0.0
 40
0.5
  0
LINE
  5
161
330
17
100
AcDbEntity
  8
CASEWORK-CABINETS
 62
7
100
AcDbLine
 10
334.0
 20
18.7
 30
0.0
 11
346.0
 21
18.7
 31
0.0
  0
CIRCLE
  5
162
330
17
100
AcDbEntity
  8
CASEWORK-CABINETS
 62
7
100
AcDbCircle
 10
340.0
 20
15.024999999999999
 30
0.0
 40
0.5
  0
LINE
  5
163
330
17
100
AcDbEntity
  8
CASEWORK-CABINETS
 62
7
100
AcDbLine
 10
334.0
 20
26.049999999999997
 30
0.0
 11
346.0
 21
26.049999999999997
 31
0.0
  0
CIRCLE
  5
164
330
17
100
AcDbEntity
  8
CASEWORK-CABINETS
 62
7
100
AcDbCircle
 10
340.0
 20
22.374999999999996
 30
0.0
 40
0.5
  0
LWPOLYLINE
  5
165
330
17
100
AcDbEntity
  8
CASEWORK-CABINETS
 62
7
100
AcDbPolyline
 90
5
 70
0
 10
346.0
 20
0.0
 10
358.0
 20
0.0
 10
358.0
 20
38.0
 10
346.0
 20
38.0
 10
346.0
 20
0.0
  0
LINE
  5
166
330
17
100
AcDbEntity
  8
CASEWORK-CABINETS
 62
7
100
AcDbLine
 10
346.0
 20
4.0
 30
0.0
 11
358.0
 21
4.0
 31
0.0
  0
LINE
  5
167
330
17
100
AcDbEntity
  8
CASEWORK-CABINETS
 62
7
100
AcDbLine
 10
346.0
 20
7.777777777777778
 30
0.0
 11
358.0
 21
7.777777777777778
 31
0.0
  0
CIRCLE
  5
168
330
17
100
AcDbEntity
  8
CASEWORK-CABINETS
 62
7
100
AcDbCircle
 10
352.0
 20
5.888888888888889
 30
0.0
 40
0.5
  0
LINE
  5
169
330
17
100
AcDbEntity
  8
CASEWORK-CABINETS
 62
7
100
AcDbLine
 10
346.0
 20
11.555555555555555
 30
0.0
 11
358.0
 21
11.555555555555555
 31
0.0
  0
CIRCLE
  5
16A
330
17
100
AcDbEntity
  8
CASEWORK-CABINETS
 62
7
100
AcDbCircle
 10
352.0
 20
9.666666666666666
 30
0.0
 40
0.5
  0
LINE
  5
16B
330
17
100
AcDbEntity
  8
CASEWORK-CABINETS
 62
7
100
AcDbLine
 10
346.0
 20
15.333333333333332
 30
0.0
 11
358.0
 21
15.333333333333332
 31
0.0
  0
CIRCLE
  5
16C
330
17
100
AcDbEntity
  8
CASEWORK-CABINETS
 62
7
100
AcDbCircle
 10
352.0
 20
13.444444444444443
 30
0.0
 40
0.5
  0
LINE
  5
16D
330
17
100
AcDbEntity
  8
CASEWORK-CABINETS
 62
7
100
AcDbLine
 10
346.0
 20
19.11111111111111
 30
0.0
 11
358.0
 21
19.11111111111111
 31
0.0
  0
CIRCLE
  5
16E
330
17
100
AcDbEntity
  8
CASEWORK-CABINETS
 62
7
100
AcDbCircle
 10
352.0
 20
17.22222222222222
 30
0.0
 40
0.5
  0
LINE
  5
16F
330
17
100
AcDbEntity
  8
CASEWORK-CABINETS
 62
7
100
AcDbLine
 10
346.0
 20
22.88888888888889
 30
0.0
 11
358.0
 21
22.88888888888889
 31
0.0
  0
CIRCLE
  5
170
330
17
100
AcDbEntity
  8
CASEWORK-CABINETS
 62
7
100
AcDbCircle
 10
352.0
 20
21.0
 30
0.0
 40
0.5
  0
LINE
  5
171
330
17
100
AcDbEntity
  8
CASEWORK-CABINETS
 62
7
100
AcDbLine
 10
346.0
 20
26.666666666666664
 30
0.0
 11
358.0
 21
26.666666666666664
 31
0.0
  0
CIRCLE
  5
172
330
17
100
AcDbEntity
  8
CASEWORK-CABINETS
 62
7
100
AcDbCircle
 10
352.0
 20
24.777777777777775
 30
0.0
 40
0.5
  0
LINE
  5
173
330
17
100
AcDbEntity
  8
CASEWORK-CABINETS
 62
7
100
AcDbLine
 10
346.0
 20
30.444444444444443
 30
0.0
 11
358.0
 21
30.444444444444443
 31
0.0
  0
CIRCLE
  5
174
330
17
100
AcDbEntity
  8
CASEWORK-CABINETS
 62
7
100
AcDbCircle
 10
352.0
 20
28.555555555555554
 30
0.0
 40
0.5
  0
LINE
  5
175
330
17
100
AcDbEntity
  8
CASEWORK-CABINETS
 62
7
100
AcDbLine
 10
346.0
 20
34.22222222222222
 30
0.0
 11
358.0
 21
34.22222222222222
 31
0.0
  0
CIRCLE
  5
176
330
17
100
AcDbEntity
  8
CASEWORK-CABINETS
 62
7
100
AcDbCircle
 10
352.0
 20
32.333333333333336
 30
0.0
 40
0.5
  0
LWPOLYLINE
  5
177
330
17
100
AcDbEntity
  8
CASEWORK-SINKS
 62
5
100
AcDbPolyline
 90
5
 70
0
 10
358.0
 20
0.0
 10
370.0
 20
0.0
 10
370.0
 20
38.0
 10
358.0
 20
38.0
 10
358.0
 20
0.0
  0
LINE
  5
178
330
17
100
AcDbEntity
  8
CASEWORK-SINKS
 62
5
100
AcDbLine
 10
358.0
 20
4.0
 30
0.0
 11
370.0
 21
4.0
 31
0.0
  0
LINE
  5
179
330
17
100
AcDbEntity
  8
CASEWORK-SINKS
 62
5
100
AcDbLine
 10
358.0
 20
6.125
 30
0.0
 11
370.0
 21
6.125
 31
0.0
  0
CIRCLE
  5
17A
330
17
100
AcDbEntity
  8
CASEWORK-SINKS
 62
5
100
AcDbCircle
 10
364.0
 20
5.0625
 30
0.0
 40
0.5
  0
LINE
  5
17B
330
17
100
AcDbEntity
  8
CASEWORK-SINKS
 62
5
100
AcDbLine
 10
358.0
 20
8.25
 30
0.0
 11
370.0
 21
8.25
 31
0.0
  0
CIRCLE
  5
17C
330
17
100
AcDbEntity
  8
CASEWORK-SINKS
 62
5
100
AcDbCircle
 10
364.0
 20
7.1875
 30
0.0
 40
0.5
  0
LINE
  5
17D
330
17
100
AcDbEntity
  8
CASEWORK-SINKS
 62
5
100
AcDbLine
 10
358.0
 20
10.375
 30
0.0
 11
370.0
 21
10.375
 31
0.0
  0
CIRCLE
  5
17E
330
17
100
AcDbEntity
  8
CASEWORK-SINKS
 62
5
100
AcDbCircle
 10
364.0
 20
9.3125
 30
0.0
 40
0.5
  0
LINE
  5
17F
330
17
100
AcDbEntity
  8
CASEWORK-SINKS
 62
5
100
AcDbLine
 10
358.0
 20
12.5
 30
0.0
 11
370.0
 21
12.5
 31
0.0
  0
CIRCLE
  5
180
330
17
100
AcDbEntity
  8
CASEWORK-SINKS
 62
5
100
AcDbCircle
 10
364.0
 20
11.4375
 30
0.0
 40
0.5
  0
LINE
  5
181
330
17
100
AcDbEntity
  8
CASEWORK-SINKS
 62
5
100
AcDbLine
 10
358.0
 20
14.625
 30
0.0
 11
370.0
 21
14.625
 31
0.0
  0
CIRCLE
  5
182
330
17
100
AcDbEntity
  8
CASEWORK-SINKS
 62
5
100
AcDbCircle
 10
364.0
 20
13.5625
 30
0.0
 40
0.5
  0
LINE
  5
183
330
17
100
AcDbEntity
  8
CASEWORK-SINKS
 62
5
100
AcDbLine
 10
358.0
 20
16.75
 30
0.0
 11
370.0
 21
16.75
 31
0.0
  0
CIRCLE
  5
184
330
17
100
AcDbEntity
  8
CASEWORK-SINKS
 62
5
100
AcDbCircle
 10
364.0
 20
15.6875
 30
0.0
 40
0.5
  0
LINE
  5
185
330
17
100
AcDbEntity
  8
CASEWORK-SINKS
 62
5
100
AcDbLine
 10
358.0
 20
18.875
 30
0.0
 11
370.0
 21
18.875
 31
0.0
  0
CIRCLE
  5
186
330
17
100
AcDbEntity
  8
CASEWORK-SINKS
 62
5
100
AcDbCircle
 10
364.0
 20
17.8125
 30
0.0
 40
0.5
  0
LINE
  5
187
330
17
100
AcDbEntity
  8
CASEWORK-SINKS
 62
5
100
AcDbLine
 10
358.0
 20
21.0
 30
0.0
 11
370.0
 21
21.0
 31
0.0
  0
CIRCLE
  5
188
330
17
100
AcDbEntity
  8
CASEWORK-SINKS
 62
5
100
AcDbCircle
 10
364.0
 20
19.9375
 30
0.0
 40
0.5
  0
LINE
  5
189
330
17
100
AcDbEntity
  8
CASEWORK-SINKS
 62
5
100
AcDbLine
 10
358.0
 20
23.125
 30
0.0
 11
370.0
 21
23.125
 31
0.0
  0
CIRCLE
  5
18A
330
17
100
AcDbEntity
  8
CASEWORK-SINKS
 62
5
100
AcDbCircle
 10
364.0
 20
22.0625
 30
0.0
 40
0.5
  0
LINE
  5
18B
330
17
100
AcDbEntity
  8
CASEWORK-SINKS
 62
5
100
AcDbLine
 10
358.0
 20
25.25
 30
0.0
 11
370.0
 21
25.25
 31
0.0
  0
CIRCLE
  5
18C
330
17
100
AcDbEntity
  8
CASEWORK-SINKS
 62
5
100
AcDbCircle
 10
364.0
 20
24.1875
 30
0.0
 40
0.5
  0
LINE
  5
18D
330
17
100
AcDbEntity
  8
CASEWORK-SINKS
 62
5
100
AcDbLine
 10
358.0
 20
27.375
 30
0.0
 11
370.0
 21
27.375
 31
0.0
  0
CIRCLE
  5
18E
330
17
100
AcDbEntity
  8
CASEWORK-SINKS
 62
5
100
AcDbCircle
 10
364.0
 20
26.3125
 30
0.0
 40
0.5
  0
LINE
  5
18F
330
17
100
AcDbEntity
  8
CASEWORK-SINKS
 62
5
100
AcDbLine
 10
358.0
 20
29.5
 30
0.0
 11
370.0
 21
29.5
 31
0.0
  0
CIRCLE
  5
190
330
17
100
AcDbEntity
  8
CASEWORK-SINKS
 62
5
100
AcDbCircle
 10
364.0
 20
28.4375
 30
0.0
 40
0.5
  0
LINE
  5
191
330
17
100
AcDbEntity
  8
CASEWORK-SINKS
 62
5
100
AcDbLine
 10
358.0
 20
31.625
 30
0.0
 11
370.0
 21
31.625
 31
0.0
  0
CIRCLE
  5
192
330
17
100
AcDbEntity
  8
CASEWORK-SINKS
 62
5
100
AcDbCircle
 10
364.0
 20
30.5625
 30
0.0
 40
0.5
  0
LINE
  5
193
330
17
100
AcDbEntity
  8
CASEWORK-SINKS
 62
5
100
AcDbLine
 10
358.0
 20
33.75
 30
0.0
 11
370.0
 21
33.75
 31
0.0
  0
CIRCLE
  5
194
330
17
100
AcDbEntity
  8
CASEWORK-SINKS
 62
5
100
AcDbCircle
 10
364.0
 20
32.6875
 30
0.0
 40
0.5
  0
LINE
  5
195
330
17
100
AcDbEntity
  8
CASEWORK-SINKS
 62
5
100
AcDbLine
 10
358.0
 20
35.875
 30
0.0
 11
370.0
 21
35.875
 31
0.0
  0
CIRCLE
  5
196
330
17
100
AcDbEntity
  8
CASEWORK-SINKS
 62
5
100
AcDbCircle
 10
364.0
 20
34.8125
 30
0.0
 40
0.5
  0
LWPOLYLINE
  5
197
330
17
100
AcDbEntity
  8
CASEWORK-CABINETS
 62
7
100
AcDbPolyline
 90
5
 70
0
 10
370.0
 20
0.0
 10
376.0
 20
0.0
 10
376.0
 20
38.0
 10
370.0
 20
38.0
 10
370.0
 20
0.0
  0
LINE
  5
198
330
17
100
AcDbEntity
  8
CASEWORK-CABINETS
 62
7
100
AcDbLine
 10
370.0
 20
4.0
 30
0.0
 11
376.0
 21
4.0
 31
0.0
  0
LINE
  5
199
330
17
100
AcDbEntity
  8
CASEWORK-CABINETS
 62
7
100
AcDbLine
 10
370.0
 20
7.090909090909091
 30
0.0
 11
376.0
 21
7.090909090909091
 31
0.0
  0
CIRCLE
  5
19A
330
17
100
AcDbEntity
  8
CASEWORK-CABINETS
 62
7
100
AcDbCircle
 10
373.0
 20
5.545454545454545
 30
0.0
 40
0.5
  0
LINE
  5
19B
330
17
100
AcDbEntity
  8
CASEWORK-CABINETS
 62
7
100
AcDbLine
 10
370.0
 20
10.181818181818182
 30
0.0
 11
376.0
 21
10.181818181818182
 31
0.0
  0
CIRCLE
  5
19C
330
17
100
AcDbEntity
  8
CASEWORK-CABINETS
 62
7
100
AcDbCircle
 10
373.0
 20
8.636363636363637
 30
0.0
 40
0.5
  0
LINE
  5
19D
330
17
100
AcDbEntity
  8
CASEWORK-CABINETS
 62
7
100
AcDbLine
 10
370.0
 20
13.272727272727273
 30
0.0
 11
376.0
 21
13.272727272727273
 31
0.0
  0
CIRCLE
  5
19E
330
17
100
AcDbEntity
  8
CASEWORK-CABINETS
 62
7
100
AcDbCircle
 10
373.0
 20
11.727272727272728
 30
0.0
 40
0.5
  0
LINE
  5
19F
330
17
100
AcDbEntity
  8
CASEWORK-CABINETS
 62
7
100
AcDbLine
 10
370.0
 20
16.363636363636363
 30
0.0
 11
376.0
 21
16.363636363636363
 31
0.0
  0
CIRCLE
  5
1A0
330
17
100
AcDbEntity
  8
CASEWORK-CABINETS
 62
7
100
AcDbCircle
 10
373.0
 20
14.818181818181818
 30
0.0
 40
0.5
  0
LINE
  5
1A1
330
17
100
AcDbEntity
  8
CASEWORK-CABINETS
 62
7
100
AcDbLine
 10
370.0
 20
19.454545454545453
 30
0.0
 11
376.0
 21
19.454545454545453
 31
0.0
  0
CIRCLE
  5
1A2
330
17
100
AcDbEntity
  8
CASEWORK-CABINETS
 62
7
100
AcDbCircle
 10
373.0
 20
17.909090909090907
 30
0.0
 40
0.5
  0
LINE
  5
1A3
330
17
100
AcDbEntity
  8
CASEWORK-CABINETS
 62
7
100
AcDbLine
 10
370.0
 20
22.545454545454547
 30
0.0
 11
376.0
 21
22.545454545454547
 31
0.0
  0
CIRCLE
  5
1A4
330
17
100
AcDbEntity
  8
CASEWORK-CABINETS
 62
7
100
AcDbCircle
 10
373.0
 20
21.0
 30
0.0
 40
0.5
  0
LINE
  5
1A5
330
17
100
AcDbEntity
  8
CASEWORK-CABINETS
 62
7
100
AcDbLine
 10
370.0
 20
25.636363636363637
 30
0.0
 11
376.0
 21
25.636363636363637
 31
0.0
  0
CIRCLE
  5
1A6
330
17
100
AcDbEntity
  8
CASEWORK-CABINETS
 62
7
100
AcDbCircle
 10
373.0
 20
24.09090909090909
 30
0.0
 40
0.5
  0
LINE
  5
1A7
330
17
100
AcDbEntity
  8
CASEWORK-CABINETS
 62
7
100
AcDbLine
 10
370.0
 20
28.727272727272727
 30
0.0
 11
376.0
 21
28.727272727272727
 31
0.0
  0
CIRCLE
  5
1A8
330
17
100
AcDbEntity
  8
CASEWORK-CABINETS
 62
7
100
AcDbCircle
 10
373.0
 20
27.18181818181818
 30
0.0
 40
0.5
  0
LINE
  5
1A9
330
17
100
AcDbEntity
  8
CASEWORK-CABINETS
 62
7
100
AcDbLine
 10
370.0
 20
31.818181818181817
 30
0.0
 11
376.0
 21
31.818181818181817
 31
0.0
  0
CIRCLE
  5
1AA
330
17
100
AcDbEntity
  8
CASEWORK-CABINETS
 62
7
100
AcDbCircle
 10
373.0
 20
30.27272727272727
 30
0.0
 40
0.5
  0
LINE
  5
1AB
330
17
100
AcDbEntity
  8
CASEWORK-CABINETS
 62
7
100
AcDbLine
 10
370.0
 20
34.90909090909091
 30
0.0
 11
376.0
 21
34.90909090909091
 31
0.0
  0
CIRCLE
  5
1AC
330
17
100
AcDbEntity
  8
CASEWORK-CABINETS
 62
7
100
AcDbCircle
 10
373.0
 20
33.36363636363636
 30
0.0
 40
0.5
  0
LWPOLYLINE
  5
1AD
330
17
100
AcDbEntity
  8
CASEWORK-CABINETS
 62
7
100
AcDbPolyline
 90
5
 70
0
 10
376.0
 20
0.0
 10
388.0
 20
0.0
 10
388.0
 20
38.0
 10
376.0
 20
38.0
 10
376.0
 20
0.0
  0
LINE
  5
1AE
330
17
100
AcDbEntity
  8
CASEWORK-CABINETS
 62
7
100
AcDbLine
 10
376.0
 20
4.0
 30
0.0
 11
388.0
 21
4.0
 31
0.0
  0
LINE
  5
1AF
330
17
100
AcDbEntity
  8
CASEWORK-CABINETS
 62
7
100
AcDbLine
 10
376.0
 20
7.777777777777778
 30
0.0
 11
388.0
 21
7.777777777777778
 31
0.0
  0
CIRCLE
  5
1B0
330
17
100
AcDbEntity
  8
CASEWORK-CABINETS
 62
7
100
AcDbCircle
 10
382.0
 20
5.888888888888889
 30
0.0
 40
0.5
  0
LINE
  5
1B1
330
17
100
AcDbEntity
  8
CASEWORK-CABINETS
 62
7
100
AcDbLine
 10
376.0
 20
11.555555555555555
 30
0.0
 11
388.0
 21
11.555555555555555
 31
0.0
  0
CIRCLE
  5
1B2
330
17
100
AcDbEntity
  8
CASEWORK-CABINETS
 62
7
100
AcDbCircle
 10
382.0
 20
9.666666666666666
 30
0.0
 40
0.5
  0
LINE
  5
1B3
330
17
100
AcDbEntity
  8
CASEWORK-CABINETS
 62
7
100
AcDbLine
 10
376.0
 20
15.333333333333332
 30
0.0
 11
388.0
 21
15.333333333333332
 31
0.0
  0
CIRCLE
  5
1B4
330
17
100
AcDbEntity
  8
CASEWORK-CABINETS
 62
7
100
AcDbCircle
 10
382.0
 20
13.444444444444443
 30
0.0
 40
0.5
  0
LINE
  5
1B5
330
17
100
AcDbEntity
  8
CASEWORK-CABINETS
 62
7
100
AcDbLine
 10
376.0
 20
19.11111111111111
 30
0.0
 11
388.0
 21
19.11111111111111
 31
0.0
  0
CIRCLE
  5
1B6
330
17
100
AcDbEntity
  8
CASEWORK-CABINETS
 62
7
100
AcDbCircle
 10
382.0
 20
17.22222222222222
 30
0.0
 40
0.5
  0
LINE
  5
1B7
330
17
100
AcDbEntity
  8
CASEWORK-CABINETS
 62
7
100
AcDbLine
 10
376.0
 20
22.88888888888889
 30
0.0
 11
388.0
 21
22.88888888888889
 31
0.0
  0
CIRCLE
  5
1B8
330
17
100
AcDbEntity
  8
CASEWORK-CABINETS
 62
7
100
AcDbCircle
 10
382.0
 20
21.0
 30
0.0
 40
0.5
  0
LINE
  5
1B9
330
17
100
AcDbEntity
  8
CASEWORK-CABINETS
 62
7
100
AcDbLine
 10
376.0
 20
26.666666666666664
 30
0.0
 11
388.0
 21
26.666666666666664
 31
0.0
  0
CIRCLE
  5
1BA
330
17
100
AcDbEntity
  8
CASEWORK-CABINETS
 62
7
100
AcDbCircle
 10
382.0
 20
24.777777777777775
 30
0.0
 40
0.5
  0
LINE
  5
1BB
330
17
100
AcDbEntity
  8
CASEWORK-CABINETS
 62
7
100
AcDbLine
 10
376.0
 20
30.444444444444443
 30
0.0
 11
388.0
 21
30.444444444444443
 31
0.0
  0
CIRCLE
  5
1BC
330
17
100
AcDbEntity
  8
CASEWORK-CABINETS
 62
7
100
AcDbCircle
 10
382.0
 20
28.555555555555554
 30
0.0
 40
0.5
  0
LINE
  5
1BD
330
17
100
AcDbEntity
  8
CASEWORK-CABINETS
 62
7
100
AcDbLine
 10
376.0
 20
34.22222222222222
 30
0.0
 11
388.0
 21
34.22222222222222
 31
0.0
  0
CIRCLE
  5
1BE
330
17
100
AcDbEntity
  8
CASEWORK-CABINETS
 62
7
100
AcDbCircle
 10
382.0
 20
32.333333333333336
 30
0.0
 40
0.5
  0
LWPOLYLINE
  5
1BF
330
17
100
AcDbEntity
  8
CASEWORK-CABINETS
 62
7
100
AcDbPolyline
 90
5
 70
0
 10
388.0
 20
0.0
 10
395.0
 20
0.0
 10
395.0
 20
38.0
 10
388.0
 20
38.0
 10
388.0
 20
0.0
  0
LINE
  5
1C0
330
17
100
AcDbEntity
  8
CASEWORK-CABINETS
 62
7
100
AcDbLine
 10
388.0
 20
4.0
 30
0.0
 11
395.0
 21
4.0
 31
0.0
  0
LINE
  5
1C1
330
17
100
AcDbEntity
  8
CASEWORK-CABINETS
 62
7
100
AcDbLine
 10
388.0
 20
7.4
 30
0.0
 11
395.0
 21
7.4
 31
0.0
  0
CIRCLE
  5
1C2
330
17
100
AcDbEntity
  8
CASEWORK-CABINETS
 62
7
100
AcDbCircle
 10
391.5
 20
5.7
 30
0.0
 40
0.5
  0
LINE
  5
1C3
330
17
100
AcDbEntity
  8
CASEWORK-CABINETS
 62
7
100
AcDbLine
 10
388.0
 20
10.8
 30
0.0
 11
395.0
 21
10.8
 31
0.0
  0
CIRCLE
  5
1C4
330
17
100
AcDbEntity
  8
CASEWORK-CABINETS
 62
7
100
AcDbCircle
 10
391.5
 20
9.100000000000001
 30
0.0
 40
0.5
  0
LINE
  5
1C5
330
17
100
AcDbEntity
  8
CASEWORK-CABINETS
 62
7
100
AcDbLine
 10
388.0
 20
14.2
 30
0.0
 11
395.0
 21
14.2
 31
0.0
  0
CIRCLE
  5
1C6
330
17
100
AcDbEntity
  8
CASEWORK-CABINETS
 62
7
100
AcDbCircle
 10
391.5
 20
12.5
 30
0.0
 40
0.5
  0
LINE
  5
1C7
330
17
100
AcDbEntity
  8
CASEWORK-CABINETS
 62
7
100
AcDbLine
 10
388.0
 20
17.6
 30
0.0
 11
395.0
 21
17.6
 31
0.0
  0
CIRCLE
  5
1C8
330
17
100
AcDbEntity
  8
CASEWORK-CABINETS
 62
7
100
AcDbCircle
 10
391.5
 20
15.900000000000002
 30
0.0
 40
0.5
  0
LINE
  5
1C9
330
17
100
AcDbEntity
  8
CASEWORK-CABINETS
 62
7
100
AcDbLine
 10
388.0
 20
21.0
 30
0.0
 11
395.0
 21
21.0
 31
0.0
  0
CIRCLE
  5
1CA
330
17
100
AcDbEntity
  8
CASEWORK-CABINETS
 62
7
100
AcDbCircle
 10
391.5
 20
19.3
 30
0.0
 40
0.5
  0
LINE
  5
1CB
330
17
100
AcDbEntity
  8
CASEWORK-CABINETS
 62
7
100
AcDbLine
 10
388.0
 20
24.4
 30
0.0
 11
395.0
 21
24.4
 31
0.0
  0
CIRCLE
  5
1CC
330
17
100
AcDbEntity
  8
CASEWORK-CABINETS
 62
7
100
AcDbCircle
 10
391.5
 20
22.7
 30
0.0
 40
0.5
  0
LINE
  5
1CD
330
17
100
AcDbEntity
  8
CASEWORK-CABINETS
 62
7
100
AcDbLine
 10
388.0
 20
27.8
 30
0.0
 11
395.0
 21
27.8
 31
0.0
  0
CIRCLE
  5
1CE
330
17
100
AcDbEntity
  8
CASEWORK-CABINETS
 62
7
100
AcDbCircle
 10
391.5
 20
26.1
 30
0.0
 40
0.5
  0
LINE
  5
1CF
330
17
100
AcDbEntity
  8
CASEWORK-CABINETS
 62
7
100
AcDbLine
 10
388.0
 20
31.2
 30
0.0
 11
395.0
 21
31.2
 31
0.0
  0
CIRCLE
  5
1D0
330
17
100
AcDbEntity
  8
CASEWORK-CABINETS
 62
7
100
AcDbCircle
 10
391.5
 20
29.5
 30
0.0
 40
0.5
  0
LINE
  5
1D1
330
17
100
AcDbEntity
  8
CASEWORK-CABINETS
 62
7
100
AcDbLine
 10
388.0
 20
34.599999999999994
 30
0.0
 11
395.0
 21
34.599999999999994
 31
0.0
  0
CIRCLE
  5
1D2
330
17
100
AcDbEntity
  8
CASEWORK-CABINETS
 62
7
100
AcDbCircle
 10
391.5
 20
32.89999999999999
 30
0.0
 40
0.5
  0
LWPOLYLINE
  5
1D3
330
17
100
AcDbEntity
  8
CASEWORK-SINKS
 62
5
100
AcDbPolyline
 90
5
 70
0
 10
395.0
 20
0.0
 10
425.0
 20
0.0
 10
425.0
 20
38.0
 10
395.0
 20
38.0
 10
395.0
 20
0.0
  0
LINE
  5
1D4
330
17
100
AcDbEntity
  8
CASEWORK-SINKS
 62
5
100
AcDbLine
 10
395.0
 20
4.0
 30
0.0
 11
425.0
 21
4.0
 31
0.0
  0
LINE
  5
1D5
330
17
100
AcDbEntity
  8
CASEWORK-SINKS
 62
5
100
AcDbLine
 10
410.0
 20
4.0
 30
0.0
 11
410.0
 21
38.0
 31
0.0
  0
CIRCLE
  5
1D6
330
17
100
AcDbEntity
  8
CASEWORK-SINKS
 62
5
100
AcDbCircle
 10
408.0
 20
22.8
 30
0.0
 40
0.5
  0
CIRCLE
  5
1D7
330
17
100
AcDbEntity
  8
CASEWORK-SINKS
 62
5
100
AcDbCircle
 10
412.0
 20
22.8
 30
0.0
 40
0.5
  0
LWPOLYLINE
  5
1D8
330
17
100
AcDbEntity
  8
CASEWORK-COUNTERTOPS
 62
3
100
AcDbPolyline
 90
5
 70
0
 10
-1.0
 20
40.4
 10
426.0
 20
40.4
 10
426.0
 20
41.9
 10
-1.0
 20
41.9
 10
-1.0
 20
40.4
  0
TEXT
  5
1D9
330
17
100
AcDbEntity
  8
CASEWORK-DIMENSIONS
 62
2
100
AcDbText
 10
15.0
 20
-3.0
 30
0.0
 40
1.5
  1
30"
 72
1
 11
15.0
 21
-3.0
 31
0.0
100
AcDbText
 73
2
  0
LINE
  5
1DA
330
17
100
AcDbEntity
  8
CASEWORK-DIMENSIONS
 62
2
100
AcDbLine
 10
0.0
 20
-2.2
 30
0.0
 11
30.0
 21
-2.2
 31
0.0
  0
LINE
  5
1DB
330
17
100
AcDbEntity
  8
CASEWORK-DIMENSIONS
 62
2
100
AcDbLine
 10
0.0
 20
-2.7
 30
0.0
 11
0.0
 21
-1.7
 31
0.0
  0
LINE
  5
1DC
330
17
100
AcDbEntity
  8
CASEWORK-DIMENSIONS
 62
2
100
AcDbLine
 10
30.0
 20
-2.7
 30
0.0
 11
30.0
 21
-1.7
 31
0.0
  0
TEXT
  5
1DD
330
17
100
AcDbEntity
  8
CASEWORK-DIMENSIONS
 62
2
100
AcDbText
 10
33.5
 20
-3.0
 30
0.0
 40
1.5
  1
7"
 72
1
 11
33.5
 21
-3.0
 31
0.0
100
AcDbText
 73
2
  0
LINE
  5
1DE
330
17
100
AcDbEntity
  8
CASEWORK-DIMENSIONS
 62
2
100
AcDbLine
 10
30.0
 20
-2.2
 30
0.0
 11
37.0
 21
-2.2
 31
0.0
  0
LINE
  5
1DF
330
17
100
AcDbEntity
  8
CASEWORK-DIMENSIONS
 62
2
100
AcDbLine
 10
30.0
 20
-2.7
 30
0.0
 11
30.0
 21
-1.7
 31
0.0
  0
LINE
  5
1E0
330
17
100
AcDbEntity
  8
CASEWORK-DIMENSIONS
 62
2
100
AcDbLine
 10
37.0
 20
-2.7
 30
0.0
 11
37.0
 21
-1.7
 31
0.0
  0
TEXT
  5
1E1
330
17
100
AcDbEntity
  8
CASEWORK-DIMENSIONS
 62
2
100
AcDbText
 10
43.0
 20
-3.0
 30
0.0
 40
1.5
  1
12"
 72
1
 11
43.0
 21
-3.0
 31
0.0
100
AcDbText
 73
2
  0
LINE
  5
1E2
330
17
100
AcDbEntity
  8
CASEWORK-DIMENSIONS
 62
2
100
AcDbLine
 10
37.0
 20
-2.2
 30
0.0
 11
49.0
 21
-2.2
 31
0.0
  0
LINE
  5
1E3
330
17
100
AcDbEntity
  8
CASEWORK-DIMENSIONS
 62
2
100
AcDbLine
 10
37.0
 20
-2.7
 30
0.0
 11
37.0
 21
-1.7
 31
0.0
  0
LINE
  5
1E4
330
17
100
AcDbEntity
  8
CASEWORK-DIMENSIONS
 62
2
100
AcDbLine
 10
49.0
 20
-2.7
 30
0.0
 11
49.0
 21
-1.7
 31
0.0
  0
TEXT
  5
1E5
330
17
100
AcDbEntity
  8
CASEWORK-DIMENSIONS
 62
2
100
AcDbText
 10
64.0
 20
-3.0
 30
0.0
 40
1.5
  1
30"
 72
1
 11
64.0
 21
-3.0
 31
0.0
100
AcDbText
 73
2
  0
LINE
  5
1E6
330
17
100
AcDbEntity
  8
CASEWORK-DIMENSIONS
 62
2
100
AcDbLine
 10
49.0
 20
-2.2
 30
0.0
 11
79.0
 21
-2.2
 31
0.0
  0
LINE
  5
1E7
330
17
100
AcDbEntity
  8
CASEWORK-DIMENSIONS
 62
2
100
AcDbLine
 10
49.0
 20
-2.7
 30
0.0
 11
49.0
 21
-1.7
 31
0.0
  0
LINE
  5
1E8
330
17
100
AcDbEntity
  8
CASEWORK-DIMENSIONS
 62
2
100
AcDbLine
 10
79.0
 20
-2.7
 30
0.0
 11
79.0
 21
-1.7
 31
0.0
  0
TEXT
  5
1E9
330
17
100
AcDbEntity
  8
CASEWORK-DIMENSIONS
 62
2
100
AcDbText
 10
85.0
 20
-3.0
 30
0.0
 40
1.5
  1
12"
 72
1
 11
85.0
 21
-3.0
 31
0.0
100
AcDbText
 73
2
  0
LINE
  5
1EA
330
17
100
AcDbEntity
  8
CASEWORK-DIMENSIONS
 62
2
100
AcDbLine
 10
79.0
 20
-2.2
 30
0.0
 11
91.0
 21
-2.2
 31
0.0
  0
LINE
  5
1EB
330
17
100
AcDbEntity
  8
CASEWORK-DIMENSIONS
 62
2
100
AcDbLine
 10
79.0
 20
-2.7
 30
0.0
 11
79.0
 21
-1.7
 31
0.0
  0
LINE
  5
1EC
330
17
100
AcDbEntity
  8
CASEWORK-DIMENSIONS
 62
2
100
AcDbLine
 10
91.0
 20
-2.7
 30
0.0
 11
91.0
 21
-1.7
 31
0.0
  0
TEXT
  5
1ED
330
17
100
AcDbEntity
  8
CASEWORK-DIMENSIONS
 62
2
100
AcDbText
 10
100.0
 20
-3.0
 30
0.0
 40
1.5
  1
18"
 72
1
 11
100.0
 21
-3.0
 31
0.0
100
AcDbText
 73
2
  0
LINE
  5
1EE
330
17
100
AcDbEntity
  8
CASEWORK-DIMENSIONS
 62
2
100
AcDbLine
 10
91.0
 20
-2.2
 30
0.0
 11
109.0
 21
-2.2
 31
0.0
  0
LINE
  5
1EF
330
17
100
AcDbEntity
  8
CASEWORK-DIMENSIONS
 62
2
100
AcDbLine
 10
91.0
 20
-2.7
 30
0.0
 11
91.0
 21
-1.7
 31
0.0
  0
LINE
  5
1F0
330
17
100
AcDbEntity
  8
CASEWORK-DIMENSIONS
 62
2
100
AcDbLine
 10
109.0
 20
-2.7
 30
0.0
 11
109.0
 21
-1.7
 31
0.0
  0
TEXT
  5
1F1
330
17
100
AcDbEntity
  8
CASEWORK-DIMENSIONS
 62
2
100
AcDbText
 10
119.5
 20
-3.0
 30
0.0
 40
1.5
  1
21"
 72
1
 11
119.5
 21
-3.0
 31
0.0
100
AcDbText
 73
2
  0
LINE
  5
1F2
330
17
100
AcDbEntity
  8
CASEWORK-DIMENSIONS
 62
2
100
AcDbLine
 10
109.0
 20
-2.2
 30
0.0
 11
130.0
 21
-2.2
 31
0.0
  0
LINE
  5
1F3
330
17
100
AcDbEntity
  8
CASEWORK-DIMENSIONS
 62
2
100
AcDbLine
 10
109.0
 20
-2.7
 30
0.0
 11
109.0
 21
-1.7
 31
0.0
  0
LINE
  5
1F4
330
17
100
AcDbEntity
  8
CASEWORK-DIMENSIONS
 62
2
100
AcDbLine
 10
130.0
 20
-2.7
 30
0.0
 11
130.0
 21
-1.7
 31
0.0
  0
TEXT
  5
1F5
330
17
100
AcDbEntity
  8
CASEWORK-DIMENSIONS
 62
2
100
AcDbText
 10
139.0
 20
-3.0
 30
0.0
 40
1.5
  1
18"
 72
1
 11
139.0
 21
-3.0
 31
0.0
100
AcDbText
 73
2
  0
LINE
  5
1F6
330
17
100
AcDbEntity
  8
CASEWORK-DIMENSIONS
 62
2
100
AcDbLine
 10
130.0
 20
-2.2
 30
0.0
 11
148.0
 21
-2.2
 31
0.0
  0
LINE
  5
1F7
330
17
100
AcDbEntity
  8
CASEWORK-DIMENSIONS
 62
2
100
AcDbLine
 10
130.0
 20
-2.7
 30
0.0
 11
130.0
 21
-1.7
 31
0.0
  0
LINE
  5
1F8
330
17
100
AcDbEntity
  8
CASEWORK-DIMENSIONS
 62
2
100
AcDbLine
 10
148.0
 20
-2.7
 30
0.0
 11
148.0
 21
-1.7
 31
0.0
  0
TEXT
  5
1F9
330
17
100
AcDbEntity
  8
CASEWORK-DIMENSIONS
 62
2
100
AcDbText
 10
166.0
 20
-3.0
 30
0.0
 40
1.5
  1
36"
 72
1
 11
166.0
 21
-3.0
 31
0.0
100
AcDbText
 73
2
  0
LINE
  5
1FA
330
17
100
AcDbEntity
  8
CASEWORK-DIMENSIONS
 62
2
100
AcDbLine
 10
148.0
 20
-2.2
 30
0.0
 11
184.0
 21
-2.2
 31
0.0
  0
LINE
  5
1FB
330
17
100
AcDbEntity
  8
CASEWORK-DIMENSIONS
 62
2
100
AcDbLine
 10
148.0
 20
-2.7
 30
0.0
 11
148.0
 21
-1.7
 31
0.0
  0
LINE
  5
1FC
330
17
100
AcDbEntity
  8
CASEWORK-DIMENSIONS
 62
2
100
AcDbLine
 10
184.0
 20
-2.7
 30
0.0
 11
184.0
 21
-1.7
 31
0.0
  0
TEXT
  5
1FD
330
17
100
AcDbEntity
  8
CASEWORK-DIMENSIONS
 62
2
100
AcDbText
 10
191.5
 20
-3.0
 30
0.0
 40
1.5
  1
15"
 72
1
 11
191.5
 21
-3.0
 31
0.0
100
AcDbText
 73
2
  0
LINE
  5
1FE
330
17
100
AcDbEntity
  8
CASEWORK-DIMENSIONS
 62
2
100
AcDbLine
 10
184.0
 20
-2.2
 30
0.0
 11
199.0
 21
-2.2
 31
0.0
  0
LINE
  5
1FF
330
17
100
AcDbEntity
  8
CASEWORK-DIMENSIONS
 62
2
100
AcDbLine
 10
184.0
 20
-2.7
 30
0.0
 11
184.0
 21
-1.7
 31
0.0
  0
LINE
  5
200
330
17
100
AcDbEntity
  8
CASEWORK-DIMENSIONS
 62
2
100
AcDbLine
 10
199.0
 20
-2.7
 30
0.0
 11
199.0
 21
-1.7
 31
0.0
  0
TEXT
  5
201
330
17
100
AcDbEntity
  8
CASEWORK-DIMENSIONS
 62
2
100
AcDbText
 10
206.5
 20
-3.0
 30
0.0
 40
1.5
  1
15"
 72
1
 11
206.5
 21
-3.0
 31
0.0
100
AcDbText
 73
2
  0
LINE
  5
202
330
17
100
AcDbEntity
  8
CASEWORK-DIMENSIONS
 62
2
100
AcDbLine
 10
199.0
 20
-2.2
 30
0.0
 11
214.0
 21
-2.2
 31
0.0
  0
LINE
  5
203
330
17
100
AcDbEntity
  8
CASEWORK-DIMENSIONS
 62
2
100
AcDbLine
 10
199.0
 20
-2.7
 30
0.0
 11
199.0
 21
-1.7
 31
0.0
  0
LINE
  5
204
330
17
100
AcDbEntity
  8
CASEWORK-DIMENSIONS
 62
2
100
AcDbLine
 10
214.0
 20
-2.7
 30
0.0
 11
214.0
 21
-1.7
 31
0.0
  0
TEXT
  5
205
330
17
100
AcDbEntity
  8
CASEWORK-DIMENSIONS
 62
2
100
AcDbText
 10
220.0
 20
-3.0
 30
0.0
 40
1.5
  1
12"
 72
1
 11
220.0
 21
-3.0
 31
0.0
100
AcDbText
 73
2
  0
LINE
  5
206
330
17
100
AcDbEntity
  8
CASEWORK-DIMENSIONS
 62
2
100
AcDbLine
 10
214.0
 20
-2.2
 30
0.0
 11
226.0
 21
-2.2
 31
0.0
  0
LINE
  5
207
330
17
100
AcDbEntity
  8
CASEWORK-DIMENSIONS
 62
2
100
AcDbLine
 10
214.0
 20
-2.7
 30
0.0
 11
214.0
 21
-1.7
 31
0.0
  0
LINE
  5
208
330
17
100
AcDbEntity
  8
CASEWORK-DIMENSIONS
 62
2
100
AcDbLine
 10
226.0
 20
-2.7
 30
0.0
 11
226.0
 21
-1.7
 31
0.0
  0
TEXT
  5
209
330
17
100
AcDbEntity
  8
CASEWORK-DIMENSIONS
 62
2
100
AcDbText
 10
232.0
 20
-3.0
 30
0.0
 40
1.5
  1
12"
 72
1
 11
232.0
 21
-3.0
 31
0.0
100
AcDbText
 73
2
  0
LINE
  5
20A
330
17
100
AcDbEntity
  8
CASEWORK-DIMENSIONS
 62
2
100
AcDbLine
 10
226.0
 20
-2.2
 30
0.0
 11
238.0
 21
-2.2
 31
0.0
  0
LINE
  5
20B
330
17
100
AcDbEntity
  8
CASEWORK-DIMENSIONS
 62
2
100
AcDbLine
 10
226.0
 20
-2.7
 30
0.0
 11
226.0
 21
-1.7
 31
0.0
  0
LINE
  5
20C
330
17
100
AcDbEntity
  8
CASEWORK-DIMENSIONS
 62
2
100
AcDbLine
 10
238.0
 20
-2.7
 30
0.0
 11
238.0
 21
-1.7
 31
0.0
  0
TEXT
  5
20D
330
17
100
AcDbEntity
  8
CASEWORK-DIMENSIONS
 62
2
100
AcDbText
 10
241.0
 20
-3.0
 30
0.0
 40
1.5
  1
6"
 72
1
 11
241.0
 21
-3.0
 31
0.0
100
AcDbText
 73
2
  0
LINE
  5
20E
330
17
100
AcDbEntity
  8
CASEWORK-DIMENSIONS
 62
2
100
AcDbLine
 10
238.0
 20
-2.2
 30
0.0
 11
244.0
 21
-2.2
 31
0.0
  0
LINE
  5
20F
330
17
100
AcDbEntity
  8
CASEWORK-DIMENSIONS
 62
2
100
AcDbLine
 10
238.0
 20
-2.7
 30
0.0
 11
238.0
 21
-1.7
 31
0.0
  0
LINE
  5
210
330
17
100
AcDbEntity
  8
CASEWORK-DIMENSIONS
 62
2
100
AcDbLine
 10
244.0
 20
-2.7
 30
0.0
 11
244.0
 21
-1.7
 31
0.0
  0
TEXT
  5
211
330
17
100
AcDbEntity
  8
CASEWORK-DIMENSIONS
 62
2
100
AcDbText
 10
250.0
 20
-3.0
 30
0.0
 40
1.5
  1
12"
 72
1
 11
250.0
 21
-3.0
 31
0.0
100
AcDbText
 73
2
  0
LINE
  5
212
330
17
100
AcDbEntity
  8
CASEWORK-DIMENSIONS
 62
2
100
AcDbLine
 10
244.0
 20
-2.2
 30
0.0
 11
256.0
 21
-2.2
 31
0.0
  0
LINE
  5
213
330
17
100
AcDbEntity
  8
CASEWORK-DIMENSIONS
 62
2
100
AcDbLine
 10
244.0
 20
-2.7
 30
0.0
 11
244.0
 21
-1.7
 31
0.0
  0
LINE
  5
214
330
17
100
AcDbEntity
  8
CASEWORK-DIMENSIONS
 62
2
100
AcDbLine
 10
256.0
 20
-2.7
 30
0.0
 11
256.0
 21
-1.7
 31
0.0
  0
TEXT
  5
215
330
17
100
AcDbEntity
  8
CASEWORK-DIMENSIONS
 62
2
100
AcDbText
 10
262.0
 20
-3.0
 30
0.0
 40
1.5
  1
12"
 72
1
 11
262.0
 21
-3.0
 31
0.0
100
AcDbText
 73
2
  0
LINE
  5
216
330
17
100
AcDbEntity
  8
CASEWORK-DIMENSIONS
 62
2
100
AcDbLine
 10
256.0
 20
-2.2
 30
0.0
 11
268.0
 21
-2.2
 31
0.0
  0
LINE
  5
217
330
17
100
AcDbEntity
  8
CASEWORK-DIMENSIONS
 62
2
100
AcDbLine
 10
256.0
 20
-2.7
 30
0.0
 11
256.0
 21
-1.7
 31
0.0
  0
LINE
  5
218
330
17
100
AcDbEntity
  8
CASEWORK-DIMENSIONS
 62
2
100
AcDbLine
 10
268.0
 20
-2.7
 30
0.0
 11
268.0
 21
-1.7
 31
0.0
  0
TEXT
  5
219
330
17
100
AcDbEntity
  8
CASEWORK-DIMENSIONS
 62
2
100
AcDbText
 10
274.0
 20
-3.0
 30
0.0
 40
1.5
  1
12"
 72
1
 11
274.0
 21
-3.0
 31
0.0
100
AcDbText
 73
2
  0
LINE
  5
21A
330
17
100
AcDbEntity
  8
CASEWORK-DIMENSIONS
 62
2
100
AcDbLine
 10
268.0
 20
-2.2
 30
0.0
 11
280.0
 21
-2.2
 31
0.0
  0
LINE
  5
21B
330
17
100
AcDbEntity
  8
CASEWORK-DIMENSIONS
 62
2
100
AcDbLine
 10
268.0
 20
-2.7
 30
0.0
 11
268.0
 21
-1.7
 31
0.0
  0
LINE
  5
21C
330
17
100
AcDbEntity
  8
CASEWORK-DIMENSIONS
 62
2
100
AcDbLine
 10
280.0
 20
-2.7
 30
0.0
 11
280.0
 21
-1.7
 31
0.0
  0
TEXT
  5
21D
330
17
100
AcDbEntity
  8
CASEWORK-DIMENSIONS
 62
2
100
AcDbText
 10
295.0
 20
-3.0
 30
0.0
 40
1.5
  1
30"
 72
1
 11
295.0
 21
-3.0
 31
0.0
100
AcDbText
 73
2
  0
LINE
  5
21E
330
17
100
AcDbEntity
  8
CASEWORK-DIMENSIONS
 62
2
100
AcDbLine
 10
280.0
 20
-2.2
 30
0.0
 11
310.0
 21
-2.2
 31
0.0
  0
LINE
  5
21F
330
17
100
AcDbEntity
  8
CASEWORK-DIMENSIONS
 62
2
100
AcDbLine
 10
280.0
 20
-2.7
 30
0.0
 11
280.0
 21
-1.7
 31
0.0
  0
LINE
  5
220
330
17
100
AcDbEntity
  8
CASEWORK-DIMENSIONS
 62
2
100
AcDbLine
 10
310.0
 20
-2.7
 30
0.0
 11
310.0
 21
-1.7
 31
0.0
  0
TEXT
  5
221
330
17
100
AcDbEntity
  8
CASEWORK-DIMENSIONS
 62
2
100
AcDbText
 10
322.0
 20
-3.0
 30
0.0
 40
1.5
  1
24"
 72
1
 11
322.0
 21
-3.0
 31
0.0
100
AcDbText
 73
2
  0
LINE
  5
222
330
17
100
AcDbEntity
  8
CASEWORK-DIMENSIONS
 62
2
100
AcDbLine
 10
310.0
 20
-2.2
 30
0.0
 11
334.0
 21
-2.2
 31
0.0
  0
LINE
  5
223
330
17
100
AcDbEntity
  8
CASEWORK-DIMENSIONS
 62
2
100
AcDbLine
 10
310.0
 20
-2.7
 30
0.0
 11
310.0
 21
-1.7
 31
0.0
  0
LINE
  5
224
330
17
100
AcDbEntity
  8
CASEWORK-DIMENSIONS
 62
2
100
AcDbLine
 10
334.0
 20
-2.7
 30
0.0
 11
334.0
 21
-1.7
 31
0.0
  0
TEXT
  5
225
330
17
100
AcDbEntity
  8
CASEWORK-DIMENSIONS
 62
2
100
AcDbText
 10
340.0
 20
-3.0
 30
0.0
 40
1.5
  1
12"
 72
1
 11
340.0
 21
-3.0
 31
0.0
100
AcDbText
 73
2
  0
LINE
  5
226
330
17
100
AcDbEntity
  8
CASEWORK-DIMENSIONS
 62
2
100
AcDbLine
 10
334.0
 20
-2.2
 30
0.0
 11
346.0
 21
-2.2
 31
0.0
  0
LINE
  5
227
330
17
100
AcDbEntity
  8
CASEWORK-DIMENSIONS
 62
2
100
AcDbLine
 10
334.0
 20
-2.7
 30
0.0
 11
334.0
 21
-1.7
 31
0.0
  0
LINE
  5
228
330
17
100
AcDbEntity
  8
CASEWORK-DIMENSIONS
 62
2
100
AcDbLine
 10
346.0
 20
-2.7
 30
0.0
 11
346.0
 21
-1.7
 31
0.0
  0
TEXT
  5
229
330
17
100
AcDbEntity
  8
CASEWORK-DIMENSIONS
 62
2
100
AcDbText
 10
352.0
 20
-3.0
 30
0.0
 40
1.5
  1
12"
 72
1
 11
352.0
 21
-3.0
 31
0.0
100
AcDbText
 73
2
  0
LINE
  5
22A
330
17
100
AcDbEntity
  8
CASEWORK-DIMENSIONS
 62
2
100
AcDbLine
 10
346.0
 20
-2.2
 30
0.0
 11
358.0
 21
-2.2
 31
0.0
  0
LINE
  5
22B
330
17
100
AcDbEntity
  8
CASEWORK-DIMENSIONS
 62
2
100
AcDbLine
 10
346.0
 20
-2.7
 30
0.0
 11
346.0
 21
-1.7
 31
0.0
  0
LINE
  5
22C
330
17
100
AcDbEntity
  8
CASEWORK-DIMENSIONS
 62
2
100
AcDbLine
 10
358.0
 20
-2.7
 30
0.0
 11
358.0
 21
-1.7
 31
0.0
  0
TEXT
  5
22D
330
17
100
AcDbEntity
  8
CASEWORK-DIMENSIONS
 62
2
100
AcDbText
 10
364.0
 20
-3.0
 30
0.0
 40
1.5
  1
12"
 72
1
 11
364.0
 21
-3.0
 31
0.0
100
AcDbText
 73
2
  0
LINE
  5
22E
330
17
100
AcDbEntity
  8
CASEWORK-DIMENSIONS
 62
2
100
AcDbLine
 10
358.0
 20
-2.2
 30
0.0
 11
370.0
 21
-2.2
 31
0.0
  0
LINE
  5
22F
330
17
100
AcDbEntity
  8
CASEWORK-DIMENSIONS
 62
2
100
AcDbLine
 10
358.0
 20
-2.7
 30
0.0
 11
358.0
 21
-1.7
 31
0.0
  0
LINE
  5
230
330
17
100
AcDbEntity
  8
CASEWORK-DIMENSIONS
 62
2
100
AcDbLine
 10
370.0
 20
-2.7
 30
0.0
 11
370.0
 21
-1.7
 31
0.0
  0
TEXT
  5
231
330
17
100
AcDbEntity
  8
CASEWORK-DIMENSIONS
 62
2
100
AcDbText
 10
373.0
 20
-3.0
 30
0.0
 40
1.5
  1
6"
 72
1
 11
373.0
 21
-3.0
 31
0.0
100
AcDbText
 73
2
  0
LINE
  5
232
330
17
100
AcDbEntity
  8
CASEWORK-DIMENSIONS
 62
2
100
AcDbLine
 10
370.0
 20
-2.2
 30
0.0
 11
376.0
 21
-2.2
 31
0.0
  0
LINE
  5
233
330
17
100
AcDbEntity
  8
CASEWORK-DIMENSIONS
 62
2
100
AcDbLine
 10
370.0
 20
-2.7
 30
0.0
 11
370.0
 21
-1.7
 31
0.0
  0
LINE
  5
234
330
17
100
AcDbEntity
  8
CASEWORK-DIMENSIONS
 62
2
100
AcDbLine
 10
376.0
 20
-2.7
 30
0.0
 11
376.0
 21
-1.7
 31
0.0
  0
TEXT
  5
235
330
17
100
AcDbEntity
  8
CASEWORK-DIMENSIONS
 62
2
100
AcDbText
 10
382.0
 20
-3.0
 30
0.0
 40
1.5
  1
12"
 72
1
 11
382.0
 21
-3.0
 31
0.0
100
AcDbText
 73
2
  0
LINE
  5
236
330
17
100
AcDbEntity
  8
CASEWORK-DIMENSIONS
 62
2
100
AcDbLine
 10
376.0
 20
-2.2
 30
0.0
 11
388.0
 21
-2.2
 31
0.0
  0
LINE
  5
237
330
17
100
AcDbEntity
  8
CASEWORK-DIMENSIONS
 62
2
100
AcDbLine
 10
376.0
 20
-2.7
 30
0.0
 11
376.0
 21
-1.7
 31
0.0
  0
LINE
  5
238
330
17
100
AcDbEntity
  8
CASEWORK-DIMENSIONS
 62
2
100
AcDbLine
 10
388.0
 20
-2.7
 30
0.0
 11
388.0
 21
-1.7
 31
0.0
  0
TEXT
  5
239
330
17
100
AcDbEntity
  8
CASEWORK-DIMENSIONS
 62
2
100
AcDbText
 10
391.5
 20
-3.0
 30
0.0
 40
1.5
  1
7"
 72
1
 11
391.5
 21
-3.0
 31
0.0
100
AcDbText
 73
2
  0
LINE
  5
23A
330
17
100
AcDbEntity
  8
CASEWORK-DIMENSIONS
 62
2
100
AcDbLine
 10
388.0
 20
-2.2
 30
0.0
 11
395.0
 21
-2.2
 31
0.0
  0
LINE
  5
23B
330
17
100
AcDbEntity
  8
CASEWORK-DIMENSIONS
 62
2
100
AcDbLine
 10
388.0
 20
-2.7
 30
0.0
 11
388.0
 21
-1.7
 31
0.0
  0
LINE
  5
23C
330
17
100
AcDbEntity
  8
CASEWORK-DIMENSIONS
 62
2
100
AcDbLine
 10
395.0
 20
-2.7
 30
0.0
 11
395.0
 21
-1.7
 31
0.0
  0
TEXT
  5
23D
330
17
100
AcDbEntity
  8
CASEWORK-DIMENSIONS
 62
2
100
AcDbText
 10
410.0
 20
-3.0
 30
0.0
 40
1.5
  1
30"
 72
1
 11
410.0
 21
-3.0
 31
0.0
100
AcDbText
 73
2
  0
LINE
  5
23E
330
17
100
AcDbEntity
  8
CASEWORK-DIMENSIONS
 62
2
100
AcDbLine
 10
395.0
 20
-2.2
 30
0.0
 11
425.0
 21
-2.2
 31
0.0
  0
LINE
  5
23F
330
17
100
AcDbEntity
  8
CASEWORK-DIMENSIONS
 62
2
100
AcDbLine
 10
395.0
 20
-2.7
 30
0.0
 11
395.0
 21
-1.7
 31
0.0
  0
LINE
  5
240
330
17
100
AcDbEntity
  8
CASEWORK-DIMENSIONS
 62
2
100
AcDbLine
 10
425.0
 20
-2.7
 30
0.0
 11
425.0
 21
-1.7
 31
0.0
  0
TEXT
  5
241
330
17
100
AcDbEntity
  8
CASEWORK-DIMENSIONS
 62
2
100
AcDbText
 10
212.5
 20
-7.0
 30
0.0
 40
2.0
  1
425" OVERALL
 72
1
 11
212.5
 21
-7.0
 31
0.0
100
AcDbText
 73
2
  0
LINE
  5
242
330
17
100
AcDbEntity
  8
CASEWORK-DIMENSIONS
 62
2
100
AcDbLine
 10
0.0
 20
-5.8
 30
0.0
 11
425.0
 21
-5.8
 31
0.0
  0
TEXT
  5
243
330
17
100
AcDbEntity
  8
CASEWORK-PRODUCT-NUMBERS
 62
2
100
AcDbText
 10
15.0
 20
20.2
 30
0.0
 40
1.2
  1
1131011W
 72
1
 11
15.0
 21
20.2
 31
0.0
100
AcDbText
 73
2
  0
TEXT
  5
244
330
17
100
AcDbEntity
  8
CASEWORK-PRODUCT-NUMBERS
 62
2
100
AcDbText
 10
33.5
 20
20.2
 30
0.0
 40
1.2
  1
CFC1001W
 72
1
 11
33.5
 21
20.2
 31
0.0
100
AcDbText
 73
2
  0
TEXT
  5
245
330
17
100
AcDbEntity
  8
CASEWORK-PRODUCT-NUMBERS
 62
2
100
AcDbText
 10
43.0
 20
20.2
 30
0.0
 40
1.2
  1
1010211W
 72
1
 11
43.0
 21
20.2
 31
0.0
100
AcDbText
 73
2
  0
TEXT
  5
246
330
17
100
AcDbEntity
  8
CASEWORK-PRODUCT-NUMBERS
 62
2
100
AcDbText
 10
64.0
 20
20.2
 30
0.0
 40
1.2
  1
1131011W
 72
1
 11
64.0
 21
20.2
 31
0.0
100
AcDbText
 73
2
  0
TEXT
  5
247
330
17
100
AcDbEntity
  8
CASEWORK-PRODUCT-NUMBERS
 62
2
100
AcDbText
 10
85.0
 20
20.2
 30
0.0
 40
1.2
  1
1010211W
 72
1
 11
85.0
 21
20.2
 31
0.0
100
AcDbText
 73
2
  0
TEXT
  5
248
330
17
100
AcDbEntity
  8
CASEWORK-PRODUCT-NUMBERS
 62
2
100
AcDbText
 10
100.0
 20
20.2
 30
0.0
 40
1.2
  1
1110100W
 72
1
 11
100.0
 21
20.2
 31
0.0
100
AcDbText
 73
2
  0
TEXT
  5
249
330
17
100
AcDbEntity
  8
CASEWORK-PRODUCT-NUMBERS
 62
2
100
AcDbText
 10
119.5
 20
20.2
 30
0.0
 40
1.2
  1
1160211W
 72
1
 11
119.5
 21
20.2
 31
0.0
100
AcDbText
 73
2
  0
TEXT
  5
24A
330
17
100
AcDbEntity
  8
CASEWORK-PRODUCT-NUMBERS
 62
2
100
AcDbText
 10
139.0
 20
20.2
 30
0.0
 40
1.2
  1
1310311W
 72
1
 11
139.0
 21
20.2
 31
0.0
100
AcDbText
 73
2
  0
TEXT
  5
24B
330
17
100
AcDbEntity
  8
CASEWORK-PRODUCT-NUMBERS
 62
2
100
AcDbText
 10
166.0
 20
20.2
 30
0.0
 40
1.2
  1
1080211W
 72
1
 11
166.0
 21
20.2
 31
0.0
100
AcDbText
 73
2
  0
TEXT
  5
24C
330
17
100
AcDbEntity
  8
CASEWORK-PRODUCT-NUMBERS
 62
2
100
AcDbText
 10
191.5
 20
20.2
 30
0.0
 40
1.2
  1
1910100W
 72
1
 11
191.5
 21
20.2
 31
0.0
100
AcDbText
 73
2
  0
TEXT
  5
24D
330
17
100
AcDbEntity
  8
CASEWORK-PRODUCT-NUMBERS
 62
2
100
AcDbText
 10
206.5
 20
15.7
 30
0.0
 40
1.2
  1
1910211W
 72
1
 11
206.5
 21
15.7
 31
0.0
100
AcDbText
 73
2
  0
TEXT
  5
24E
330
17
100
AcDbEntity
  8
CASEWORK-PRODUCT-NUMBERS
 62
2
100
AcDbText
 10
220.0
 20
19.0
 30
0.0
 40
1.2
  1
1010211W
 72
1
 11
220.0
 21
19.0
 31
0.0
100
AcDbText
 73
2
  0
TEXT
  5
24F
330
17
100
AcDbEntity
  8
CASEWORK-PRODUCT-NUMBERS
 62
2
100
AcDbText
 10
232.0
 20
19.0
 30
0.0
 40
1.2
  1
1010211W
 72
1
 11
232.0
 21
19.0
 31
0.0
100
AcDbText
 73
2
  0
TEXT
  5
250
330
17
100
AcDbEntity
  8
CASEWORK-PRODUCT-NUMBERS
 62
2
100
AcDbText
 10
241.0
 20
19.0
 30
0.0
 40
1.2
  1
CFC1001W
 72
1
 11
241.0
 21
19.0
 31
0.0
100
AcDbText
 73
2
  0
TEXT
  5
251
330
17
100
AcDbEntity
  8
CASEWORK-PRODUCT-NUMBERS
 62
2
100
AcDbText
 10
250.0
 20
19.0
 30
0.0
 40
1.2
  1
1010211W
 72
1
 11
250.0
 21
19.0
 31
0.0
100
AcDbText
 73
2
  0
TEXT
  5
252
330
17
100
AcDbEntity
  8
CASEWORK-PRODUCT-NUMBERS
 62
2
100
AcDbText
 10
262.0
 20
19.0
 30
0.0
 40
1.2
  1
1010211W
 72
1
 11
262.0
 21
19.0
 31
0.0
100
AcDbText
 73
2
  0
TEXT
  5
253
330
17
100
AcDbEntity
  8
CASEWORK-PRODUCT-NUMBERS
 62
2
100
AcDbText
 10
274.0
 20
19.0
 30
0.0
 40
1.2
  1
1010211W
 72
1
 11
274.0
 21
19.0
 31
0.0
100
AcDbText
 73
2
  0
TEXT
  5
254
330
17
100
AcDbEntity
  8
CASEWORK-PRODUCT-NUMBERS
 62
2
100
AcDbText
 10
295.0
 20
19.0
 30
0.0
 40
1.2
  1
1131011W
 72
1
 11
295.0
 21
19.0
 31
0.0
100
AcDbText
 73
2
  0
TEXT
  5
255
330
17
100
AcDbEntity
  8
CASEWORK-PRODUCT-NUMBERS
 62
2
100
AcDbText
 10
322.0
 20
19.0
 30
0.0
 40
1.2
  1
1120211W
 72
1
 11
322.0
 21
19.0
 31
0.0
100
AcDbText
 73
2
  0
TEXT
  5
256
330
17
100
AcDbEntity
  8
CASEWORK-PRODUCT-NUMBERS
 62
2
100
AcDbText
 10
340.0
 20
16.7
 30
0.0
 40
1.2
  1
1010211W
 72
1
 11
340.0
 21
16.7
 31
0.0
100
AcDbText
 73
2
  0
TEXT
  5
257
330
17
100
AcDbEntity
  8
CASEWORK-PRODUCT-NUMBERS
 62
2
100
AcDbText
 10
352.0
 20
19.0
 30
0.0
 40
1.2
  1
1010211W
 72
1
 11
352.0
 21
19.0
 31
0.0
100
AcDbText
 73
2
  0
TEXT
  5
258
330
17
100
AcDbEntity
  8
CASEWORK-PRODUCT-NUMBERS
 62
2
100
AcDbText
 10
364.0
 20
19.0
 30
0.0
 40
1.2
  1
1010211W
 72
1
 11
364.0
 21
19.0
 31
0.0
100
AcDbText
 73
2
  0
TEXT
  5
259
330
17
100
AcDbEntity
  8
CASEWORK-PRODUCT-NUMBERS
 62
2
100
AcDbText
 10
373.0
 20
19.0
 30
0.0
 40
1.2
  1
CFC1001W
 72
1
 11
373.0
 21
19.0
 31
0.0
100
AcDbText
 73
2
  0
TEXT
  5
25A
330
17
100
AcDbEntity
  8
CASEWORK-PRODUCT-NUMBERS
 62
2
100
AcDbText
 10
382.0
 20
19.0
 30
0.0
 40
1.2
  1
1010211W
 72
1
 11
382.0
 21
19.0
 31
0.0
100
AcDbText
 73
2
  0
TEXT
  5
25B
330
17
100
AcDbEntity
  8
CASEWORK-PRODUCT-NUMBERS
 62
2
100
AcDbText
 10
391.5
 20
19.0
 30
0.0
 40
1.2
  1
CFC1001W
 72
1
 11
391.5
 21
19.0
 31
0.0
100
AcDbText
 73
2
  0
TEXT
  5
25C
330
17
100
AcDbEntity
  8
CASEWORK-PRODUCT-NUMBERS
 62
2
100
AcDbText
 10
410.0
 20
19.0
 30
0.0
 40
1.2
  1
1131011W
 72
1
 11
410.0
 21
19.0
 31
0.0
100
AcDbText
 73
2
  0
TEXT
  5
25D
330
17
100
AcDbEntity
  8
CASEWORK-ANNOTATIONS
 62
7
100
AcDbText
 10
0.0
 20
-15.0
 30
0.0
 40
3.0
  1
Elevation E4 - Mott Casework
 11
0.0
 21
-15.0
 31
0.0
100
AcDbText
  0
TEXT
  5
25E
330
17
100
AcDbEntity
  8
CASEWORK-ANNOTATIONS
 62
1
100
AcDbText
 10
0.0
 20
-19.0
 30
0.0
 40
1.5
  1
Generated by Casework AI Pipeline | Items: 26 | Matched: 26 | Flagged: 0
 11
0.0
 21
-19.0
 31
0.0
100
AcDbText
  0
ENDSEC
  0
SECTION
  2
OBJECTS
  0
DICTIONARY
  5
A
330
0
100
AcDbDictionary
281
1
  3
ACAD_COLOR
350
B
  3
ACAD_GROUP
350
C
  3
ACAD_LAYOUT
350
D
  3
ACAD_MATERIAL
350
E
  3
ACAD_MLEADERSTYLE
350
F
  3
ACAD_MLINESTYLE
350
10
  3
ACAD_PLOTSETTINGS
350
11
  3
ACAD_PLOTSTYLENAME
350
12
  3
ACAD_SCALELIST
350
14
  3
ACAD_TABLESTYLE
350
15
  3
ACAD_VISUALSTYLE
350
16
  3
EZDXF_META
350
2D
  0
DICTIONARY
  5
B
330
A
100
AcDbDictionary
281
1
  0
DICTIONARY
  5
C
330
A
100
AcDbDictionary
281
1
  0
DICTIONARY
  5
D
330
A
100
AcDbDictionary
281
1
  3
Model
350
1A
  3
Layout1
350
1E
  0
DICTIONARY
  5
E
330
A
100
AcDbDictionary
281
1
  3
ByBlock
350
1F
  3
ByLayer
350
20
  3
Global
350
21
  0
DICTIONARY
  5
F
330
A
100
AcDbDictionary
281
1
  3
Standard
350
2C
  0
DICTIONARY
  5
10
330
A
100
AcDbDictionary
281
1
  3
Standard
350
22
  0
DICTIONARY
  5
11
330
A
100
AcDbDictionary
281
1
  0
ACDBDICTIONARYWDFLT
  5
12
330
A
100
AcDbDictionary
281
1
  3
Normal
350
13
100
AcDbDictionaryWithDefault
340
13
  0
ACDBPLACEHOLDER
  5
13
330
12
  0
DICTIONARY
  5
14
330
A
100
AcDbDictionary
281
1
  0
DICTIONARY
  5
15
330
A
100
AcDbDictionary
281
1
  0
DICTIONARY
  5
16
330
A
100
AcDbDictionary
281
1
  0
LAYOUT
  5
1A
330
D
100
AcDbPlotSettings
  1

  4
A3
  6

 40
7.5
 41
20.0
 42
7.5
 43
20.0
 44
420.0
 45
297.0
 46
0.0
 47
0.0
 48
0.0
 49
0.0
140
0.0
141
0.0
142
1.0
143
1.0
 70
1024
 72
1
 73
0
 74
5
  7

 75
16
 76
0
 77
2
 78
300
147
1.0
148
0.0
149
0.0
100
AcDbLayout
  1
Model
 70
1
 71
0
 10
0.0
 20
0.0
 11
420.0
 21
297.0
 12
0.0
 22
0.0
 32
0.0
 14
1e+20
 24
1e+20
 34
1e+20
 15
-1e+20
 25
-1e+20
 35
-1e+20
146
0.0
 13
0.0
 23
0.0
 33
0.0
 16
1.0
 26
0.0
 36
0.0
 17
0.0
 27
1.0
 37
0.0
 76
1
330
17
  0
LAYOUT
  5
1E
330
D
100
AcDbPlotSettings
  1

  4
A3
  6

 40
7.5
 41
20.0
 42
7.5
 43
20.0
 44
420.0
 45
297.0
 46
0.0
 47
0.0
 48
0.0
 49
0.0
140
0.0
141
0.0
142
1.0
143
1.0
 70
0
 72
1
 73
0
 74
5
  7

 75
16
 76
0
 77
2
 78
300
147
1.0
148
0.0
149
0.0
100
AcDbLayout
  1
Layout1
 70
1
 71
1
 10
0.0
 20
0.0
 11
420.0
 21
297.0
 12
0.0
 22
0.0
 32
0.0
 14
1e+20
 24
1e+20
 34
1e+20
 15
-1e+20
 25
-1e+20
 35
-1e+20
146
0.0
 13
0.0
 23
0.0
 33
0.0
 16
1.0
 26
0.0
 36
0.0
 17
0.0
 27
1.0
 37
0.0
 76
1
330
1B
  0
MATERIAL
  5
1F
102
{ACAD_REACTORS
330
E
102
}
330
E
100
AcDbMaterial
  1
ByBlock
  2

 70
0
 40
1.0
 71
1
 41
1.0
 91
-1023410177
 42
1.0
 72
1
  3

 73
1
 74
1
 75
1
 44
0.5
 73
0
 45
1.0
 46
1.0
 77
1
  4

 78
1
 79
1
170
1
 48
1.0
171
1
  6

172
1
173
1
174
1
140
1.0
141
1.0
175
1
  7

176
1
177
1
178
1
143
1.0
179
1
  8

270
1
271
1
272
1
145
1.0
146
1.0
273
1
  9

274
1
275
1
276
1
 42
1.0
 72
1
  3

 73
1
 74
1
 75
1
 94
63
  0
MATERIAL
  5
20
102
{ACAD_REACTORS
330
E
102
}
330
E
100
AcDbMaterial
  1
ByLayer
  2

 70
0
 40
1.0
 71
1
 41
1.0
 91
-1023410177
 42
1.0
 72
1
  3

 73
1
 74
1
 75
1
 44
0.5
 73
0
 45
1.0
 46
1.0
 77
1
  4

 78
1
 79
1
170
1
 48
1.0
171
1
  6

172
1
173
1
174
1
140
1.0
141
1.0
175
1
  7

176
1
177
1
178
1
143
1.0
179
1
  8

270
1
271
1
272
1
145
1.0
146
1.0
273
1
  9

274
1
275
1
276
1
 42
1.0
 72
1
  3

 73
1
 74
1
 75
1
 94
63
  0
MATERIAL
  5
21
102
{ACAD_REACTORS
330
E
102
}
330
E
100
AcDbMaterial
  1
Global
  2

 70
0
 40
1.0
 71
1
 41
1.0
 91
-1023410177
 42
1.0
 72
1
  3

 73
1
 74
1
 75
1
 44
0.5
 73
0
 45
1.0
 46
1.0
 77
1
  4

 78
1
 79
1
170
1
 48
1.0
171
1
  6

172
1
173
1
174
1
140
1.0
141
1.0
175
1
  7

176
1
177
1
178
1
143
1.0
179
1
  8

270
1
271
1
272
1
145
1.0
146
1.0
273
1
  9

274
1
275
1
276
1
 42
1.0
 72
1
  3

 73
1
 74
1
 75
1
 94
63
  0
MLINESTYLE
  5
22
102
{ACAD_REACTORS
330
10
102
}
330
10
100
AcDbMlineStyle
  2
Standard
 70
0
  3

 62
256
 51
90.0
 52
90.0
 71
2
 49
0.5
 62
256
  6
BYLAYER
 49
-0.5
 62
256
  6
BYLAYER
  0
MLEADERSTYLE
  5
2C
102
{ACAD_REACTORS
330
F
102
}
330
F
100
AcDbMLeaderStyle
179
2
170
2
171
1
172
0
 90
2
 40
0.0
 41
0.0
173
1
 91
-1056964608
 92
-2
290
1
 42
2.0
291
1
 43
8.0
  3
Standard
 44
4.0
300

342
29
174
1
175
1
176
0
178
1
 93
-1056964608
 45
4.0
292
0
297
0
 46
4.0
 94
-1056964608
 47
1.0
 49
1.0
140
1.0
294
1
141
0.0
177
0
142
1.0
295
0
296
0
143
3.75
271
0
272
9
273
9
  0
DICTIONARY
  5
2D
330
A
100
AcDbDictionary
280
1
281
1
  3
CREATED_BY_EZDXF
350
2E
  3
WRITTEN_BY_EZDXF
350
261
  0
DICTIONARYVAR
  5
2E
330
2D
100
DictionaryVariables
280
0
  1
1.4.3 @ 2026-04-15T19:52:32.328684+00:00
  0
DICTIONARYVAR
  5
261
330
2D
100
DictionaryVariables
280
0
  1
1.4.3 @ 2026-04-15T19:52:32.360862+00:00
  0
ENDSEC
  0
EOF
