  0
SECTION
  2
HEADER
  9
$ACADVER
  1
AC1024
  9
$ACADMAINTVER
 70
6
  9
$DWGCODEPAGE
  3
ANSI_1252
  9
$LASTSAVEDBY
  1
ezdxf
  9
$INSBASE
 10
0.0
 20
0.0
 30
0.0
  9
$EXTMIN
 10
1e+20
 20
1e+20
 30
1e+20
  9
$EXTMAX
 10
-1e+20
 20
-1e+20
 30
-1e+20
  9
$LIMMIN
 10
0.0
 20
0.0
  9
$LIMMAX
 10
420.0
 20
297.0
  9
$ORTHOMODE
 70
0
  9
$REGENMODE
 70
1
  9
$FILLMODE
 70
1
  9
$QTEXTMODE
 70
0
  9
$MIRRTEXT
 70
1
  9
$LTSCALE
 40
1.0
  9
$ATTMODE
 70
1
  9
$TEXTSIZE
 40
2.5
  9
$TRACEWID
 40
1.0
  9
$TEXTSTYLE
  7
Standard
  9
$CLAYER
  8
0
  9
$CELTYPE
  6
ByLayer
  9
$CECOLOR
 62
256
  9
$CELTSCALE
 40
1.0
  9
$DISPSILH
 70
0
  9
$DIMSCALE
 40
1.0
  9
$DIMASZ
 40
2.5
  9
$DIMEXO
 40
0.625
  9
$DIMDLI
 40
3.75
  9
$DIMRND
 40
0.0
  9
$DIMDLE
 40
0.0
  9
$DIMEXE
 40
1.25
  9
$DIMTP
 40
0.0
  9
$DIMTM
 40
0.0
  9
$DIMTXT
 40
2.5
  9
$DIMCEN
 40
2.5
  9
$DIMTSZ
 40
0.0
  9
$DIMTOL
 70
0
  9
$DIMLIM
 70
0
  9
$DIMTIH
 70
0
  9
$DIMTOH
 70
0
  9
$DIMSE1
 70
0
  9
$DIMSE2
 70
0
  9
$DIMTAD
 70
1
  9
$DIMZIN
 70
8
  9
$DIMBLK
  1

  9
$DIMASO
 70
1
  9
$DIMSHO
 70
1
  9
$DIMPOST
  1

  9
$DIMAPOST
  1

  9
$DIMALT
 70
0
  9
$DIMALTD
 70
3
  9
$DIMALTF
 40
0.03937007874
  9
$DIMLFAC
 40
1.0
  9
$DIMTOFL
 70
1
  9
$DIMTVP
 40
0.0
  9
$DIMTIX
 70
0
  9
$DIMSOXD
 70
0
  9
$DIMSAH
 70
0
  9
$DIMBLK1
  1

  9
$DIMBLK2
  1

  9
$DIMSTYLE
  2
ISO-25
  9
$DIMCLRD
 70
0
  9
$DIMCLRE
 70
0
  9
$DIMCLRT
 70
0
  9
$DIMTFAC
 40
1.0
  9
$DIMGAP
 40
0.625
  9
$DIMJUST
 70
0
  9
$DIMSD1
 70
0
  9
$DIMSD2
 70
0
  9
$DIMTOLJ
 70
0
  9
$DIMTZIN
 70
8
  9
$DIMALTZ
 70
0
  9
$DIMALTTZ
 70
0
  9
$DIMUPT
 70
0
  9
$DIMDEC
 70
2
  9
$DIMTDEC
 70
2
  9
$DIMALTU
 70
2
  9
$DIMALTTD
 70
3
  9
$DIMTXSTY
  7
Standard
  9
$DIMAUNIT
 70
0
  9
$DIMADEC
 70
0
  9
$DIMALTRND
 40
0.0
  9
$DIMAZIN
 70
0
  9
$DIMDSEP
 70
44
  9
$DIMATFIT
 70
3
  9
$DIMFRAC
 70
0
  9
$DIMLDRBLK
  1

  9
$DIMLUNIT
 70
2
  9
$DIMLWD
 70
-2
  9
$DIMLWE
 70
-2
  9
$DIMTMOVE
 70
0
  9
$DIMFXL
 40
1.0
  9
$DIMFXLON
 70
0
  9
$DIMJOGANG
 40
0.785398163397
  9
$DIMTFILL
 70
0
  9
$DIMTFILLCLR
 70
0
  9
$DIMARCSYM
 70
0
  9
$DIMLTYPE
  6

  9
$DIMLTEX1
  6

  9
$DIMLTEX2
  6

  9
$DIMTXTDIRECTION
 70
0
  9
$LUNITS
 70
2
  9
$LUPREC
 70
4
  9
$SKETCHINC
 40
1.0
  9
$FILLETRAD
 40
10.0
  9
$AUNITS
 70
0
  9
$AUPREC
 70
2
  9
$MENU
  1
.
  9
$ELEVATION
 40
0.0
  9
$PELEVATION
 40
0.0
  9
$THICKNESS
 40
0.0
  9
$LIMCHECK
 70
0
  9
$CHAMFERA
 40
0.0
  9
$CHAMFERB
 40
0.0
  9
$CHAMFERC
 40
0.0
  9
$CHAMFERD
 40
0.0
  9
$SKPOLY
 70
0
  9
$TDCREATE
 40
2461147.287974537
  9
$TDUCREATE
 40
2458532.153996898
  9
$TDUPDATE
 40
2461147.287974537
  9
$TDUUPDATE
 40
2458532.1544311
  9
$TDINDWG
 40
0.0
  9
$TDUSRTIMER
 40
0.0
  9
$USRTIMER
 70
1
  9
$ANGBASE
 50
0.0
  9
$ANGDIR
 70
0
  9
$PDMODE
 70
0
  9
$PDSIZE
 40
0.0
  9
$PLINEWID
 40
0.0
  9
$SPLFRAME
 70
0
  9
$SPLINETYPE
 70
6
  9
$SPLINESEGS
 70
8
  9
$HANDSEED
  5
38D
  9
$SURFTAB1
 70
6
  9
$SURFTAB2
 70
6
  9
$SURFTYPE
 70
6
  9
$SURFU
 70
6
  9
$SURFV
 70
6
  9
$UCSBASE
  2

  9
$UCSNAME
  2

  9
$UCSORG
 10
0.0
 20
0.0
 30
0.0
  9
$UCSXDIR
 10
1.0
 20
0.0
 30
0.0
  9
$UCSYDIR
 10
0.0
 20
1.0
 30
0.0
  9
$UCSORTHOREF
  2

  9
$UCSORTHOVIEW
 70
0
  9
$UCSORGTOP
 10
0.0
 20
0.0
 30
0.0
  9
$UCSORGBOTTOM
 10
0.0
 20
0.0
 30
0.0
  9
$UCSORGLEFT
 10
0.0
 20
0.0
 30
0.0
  9
$UCSORGRIGHT
 10
0.0
 20
0.0
 30
0.0
  9
$UCSORGFRONT
 10
0.0
 20
0.0
 30
0.0
  9
$UCSORGBACK
 10
0.0
 20
0.0
 30
0.0
  9
$PUCSBASE
  2

  9
$PUCSNAME
  2

  9
$PUCSORG
 10
0.0
 20
0.0
 30
0.0
  9
$PUCSXDIR
 10
1.0
 20
0.0
 30
0.0
  9
$PUCSYDIR
 10
0.0
 20
1.0
 30
0.0
  9
$PUCSORTHOREF
  2

  9
$PUCSORTHOVIEW
 70
0
  9
$PUCSORGTOP
 10
0.0
 20
0.0
 30
0.0
  9
$PUCSORGBOTTOM
 10
0.0
 20
0.0
 30
0.0
  9
$PUCSORGLEFT
 10
0.0
 20
0.0
 30
0.0
  9
$PUCSORGRIGHT
 10
0.0
 20
0.0
 30
0.0
  9
$PUCSORGFRONT
 10
0.0
 20
0.0
 30
0.0
  9
$PUCSORGBACK
 10
0.0
 20
0.0
 30
0.0
  9
$USERI1
 70
0
  9
$USERI2
 70
0
  9
$USERI3
 70
0
  9
$USERI4
 70
0
  9
$USERI5
 70
0
  9
$USERR1
 40
0.0
  9
$USERR2
 40
0.0
  9
$USERR3
 40
0.0
  9
$USERR4
 40
0.0
  9
$USERR5
 40
0.0
  9
$WORLDVIEW
 70
1
  9
$SHADEDGE
 70
3
  9
$SHADEDIF
 70
70
  9
$TILEMODE
 70
1
  9
$MAXACTVP
 70
64
  9
$PINSBASE
 10
0.0
 20
0.0
 30
0.0
  9
$PLIMCHECK
 70
0
  9
$PEXTMIN
 10
1e+20
 20
1e+20
 30
1e+20
  9
$PEXTMAX
 10
-1e+20
 20
-1e+20
 30
-1e+20
  9
$PLIMMIN
 10
0.0
 20
0.0
  9
$PLIMMAX
 10
420.0
 20
297.0
  9
$UNITMODE
 70
0
  9
$VISRETAIN
 70
1
  9
$PLINEGEN
 70
0
  9
$PSLTSCALE
 70
1
  9
$TREEDEPTH
 70
3020
  9
$CMLSTYLE
  2
Standard
  9
$CMLJUST
 70
0
  9
$CMLSCALE
 40
20.0
  9
$PROXYGRAPHICS
 70
1
  9
$MEASUREMENT
 70
1
  9
$CELWEIGHT
370
-1
  9
$ENDCAPS
280
0
  9
$JOINSTYLE
280
0
  9
$LWDISPLAY
290
0
  9
$INSUNITS
 70
6
  9
$HYPERLINKBASE
  1

  9
$STYLESHEET
  1

  9
$XEDIT
290
1
  9
$CEPSNTYPE
380
0
  9
$PSTYLEMODE
290
1
  9
$FINGERPRINTGUID
  2
{7C492938-3E1E-4BED-801A-73DE4A97ED22}
  9
$VERSIONGUID
  2
{D13DCF30-7A56-4A44-B336-C4D3D06FFF85}
  9
$EXTNAMES
290
1
  9
$PSVPSCALE
 40
0.0
  9
$OLESTARTUP
290
0
  9
$SORTENTS
280
127
  9
$INDEXCTL
280
0
  9
$HIDETEXT
280
1
  9
$XCLIPFRAME
280
1
  9
$HALOGAP
280
0
  9
$OBSCOLOR
 70
257
  9
$OBSLTYPE
280
0
  9
$INTERSECTIONDISPLAY
280
0
  9
$INTERSECTIONCOLOR
 70
257
  9
$DIMASSOC
280
2
  9
$PROJECTNAME
  1

  9
$CAMERADISPLAY
290
0
  9
$LENSLENGTH
 40
50.0
  9
$CAMERAHEIGHT
 40
0.0
  9
$STEPSPERSEC
 40
24.0
  9
$STEPSIZE
 40
100.0
  9
$3DDWFPREC
 40
2.0
  9
$PSOLWIDTH
 40
0.005
  9
$PSOLHEIGHT
 40
0.08
  9
$LOFTANG1
 40
1.570796326795
  9
$LOFTANG2
 40
1.570796326795
  9
$LOFTMAG1
 40
0.0
  9
$LOFTMAG2
 40
0.0
  9
$LOFTPARAM
 70
7
  9
$LOFTNORMALS
280
1
  9
$LATITUDE
 40
37.795
  9
$LONGITUDE
 40
-122.394
  9
$NORTHDIRECTION
 40
0.0
  9
$TIMEZONE
 70
-8000
  9
$LIGHTGLYPHDISPLAY
280
1
  9
$TILEMODELIGHTSYNCH
280
1
  9
$CMATERIAL
347
20
  9
$SOLIDHIST
280
0
  9
$SHOWHIST
280
1
  9
$DWFFRAME
280
2
  9
$DGNFRAME
280
2
  9
$REALWORLDSCALE
290
1
  9
$INTERFERECOLOR
 62
256
  9
$CSHADOW
280
0
  9
$SHADOWPLANELOCATION
 40
0.0
  0
ENDSEC
  0
SECTION
  2
CLASSES
  0
CLASS
  1
ACDBDICTIONARYWDFLT
  2
AcDbDictionaryWithDefault
  3
ObjectDBX Classes
 90
0
 91
0
280
0
281
0
  0
CLASS
  1
SUN
  2
AcDbSun
  3
SCENEOE
 90
1153
 91
0
280
0
281
0
  0
CLASS
  1
VISUALSTYLE
  2
AcDbVisualStyle
  3
ObjectDBX Classes
 90
4095
 91
0
280
0
281
0
  0
CLASS
  1
MATERIAL
  2
AcDbMaterial
  3
ObjectDBX Classes
 90
1153
 91
0
280
0
281
0
  0
CLASS
  1
SCALE
  2
AcDbScale
  3
ObjectDBX Classes
 90
1153
 91
0
280
0
281
0
  0
CLASS
  1
TABLESTYLE
  2
AcDbTableStyle
  3
ObjectDBX Classes
 90
4095
 91
0
280
0
281
0
  0
CLASS
  1
MLEADERSTYLE
  2
AcDbMLeaderStyle
  3
ACDB_MLEADERSTYLE_CLASS
 90
4095
 91
0
280
0
281
0
  0
CLASS
  1
DICTIONARYVAR
  2
AcDbDictionaryVar
  3
ObjectDBX Classes
 90
0
 91
0
280
0
281
0
  0
CLASS
  1
CELLSTYLEMAP
  2
AcDbCellStyleMap
  3
ObjectDBX Classes
 90
1152
 91
0
280
0
281
0
  0
CLASS
  1
MENTALRAYRENDERSETTINGS
  2
AcDbMentalRayRenderSettings
  3
SCENEOE
 90
1024
 91
0
280
0
281
0
  0
CLASS
  1
ACDBDETAILVIEWSTYLE
  2
AcDbDetailViewStyle
  3
ObjectDBX Classes
 90
1025
 91
0
280
0
281
0
  0
CLASS
  1
ACDBSECTIONVIEWSTYLE
  2
AcDbSectionViewStyle
  3
ObjectDBX Classes
 90
1025
 91
0
280
0
281
0
  0
CLASS
  1
RASTERVARIABLES
  2
AcDbRasterVariables
  3
ISM
 90
0
 91
0
280
0
281
0
  0
CLASS
  1
LAYOUT
  2
AcDbLayout
  3
ObjectDBX Classes
 90
0
 91
0
280
0
281
0
  0
CLASS
  1
ACDBPLACEHOLDER
  2
AcDbPlaceHolder
  3
ObjectDBX Classes
 90
0
 91
0
280
0
281
0
  0
ENDSEC
  0
SECTION
  2
TABLES
  0
TABLE
  2
VPORT
  5
8
330
0
100
AcDbSymbolTable
 70
1
  0
VPORT
  5
23
330
8
100
AcDbSymbolTableRecord
100
AcDbViewportTableRecord
  2
*Active
 70
0
 10
0.0
 20
0.0
 11
1.0
 21
1.0
 12
0.0
 22
0.0
 13
0.0
 23
0.0
 14
0.5
 24
0.5
 15
0.5
 25
0.5
 16
0.0
 26
0.0
 36
1.0
 17
0.0
 27
0.0
 37
0.0
 40
1000.0
 41
1.34
 42
50.0
 43
0.0
 44
0.0
 50
0.0
 51
0.0
 71
0
 72
1000
 73
1
 74
3
 75
0
 76
0
 77
0
 78
0
281
0
 65
0
146
0.0
  0
ENDTAB
  0
TABLE
  2
LTYPE
  5
2
330
0
100
AcDbSymbolTable
 70
4
  0
LTYPE
  5
24
330
2
100
AcDbSymbolTableRecord
100
AcDbLinetypeTableRecord
  2
ByBlock
 70
0
  3

 72
65
 73
0
 40
0.0
  0
LTYPE
  5
25
330
2
100
AcDbSymbolTableRecord
100
AcDbLinetypeTableRecord
  2
ByLayer
 70
0
  3

 72
65
 73
0
 40
0.0
  0
LTYPE
  5
26
330
2
100
AcDbSymbolTableRecord
100
AcDbLinetypeTableRecord
  2
Continuous
 70
0
  3

 72
65
 73
0
 40
0.0
  0
LTYPE
  5
3A
330
2
100
AcDbSymbolTableRecord
100
AcDbLinetypeTableRecord
  2
HIDDEN
 70
0
  3

 72
65
 73
2
 40
0.25
 49
0.125
 74
0
 49
-0.0625
 74
0
  0
ENDTAB
  0
TABLE
  2
LAYER
  5
1
330
0
100
AcDbSymbolTable
 70
13
  0
LAYER
  5
27
330
1
100
AcDbSymbolTableRecord
100
AcDbLayerTableRecord
  2
0
 70
0
 62
7
  6
Continuous
370
-3
390
13
347
21
  0
LAYER
  5
28
330
1
100
AcDbSymbolTableRecord
100
AcDbLayerTableRecord
  2
Defpoints
 70
0
 62
7
  6
Continuous
290
0
370
-3
390
13
347
21
  0
LAYER
  5
2F
330
1
100
AcDbSymbolTableRecord
100
AcDbLayerTableRecord
  2
CASEWORK-CABINETS
 70
0
 62
7
  6
Continuous
370
-3
390
13
347
21
  0
LAYER
  5
30
330
1
100
AcDbSymbolTableRecord
100
AcDbLayerTableRecord
  2
CASEWORK-COUNTERTOPS
 70
0
 62
3
  6
Continuous
370
-3
390
13
347
21
  0
LAYER
  5
31
330
1
100
AcDbSymbolTableRecord
100
AcDbLayerTableRecord
  2
CASEWORK-SINKS
 70
0
 62
5
  6
Continuous
370
-3
390
13
347
21
  0
LAYER
  5
32
330
1
100
AcDbSymbolTableRecord
100
AcDbLayerTableRecord
  2
CASEWORK-FIXTURES
 70
0
 62
6
  6
Continuous
370
-3
390
13
347
21
  0
LAYER
  5
33
330
1
100
AcDbSymbolTableRecord
100
AcDbLayerTableRecord
  2
CASEWORK-DIMENSIONS
 70
0
 62
2
  6
Continuous
370
-3
390
13
347
21
  0
LAYER
  5
34
330
1
100
AcDbSymbolTableRecord
100
AcDbLayerTableRecord
  2
CASEWORK-ANNOTATIONS
 70
0
 62
1
  6
Continuous
370
-3
390
13
347
21
  0
LAYER
  5
35
330
1
100
AcDbSymbolTableRecord
100
AcDbLayerTableRecord
  2
CASEWORK-FLAGS
 70
0
 62
1
  6
Continuous
370
-3
390
13
347
21
  0
LAYER
  5
36
330
1
100
AcDbSymbolTableRecord
100
AcDbLayerTableRecord
  2
CASEWORK-SECTIONS
 70
0
 62
4
  6
Continuous
370
-3
390
13
347
21
  0
LAYER
  5
37
330
1
100
AcDbSymbolTableRecord
100
AcDbLayerTableRecord
  2
CASEWORK-PRODUCT-NUMBERS
 70
0
 62
2
  6
Continuous
370
-3
390
13
347
21
  0
LAYER
  5
38
330
1
100
AcDbSymbolTableRecord
100
AcDbLayerTableRecord
  2
CASEWORK-OUTLINES
 70
0
 62
7
  6
Continuous
370
-3
390
13
347
21
  0
LAYER
  5
39
330
1
100
AcDbSymbolTableRecord
100
AcDbLayerTableRecord
  2
CASEWORK-HIDDEN
 70
0
 62
8
  6
HIDDEN
370
-3
390
13
347
21
  0
ENDTAB
  0
TABLE
  2
STYLE
  5
5
330
0
100
AcDbSymbolTable
 70
1
  0
STYLE
  5
29
330
5
100
AcDbSymbolTableRecord
100
AcDbTextStyleTableRecord
  2
Standard
 70
0
 40
0.0
 41
1.0
 50
0.0
 71
0
 42
2.5
  3
txt
  4

  0
ENDTAB
  0
TABLE
  2
VIEW
  5
7
330
0
100
AcDbSymbolTable
 70
0
  0
ENDTAB
  0
TABLE
  2
UCS
  5
6
330
0
100
AcDbSymbolTable
 70
0
  0
ENDTAB
  0
TABLE
  2
APPID
  5
3
330
0
100
AcDbSymbolTable
 70
3
  0
APPID
  5
2A
330
3
100
AcDbSymbolTableRecord
100
AcDbRegAppTableRecord
  2
ACAD
 70
0
  0
APPID
  5
38A
330
3
100
AcDbSymbolTableRecord
100
AcDbRegAppTableRecord
  2
HATCHBACKGROUNDCOLOR
 70
0
  0
APPID
  5
38B
330
3
100
AcDbSymbolTableRecord
100
AcDbRegAppTableRecord
  2
EZDXF
 70
0
  0
ENDTAB
  0
TABLE
  2
DIMSTYLE
  5
4
330
0
100
AcDbSymbolTable
 70
1
100
AcDbDimStyleTable
  0
DIMSTYLE
105
2B
330
4
100
AcDbSymbolTableRecord
100
AcDbDimStyleTableRecord
  2
Standard
 70
0
 40
1.0
 41
2.5
 42
0.625
 43
3.75
 44
1.25
 45
0.0
 46
0.0
 47
0.0
 48
0.0
 49
2.5
140
2.5
141
2.5
142
0.0
143
0.03937007874
144
1.0
145
0.0
146
1.0
147
0.625
148
0.0
 69
0
 70
0
 71
0
 72
0
 73
0
 74
0
 75
0
 76
0
 77
1
 78
8
 79
3
170
0
171
3
172
1
173
0
174
0
175
0
176
0
177
0
178
0
179
2
271
2
272
2
273
2
274
3
275
0
276
0
277
2
278
44
279
0
280
0
281
0
282
0
283
0
284
8
285
0
286
0
288
0
289
3
290
0
371
-2
372
-2
  0
ENDTAB
  0
TABLE
  2
BLOCK_RECORD
  5
9
330
0
100
AcDbSymbolTable
 70
2
  0
BLOCK_RECORD
  5
17
330
9
100
AcDbSymbolTableRecord
100
AcDbBlockTableRecord
  2
*Model_Space
340
1A
 70
0
280
1
281
0
  0
BLOCK_RECORD
  5
1B
330
9
100
AcDbSymbolTableRecord
100
AcDbBlockTableRecord
  2
*Paper_Space
340
1E
 70
0
280
1
281
0
  0
ENDTAB
  0
ENDSEC
  0
SECTION
  2
BLOCKS
  0
BLOCK
  5
18
330
17
100
AcDbEntity
  8
0
100
AcDbBlockBegin
  2
*Model_Space
 70
0
 10
0.0
 20
0.0
 30
0.0
  3
*Model_Space
  1

  0
ENDBLK
  5
19
330
17
100
AcDbEntity
  8
0
100
AcDbBlockEnd
  0
BLOCK
  5
1C
330
1B
100
AcDbEntity
  8
0
100
AcDbBlockBegin
  2
*Paper_Space
 70
0
 10
0.0
 20
0.0
 30
0.0
  3
*Paper_Space
  1

  0
ENDBLK
  5
1D
330
1B
100
AcDbEntity
  8
0
100
AcDbBlockEnd
  0
ENDSEC
  0
SECTION
  2
ENTITIES
  0
LWPOLYLINE
  5
3B
330
17
100
AcDbEntity
  8
CASEWORK-COUNTERTOPS
 62
3
100
AcDbPolyline
 90
5
 70
1
 10
-1.0
 20
40.4
 10
335.0
 20
40.4
 10
335.0
 20
41.9
 10
-1.0
 20
41.9
 10
-1.0
 20
40.4
  0
LINE
  5
3C
330
17
100
AcDbEntity
  8
CASEWORK-COUNTERTOPS
 62
3
100
AcDbLine
 10
-1.0
 20
40.15
 30
0.0
 11
335.0
 21
40.15
 31
0.0
  0
LWPOLYLINE
  5
3D
330
17
100
AcDbEntity
  8
CASEWORK-COUNTERTOPS
 62
3
100
AcDbPolyline
 90
5
 70
1
 10
353.66666666666663
 20
33.4
 10
367.66666666666663
 20
33.4
 10
367.66666666666663
 20
34.9
 10
353.66666666666663
 20
34.9
 10
353.66666666666663
 20
33.4
  0
LINE
  5
3E
330
17
100
AcDbEntity
  8
CASEWORK-COUNTERTOPS
 62
3
100
AcDbLine
 10
353.66666666666663
 20
33.15
 30
0.0
 11
367.66666666666663
 21
33.15
 31
0.0
  0
LWPOLYLINE
  5
3F
330
17
100
AcDbEntity
  8
CASEWORK-COUNTERTOPS
 62
3
100
AcDbPolyline
 90
5
 70
1
 10
382.7155555555555
 20
38.0
 10
463.7155555555555
 20
38.0
 10
463.7155555555555
 20
39.5
 10
382.7155555555555
 20
39.5
 10
382.7155555555555
 20
38.0
  0
LINE
  5
40
330
17
100
AcDbEntity
  8
CASEWORK-COUNTERTOPS
 62
3
100
AcDbLine
 10
382.7155555555555
 20
37.75
 30
0.0
 11
463.7155555555555
 21
37.75
 31
0.0
  0
LWPOLYLINE
  5
41
330
17
100
AcDbEntity
  8
CASEWORK-CABINETS
 62
7
100
AcDbPolyline
 90
5
 70
1
 10
0.0
 20
0.0
 10
30.0
 20
0.0
 10
30.0
 20
40.4
 10
0.0
 20
40.4
 10
0.0
 20
0.0
  0
LINE
  5
42
330
17
100
AcDbEntity
  8
CASEWORK-CABINETS
 62
7
100
AcDbLine
 10
0.0
 20
4.0
 30
0.0
 11
30.0
 21
4.0
 31
0.0
  0
LINE
  5
43
330
17
100
AcDbEntity
  8
CASEWORK-HIDDEN
 62
8
100
AcDbLine
 10
3.0
 20
0.0
 30
0.0
 11
3.0
 21
4.0
 31
0.0
  0
LINE
  5
44
330
17
100
AcDbEntity
  8
CASEWORK-HIDDEN
 62
8
100
AcDbLine
 10
27.0
 20
0.0
 30
0.0
 11
27.0
 21
4.0
 31
0.0
  0
LINE
  5
45
330
17
100
AcDbEntity
  8
CASEWORK-HIDDEN
 62
8
100
AcDbLine
 10
3.0
 20
0.0
 30
0.0
 11
27.0
 21
0.0
 31
0.0
  0
LINE
  5
46
330
17
100
AcDbEntity
  8
CASEWORK-CABINETS
 62
7
100
AcDbLine
 10
15.0
 20
4.0
 30
0.0
 11
15.0
 21
40.4
 31
0.0
  0
LWPOLYLINE
  5
47
330
17
100
AcDbEntity
  8
CASEWORK-CABINETS
 62
7
100
AcDbPolyline
 90
5
 70
1
 10
1.5625
 20
5.5625
 10
13.4375
 20
5.5625
 10
13.4375
 20
38.8375
 10
1.5625
 20
38.8375
 10
1.5625
 20
5.5625
  0
CIRCLE
  5
48
330
17
100
AcDbEntity
  8
CASEWORK-CABINETS
 62
7
100
AcDbCircle
 10
12.4375
 20
24.01375
 30
0.0
 40
0.3
  0
LWPOLYLINE
  5
49
330
17
100
AcDbEntity
  8
CASEWORK-CABINETS
 62
7
100
AcDbPolyline
 90
5
 70
1
 10
16.5625
 20
5.5625
 10
28.4375
 20
5.5625
 10
28.4375
 20
38.8375
 10
16.5625
 20
38.8375
 10
16.5625
 20
5.5625
  0
CIRCLE
  5
4A
330
17
100
AcDbEntity
  8
CASEWORK-CABINETS
 62
7
100
AcDbCircle
 10
17.5625
 20
24.01375
 30
0.0
 40
0.3
  0
LWPOLYLINE
  5
4B
330
17
100
AcDbEntity
  8
CASEWORK-CABINETS
 62
7
100
AcDbPolyline
 90
5
 70
1
 10
30.0
 20
0.0
 10
37.0
 20
0.0
 10
37.0
 20
40.4
 10
30.0
 20
40.4
 10
30.0
 20
0.0
  0
LINE
  5
4C
330
17
100
AcDbEntity
  8
CASEWORK-CABINETS
 62
7
100
AcDbLine
 10
30.0
 20
4.0
 30
0.0
 11
37.0
 21
4.0
 31
0.0
  0
LINE
  5
4D
330
17
100
AcDbEntity
  8
CASEWORK-HIDDEN
 62
8
100
AcDbLine
 10
33.0
 20
0.0
 30
0.0
 11
33.0
 21
4.0
 31
0.0
  0
LINE
  5
4E
330
17
100
AcDbEntity
  8
CASEWORK-HIDDEN
 62
8
100
AcDbLine
 10
34.0
 20
0.0
 30
0.0
 11
34.0
 21
4.0
 31
0.0
  0
LINE
  5
4F
330
17
100
AcDbEntity
  8
CASEWORK-HIDDEN
 62
8
100
AcDbLine
 10
33.0
 20
0.0
 30
0.0
 11
34.0
 21
0.0
 31
0.0
  0
LWPOLYLINE
  5
50
330
17
100
AcDbEntity
  8
CASEWORK-CABINETS
 62
7
100
AcDbPolyline
 90
5
 70
1
 10
30.8875
 20
4.8875
 10
36.1125
 20
4.8875
 10
36.1125
 20
39.512499999999996
 10
30.8875
 20
39.512499999999996
 10
30.8875
 20
4.8875
  0
CIRCLE
  5
51
330
17
100
AcDbEntity
  8
CASEWORK-CABINETS
 62
7
100
AcDbCircle
 10
32.5625
 20
24.01375
 30
0.0
 40
0.3
  0
LWPOLYLINE
  5
52
330
17
100
AcDbEntity
  8
CASEWORK-CABINETS
 62
7
100
AcDbPolyline
 90
5
 70
1
 10
37.0
 20
0.0
 10
49.0
 20
0.0
 10
49.0
 20
40.4
 10
37.0
 20
40.4
 10
37.0
 20
0.0
  0
LINE
  5
53
330
17
100
AcDbEntity
  8
CASEWORK-CABINETS
 62
7
100
AcDbLine
 10
37.0
 20
4.0
 30
0.0
 11
49.0
 21
4.0
 31
0.0
  0
LINE
  5
54
330
17
100
AcDbEntity
  8
CASEWORK-HIDDEN
 62
8
100
AcDbLine
 10
40.0
 20
0.0
 30
0.0
 11
40.0
 21
4.0
 31
0.0
  0
LINE
  5
55
330
17
100
AcDbEntity
  8
CASEWORK-HIDDEN
 62
8
100
AcDbLine
 10
46.0
 20
0.0
 30
0.0
 11
46.0
 21
4.0
 31
0.0
  0
LINE
  5
56
330
17
100
AcDbEntity
  8
CASEWORK-HIDDEN
 62
8
100
AcDbLine
 10
40.0
 20
0.0
 30
0.0
 11
46.0
 21
0.0
 31
0.0
  0
LWPOLYLINE
  5
57
330
17
100
AcDbEntity
  8
CASEWORK-CABINETS
 62
7
100
AcDbPolyline
 90
5
 70
1
 10
38.4875
 20
5.4875
 10
47.5125
 20
5.4875
 10
47.5125
 20
38.9125
 10
38.4875
 20
38.9125
 10
38.4875
 20
5.4875
  0
CIRCLE
  5
58
330
17
100
AcDbEntity
  8
CASEWORK-CABINETS
 62
7
100
AcDbCircle
 10
39.5625
 20
24.01375
 30
0.0
 40
0.3
  0
LWPOLYLINE
  5
59
330
17
100
AcDbEntity
  8
CASEWORK-CABINETS
 62
7
100
AcDbPolyline
 90
5
 70
1
 10
49.0
 20
0.0
 10
79.0
 20
0.0
 10
79.0
 20
40.4
 10
49.0
 20
40.4
 10
49.0
 20
0.0
  0
LINE
  5
5A
330
17
100
AcDbEntity
  8
CASEWORK-CABINETS
 62
7
100
AcDbLine
 10
49.0
 20
4.0
 30
0.0
 11
79.0
 21
4.0
 31
0.0
  0
LINE
  5
5B
330
17
100
AcDbEntity
  8
CASEWORK-HIDDEN
 62
8
100
AcDbLine
 10
52.0
 20
0.0
 30
0.0
 11
52.0
 21
4.0
 31
0.0
  0
LINE
  5
5C
330
17
100
AcDbEntity
  8
CASEWORK-HIDDEN
 62
8
100
AcDbLine
 10
76.0
 20
0.0
 30
0.0
 11
76.0
 21
4.0
 31
0.0
  0
LINE
  5
5D
330
17
100
AcDbEntity
  8
CASEWORK-HIDDEN
 62
8
100
AcDbLine
 10
52.0
 20
0.0
 30
0.0
 11
76.0
 21
0.0
 31
0.0
  0
LINE
  5
5E
330
17
100
AcDbEntity
  8
CASEWORK-CABINETS
 62
7
100
AcDbLine
 10
64.0
 20
4.0
 30
0.0
 11
64.0
 21
40.4
 31
0.0
  0
LWPOLYLINE
  5
5F
330
17
100
AcDbEntity
  8
CASEWORK-CABINETS
 62
7
100
AcDbPolyline
 90
5
 70
1
 10
50.5625
 20
5.5625
 10
62.4375
 20
5.5625
 10
62.4375
 20
38.8375
 10
50.5625
 20
38.8375
 10
50.5625
 20
5.5625
  0
CIRCLE
  5
60
330
17
100
AcDbEntity
  8
CASEWORK-CABINETS
 62
7
100
AcDbCircle
 10
61.4375
 20
24.01375
 30
0.0
 40
0.3
  0
LWPOLYLINE
  5
61
330
17
100
AcDbEntity
  8
CASEWORK-CABINETS
 62
7
100
AcDbPolyline
 90
5
 70
1
 10
65.5625
 20
5.5625
 10
77.4375
 20
5.5625
 10
77.4375
 20
38.8375
 10
65.5625
 20
38.8375
 10
65.5625
 20
5.5625
  0
CIRCLE
  5
62
330
17
100
AcDbEntity
  8
CASEWORK-CABINETS
 62
7
100
AcDbCircle
 10
66.5625
 20
24.01375
 30
0.0
 40
0.3
  0
LWPOLYLINE
  5
63
330
17
100
AcDbEntity
  8
CASEWORK-CABINETS
 62
7
100
AcDbPolyline
 90
5
 70
1
 10
79.0
 20
0.0
 10
91.0
 20
0.0
 10
91.0
 20
40.4
 10
79.0
 20
40.4
 10
79.0
 20
0.0
  0
LINE
  5
64
330
17
100
AcDbEntity
  8
CASEWORK-CABINETS
 62
7
100
AcDbLine
 10
79.0
 20
4.0
 30
0.0
 11
91.0
 21
4.0
 31
0.0
  0
LINE
  5
65
330
17
100
AcDbEntity
  8
CASEWORK-HIDDEN
 62
8
100
AcDbLine
 10
82.0
 20
0.0
 30
0.0
 11
82.0
 21
4.0
 31
0.0
  0
LINE
  5
66
330
17
100
AcDbEntity
  8
CASEWORK-HIDDEN
 62
8
100
AcDbLine
 10
88.0
 20
0.0
 30
0.0
 11
88.0
 21
4.0
 31
0.0
  0
LINE
  5
67
330
17
100
AcDbEntity
  8
CASEWORK-HIDDEN
 62
8
100
AcDbLine
 10
82.0
 20
0.0
 30
0.0
 11
88.0
 21
0.0
 31
0.0
  0
LINE
  5
68
330
17
100
AcDbEntity
  8
CASEWORK-CABINETS
 62
7
100
AcDbLine
 10
79.0
 20
13.1
 30
0.0
 11
91.0
 21
13.1
 31
0.0
  0
LINE
  5
69
330
17
100
AcDbEntity
  8
CASEWORK-CABINETS
 62
7
100
AcDbLine
 10
79.0
 20
22.2
 30
0.0
 11
91.0
 21
22.2
 31
0.0
  0
LINE
  5
6A
330
17
100
AcDbEntity
  8
CASEWORK-CABINETS
 62
7
100
AcDbLine
 10
79.0
 20
31.299999999999997
 30
0.0
 11
91.0
 21
31.299999999999997
 31
0.0
  0
LINE
  5
6B
330
17
100
AcDbEntity
  8
CASEWORK-CABINETS
 62
7
100
AcDbLine
 10
83.2
 20
8.55
 30
0.0
 11
86.8
 21
8.55
 31
0.0
  0
LINE
  5
6C
330
17
100
AcDbEntity
  8
CASEWORK-CABINETS
 62
7
100
AcDbLine
 10
83.2
 20
8.350000000000001
 30
0.0
 11
83.2
 21
8.75
 31
0.0
  0
LINE
  5
6D
330
17
100
AcDbEntity
  8
CASEWORK-CABINETS
 62
7
100
AcDbLine
 10
86.8
 20
8.350000000000001
 30
0.0
 11
86.8
 21
8.75
 31
0.0
  0
LINE
  5
6E
330
17
100
AcDbEntity
  8
CASEWORK-CABINETS
 62
7
100
AcDbLine
 10
83.2
 20
17.65
 30
0.0
 11
86.8
 21
17.65
 31
0.0
  0
LINE
  5
6F
330
17
100
AcDbEntity
  8
CASEWORK-CABINETS
 62
7
100
AcDbLine
 10
83.2
 20
17.45
 30
0.0
 11
83.2
 21
17.849999999999998
 31
0.0
  0
LINE
  5
70
330
17
100
AcDbEntity
  8
CASEWORK-CABINETS
 62
7
100
AcDbLine
 10
86.8
 20
17.45
 30
0.0
 11
86.8
 21
17.849999999999998
 31
0.0
  0
LINE
  5
71
330
17
100
AcDbEntity
  8
CASEWORK-CABINETS
 62
7
100
AcDbLine
 10
83.2
 20
26.75
 30
0.0
 11
86.8
 21
26.75
 31
0.0
  0
LINE
  5
72
330
17
100
AcDbEntity
  8
CASEWORK-CABINETS
 62
7
100
AcDbLine
 10
83.2
 20
26.55
 30
0.0
 11
83.2
 21
26.95
 31
0.0
  0
LINE
  5
73
330
17
100
AcDbEntity
  8
CASEWORK-CABINETS
 62
7
100
AcDbLine
 10
86.8
 20
26.55
 30
0.0
 11
86.8
 21
26.95
 31
0.0
  0
LINE
  5
74
330
17
100
AcDbEntity
  8
CASEWORK-CABINETS
 62
7
100
AcDbLine
 10
83.2
 20
35.849999999999994
 30
0.0
 11
86.8
 21
35.849999999999994
 31
0.0
  0
LINE
  5
75
330
17
100
AcDbEntity
  8
CASEWORK-CABINETS
 62
7
100
AcDbLine
 10
83.2
 20
35.64999999999999
 30
0.0
 11
83.2
 21
36.05
 31
0.0
  0
LINE
  5
76
330
17
100
AcDbEntity
  8
CASEWORK-CABINETS
 62
7
100
AcDbLine
 10
86.8
 20
35.64999999999999
 30
0.0
 11
86.8
 21
36.05
 31
0.0
  0
LWPOLYLINE
  5
77
330
17
100
AcDbEntity
  8
CASEWORK-CABINETS
 62
7
100
AcDbPolyline
 90
5
 70
1
 10
91.0
 20
0.0
 10
109.0
 20
0.0
 10
109.0
 20
40.4
 10
91.0
 20
40.4
 10
91.0
 20
0.0
  0
LINE
  5
78
330
17
100
AcDbEntity
  8
CASEWORK-CABINETS
 62
7
100
AcDbLine
 10
91.0
 20
4.0
 30
0.0
 11
109.0
 21
4.0
 31
0.0
  0
LINE
  5
79
330
17
100
AcDbEntity
  8
CASEWORK-HIDDEN
 62
8
100
AcDbLine
 10
94.0
 20
0.0
 30
0.0
 11
94.0
 21
4.0
 31
0.0
  0
LINE
  5
7A
330
17
100
AcDbEntity
  8
CASEWORK-HIDDEN
 62
8
100
AcDbLine
 10
106.0
 20
0.0
 30
0.0
 11
106.0
 21
4.0
 31
0.0
  0
LINE
  5
7B
330
17
100
AcDbEntity
  8
CASEWORK-HIDDEN
 62
8
100
AcDbLine
 10
94.0
 20
0.0
 30
0.0
 11
106.0
 21
0.0
 31
0.0
  0
LINE
  5
7C
330
17
100
AcDbEntity
  8
CASEWORK-CABINETS
 62
7
100
AcDbLine
 10
91.0
 20
13.1
 30
0.0
 11
109.0
 21
13.1
 31
0.0
  0
LINE
  5
7D
330
17
100
AcDbEntity
  8
CASEWORK-CABINETS
 62
7
100
AcDbLine
 10
91.0
 20
22.2
 30
0.0
 11
109.0
 21
22.2
 31
0.0
  0
LINE
  5
7E
330
17
100
AcDbEntity
  8
CASEWORK-CABINETS
 62
7
100
AcDbLine
 10
91.0
 20
31.299999999999997
 30
0.0
 11
109.0
 21
31.299999999999997
 31
0.0
  0
LINE
  5
7F
330
17
100
AcDbEntity
  8
CASEWORK-CABINETS
 62
7
100
AcDbLine
 10
98.0
 20
8.55
 30
0.0
 11
102.0
 21
8.55
 31
0.0
  0
LINE
  5
80
330
17
100
AcDbEntity
  8
CASEWORK-CABINETS
 62
7
100
AcDbLine
 10
98.0
 20
8.350000000000001
 30
0.0
 11
98.0
 21
8.75
 31
0.0
  0
LINE
  5
81
330
17
100
AcDbEntity
  8
CASEWORK-CABINETS
 62
7
100
AcDbLine
 10
102.0
 20
8.350000000000001
 30
0.0
 11
102.0
 21
8.75
 31
0.0
  0
LINE
  5
82
330
17
100
AcDbEntity
  8
CASEWORK-CABINETS
 62
7
100
AcDbLine
 10
98.0
 20
17.65
 30
0.0
 11
102.0
 21
17.65
 31
0.0
  0
LINE
  5
83
330
17
100
AcDbEntity
  8
CASEWORK-CABINETS
 62
7
100
AcDbLine
 10
98.0
 20
17.45
 30
0.0
 11
98.0
 21
17.849999999999998
 31
0.0
  0
LINE
  5
84
330
17
100
AcDbEntity
  8
CASEWORK-CABINETS
 62
7
100
AcDbLine
 10
102.0
 20
17.45
 30
0.0
 11
102.0
 21
17.849999999999998
 31
0.0
  0
LINE
  5
85
330
17
100
AcDbEntity
  8
CASEWORK-CABINETS
 62
7
100
AcDbLine
 10
98.0
 20
26.75
 30
0.0
 11
102.0
 21
26.75
 31
0.0
  0
LINE
  5
86
330
17
100
AcDbEntity
  8
CASEWORK-CABINETS
 62
7
100
AcDbLine
 10
98.0
 20
26.55
 30
0.0
 11
98.0
 21
26.95
 31
0.0
  0
LINE
  5
87
330
17
100
AcDbEntity
  8
CASEWORK-CABINETS
 62
7
100
AcDbLine
 10
102.0
 20
26.55
 30
0.0
 11
102.0
 21
26.95
 31
0.0
  0
LINE
  5
88
330
17
100
AcDbEntity
  8
CASEWORK-CABINETS
 62
7
100
AcDbLine
 10
98.0
 20
35.849999999999994
 30
0.0
 11
102.0
 21
35.849999999999994
 31
0.0
  0
LINE
  5
89
330
17
100
AcDbEntity
  8
CASEWORK-CABINETS
 62
7
100
AcDbLine
 10
98.0
 20
35.64999999999999
 30
0.0
 11
98.0
 21
36.05
 31
0.0
  0
LINE
  5
8A
330
17
100
AcDbEntity
  8
CASEWORK-CABINETS
 62
7
100
AcDbLine
 10
102.0
 20
35.64999999999999
 30
0.0
 11
102.0
 21
36.05
 31
0.0
  0
LWPOLYLINE
  5
8B
330
17
100
AcDbEntity
  8
CASEWORK-CABINETS
 62
7
100
AcDbPolyline
 90
5
 70
1
 10
109.0
 20
0.0
 10
130.0
 20
0.0
 10
130.0
 20
40.4
 10
109.0
 20
40.4
 10
109.0
 20
0.0
  0
LINE
  5
8C
330
17
100
AcDbEntity
  8
CASEWORK-CABINETS
 62
7
100
AcDbLine
 10
109.0
 20
4.0
 30
0.0
 11
130.0
 21
4.0
 31
0.0
  0
LINE
  5
8D
330
17
100
AcDbEntity
  8
CASEWORK-HIDDEN
 62
8
100
AcDbLine
 10
112.0
 20
0.0
 30
0.0
 11
112.0
 21
4.0
 31
0.0
  0
LINE
  5
8E
330
17
100
AcDbEntity
  8
CASEWORK-HIDDEN
 62
8
100
AcDbLine
 10
127.0
 20
0.0
 30
0.0
 11
127.0
 21
4.0
 31
0.0
  0
LINE
  5
8F
330
17
100
AcDbEntity
  8
CASEWORK-HIDDEN
 62
8
100
AcDbLine
 10
112.0
 20
0.0
 30
0.0
 11
127.0
 21
0.0
 31
0.0
  0
LINE
  5
90
330
17
100
AcDbEntity
  8
CASEWORK-CABINETS
 62
7
100
AcDbLine
 10
109.0
 20
13.1
 30
0.0
 11
130.0
 21
13.1
 31
0.0
  0
LINE
  5
91
330
17
100
AcDbEntity
  8
CASEWORK-CABINETS
 62
7
100
AcDbLine
 10
109.0
 20
22.2
 30
0.0
 11
130.0
 21
22.2
 31
0.0
  0
LINE
  5
92
330
17
100
AcDbEntity
  8
CASEWORK-CABINETS
 62
7
100
AcDbLine
 10
109.0
 20
31.299999999999997
 30
0.0
 11
130.0
 21
31.299999999999997
 31
0.0
  0
LINE
  5
93
330
17
100
AcDbEntity
  8
CASEWORK-CABINETS
 62
7
100
AcDbLine
 10
117.5
 20
8.55
 30
0.0
 11
121.5
 21
8.55
 31
0.0
  0
LINE
  5
94
330
17
100
AcDbEntity
  8
CASEWORK-CABINETS
 62
7
100
AcDbLine
 10
117.5
 20
8.350000000000001
 30
0.0
 11
117.5
 21
8.75
 31
0.0
  0
LINE
  5
95
330
17
100
AcDbEntity
  8
CASEWORK-CABINETS
 62
7
100
AcDbLine
 10
121.5
 20
8.350000000000001
 30
0.0
 11
121.5
 21
8.75
 31
0.0
  0
LINE
  5
96
330
17
100
AcDbEntity
  8
CASEWORK-CABINETS
 62
7
100
AcDbLine
 10
117.5
 20
17.65
 30
0.0
 11
121.5
 21
17.65
 31
0.0
  0
LINE
  5
97
330
17
100
AcDbEntity
  8
CASEWORK-CABINETS
 62
7
100
AcDbLine
 10
117.5
 20
17.45
 30
0.0
 11
117.5
 21
17.849999999999998
 31
0.0
  0
LINE
  5
98
330
17
100
AcDbEntity
  8
CASEWORK-CABINETS
 62
7
100
AcDbLine
 10
121.5
 20
17.45
 30
0.0
 11
121.5
 21
17.849999999999998
 31
0.0
  0
LINE
  5
99
330
17
100
AcDbEntity
  8
CASEWORK-CABINETS
 62
7
100
AcDbLine
 10
117.5
 20
26.75
 30
0.0
 11
121.5
 21
26.75
 31
0.0
  0
LINE
  5
9A
330
17
100
AcDbEntity
  8
CASEWORK-CABINETS
 62
7
100
AcDbLine
 10
117.5
 20
26.55
 30
0.0
 11
117.5
 21
26.95
 31
0.0
  0
LINE
  5
9B
330
17
100
AcDbEntity
  8
CASEWORK-CABINETS
 62
7
100
AcDbLine
 10
121.5
 20
26.55
 30
0.0
 11
121.5
 21
26.95
 31
0.0
  0
LINE
  5
9C
330
17
100
AcDbEntity
  8
CASEWORK-CABINETS
 62
7
100
AcDbLine
 10
117.5
 20
35.849999999999994
 30
0.0
 11
121.5
 21
35.849999999999994
 31
0.0
  0
LINE
  5
9D
330
17
100
AcDbEntity
  8
CASEWORK-CABINETS
 62
7
100
AcDbLine
 10
117.5
 20
35.64999999999999
 30
0.0
 11
117.5
 21
36.05
 31
0.0
  0
LINE
  5
9E
330
17
100
AcDbEntity
  8
CASEWORK-CABINETS
 62
7
100
AcDbLine
 10
121.5
 20
35.64999999999999
 30
0.0
 11
121.5
 21
36.05
 31
0.0
  0
LWPOLYLINE
  5
9F
330
17
100
AcDbEntity
  8
CASEWORK-CABINETS
 62
7
100
AcDbPolyline
 90
5
 70
1
 10
130.0
 20
0.0
 10
148.0
 20
0.0
 10
148.0
 20
40.4
 10
130.0
 20
40.4
 10
130.0
 20
0.0
  0
LINE
  5
A0
330
17
100
AcDbEntity
  8
CASEWORK-CABINETS
 62
7
100
AcDbLine
 10
130.0
 20
4.0
 30
0.0
 11
148.0
 21
4.0
 31
0.0
  0
LINE
  5
A1
330
17
100
AcDbEntity
  8
CASEWORK-HIDDEN
 62
8
100
AcDbLine
 10
133.0
 20
0.0
 30
0.0
 11
133.0
 21
4.0
 31
0.0
  0
LINE
  5
A2
330
17
100
AcDbEntity
  8
CASEWORK-HIDDEN
 62
8
100
AcDbLine
 10
145.0
 20
0.0
 30
0.0
 11
145.0
 21
4.0
 31
0.0
  0
LINE
  5
A3
330
17
100
AcDbEntity
  8
CASEWORK-HIDDEN
 62
8
100
AcDbLine
 10
133.0
 20
0.0
 30
0.0
 11
145.0
 21
0.0
 31
0.0
  0
LINE
  5
A4
330
17
100
AcDbEntity
  8
CASEWORK-CABINETS
 62
7
100
AcDbLine
 10
130.0
 20
13.1
 30
0.0
 11
148.0
 21
13.1
 31
0.0
  0
LINE
  5
A5
330
17
100
AcDbEntity
  8
CASEWORK-CABINETS
 62
7
100
AcDbLine
 10
130.0
 20
22.2
 30
0.0
 11
148.0
 21
22.2
 31
0.0
  0
LINE
  5
A6
330
17
100
AcDbEntity
  8
CASEWORK-CABINETS
 62
7
100
AcDbLine
 10
130.0
 20
31.299999999999997
 30
0.0
 11
148.0
 21
31.299999999999997
 31
0.0
  0
LINE
  5
A7
330
17
100
AcDbEntity
  8
CASEWORK-CABINETS
 62
7
100
AcDbLine
 10
137.0
 20
8.55
 30
0.0
 11
141.0
 21
8.55
 31
0.0
  0
LINE
  5
A8
330
17
100
AcDbEntity
  8
CASEWORK-CABINETS
 62
7
100
AcDbLine
 10
137.0
 20
8.350000000000001
 30
0.0
 11
137.0
 21
8.75
 31
0.0
  0
LINE
  5
A9
330
17
100
AcDbEntity
  8
CASEWORK-CABINETS
 62
7
100
AcDbLine
 10
141.0
 20
8.350000000000001
 30
0.0
 11
141.0
 21
8.75
 31
0.0
  0
LINE
  5
AA
330
17
100
AcDbEntity
  8
CASEWORK-CABINETS
 62
7
100
AcDbLine
 10
137.0
 20
17.65
 30
0.0
 11
141.0
 21
17.65
 31
0.0
  0
LINE
  5
AB
330
17
100
AcDbEntity
  8
CASEWORK-CABINETS
 62
7
100
AcDbLine
 10
137.0
 20
17.45
 30
0.0
 11
137.0
 21
17.849999999999998
 31
0.0
  0
LINE
  5
AC
330
17
100
AcDbEntity
  8
CASEWORK-CABINETS
 62
7
100
AcDbLine
 10
141.0
 20
17.45
 30
0.0
 11
141.0
 21
17.849999999999998
 31
0.0
  0
LINE
  5
AD
330
17
100
AcDbEntity
  8
CASEWORK-CABINETS
 62
7
100
AcDbLine
 10
137.0
 20
26.75
 30
0.0
 11
141.0
 21
26.75
 31
0.0
  0
LINE
  5
AE
330
17
100
AcDbEntity
  8
CASEWORK-CABINETS
 62
7
100
AcDbLine
 10
137.0
 20
26.55
 30
0.0
 11
137.0
 21
26.95
 31
0.0
  0
LINE
  5
AF
330
17
100
AcDbEntity
  8
CASEWORK-CABINETS
 62
7
100
AcDbLine
 10
141.0
 20
26.55
 30
0.0
 11
141.0
 21
26.95
 31
0.0
  0
LINE
  5
B0
330
17
100
AcDbEntity
  8
CASEWORK-CABINETS
 62
7
100
AcDbLine
 10
137.0
 20
35.849999999999994
 30
0.0
 11
141.0
 21
35.849999999999994
 31
0.0
  0
LINE
  5
B1
330
17
100
AcDbEntity
  8
CASEWORK-CABINETS
 62
7
100
AcDbLine
 10
137.0
 20
35.64999999999999
 30
0.0
 11
137.0
 21
36.05
 31
0.0
  0
LINE
  5
B2
330
17
100
AcDbEntity
  8
CASEWORK-CABINETS
 62
7
100
AcDbLine
 10
141.0
 20
35.64999999999999
 30
0.0
 11
141.0
 21
36.05
 31
0.0
  0
LWPOLYLINE
  5
B3
330
17
100
AcDbEntity
  8
CASEWORK-CABINETS
 62
7
100
AcDbPolyline
 90
5
 70
1
 10
148.0
 20
0.0
 10
184.0
 20
0.0
 10
184.0
 20
40.4
 10
148.0
 20
40.4
 10
148.0
 20
0.0
  0
LINE
  5
B4
330
17
100
AcDbEntity
  8
CASEWORK-CABINETS
 62
7
100
AcDbLine
 10
148.0
 20
4.0
 30
0.0
 11
184.0
 21
4.0
 31
0.0
  0
LINE
  5
B5
330
17
100
AcDbEntity
  8
CASEWORK-HIDDEN
 62
8
100
AcDbLine
 10
151.0
 20
0.0
 30
0.0
 11
151.0
 21
4.0
 31
0.0
  0
LINE
  5
B6
330
17
100
AcDbEntity
  8
CASEWORK-HIDDEN
 62
8
100
AcDbLine
 10
181.0
 20
0.0
 30
0.0
 11
181.0
 21
4.0
 31
0.0
  0
LINE
  5
B7
330
17
100
AcDbEntity
  8
CASEWORK-HIDDEN
 62
8
100
AcDbLine
 10
151.0
 20
0.0
 30
0.0
 11
181.0
 21
0.0
 31
0.0
  0
LINE
  5
B8
330
17
100
AcDbEntity
  8
CASEWORK-CABINETS
 62
7
100
AcDbLine
 10
148.0
 20
13.1
 30
0.0
 11
184.0
 21
13.1
 31
0.0
  0
LINE
  5
B9
330
17
100
AcDbEntity
  8
CASEWORK-CABINETS
 62
7
100
AcDbLine
 10
148.0
 20
22.2
 30
0.0
 11
184.0
 21
22.2
 31
0.0
  0
LINE
  5
BA
330
17
100
AcDbEntity
  8
CASEWORK-CABINETS
 62
7
100
AcDbLine
 10
148.0
 20
31.299999999999997
 30
0.0
 11
184.0
 21
31.299999999999997
 31
0.0
  0
LINE
  5
BB
330
17
100
AcDbEntity
  8
CASEWORK-CABINETS
 62
7
100
AcDbLine
 10
164.0
 20
8.55
 30
0.0
 11
168.0
 21
8.55
 31
0.0
  0
LINE
  5
BC
330
17
100
AcDbEntity
  8
CASEWORK-CABINETS
 62
7
100
AcDbLine
 10
164.0
 20
8.350000000000001
 30
0.0
 11
164.0
 21
8.75
 31
0.0
  0
LINE
  5
BD
330
17
100
AcDbEntity
  8
CASEWORK-CABINETS
 62
7
100
AcDbLine
 10
168.0
 20
8.350000000000001
 30
0.0
 11
168.0
 21
8.75
 31
0.0
  0
LINE
  5
BE
330
17
100
AcDbEntity
  8
CASEWORK-CABINETS
 62
7
100
AcDbLine
 10
164.0
 20
17.65
 30
0.0
 11
168.0
 21
17.65
 31
0.0
  0
LINE
  5
BF
330
17
100
AcDbEntity
  8
CASEWORK-CABINETS
 62
7
100
AcDbLine
 10
164.0
 20
17.45
 30
0.0
 11
164.0
 21
17.849999999999998
 31
0.0
  0
LINE
  5
C0
330
17
100
AcDbEntity
  8
CASEWORK-CABINETS
 62
7
100
AcDbLine
 10
168.0
 20
17.45
 30
0.0
 11
168.0
 21
17.849999999999998
 31
0.0
  0
LINE
  5
C1
330
17
100
AcDbEntity
  8
CASEWORK-CABINETS
 62
7
100
AcDbLine
 10
164.0
 20
26.75
 30
0.0
 11
168.0
 21
26.75
 31
0.0
  0
LINE
  5
C2
330
17
100
AcDbEntity
  8
CASEWORK-CABINETS
 62
7
100
AcDbLine
 10
164.0
 20
26.55
 30
0.0
 11
164.0
 21
26.95
 31
0.0
  0
LINE
  5
C3
330
17
100
AcDbEntity
  8
CASEWORK-CABINETS
 62
7
100
AcDbLine
 10
168.0
 20
26.55
 30
0.0
 11
168.0
 21
26.95
 31
0.0
  0
LINE
  5
C4
330
17
100
AcDbEntity
  8
CASEWORK-CABINETS
 62
7
100
AcDbLine
 10
164.0
 20
35.849999999999994
 30
0.0
 11
168.0
 21
35.849999999999994
 31
0.0
  0
LINE
  5
C5
330
17
100
AcDbEntity
  8
CASEWORK-CABINETS
 62
7
100
AcDbLine
 10
164.0
 20
35.64999999999999
 30
0.0
 11
164.0
 21
36.05
 31
0.0
  0
LINE
  5
C6
330
17
100
AcDbEntity
  8
CASEWORK-CABINETS
 62
7
100
AcDbLine
 10
168.0
 20
35.64999999999999
 30
0.0
 11
168.0
 21
36.05
 31
0.0
  0
LWPOLYLINE
  5
C7
330
17
100
AcDbEntity
  8
CASEWORK-CABINETS
 62
7
100
AcDbPolyline
 90
5
 70
1
 10
184.0
 20
0.0
 10
199.0
 20
0.0
 10
199.0
 20
40.4
 10
184.0
 20
40.4
 10
184.0
 20
0.0
  0
LINE
  5
C8
330
17
100
AcDbEntity
  8
CASEWORK-CABINETS
 62
7
100
AcDbLine
 10
184.0
 20
4.0
 30
0.0
 11
199.0
 21
4.0
 31
0.0
  0
LINE
  5
C9
330
17
100
AcDbEntity
  8
CASEWORK-HIDDEN
 62
8
100
AcDbLine
 10
187.0
 20
0.0
 30
0.0
 11
187.0
 21
4.0
 31
0.0
  0
LINE
  5
CA
330
17
100
AcDbEntity
  8
CASEWORK-HIDDEN
 62
8
100
AcDbLine
 10
196.0
 20
0.0
 30
0.0
 11
196.0
 21
4.0
 31
0.0
  0
LINE
  5
CB
330
17
100
AcDbEntity
  8
CASEWORK-HIDDEN
 62
8
100
AcDbLine
 10
187.0
 20
0.0
 30
0.0
 11
196.0
 21
0.0
 31
0.0
  0
LINE
  5
CC
330
17
100
AcDbEntity
  8
CASEWORK-CABINETS
 62
7
100
AcDbLine
 10
184.0
 20
13.1
 30
0.0
 11
199.0
 21
13.1
 31
0.0
  0
LINE
  5
CD
330
17
100
AcDbEntity
  8
CASEWORK-CABINETS
 62
7
100
AcDbLine
 10
184.0
 20
22.2
 30
0.0
 11
199.0
 21
22.2
 31
0.0
  0
LINE
  5
CE
330
17
100
AcDbEntity
  8
CASEWORK-CABINETS
 62
7
100
AcDbLine
 10
184.0
 20
31.299999999999997
 30
0.0
 11
199.0
 21
31.299999999999997
 31
0.0
  0
LINE
  5
CF
330
17
100
AcDbEntity
  8
CASEWORK-CABINETS
 62
7
100
AcDbLine
 10
189.5
 20
8.55
 30
0.0
 11
193.5
 21
8.55
 31
0.0
  0
LINE
  5
D0
330
17
100
AcDbEntity
  8
CASEWORK-CABINETS
 62
7
100
AcDbLine
 10
189.5
 20
8.350000000000001
 30
0.0
 11
189.5
 21
8.75
 31
0.0
  0
LINE
  5
D1
330
17
100
AcDbEntity
  8
CASEWORK-CABINETS
 62
7
100
AcDbLine
 10
193.5
 20
8.350000000000001
 30
0.0
 11
193.5
 21
8.75
 31
0.0
  0
LINE
  5
D2
330
17
100
AcDbEntity
  8
CASEWORK-CABINETS
 62
7
100
AcDbLine
 10
189.5
 20
17.65
 30
0.0
 11
193.5
 21
17.65
 31
0.0
  0
LINE
  5
D3
330
17
100
AcDbEntity
  8
CASEWORK-CABINETS
 62
7
100
AcDbLine
 10
189.5
 20
17.45
 30
0.0
 11
189.5
 21
17.849999999999998
 31
0.0
  0
LINE
  5
D4
330
17
100
AcDbEntity
  8
CASEWORK-CABINETS
 62
7
100
AcDbLine
 10
193.5
 20
17.45
 30
0.0
 11
193.5
 21
17.849999999999998
 31
0.0
  0
LINE
  5
D5
330
17
100
AcDbEntity
  8
CASEWORK-CABINETS
 62
7
100
AcDbLine
 10
189.5
 20
26.75
 30
0.0
 11
193.5
 21
26.75
 31
0.0
  0
LINE
  5
D6
330
17
100
AcDbEntity
  8
CASEWORK-CABINETS
 62
7
100
AcDbLine
 10
189.5
 20
26.55
 30
0.0
 11
189.5
 21
26.95
 31
0.0
  0
LINE
  5
D7
330
17
100
AcDbEntity
  8
CASEWORK-CABINETS
 62
7
100
AcDbLine
 10
193.5
 20
26.55
 30
0.0
 11
193.5
 21
26.95
 31
0.0
  0
LINE
  5
D8
330
17
100
AcDbEntity
  8
CASEWORK-CABINETS
 62
7
100
AcDbLine
 10
189.5
 20
35.849999999999994
 30
0.0
 11
193.5
 21
35.849999999999994
 31
0.0
  0
LINE
  5
D9
330
17
100
AcDbEntity
  8
CASEWORK-CABINETS
 62
7
100
AcDbLine
 10
189.5
 20
35.64999999999999
 30
0.0
 11
189.5
 21
36.05
 31
0.0
  0
LINE
  5
DA
330
17
100
AcDbEntity
  8
CASEWORK-CABINETS
 62
7
100
AcDbLine
 10
193.5
 20
35.64999999999999
 30
0.0
 11
193.5
 21
36.05
 31
0.0
  0
LWPOLYLINE
  5
DB
330
17
100
AcDbEntity
  8
CASEWORK-CABINETS
 62
7
100
AcDbPolyline
 90
5
 70
1
 10
199.0
 20
0.0
 10
214.0
 20
0.0
 10
214.0
 20
31.4
 10
199.0
 20
31.4
 10
199.0
 20
0.0
  0
LINE
  5
DC
330
17
100
AcDbEntity
  8
CASEWORK-CABINETS
 62
7
100
AcDbLine
 10
199.0
 20
4.0
 30
0.0
 11
214.0
 21
4.0
 31
0.0
  0
LINE
  5
DD
330
17
100
AcDbEntity
  8
CASEWORK-HIDDEN
 62
8
100
AcDbLine
 10
202.0
 20
0.0
 30
0.0
 11
202.0
 21
4.0
 31
0.0
  0
LINE
  5
DE
330
17
100
AcDbEntity
  8
CASEWORK-HIDDEN
 62
8
100
AcDbLine
 10
211.0
 20
0.0
 30
0.0
 11
211.0
 21
4.0
 31
0.0
  0
LINE
  5
DF
330
17
100
AcDbEntity
  8
CASEWORK-HIDDEN
 62
8
100
AcDbLine
 10
202.0
 20
0.0
 30
0.0
 11
211.0
 21
0.0
 31
0.0
  0
LINE
  5
E0
330
17
100
AcDbEntity
  8
CASEWORK-CABINETS
 62
7
100
AcDbLine
 10
199.0
 20
7.425
 30
0.0
 11
214.0
 21
7.425
 31
0.0
  0
LINE
  5
E1
330
17
100
AcDbEntity
  8
CASEWORK-CABINETS
 62
7
100
AcDbLine
 10
199.0
 20
10.85
 30
0.0
 11
214.0
 21
10.85
 31
0.0
  0
LINE
  5
E2
330
17
100
AcDbEntity
  8
CASEWORK-CABINETS
 62
7
100
AcDbLine
 10
199.0
 20
14.274999999999999
 30
0.0
 11
214.0
 21
14.274999999999999
 31
0.0
  0
LINE
  5
E3
330
17
100
AcDbEntity
  8
CASEWORK-CABINETS
 62
7
100
AcDbLine
 10
199.0
 20
17.7
 30
0.0
 11
214.0
 21
17.7
 31
0.0
  0
LINE
  5
E4
330
17
100
AcDbEntity
  8
CASEWORK-CABINETS
 62
7
100
AcDbLine
 10
199.0
 20
21.125
 30
0.0
 11
214.0
 21
21.125
 31
0.0
  0
LINE
  5
E5
330
17
100
AcDbEntity
  8
CASEWORK-CABINETS
 62
7
100
AcDbLine
 10
199.0
 20
24.549999999999997
 30
0.0
 11
214.0
 21
24.549999999999997
 31
0.0
  0
LINE
  5
E6
330
17
100
AcDbEntity
  8
CASEWORK-CABINETS
 62
7
100
AcDbLine
 10
199.0
 20
27.974999999999998
 30
0.0
 11
214.0
 21
27.974999999999998
 31
0.0
  0
LINE
  5
E7
330
17
100
AcDbEntity
  8
CASEWORK-CABINETS
 62
7
100
AcDbLine
 10
204.5
 20
5.7125
 30
0.0
 11
208.5
 21
5.7125
 31
0.0
  0
LINE
  5
E8
330
17
100
AcDbEntity
  8
CASEWORK-CABINETS
 62
7
100
AcDbLine
 10
204.5
 20
5.5125
 30
0.0
 11
204.5
 21
5.9125000000000005
 31
0.0
  0
LINE
  5
E9
330
17
100
AcDbEntity
  8
CASEWORK-CABINETS
 62
7
100
AcDbLine
 10
208.5
 20
5.5125
 30
0.0
 11
208.5
 21
5.9125000000000005
 31
0.0
  0
LINE
  5
EA
330
17
100
AcDbEntity
  8
CASEWORK-CABINETS
 62
7
100
AcDbLine
 10
204.5
 20
9.1375
 30
0.0
 11
208.5
 21
9.1375
 31
0.0
  0
LINE
  5
EB
330
17
100
AcDbEntity
  8
CASEWORK-CABINETS
 62
7
100
AcDbLine
 10
204.5
 20
8.9375
 30
0.0
 11
204.5
 21
9.337499999999999
 31
0.0
  0
LINE
  5
EC
330
17
100
AcDbEntity
  8
CASEWORK-CABINETS
 62
7
100
AcDbLine
 10
208.5
 20
8.9375
 30
0.0
 11
208.5
 21
9.337499999999999
 31
0.0
  0
LINE
  5
ED
330
17
100
AcDbEntity
  8
CASEWORK-CABINETS
 62
7
100
AcDbLine
 10
204.5
 20
12.5625
 30
0.0
 11
208.5
 21
12.5625
 31
0.0
  0
LINE
  5
EE
330
17
100
AcDbEntity
  8
CASEWORK-CABINETS
 62
7
100
AcDbLine
 10
204.5
 20
12.3625
 30
0.0
 11
204.5
 21
12.7625
 31
0.0
  0
LINE
  5
EF
330
17
100
AcDbEntity
  8
CASEWORK-CABINETS
 62
7
100
AcDbLine
 10
208.5
 20
12.3625
 30
0.0
 11
208.5
 21
12.7625
 31
0.0
  0
LINE
  5
F0
330
17
100
AcDbEntity
  8
CASEWORK-CABINETS
 62
7
100
AcDbLine
 10
204.5
 20
15.987499999999999
 30
0.0
 11
208.5
 21
15.987499999999999
 31
0.0
  0
LINE
  5
F1
330
17
100
AcDbEntity
  8
CASEWORK-CABINETS
 62
7
100
AcDbLine
 10
204.5
 20
15.7875
 30
0.0
 11
204.5
 21
16.1875
 31
0.0
  0
LINE
  5
F2
330
17
100
AcDbEntity
  8
CASEWORK-CABINETS
 62
7
100
AcDbLine
 10
208.5
 20
15.7875
 30
0.0
 11
208.5
 21
16.1875
 31
0.0
  0
LINE
  5
F3
330
17
100
AcDbEntity
  8
CASEWORK-CABINETS
 62
7
100
AcDbLine
 10
204.5
 20
19.412499999999998
 30
0.0
 11
208.5
 21
19.412499999999998
 31
0.0
  0
LINE
  5
F4
330
17
100
AcDbEntity
  8
CASEWORK-CABINETS
 62
7
100
AcDbLine
 10
204.5
 20
19.2125
 30
0.0
 11
204.5
 21
19.612499999999997
 31
0.0
  0
LINE
  5
F5
330
17
100
AcDbEntity
  8
CASEWORK-CABINETS
 62
7
100
AcDbLine
 10
208.5
 20
19.2125
 30
0.0
 11
208.5
 21
19.612499999999997
 31
0.0
  0
LINE
  5
F6
330
17
100
AcDbEntity
  8
CASEWORK-CABINETS
 62
7
100
AcDbLine
 10
204.5
 20
22.8375
 30
0.0
 11
208.5
 21
22.8375
 31
0.0
  0
LINE
  5
F7
330
17
100
AcDbEntity
  8
CASEWORK-CABINETS
 62
7
100
AcDbLine
 10
204.5
 20
22.6375
 30
0.0
 11
204.5
 21
23.037499999999998
 31
0.0
  0
LINE
  5
F8
330
17
100
AcDbEntity
  8
CASEWORK-CABINETS
 62
7
100
AcDbLine
 10
208.5
 20
22.6375
 30
0.0
 11
208.5
 21
23.037499999999998
 31
0.0
  0
LINE
  5
F9
330
17
100
AcDbEntity
  8
CASEWORK-CABINETS
 62
7
100
AcDbLine
 10
204.5
 20
26.262499999999996
 30
0.0
 11
208.5
 21
26.262499999999996
 31
0.0
  0
LINE
  5
FA
330
17
100
AcDbEntity
  8
CASEWORK-CABINETS
 62
7
100
AcDbLine
 10
204.5
 20
26.062499999999996
 30
0.0
 11
204.5
 21
26.462499999999995
 31
0.0
  0
LINE
  5
FB
330
17
100
AcDbEntity
  8
CASEWORK-CABINETS
 62
7
100
AcDbLine
 10
208.5
 20
26.062499999999996
 30
0.0
 11
208.5
 21
26.462499999999995
 31
0.0
  0
LINE
  5
FC
330
17
100
AcDbEntity
  8
CASEWORK-CABINETS
 62
7
100
AcDbLine
 10
204.5
 20
29.687499999999996
 30
0.0
 11
208.5
 21
29.687499999999996
 31
0.0
  0
LINE
  5
FD
330
17
100
AcDbEntity
  8
CASEWORK-CABINETS
 62
7
100
AcDbLine
 10
204.5
 20
29.487499999999997
 30
0.0
 11
204.5
 21
29.887499999999996
 31
0.0
  0
LINE
  5
FE
330
17
100
AcDbEntity
  8
CASEWORK-CABINETS
 62
7
100
AcDbLine
 10
208.5
 20
29.487499999999997
 30
0.0
 11
208.5
 21
29.887499999999996
 31
0.0
  0
LWPOLYLINE
  5
FF
330
17
100
AcDbEntity
  8
CASEWORK-CABINETS
 62
7
100
AcDbPolyline
 90
5
 70
1
 10
214.0
 20
0.0
 10
226.0
 20
0.0
 10
226.0
 20
38.0
 10
214.0
 20
38.0
 10
214.0
 20
0.0
  0
LINE
  5
100
330
17
100
AcDbEntity
  8
CASEWORK-CABINETS
 62
7
100
AcDbLine
 10
214.0
 20
4.0
 30
0.0
 11
226.0
 21
4.0
 31
0.0
  0
LINE
  5
101
330
17
100
AcDbEntity
  8
CASEWORK-HIDDEN
 62
8
100
AcDbLine
 10
217.0
 20
0.0
 30
0.0
 11
217.0
 21
4.0
 31
0.0
  0
LINE
  5
102
330
17
100
AcDbEntity
  8
CASEWORK-HIDDEN
 62
8
100
AcDbLine
 10
223.0
 20
0.0
 30
0.0
 11
223.0
 21
4.0
 31
0.0
  0
LINE
  5
103
330
17
100
AcDbEntity
  8
CASEWORK-HIDDEN
 62
8
100
AcDbLine
 10
217.0
 20
0.0
 30
0.0
 11
223.0
 21
0.0
 31
0.0
  0
LINE
  5
104
330
17
100
AcDbEntity
  8
CASEWORK-CABINETS
 62
7
100
AcDbLine
 10
214.0
 20
8.857142857142858
 30
0.0
 11
226.0
 21
8.857142857142858
 31
0.0
  0
LINE
  5
105
330
17
100
AcDbEntity
  8
CASEWORK-CABINETS
 62
7
100
AcDbLine
 10
214.0
 20
13.714285714285714
 30
0.0
 11
226.0
 21
13.714285714285714
 31
0.0
  0
LINE
  5
106
330
17
100
AcDbEntity
  8
CASEWORK-CABINETS
 62
7
100
AcDbLine
 10
214.0
 20
18.57142857142857
 30
0.0
 11
226.0
 21
18.57142857142857
 31
0.0
  0
LINE
  5
107
330
17
100
AcDbEntity
  8
CASEWORK-CABINETS
 62
7
100
AcDbLine
 10
214.0
 20
23.428571428571427
 30
0.0
 11
226.0
 21
23.428571428571427
 31
0.0
  0
LINE
  5
108
330
17
100
AcDbEntity
  8
CASEWORK-CABINETS
 62
7
100
AcDbLine
 10
214.0
 20
28.285714285714285
 30
0.0
 11
226.0
 21
28.285714285714285
 31
0.0
  0
LINE
  5
109
330
17
100
AcDbEntity
  8
CASEWORK-CABINETS
 62
7
100
AcDbLine
 10
214.0
 20
33.14285714285714
 30
0.0
 11
226.0
 21
33.14285714285714
 31
0.0
  0
LINE
  5
10A
330
17
100
AcDbEntity
  8
CASEWORK-CABINETS
 62
7
100
AcDbLine
 10
218.2
 20
6.428571428571429
 30
0.0
 11
221.8
 21
6.428571428571429
 31
0.0
  0
LINE
  5
10B
330
17
100
AcDbEntity
  8
CASEWORK-CABINETS
 62
7
100
AcDbLine
 10
218.2
 20
6.228571428571429
 30
0.0
 11
218.2
 21
6.628571428571429
 31
0.0
  0
LINE
  5
10C
330
17
100
AcDbEntity
  8
CASEWORK-CABINETS
 62
7
100
AcDbLine
 10
221.8
 20
6.228571428571429
 30
0.0
 11
221.8
 21
6.628571428571429
 31
0.0
  0
LINE
  5
10D
330
17
100
AcDbEntity
  8
CASEWORK-CABINETS
 62
7
100
AcDbLine
 10
218.2
 20
11.285714285714286
 30
0.0
 11
221.8
 21
11.285714285714286
 31
0.0
  0
LINE
  5
10E
330
17
100
AcDbEntity
  8
CASEWORK-CABINETS
 62
7
100
AcDbLine
 10
218.2
 20
11.085714285714287
 30
0.0
 11
218.2
 21
11.485714285714286
 31
0.0
  0
LINE
  5
10F
330
17
100
AcDbEntity
  8
CASEWORK-CABINETS
 62
7
100
AcDbLine
 10
221.8
 20
11.085714285714287
 30
0.0
 11
221.8
 21
11.485714285714286
 31
0.0
  0
LINE
  5
110
330
17
100
AcDbEntity
  8
CASEWORK-CABINETS
 62
7
100
AcDbLine
 10
218.2
 20
16.142857142857142
 30
0.0
 11
221.8
 21
16.142857142857142
 31
0.0
  0
LINE
  5
111
330
17
100
AcDbEntity
  8
CASEWORK-CABINETS
 62
7
100
AcDbLine
 10
218.2
 20
15.942857142857143
 30
0.0
 11
218.2
 21
16.34285714285714
 31
0.0
  0
LINE
  5
112
330
17
100
AcDbEntity
  8
CASEWORK-CABINETS
 62
7
100
AcDbLine
 10
221.8
 20
15.942857142857143
 30
0.0
 11
221.8
 21
16.34285714285714
 31
0.0
  0
LINE
  5
113
330
17
100
AcDbEntity
  8
CASEWORK-CABINETS
 62
7
100
AcDbLine
 10
218.2
 20
20.999999999999996
 30
0.0
 11
221.8
 21
20.999999999999996
 31
0.0
  0
LINE
  5
114
330
17
100
AcDbEntity
  8
CASEWORK-CABINETS
 62
7
100
AcDbLine
 10
218.2
 20
20.799999999999997
 30
0.0
 11
218.2
 21
21.199999999999996
 31
0.0
  0
LINE
  5
115
330
17
100
AcDbEntity
  8
CASEWORK-CABINETS
 62
7
100
AcDbLine
 10
221.8
 20
20.799999999999997
 30
0.0
 11
221.8
 21
21.199999999999996
 31
0.0
  0
LINE
  5
116
330
17
100
AcDbEntity
  8
CASEWORK-CABINETS
 62
7
100
AcDbLine
 10
218.2
 20
25.857142857142854
 30
0.0
 11
221.8
 21
25.857142857142854
 31
0.0
  0
LINE
  5
117
330
17
100
AcDbEntity
  8
CASEWORK-CABINETS
 62
7
100
AcDbLine
 10
218.2
 20
25.657142857142855
 30
0.0
 11
218.2
 21
26.057142857142853
 31
0.0
  0
LINE
  5
118
330
17
100
AcDbEntity
  8
CASEWORK-CABINETS
 62
7
100
AcDbLine
 10
221.8
 20
25.657142857142855
 30
0.0
 11
221.8
 21
26.057142857142853
 31
0.0
  0
LINE
  5
119
330
17
100
AcDbEntity
  8
CASEWORK-CABINETS
 62
7
100
AcDbLine
 10
218.2
 20
30.71428571428571
 30
0.0
 11
221.8
 21
30.71428571428571
 31
0.0
  0
LINE
  5
11A
330
17
100
AcDbEntity
  8
CASEWORK-CABINETS
 62
7
100
AcDbLine
 10
218.2
 20
30.514285714285712
 30
0.0
 11
218.2
 21
30.91428571428571
 31
0.0
  0
LINE
  5
11B
330
17
100
AcDbEntity
  8
CASEWORK-CABINETS
 62
7
100
AcDbLine
 10
221.8
 20
30.514285714285712
 30
0.0
 11
221.8
 21
30.91428571428571
 31
0.0
  0
LINE
  5
11C
330
17
100
AcDbEntity
  8
CASEWORK-CABINETS
 62
7
100
AcDbLine
 10
218.2
 20
35.57142857142857
 30
0.0
 11
221.8
 21
35.57142857142857
 31
0.0
  0
LINE
  5
11D
330
17
100
AcDbEntity
  8
CASEWORK-CABINETS
 62
7
100
AcDbLine
 10
218.2
 20
35.37142857142857
 30
0.0
 11
218.2
 21
35.77142857142857
 31
0.0
  0
LINE
  5
11E
330
17
100
AcDbEntity
  8
CASEWORK-CABINETS
 62
7
100
AcDbLine
 10
221.8
 20
35.37142857142857
 30
0.0
 11
221.8
 21
35.77142857142857
 31
0.0
  0
LWPOLYLINE
  5
11F
330
17
100
AcDbEntity
  8
CASEWORK-CABINETS
 62
7
100
AcDbPolyline
 90
5
 70
1
 10
226.0
 20
0.0
 10
238.0
 20
0.0
 10
238.0
 20
38.0
 10
226.0
 20
38.0
 10
226.0
 20
0.0
  0
LINE
  5
120
330
17
100
AcDbEntity
  8
CASEWORK-CABINETS
 62
7
100
AcDbLine
 10
226.0
 20
4.0
 30
0.0
 11
238.0
 21
4.0
 31
0.0
  0
LINE
  5
121
330
17
100
AcDbEntity
  8
CASEWORK-HIDDEN
 62
8
100
AcDbLine
 10
229.0
 20
0.0
 30
0.0
 11
229.0
 21
4.0
 31
0.0
  0
LINE
  5
122
330
17
100
AcDbEntity
  8
CASEWORK-HIDDEN
 62
8
100
AcDbLine
 10
235.0
 20
0.0
 30
0.0
 11
235.0
 21
4.0
 31
0.0
  0
LINE
  5
123
330
17
100
AcDbEntity
  8
CASEWORK-HIDDEN
 62
8
100
AcDbLine
 10
229.0
 20
0.0
 30
0.0
 11
235.0
 21
0.0
 31
0.0
  0
LINE
  5
124
330
17
100
AcDbEntity
  8
CASEWORK-CABINETS
 62
7
100
AcDbLine
 10
226.0
 20
8.857142857142858
 30
0.0
 11
238.0
 21
8.857142857142858
 31
0.0
  0
LINE
  5
125
330
17
100
AcDbEntity
  8
CASEWORK-CABINETS
 62
7
100
AcDbLine
 10
226.0
 20
13.714285714285714
 30
0.0
 11
238.0
 21
13.714285714285714
 31
0.0
  0
LINE
  5
126
330
17
100
AcDbEntity
  8
CASEWORK-CABINETS
 62
7
100
AcDbLine
 10
226.0
 20
18.57142857142857
 30
0.0
 11
238.0
 21
18.57142857142857
 31
0.0
  0
LINE
  5
127
330
17
100
AcDbEntity
  8
CASEWORK-CABINETS
 62
7
100
AcDbLine
 10
226.0
 20
23.428571428571427
 30
0.0
 11
238.0
 21
23.428571428571427
 31
0.0
  0
LINE
  5
128
330
17
100
AcDbEntity
  8
CASEWORK-CABINETS
 62
7
100
AcDbLine
 10
226.0
 20
28.285714285714285
 30
0.0
 11
238.0
 21
28.285714285714285
 31
0.0
  0
LINE
  5
129
330
17
100
AcDbEntity
  8
CASEWORK-CABINETS
 62
7
100
AcDbLine
 10
226.0
 20
33.14285714285714
 30
0.0
 11
238.0
 21
33.14285714285714
 31
0.0
  0
LINE
  5
12A
330
17
100
AcDbEntity
  8
CASEWORK-CABINETS
 62
7
100
AcDbLine
 10
230.2
 20
6.428571428571429
 30
0.0
 11
233.8
 21
6.428571428571429
 31
0.0
  0
LINE
  5
12B
330
17
100
AcDbEntity
  8
CASEWORK-CABINETS
 62
7
100
AcDbLine
 10
230.2
 20
6.228571428571429
 30
0.0
 11
230.2
 21
6.628571428571429
 31
0.0
  0
LINE
  5
12C
330
17
100
AcDbEntity
  8
CASEWORK-CABINETS
 62
7
100
AcDbLine
 10
233.8
 20
6.228571428571429
 30
0.0
 11
233.8
 21
6.628571428571429
 31
0.0
  0
LINE
  5
12D
330
17
100
AcDbEntity
  8
CASEWORK-CABINETS
 62
7
100
AcDbLine
 10
230.2
 20
11.285714285714286
 30
0.0
 11
233.8
 21
11.285714285714286
 31
0.0
  0
LINE
  5
12E
330
17
100
AcDbEntity
  8
CASEWORK-CABINETS
 62
7
100
AcDbLine
 10
230.2
 20
11.085714285714287
 30
0.0
 11
230.2
 21
11.485714285714286
 31
0.0
  0
LINE
  5
12F
330
17
100
AcDbEntity
  8
CASEWORK-CABINETS
 62
7
100
AcDbLine
 10
233.8
 20
11.085714285714287
 30
0.0
 11
233.8
 21
11.485714285714286
 31
0.0
  0
LINE
  5
130
330
17
100
AcDbEntity
  8
CASEWORK-CABINETS
 62
7
100
AcDbLine
 10
230.2
 20
16.142857142857142
 30
0.0
 11
233.8
 21
16.142857142857142
 31
0.0
  0
LINE
  5
131
330
17
100
AcDbEntity
  8
CASEWORK-CABINETS
 62
7
100
AcDbLine
 10
230.2
 20
15.942857142857143
 30
0.0
 11
230.2
 21
16.34285714285714
 31
0.0
  0
LINE
  5
132
330
17
100
AcDbEntity
  8
CASEWORK-CABINETS
 62
7
100
AcDbLine
 10
233.8
 20
15.942857142857143
 30
0.0
 11
233.8
 21
16.34285714285714
 31
0.0
  0
LINE
  5
133
330
17
100
AcDbEntity
  8
CASEWORK-CABINETS
 62
7
100
AcDbLine
 10
230.2
 20
20.999999999999996
 30
0.0
 11
233.8
 21
20.999999999999996
 31
0.0
  0
LINE
  5
134
330
17
100
AcDbEntity
  8
CASEWORK-CABINETS
 62
7
100
AcDbLine
 10
230.2
 20
20.799999999999997
 30
0.0
 11
230.2
 21
21.199999999999996
 31
0.0
  0
LINE
  5
135
330
17
100
AcDbEntity
  8
CASEWORK-CABINETS
 62
7
100
AcDbLine
 10
233.8
 20
20.799999999999997
 30
0.0
 11
233.8
 21
21.199999999999996
 31
0.0
  0
LINE
  5
136
330
17
100
AcDbEntity
  8
CASEWORK-CABINETS
 62
7
100
AcDbLine
 10
230.2
 20
25.857142857142854
 30
0.0
 11
233.8
 21
25.857142857142854
 31
0.0
  0
LINE
  5
137
330
17
100
AcDbEntity
  8
CASEWORK-CABINETS
 62
7
100
AcDbLine
 10
230.2
 20
25.657142857142855
 30
0.0
 11
230.2
 21
26.057142857142853
 31
0.0
  0
LINE
  5
138
330
17
100
AcDbEntity
  8
CASEWORK-CABINETS
 62
7
100
AcDbLine
 10
233.8
 20
25.657142857142855
 30
0.0
 11
233.8
 21
26.057142857142853
 31
0.0
  0
LINE
  5
139
330
17
100
AcDbEntity
  8
CASEWORK-CABINETS
 62
7
100
AcDbLine
 10
230.2
 20
30.71428571428571
 30
0.0
 11
233.8
 21
30.71428571428571
 31
0.0
  0
LINE
  5
13A
330
17
100
AcDbEntity
  8
CASEWORK-CABINETS
 62
7
100
AcDbLine
 10
230.2
 20
30.514285714285712
 30
0.0
 11
230.2
 21
30.91428571428571
 31
0.0
  0
LINE
  5
13B
330
17
100
AcDbEntity
  8
CASEWORK-CABINETS
 62
7
100
AcDbLine
 10
233.8
 20
30.514285714285712
 30
0.0
 11
233.8
 21
30.91428571428571
 31
0.0
  0
LINE
  5
13C
330
17
100
AcDbEntity
  8
CASEWORK-CABINETS
 62
7
100
AcDbLine
 10
230.2
 20
35.57142857142857
 30
0.0
 11
233.8
 21
35.57142857142857
 31
0.0
  0
LINE
  5
13D
330
17
100
AcDbEntity
  8
CASEWORK-CABINETS
 62
7
100
AcDbLine
 10
230.2
 20
35.37142857142857
 30
0.0
 11
230.2
 21
35.77142857142857
 31
0.0
  0
LINE
  5
13E
330
17
100
AcDbEntity
  8
CASEWORK-CABINETS
 62
7
100
AcDbLine
 10
233.8
 20
35.37142857142857
 30
0.0
 11
233.8
 21
35.77142857142857
 31
0.0
  0
LWPOLYLINE
  5
13F
330
17
100
AcDbEntity
  8
CASEWORK-CABINETS
 62
7
100
AcDbPolyline
 90
5
 70
1
 10
238.0
 20
0.0
 10
244.0
 20
0.0
 10
244.0
 20
38.0
 10
238.0
 20
38.0
 10
238.0
 20
0.0
  0
LINE
  5
140
330
17
100
AcDbEntity
  8
CASEWORK-CABINETS
 62
7
100
AcDbLine
 10
238.0
 20
4.0
 30
0.0
 11
244.0
 21
4.0
 31
0.0
  0
LINE
  5
141
330
17
100
AcDbEntity
  8
CASEWORK-HIDDEN
 62
8
100
AcDbLine
 10
241.0
 20
0.0
 30
0.0
 11
241.0
 21
4.0
 31
0.0
  0
LINE
  5
142
330
17
100
AcDbEntity
  8
CASEWORK-HIDDEN
 62
8
100
AcDbLine
 10
241.0
 20
0.0
 30
0.0
 11
241.0
 21
4.0
 31
0.0
  0
LINE
  5
143
330
17
100
AcDbEntity
  8
CASEWORK-HIDDEN
 62
8
100
AcDbLine
 10
241.0
 20
0.0
 30
0.0
 11
241.0
 21
0.0
 31
0.0
  0
LINE
  5
144
330
17
100
AcDbEntity
  8
CASEWORK-CABINETS
 62
7
100
AcDbLine
 10
238.0
 20
8.25
 30
0.0
 11
244.0
 21
8.25
 31
0.0
  0
LINE
  5
145
330
17
100
AcDbEntity
  8
CASEWORK-CABINETS
 62
7
100
AcDbLine
 10
238.0
 20
12.5
 30
0.0
 11
244.0
 21
12.5
 31
0.0
  0
LINE
  5
146
330
17
100
AcDbEntity
  8
CASEWORK-CABINETS
 62
7
100
AcDbLine
 10
238.0
 20
16.75
 30
0.0
 11
244.0
 21
16.75
 31
0.0
  0
LINE
  5
147
330
17
100
AcDbEntity
  8
CASEWORK-CABINETS
 62
7
100
AcDbLine
 10
238.0
 20
21.0
 30
0.0
 11
244.0
 21
21.0
 31
0.0
  0
LINE
  5
148
330
17
100
AcDbEntity
  8
CASEWORK-CABINETS
 62
7
100
AcDbLine
 10
238.0
 20
25.25
 30
0.0
 11
244.0
 21
25.25
 31
0.0
  0
LINE
  5
149
330
17
100
AcDbEntity
  8
CASEWORK-CABINETS
 62
7
100
AcDbLine
 10
238.0
 20
29.5
 30
0.0
 11
244.0
 21
29.5
 31
0.0
  0
LINE
  5
14A
330
17
100
AcDbEntity
  8
CASEWORK-CABINETS
 62
7
100
AcDbLine
 10
238.0
 20
33.75
 30
0.0
 11
244.0
 21
33.75
 31
0.0
  0
LINE
  5
14B
330
17
100
AcDbEntity
  8
CASEWORK-CABINETS
 62
7
100
AcDbLine
 10
240.1
 20
6.125
 30
0.0
 11
241.9
 21
6.125
 31
0.0
  0
LINE
  5
14C
330
17
100
AcDbEntity
  8
CASEWORK-CABINETS
 62
7
100
AcDbLine
 10
240.1
 20
5.925
 30
0.0
 11
240.1
 21
6.325
 31
0.0
  0
LINE
  5
14D
330
17
100
AcDbEntity
  8
CASEWORK-CABINETS
 62
7
100
AcDbLine
 10
241.9
 20
5.925
 30
0.0
 11
241.9
 21
6.325
 31
0.0
  0
LINE
  5
14E
330
17
100
AcDbEntity
  8
CASEWORK-CABINETS
 62
7
100
AcDbLine
 10
240.1
 20
10.375
 30
0.0
 11
241.9
 21
10.375
 31
0.0
  0
LINE
  5
14F
330
17
100
AcDbEntity
  8
CASEWORK-CABINETS
 62
7
100
AcDbLine
 10
240.1
 20
10.175
 30
0.0
 11
240.1
 21
10.575
 31
0.0
  0
LINE
  5
150
330
17
100
AcDbEntity
  8
CASEWORK-CABINETS
 62
7
100
AcDbLine
 10
241.9
 20
10.175
 30
0.0
 11
241.9
 21
10.575
 31
0.0
  0
LINE
  5
151
330
17
100
AcDbEntity
  8
CASEWORK-CABINETS
 62
7
100
AcDbLine
 10
240.1
 20
14.625
 30
0.0
 11
241.9
 21
14.625
 31
0.0
  0
LINE
  5
152
330
17
100
AcDbEntity
  8
CASEWORK-CABINETS
 62
7
100
AcDbLine
 10
240.1
 20
14.425
 30
0.0
 11
240.1
 21
14.825
 31
0.0
  0
LINE
  5
153
330
17
100
AcDbEntity
  8
CASEWORK-CABINETS
 62
7
100
AcDbLine
 10
241.9
 20
14.425
 30
0.0
 11
241.9
 21
14.825
 31
0.0
  0
LINE
  5
154
330
17
100
AcDbEntity
  8
CASEWORK-CABINETS
 62
7
100
AcDbLine
 10
240.1
 20
18.875
 30
0.0
 11
241.9
 21
18.875
 31
0.0
  0
LINE
  5
155
330
17
100
AcDbEntity
  8
CASEWORK-CABINETS
 62
7
100
AcDbLine
 10
240.1
 20
18.675
 30
0.0
 11
240.1
 21
19.075
 31
0.0
  0
LINE
  5
156
330
17
100
AcDbEntity
  8
CASEWORK-CABINETS
 62
7
100
AcDbLine
 10
241.9
 20
18.675
 30
0.0
 11
241.9
 21
19.075
 31
0.0
  0
LINE
  5
157
330
17
100
AcDbEntity
  8
CASEWORK-CABINETS
 62
7
100
AcDbLine
 10
240.1
 20
23.125
 30
0.0
 11
241.9
 21
23.125
 31
0.0
  0
LINE
  5
158
330
17
100
AcDbEntity
  8
CASEWORK-CABINETS
 62
7
100
AcDbLine
 10
240.1
 20
22.925
 30
0.0
 11
240.1
 21
23.325
 31
0.0
  0
LINE
  5
159
330
17
100
AcDbEntity
  8
CASEWORK-CABINETS
 62
7
100
AcDbLine
 10
241.9
 20
22.925
 30
0.0
 11
241.9
 21
23.325
 31
0.0
  0
LINE
  5
15A
330
17
100
AcDbEntity
  8
CASEWORK-CABINETS
 62
7
100
AcDbLine
 10
240.1
 20
27.375
 30
0.0
 11
241.9
 21
27.375
 31
0.0
  0
LINE
  5
15B
330
17
100
AcDbEntity
  8
CASEWORK-CABINETS
 62
7
100
AcDbLine
 10
240.1
 20
27.175
 30
0.0
 11
240.1
 21
27.575
 31
0.0
  0
LINE
  5
15C
330
17
100
AcDbEntity
  8
CASEWORK-CABINETS
 62
7
100
AcDbLine
 10
241.9
 20
27.175
 30
0.0
 11
241.9
 21
27.575
 31
0.0
  0
LINE
  5
15D
330
17
100
AcDbEntity
  8
CASEWORK-CABINETS
 62
7
100
AcDbLine
 10
240.1
 20
31.625
 30
0.0
 11
241.9
 21
31.625
 31
0.0
  0
LINE
  5
15E
330
17
100
AcDbEntity
  8
CASEWORK-CABINETS
 62
7
100
AcDbLine
 10
240.1
 20
31.425
 30
0.0
 11
240.1
 21
31.825
 31
0.0
  0
LINE
  5
15F
330
17
100
AcDbEntity
  8
CASEWORK-CABINETS
 62
7
100
AcDbLine
 10
241.9
 20
31.425
 30
0.0
 11
241.9
 21
31.825
 31
0.0
  0
LINE
  5
160
330
17
100
AcDbEntity
  8
CASEWORK-CABINETS
 62
7
100
AcDbLine
 10
240.1
 20
35.875
 30
0.0
 11
241.9
 21
35.875
 31
0.0
  0
LINE
  5
161
330
17
100
AcDbEntity
  8
CASEWORK-CABINETS
 62
7
100
AcDbLine
 10
240.1
 20
35.675
 30
0.0
 11
240.1
 21
36.075
 31
0.0
  0
LINE
  5
162
330
17
100
AcDbEntity
  8
CASEWORK-CABINETS
 62
7
100
AcDbLine
 10
241.9
 20
35.675
 30
0.0
 11
241.9
 21
36.075
 31
0.0
  0
LWPOLYLINE
  5
163
330
17
100
AcDbEntity
  8
CASEWORK-CABINETS
 62
7
100
AcDbPolyline
 90
5
 70
1
 10
244.0
 20
0.0
 10
256.0
 20
0.0
 10
256.0
 20
38.0
 10
244.0
 20
38.0
 10
244.0
 20
0.0
  0
LINE
  5
164
330
17
100
AcDbEntity
  8
CASEWORK-CABINETS
 62
7
100
AcDbLine
 10
244.0
 20
4.0
 30
0.0
 11
256.0
 21
4.0
 31
0.0
  0
LINE
  5
165
330
17
100
AcDbEntity
  8
CASEWORK-HIDDEN
 62
8
100
AcDbLine
 10
247.0
 20
0.0
 30
0.0
 11
247.0
 21
4.0
 31
0.0
  0
LINE
  5
166
330
17
100
AcDbEntity
  8
CASEWORK-HIDDEN
 62
8
100
AcDbLine
 10
253.0
 20
0.0
 30
0.0
 11
253.0
 21
4.0
 31
0.0
  0
LINE
  5
167
330
17
100
AcDbEntity
  8
CASEWORK-HIDDEN
 62
8
100
AcDbLine
 10
247.0
 20
0.0
 30
0.0
 11
253.0
 21
0.0
 31
0.0
  0
LINE
  5
168
330
17
100
AcDbEntity
  8
CASEWORK-CABINETS
 62
7
100
AcDbLine
 10
244.0
 20
6.428571428571429
 30
0.0
 11
256.0
 21
6.428571428571429
 31
0.0
  0
LINE
  5
169
330
17
100
AcDbEntity
  8
CASEWORK-CABINETS
 62
7
100
AcDbLine
 10
244.0
 20
8.857142857142858
 30
0.0
 11
256.0
 21
8.857142857142858
 31
0.0
  0
LINE
  5
16A
330
17
100
AcDbEntity
  8
CASEWORK-CABINETS
 62
7
100
AcDbLine
 10
244.0
 20
11.285714285714285
 30
0.0
 11
256.0
 21
11.285714285714285
 31
0.0
  0
LINE
  5
16B
330
17
100
AcDbEntity
  8
CASEWORK-CABINETS
 62
7
100
AcDbLine
 10
244.0
 20
13.714285714285714
 30
0.0
 11
256.0
 21
13.714285714285714
 31
0.0
  0
LINE
  5
16C
330
17
100
AcDbEntity
  8
CASEWORK-CABINETS
 62
7
100
AcDbLine
 10
244.0
 20
16.142857142857142
 30
0.0
 11
256.0
 21
16.142857142857142
 31
0.0
  0
LINE
  5
16D
330
17
100
AcDbEntity
  8
CASEWORK-CABINETS
 62
7
100
AcDbLine
 10
244.0
 20
18.57142857142857
 30
0.0
 11
256.0
 21
18.57142857142857
 31
0.0
  0
LINE
  5
16E
330
17
100
AcDbEntity
  8
CASEWORK-CABINETS
 62
7
100
AcDbLine
 10
244.0
 20
21.0
 30
0.0
 11
256.0
 21
21.0
 31
0.0
  0
LINE
  5
16F
330
17
100
AcDbEntity
  8
CASEWORK-CABINETS
 62
7
100
AcDbLine
 10
244.0
 20
23.428571428571427
 30
0.0
 11
256.0
 21
23.428571428571427
 31
0.0
  0
LINE
  5
170
330
17
100
AcDbEntity
  8
CASEWORK-CABINETS
 62
7
100
AcDbLine
 10
244.0
 20
25.857142857142854
 30
0.0
 11
256.0
 21
25.857142857142854
 31
0.0
  0
LINE
  5
171
330
17
100
AcDbEntity
  8
CASEWORK-CABINETS
 62
7
100
AcDbLine
 10
244.0
 20
28.285714285714285
 30
0.0
 11
256.0
 21
28.285714285714285
 31
0.0
  0
LINE
  5
172
330
17
100
AcDbEntity
  8
CASEWORK-CABINETS
 62
7
100
AcDbLine
 10
244.0
 20
30.71428571428571
 30
0.0
 11
256.0
 21
30.71428571428571
 31
0.0
  0
LINE
  5
173
330
17
100
AcDbEntity
  8
CASEWORK-CABINETS
 62
7
100
AcDbLine
 10
244.0
 20
33.14285714285714
 30
0.0
 11
256.0
 21
33.14285714285714
 31
0.0
  0
LINE
  5
174
330
17
100
AcDbEntity
  8
CASEWORK-CABINETS
 62
7
100
AcDbLine
 10
244.0
 20
35.57142857142857
 30
0.0
 11
256.0
 21
35.57142857142857
 31
0.0
  0
LINE
  5
175
330
17
100
AcDbEntity
  8
CASEWORK-CABINETS
 62
7
100
AcDbLine
 10
248.2
 20
5.214285714285714
 30
0.0
 11
251.8
 21
5.214285714285714
 31
0.0
  0
LINE
  5
176
330
17
100
AcDbEntity
  8
CASEWORK-CABINETS
 62
7
100
AcDbLine
 10
248.2
 20
5.014285714285714
 30
0.0
 11
248.2
 21
5.414285714285715
 31
0.0
  0
LINE
  5
177
330
17
100
AcDbEntity
  8
CASEWORK-CABINETS
 62
7
100
AcDbLine
 10
251.8
 20
5.014285714285714
 30
0.0
 11
251.8
 21
5.414285714285715
 31
0.0
  0
LINE
  5
178
330
17
100
AcDbEntity
  8
CASEWORK-CABINETS
 62
7
100
AcDbLine
 10
248.2
 20
7.642857142857143
 30
0.0
 11
251.8
 21
7.642857142857143
 31
0.0
  0
LINE
  5
179
330
17
100
AcDbEntity
  8
CASEWORK-CABINETS
 62
7
100
AcDbLine
 10
248.2
 20
7.442857142857143
 30
0.0
 11
248.2
 21
7.842857142857143
 31
0.0
  0
LINE
  5
17A
330
17
100
AcDbEntity
  8
CASEWORK-CABINETS
 62
7
100
AcDbLine
 10
251.8
 20
7.442857142857143
 30
0.0
 11
251.8
 21
7.842857142857143
 31
0.0
  0
LINE
  5
17B
330
17
100
AcDbEntity
  8
CASEWORK-CABINETS
 62
7
100
AcDbLine
 10
248.2
 20
10.071428571428571
 30
0.0
 11
251.8
 21
10.071428571428571
 31
0.0
  0
LINE
  5
17C
330
17
100
AcDbEntity
  8
CASEWORK-CABINETS
 62
7
100
AcDbLine
 10
248.2
 20
9.871428571428572
 30
0.0
 11
248.2
 21
10.27142857142857
 31
0.0
  0
LINE
  5
17D
330
17
100
AcDbEntity
  8
CASEWORK-CABINETS
 62
7
100
AcDbLine
 10
251.8
 20
9.871428571428572
 30
0.0
 11
251.8
 21
10.27142857142857
 31
0.0
  0
LINE
  5
17E
330
17
100
AcDbEntity
  8
CASEWORK-CABINETS
 62
7
100
AcDbLine
 10
248.2
 20
12.499999999999998
 30
0.0
 11
251.8
 21
12.499999999999998
 31
0.0
  0
LINE
  5
17F
330
17
100
AcDbEntity
  8
CASEWORK-CABINETS
 62
7
100
AcDbLine
 10
248.2
 20
12.299999999999999
 30
0.0
 11
248.2
 21
12.699999999999998
 31
0.0
  0
LINE
  5
180
330
17
100
AcDbEntity
  8
CASEWORK-CABINETS
 62
7
100
AcDbLine
 10
251.8
 20
12.299999999999999
 30
0.0
 11
251.8
 21
12.699999999999998
 31
0.0
  0
LINE
  5
181
330
17
100
AcDbEntity
  8
CASEWORK-CABINETS
 62
7
100
AcDbLine
 10
248.2
 20
14.928571428571427
 30
0.0
 11
251.8
 21
14.928571428571427
 31
0.0
  0
LINE
  5
182
330
17
100
AcDbEntity
  8
CASEWORK-CABINETS
 62
7
100
AcDbLine
 10
248.2
 20
14.728571428571428
 30
0.0
 11
248.2
 21
15.128571428571426
 31
0.0
  0
LINE
  5
183
330
17
100
AcDbEntity
  8
CASEWORK-CABINETS
 62
7
100
AcDbLine
 10
251.8
 20
14.728571428571428
 30
0.0
 11
251.8
 21
15.128571428571426
 31
0.0
  0
LINE
  5
184
330
17
100
AcDbEntity
  8
CASEWORK-CABINETS
 62
7
100
AcDbLine
 10
248.2
 20
17.357142857142858
 30
0.0
 11
251.8
 21
17.357142857142858
 31
0.0
  0
LINE
  5
185
330
17
100
AcDbEntity
  8
CASEWORK-CABINETS
 62
7
100
AcDbLine
 10
248.2
 20
17.15714285714286
 30
0.0
 11
248.2
 21
17.557142857142857
 31
0.0
  0
LINE
  5
186
330
17
100
AcDbEntity
  8
CASEWORK-CABINETS
 62
7
100
AcDbLine
 10
251.8
 20
17.15714285714286
 30
0.0
 11
251.8
 21
17.557142857142857
 31
0.0
  0
LINE
  5
187
330
17
100
AcDbEntity
  8
CASEWORK-CABINETS
 62
7
100
AcDbLine
 10
248.2
 20
19.785714285714285
 30
0.0
 11
251.8
 21
19.785714285714285
 31
0.0
  0
LINE
  5
188
330
17
100
AcDbEntity
  8
CASEWORK-CABINETS
 62
7
100
AcDbLine
 10
248.2
 20
19.585714285714285
 30
0.0
 11
248.2
 21
19.985714285714284
 31
0.0
  0
LINE
  5
189
330
17
100
AcDbEntity
  8
CASEWORK-CABINETS
 62
7
100
AcDbLine
 10
251.8
 20
19.585714285714285
 30
0.0
 11
251.8
 21
19.985714285714284
 31
0.0
  0
LINE
  5
18A
330
17
100
AcDbEntity
  8
CASEWORK-CABINETS
 62
7
100
AcDbLine
 10
248.2
 20
22.214285714285715
 30
0.0
 11
251.8
 21
22.214285714285715
 31
0.0
  0
LINE
  5
18B
330
17
100
AcDbEntity
  8
CASEWORK-CABINETS
 62
7
100
AcDbLine
 10
248.2
 20
22.014285714285716
 30
0.0
 11
248.2
 21
22.414285714285715
 31
0.0
  0
LINE
  5
18C
330
17
100
AcDbEntity
  8
CASEWORK-CABINETS
 62
7
100
AcDbLine
 10
251.8
 20
22.014285714285716
 30
0.0
 11
251.8
 21
22.414285714285715
 31
0.0
  0
LINE
  5
18D
330
17
100
AcDbEntity
  8
CASEWORK-CABINETS
 62
7
100
AcDbLine
 10
248.2
 20
24.642857142857142
 30
0.0
 11
251.8
 21
24.642857142857142
 31
0.0
  0
LINE
  5
18E
330
17
100
AcDbEntity
  8
CASEWORK-CABINETS
 62
7
100
AcDbLine
 10
248.2
 20
24.442857142857143
 30
0.0
 11
248.2
 21
24.84285714285714
 31
0.0
  0
LINE
  5
18F
330
17
100
AcDbEntity
  8
CASEWORK-CABINETS
 62
7
100
AcDbLine
 10
251.8
 20
24.442857142857143
 30
0.0
 11
251.8
 21
24.84285714285714
 31
0.0
  0
LINE
  5
190
330
17
100
AcDbEntity
  8
CASEWORK-CABINETS
 62
7
100
AcDbLine
 10
248.2
 20
27.07142857142857
 30
0.0
 11
251.8
 21
27.07142857142857
 31
0.0
  0
LINE
  5
191
330
17
100
AcDbEntity
  8
CASEWORK-CABINETS
 62
7
100
AcDbLine
 10
248.2
 20
26.87142857142857
 30
0.0
 11
248.2
 21
27.27142857142857
 31
0.0
  0
LINE
  5
192
330
17
100
AcDbEntity
  8
CASEWORK-CABINETS
 62
7
100
AcDbLine
 10
251.8
 20
26.87142857142857
 30
0.0
 11
251.8
 21
27.27142857142857
 31
0.0
  0
LINE
  5
193
330
17
100
AcDbEntity
  8
CASEWORK-CABINETS
 62
7
100
AcDbLine
 10
248.2
 20
29.5
 30
0.0
 11
251.8
 21
29.5
 31
0.0
  0
LINE
  5
194
330
17
100
AcDbEntity
  8
CASEWORK-CABINETS
 62
7
100
AcDbLine
 10
248.2
 20
29.3
 30
0.0
 11
248.2
 21
29.7
 31
0.0
  0
LINE
  5
195
330
17
100
AcDbEntity
  8
CASEWORK-CABINETS
 62
7
100
AcDbLine
 10
251.8
 20
29.3
 30
0.0
 11
251.8
 21
29.7
 31
0.0
  0
LINE
  5
196
330
17
100
AcDbEntity
  8
CASEWORK-CABINETS
 62
7
100
AcDbLine
 10
248.2
 20
31.928571428571427
 30
0.0
 11
251.8
 21
31.928571428571427
 31
0.0
  0
LINE
  5
197
330
17
100
AcDbEntity
  8
CASEWORK-CABINETS
 62
7
100
AcDbLine
 10
248.2
 20
31.728571428571428
 30
0.0
 11
248.2
 21
32.128571428571426
 31
0.0
  0
LINE
  5
198
330
17
100
AcDbEntity
  8
CASEWORK-CABINETS
 62
7
100
AcDbLine
 10
251.8
 20
31.728571428571428
 30
0.0
 11
251.8
 21
32.128571428571426
 31
0.0
  0
LINE
  5
199
330
17
100
AcDbEntity
  8
CASEWORK-CABINETS
 62
7
100
AcDbLine
 10
248.2
 20
34.357142857142854
 30
0.0
 11
251.8
 21
34.357142857142854
 31
0.0
  0
LINE
  5
19A
330
17
100
AcDbEntity
  8
CASEWORK-CABINETS
 62
7
100
AcDbLine
 10
248.2
 20
34.15714285714285
 30
0.0
 11
248.2
 21
34.55714285714286
 31
0.0
  0
LINE
  5
19B
330
17
100
AcDbEntity
  8
CASEWORK-CABINETS
 62
7
100
AcDbLine
 10
251.8
 20
34.15714285714285
 30
0.0
 11
251.8
 21
34.55714285714286
 31
0.0
  0
LINE
  5
19C
330
17
100
AcDbEntity
  8
CASEWORK-CABINETS
 62
7
100
AcDbLine
 10
248.2
 20
36.785714285714285
 30
0.0
 11
251.8
 21
36.785714285714285
 31
0.0
  0
LINE
  5
19D
330
17
100
AcDbEntity
  8
CASEWORK-CABINETS
 62
7
100
AcDbLine
 10
248.2
 20
36.58571428571428
 30
0.0
 11
248.2
 21
36.98571428571429
 31
0.0
  0
LINE
  5
19E
330
17
100
AcDbEntity
  8
CASEWORK-CABINETS
 62
7
100
AcDbLine
 10
251.8
 20
36.58571428571428
 30
0.0
 11
251.8
 21
36.98571428571429
 31
0.0
  0
LWPOLYLINE
  5
19F
330
17
100
AcDbEntity
  8
CASEWORK-CABINETS
 62
7
100
AcDbPolyline
 90
5
 70
1
 10
256.0
 20
0.0
 10
268.0
 20
0.0
 10
268.0
 20
38.0
 10
256.0
 20
38.0
 10
256.0
 20
0.0
  0
LINE
  5
1A0
330
17
100
AcDbEntity
  8
CASEWORK-CABINETS
 62
7
100
AcDbLine
 10
256.0
 20
4.0
 30
0.0
 11
268.0
 21
4.0
 31
0.0
  0
LINE
  5
1A1
330
17
100
AcDbEntity
  8
CASEWORK-HIDDEN
 62
8
100
AcDbLine
 10
259.0
 20
0.0
 30
0.0
 11
259.0
 21
4.0
 31
0.0
  0
LINE
  5
1A2
330
17
100
AcDbEntity
  8
CASEWORK-HIDDEN
 62
8
100
AcDbLine
 10
265.0
 20
0.0
 30
0.0
 11
265.0
 21
4.0
 31
0.0
  0
LINE
  5
1A3
330
17
100
AcDbEntity
  8
CASEWORK-HIDDEN
 62
8
100
AcDbLine
 10
259.0
 20
0.0
 30
0.0
 11
265.0
 21
0.0
 31
0.0
  0
LINE
  5
1A4
330
17
100
AcDbEntity
  8
CASEWORK-CABINETS
 62
7
100
AcDbLine
 10
256.0
 20
8.25
 30
0.0
 11
268.0
 21
8.25
 31
0.0
  0
LINE
  5
1A5
330
17
100
AcDbEntity
  8
CASEWORK-CABINETS
 62
7
100
AcDbLine
 10
256.0
 20
12.5
 30
0.0
 11
268.0
 21
12.5
 31
0.0
  0
LINE
  5
1A6
330
17
100
AcDbEntity
  8
CASEWORK-CABINETS
 62
7
100
AcDbLine
 10
256.0
 20
16.75
 30
0.0
 11
268.0
 21
16.75
 31
0.0
  0
LINE
  5
1A7
330
17
100
AcDbEntity
  8
CASEWORK-CABINETS
 62
7
100
AcDbLine
 10
256.0
 20
21.0
 30
0.0
 11
268.0
 21
21.0
 31
0.0
  0
LINE
  5
1A8
330
17
100
AcDbEntity
  8
CASEWORK-CABINETS
 62
7
100
AcDbLine
 10
256.0
 20
25.25
 30
0.0
 11
268.0
 21
25.25
 31
0.0
  0
LINE
  5
1A9
330
17
100
AcDbEntity
  8
CASEWORK-CABINETS
 62
7
100
AcDbLine
 10
256.0
 20
29.5
 30
0.0
 11
268.0
 21
29.5
 31
0.0
  0
LINE
  5
1AA
330
17
100
AcDbEntity
  8
CASEWORK-CABINETS
 62
7
100
AcDbLine
 10
256.0
 20
33.75
 30
0.0
 11
268.0
 21
33.75
 31
0.0
  0
LINE
  5
1AB
330
17
100
AcDbEntity
  8
CASEWORK-CABINETS
 62
7
100
AcDbLine
 10
260.2
 20
6.125
 30
0.0
 11
263.8
 21
6.125
 31
0.0
  0
LINE
  5
1AC
330
17
100
AcDbEntity
  8
CASEWORK-CABINETS
 62
7
100
AcDbLine
 10
260.2
 20
5.925
 30
0.0
 11
260.2
 21
6.325
 31
0.0
  0
LINE
  5
1AD
330
17
100
AcDbEntity
  8
CASEWORK-CABINETS
 62
7
100
AcDbLine
 10
263.8
 20
5.925
 30
0.0
 11
263.8
 21
6.325
 31
0.0
  0
LINE
  5
1AE
330
17
100
AcDbEntity
  8
CASEWORK-CABINETS
 62
7
100
AcDbLine
 10
260.2
 20
10.375
 30
0.0
 11
263.8
 21
10.375
 31
0.0
  0
LINE
  5
1AF
330
17
100
AcDbEntity
  8
CASEWORK-CABINETS
 62
7
100
AcDbLine
 10
260.2
 20
10.175
 30
0.0
 11
260.2
 21
10.575
 31
0.0
  0
LINE
  5
1B0
330
17
100
AcDbEntity
  8
CASEWORK-CABINETS
 62
7
100
AcDbLine
 10
263.8
 20
10.175
 30
0.0
 11
263.8
 21
10.575
 31
0.0
  0
LINE
  5
1B1
330
17
100
AcDbEntity
  8
CASEWORK-CABINETS
 62
7
100
AcDbLine
 10
260.2
 20
14.625
 30
0.0
 11
263.8
 21
14.625
 31
0.0
  0
LINE
  5
1B2
330
17
100
AcDbEntity
  8
CASEWORK-CABINETS
 62
7
100
AcDbLine
 10
260.2
 20
14.425
 30
0.0
 11
260.2
 21
14.825
 31
0.0
  0
LINE
  5
1B3
330
17
100
AcDbEntity
  8
CASEWORK-CABINETS
 62
7
100
AcDbLine
 10
263.8
 20
14.425
 30
0.0
 11
263.8
 21
14.825
 31
0.0
  0
LINE
  5
1B4
330
17
100
AcDbEntity
  8
CASEWORK-CABINETS
 62
7
100
AcDbLine
 10
260.2
 20
18.875
 30
0.0
 11
263.8
 21
18.875
 31
0.0
  0
LINE
  5
1B5
330
17
100
AcDbEntity
  8
CASEWORK-CABINETS
 62
7
100
AcDbLine
 10
260.2
 20
18.675
 30
0.0
 11
260.2
 21
19.075
 31
0.0
  0
LINE
  5
1B6
330
17
100
AcDbEntity
  8
CASEWORK-CABINETS
 62
7
100
AcDbLine
 10
263.8
 20
18.675
 30
0.0
 11
263.8
 21
19.075
 31
0.0
  0
LINE
  5
1B7
330
17
100
AcDbEntity
  8
CASEWORK-CABINETS
 62
7
100
AcDbLine
 10
260.2
 20
23.125
 30
0.0
 11
263.8
 21
23.125
 31
0.0
  0
LINE
  5
1B8
330
17
100
AcDbEntity
  8
CASEWORK-CABINETS
 62
7
100
AcDbLine
 10
260.2
 20
22.925
 30
0.0
 11
260.2
 21
23.325
 31
0.0
  0
LINE
  5
1B9
330
17
100
AcDbEntity
  8
CASEWORK-CABINETS
 62
7
100
AcDbLine
 10
263.8
 20
22.925
 30
0.0
 11
263.8
 21
23.325
 31
0.0
  0
LINE
  5
1BA
330
17
100
AcDbEntity
  8
CASEWORK-CABINETS
 62
7
100
AcDbLine
 10
260.2
 20
27.375
 30
0.0
 11
263.8
 21
27.375
 31
0.0
  0
LINE
  5
1BB
330
17
100
AcDbEntity
  8
CASEWORK-CABINETS
 62
7
100
AcDbLine
 10
260.2
 20
27.175
 30
0.0
 11
260.2
 21
27.575
 31
0.0
  0
LINE
  5
1BC
330
17
100
AcDbEntity
  8
CASEWORK-CABINETS
 62
7
100
AcDbLine
 10
263.8
 20
27.175
 30
0.0
 11
263.8
 21
27.575
 31
0.0
  0
LINE
  5
1BD
330
17
100
AcDbEntity
  8
CASEWORK-CABINETS
 62
7
100
AcDbLine
 10
260.2
 20
31.625
 30
0.0
 11
263.8
 21
31.625
 31
0.0
  0
LINE
  5
1BE
330
17
100
AcDbEntity
  8
CASEWORK-CABINETS
 62
7
100
AcDbLine
 10
260.2
 20
31.425
 30
0.0
 11
260.2
 21
31.825
 31
0.0
  0
LINE
  5
1BF
330
17
100
AcDbEntity
  8
CASEWORK-CABINETS
 62
7
100
AcDbLine
 10
263.8
 20
31.425
 30
0.0
 11
263.8
 21
31.825
 31
0.0
  0
LINE
  5
1C0
330
17
100
AcDbEntity
  8
CASEWORK-CABINETS
 62
7
100
AcDbLine
 10
260.2
 20
35.875
 30
0.0
 11
263.8
 21
35.875
 31
0.0
  0
LINE
  5
1C1
330
17
100
AcDbEntity
  8
CASEWORK-CABINETS
 62
7
100
AcDbLine
 10
260.2
 20
35.675
 30
0.0
 11
260.2
 21
36.075
 31
0.0
  0
LINE
  5
1C2
330
17
100
AcDbEntity
  8
CASEWORK-CABINETS
 62
7
100
AcDbLine
 10
263.8
 20
35.675
 30
0.0
 11
263.8
 21
36.075
 31
0.0
  0
LWPOLYLINE
  5
1C3
330
17
100
AcDbEntity
  8
CASEWORK-CABINETS
 62
7
100
AcDbPolyline
 90
5
 70
1
 10
268.0
 20
0.0
 10
280.0
 20
0.0
 10
280.0
 20
38.0
 10
268.0
 20
38.0
 10
268.0
 20
0.0
  0
LINE
  5
1C4
330
17
100
AcDbEntity
  8
CASEWORK-CABINETS
 62
7
100
AcDbLine
 10
268.0
 20
4.0
 30
0.0
 11
280.0
 21
4.0
 31
0.0
  0
LINE
  5
1C5
330
17
100
AcDbEntity
  8
CASEWORK-HIDDEN
 62
8
100
AcDbLine
 10
271.0
 20
0.0
 30
0.0
 11
271.0
 21
4.0
 31
0.0
  0
LINE
  5
1C6
330
17
100
AcDbEntity
  8
CASEWORK-HIDDEN
 62
8
100
AcDbLine
 10
277.0
 20
0.0
 30
0.0
 11
277.0
 21
4.0
 31
0.0
  0
LINE
  5
1C7
330
17
100
AcDbEntity
  8
CASEWORK-HIDDEN
 62
8
100
AcDbLine
 10
271.0
 20
0.0
 30
0.0
 11
277.0
 21
0.0
 31
0.0
  0
LINE
  5
1C8
330
17
100
AcDbEntity
  8
CASEWORK-CABINETS
 62
7
100
AcDbLine
 10
268.0
 20
9.666666666666668
 30
0.0
 11
280.0
 21
9.666666666666668
 31
0.0
  0
LINE
  5
1C9
330
17
100
AcDbEntity
  8
CASEWORK-CABINETS
 62
7
100
AcDbLine
 10
268.0
 20
15.333333333333334
 30
0.0
 11
280.0
 21
15.333333333333334
 31
0.0
  0
LINE
  5
1CA
330
17
100
AcDbEntity
  8
CASEWORK-CABINETS
 62
7
100
AcDbLine
 10
268.0
 20
21.0
 30
0.0
 11
280.0
 21
21.0
 31
0.0
  0
LINE
  5
1CB
330
17
100
AcDbEntity
  8
CASEWORK-CABINETS
 62
7
100
AcDbLine
 10
268.0
 20
26.666666666666668
 30
0.0
 11
280.0
 21
26.666666666666668
 31
0.0
  0
LINE
  5
1CC
330
17
100
AcDbEntity
  8
CASEWORK-CABINETS
 62
7
100
AcDbLine
 10
268.0
 20
32.333333333333336
 30
0.0
 11
280.0
 21
32.333333333333336
 31
0.0
  0
LINE
  5
1CD
330
17
100
AcDbEntity
  8
CASEWORK-CABINETS
 62
7
100
AcDbLine
 10
272.2
 20
6.833333333333334
 30
0.0
 11
275.8
 21
6.833333333333334
 31
0.0
  0
LINE
  5
1CE
330
17
100
AcDbEntity
  8
CASEWORK-CABINETS
 62
7
100
AcDbLine
 10
272.2
 20
6.633333333333334
 30
0.0
 11
272.2
 21
7.033333333333334
 31
0.0
  0
LINE
  5
1CF
330
17
100
AcDbEntity
  8
CASEWORK-CABINETS
 62
7
100
AcDbLine
 10
275.8
 20
6.633333333333334
 30
0.0
 11
275.8
 21
7.033333333333334
 31
0.0
  0
LINE
  5
1D0
330
17
100
AcDbEntity
  8
CASEWORK-CABINETS
 62
7
100
AcDbLine
 10
272.2
 20
12.500000000000002
 30
0.0
 11
275.8
 21
12.500000000000002
 31
0.0
  0
LINE
  5
1D1
330
17
100
AcDbEntity
  8
CASEWORK-CABINETS
 62
7
100
AcDbLine
 10
272.2
 20
12.300000000000002
 30
0.0
 11
272.2
 21
12.700000000000001
 31
0.0
  0
LINE
  5
1D2
330
17
100
AcDbEntity
  8
CASEWORK-CABINETS
 62
7
100
AcDbLine
 10
275.8
 20
12.300000000000002
 30
0.0
 11
275.8
 21
12.700000000000001
 31
0.0
  0
LINE
  5
1D3
330
17
100
AcDbEntity
  8
CASEWORK-CABINETS
 62
7
100
AcDbLine
 10
272.2
 20
18.166666666666668
 30
0.0
 11
275.8
 21
18.166666666666668
 31
0.0
  0
LINE
  5
1D4
330
17
100
AcDbEntity
  8
CASEWORK-CABINETS
 62
7
100
AcDbLine
 10
272.2
 20
17.96666666666667
 30
0.0
 11
272.2
 21
18.366666666666667
 31
0.0
  0
LINE
  5
1D5
330
17
100
AcDbEntity
  8
CASEWORK-CABINETS
 62
7
100
AcDbLine
 10
275.8
 20
17.96666666666667
 30
0.0
 11
275.8
 21
18.366666666666667
 31
0.0
  0
LINE
  5
1D6
330
17
100
AcDbEntity
  8
CASEWORK-CABINETS
 62
7
100
AcDbLine
 10
272.2
 20
23.833333333333332
 30
0.0
 11
275.8
 21
23.833333333333332
 31
0.0
  0
LINE
  5
1D7
330
17
100
AcDbEntity
  8
CASEWORK-CABINETS
 62
7
100
AcDbLine
 10
272.2
 20
23.633333333333333
 30
0.0
 11
272.2
 21
24.03333333333333
 31
0.0
  0
LINE
  5
1D8
330
17
100
AcDbEntity
  8
CASEWORK-CABINETS
 62
7
100
AcDbLine
 10
275.8
 20
23.633333333333333
 30
0.0
 11
275.8
 21
24.03333333333333
 31
0.0
  0
LINE
  5
1D9
330
17
100
AcDbEntity
  8
CASEWORK-CABINETS
 62
7
100
AcDbLine
 10
272.2
 20
29.5
 30
0.0
 11
275.8
 21
29.5
 31
0.0
  0
LINE
  5
1DA
330
17
100
AcDbEntity
  8
CASEWORK-CABINETS
 62
7
100
AcDbLine
 10
272.2
 20
29.3
 30
0.0
 11
272.2
 21
29.7
 31
0.0
  0
LINE
  5
1DB
330
17
100
AcDbEntity
  8
CASEWORK-CABINETS
 62
7
100
AcDbLine
 10
275.8
 20
29.3
 30
0.0
 11
275.8
 21
29.7
 31
0.0
  0
LINE
  5
1DC
330
17
100
AcDbEntity
  8
CASEWORK-CABINETS
 62
7
100
AcDbLine
 10
272.2
 20
35.16666666666667
 30
0.0
 11
275.8
 21
35.16666666666667
 31
0.0
  0
LINE
  5
1DD
330
17
100
AcDbEntity
  8
CASEWORK-CABINETS
 62
7
100
AcDbLine
 10
272.2
 20
34.96666666666667
 30
0.0
 11
272.2
 21
35.366666666666674
 31
0.0
  0
LINE
  5
1DE
330
17
100
AcDbEntity
  8
CASEWORK-CABINETS
 62
7
100
AcDbLine
 10
275.8
 20
34.96666666666667
 30
0.0
 11
275.8
 21
35.366666666666674
 31
0.0
  0
LWPOLYLINE
  5
1DF
330
17
100
AcDbEntity
  8
CASEWORK-CABINETS
 62
7
100
AcDbPolyline
 90
5
 70
1
 10
280.0
 20
0.0
 10
310.0
 20
0.0
 10
310.0
 20
38.0
 10
280.0
 20
38.0
 10
280.0
 20
0.0
  0
LINE
  5
1E0
330
17
100
AcDbEntity
  8
CASEWORK-CABINETS
 62
7
100
AcDbLine
 10
280.0
 20
4.0
 30
0.0
 11
310.0
 21
4.0
 31
0.0
  0
LINE
  5
1E1
330
17
100
AcDbEntity
  8
CASEWORK-HIDDEN
 62
8
100
AcDbLine
 10
283.0
 20
0.0
 30
0.0
 11
283.0
 21
4.0
 31
0.0
  0
LINE
  5
1E2
330
17
100
AcDbEntity
  8
CASEWORK-HIDDEN
 62
8
100
AcDbLine
 10
307.0
 20
0.0
 30
0.0
 11
307.0
 21
4.0
 31
0.0
  0
LINE
  5
1E3
330
17
100
AcDbEntity
  8
CASEWORK-HIDDEN
 62
8
100
AcDbLine
 10
283.0
 20
0.0
 30
0.0
 11
307.0
 21
0.0
 31
0.0
  0
LINE
  5
1E4
330
17
100
AcDbEntity
  8
CASEWORK-CABINETS
 62
7
100
AcDbLine
 10
295.0
 20
4.0
 30
0.0
 11
295.0
 21
38.0
 31
0.0
  0
LWPOLYLINE
  5
1E5
330
17
100
AcDbEntity
  8
CASEWORK-CABINETS
 62
7
100
AcDbPolyline
 90
5
 70
1
 10
281.5625
 20
5.5625
 10
293.4375
 20
5.5625
 10
293.4375
 20
36.4375
 10
281.5625
 20
36.4375
 10
281.5625
 20
5.5625
  0
CIRCLE
  5
1E6
330
17
100
AcDbEntity
  8
CASEWORK-CABINETS
 62
7
100
AcDbCircle
 10
292.4375
 20
22.69375
 30
0.0
 40
0.3
  0
LWPOLYLINE
  5
1E7
330
17
100
AcDbEntity
  8
CASEWORK-CABINETS
 62
7
100
AcDbPolyline
 90
5
 70
1
 10
296.5625
 20
5.5625
 10
308.4375
 20
5.5625
 10
308.4375
 20
36.4375
 10
296.5625
 20
36.4375
 10
296.5625
 20
5.5625
  0
CIRCLE
  5
1E8
330
17
100
AcDbEntity
  8
CASEWORK-CABINETS
 62
7
100
AcDbCircle
 10
297.5625
 20
22.69375
 30
0.0
 40
0.3
  0
LWPOLYLINE
  5
1E9
330
17
100
AcDbEntity
  8
CASEWORK-CABINETS
 62
7
100
AcDbPolyline
 90
5
 70
1
 10
310.0
 20
0.0
 10
334.0
 20
0.0
 10
334.0
 20
38.0
 10
310.0
 20
38.0
 10
310.0
 20
0.0
  0
LINE
  5
1EA
330
17
100
AcDbEntity
  8
CASEWORK-CABINETS
 62
7
100
AcDbLine
 10
310.0
 20
4.0
 30
0.0
 11
334.0
 21
4.0
 31
0.0
  0
LINE
  5
1EB
330
17
100
AcDbEntity
  8
CASEWORK-HIDDEN
 62
8
100
AcDbLine
 10
313.0
 20
0.0
 30
0.0
 11
313.0
 21
4.0
 31
0.0
  0
LINE
  5
1EC
330
17
100
AcDbEntity
  8
CASEWORK-HIDDEN
 62
8
100
AcDbLine
 10
331.0
 20
0.0
 30
0.0
 11
331.0
 21
4.0
 31
0.0
  0
LINE
  5
1ED
330
17
100
AcDbEntity
  8
CASEWORK-HIDDEN
 62
8
100
AcDbLine
 10
313.0
 20
0.0
 30
0.0
 11
331.0
 21
0.0
 31
0.0
  0
LINE
  5
1EE
330
17
100
AcDbEntity
  8
CASEWORK-CABINETS
 62
7
100
AcDbLine
 10
322.0
 20
4.0
 30
0.0
 11
322.0
 21
38.0
 31
0.0
  0
LWPOLYLINE
  5
1EF
330
17
100
AcDbEntity
  8
CASEWORK-CABINETS
 62
7
100
AcDbPolyline
 90
5
 70
1
 10
311.4875
 20
5.4875
 10
320.5125
 20
5.4875
 10
320.5125
 20
36.5125
 10
311.4875
 20
36.5125
 10
311.4875
 20
5.4875
  0
CIRCLE
  5
1F0
330
17
100
AcDbEntity
  8
CASEWORK-CABINETS
 62
7
100
AcDbCircle
 10
319.4375
 20
22.69375
 30
0.0
 40
0.3
  0
LWPOLYLINE
  5
1F1
330
17
100
AcDbEntity
  8
CASEWORK-CABINETS
 62
7
100
AcDbPolyline
 90
5
 70
1
 10
323.4875
 20
5.4875
 10
332.5125
 20
5.4875
 10
332.5125
 20
36.5125
 10
323.4875
 20
36.5125
 10
323.4875
 20
5.4875
  0
CIRCLE
  5
1F2
330
17
100
AcDbEntity
  8
CASEWORK-CABINETS
 62
7
100
AcDbCircle
 10
324.5625
 20
22.69375
 30
0.0
 40
0.3
  0
LWPOLYLINE
  5
1F3
330
17
100
AcDbEntity
  8
CASEWORK-CABINETS
 62
7
100
AcDbPolyline
 90
5
 70
1
 10
354.66666666666663
 20
0.0
 10
366.66666666666663
 20
0.0
 10
366.66666666666663
 20
33.4
 10
354.66666666666663
 20
33.4
 10
354.66666666666663
 20
0.0
  0
LINE
  5
1F4
330
17
100
AcDbEntity
  8
CASEWORK-CABINETS
 62
7
100
AcDbLine
 10
354.66666666666663
 20
4.0
 30
0.0
 11
366.66666666666663
 21
4.0
 31
0.0
  0
LINE
  5
1F5
330
17
100
AcDbEntity
  8
CASEWORK-HIDDEN
 62
8
100
AcDbLine
 10
357.66666666666663
 20
0.0
 30
0.0
 11
357.66666666666663
 21
4.0
 31
0.0
  0
LINE
  5
1F6
330
17
100
AcDbEntity
  8
CASEWORK-HIDDEN
 62
8
100
AcDbLine
 10
363.66666666666663
 20
0.0
 30
0.0
 11
363.66666666666663
 21
4.0
 31
0.0
  0
LINE
  5
1F7
330
17
100
AcDbEntity
  8
CASEWORK-HIDDEN
 62
8
100
AcDbLine
 10
357.66666666666663
 20
0.0
 30
0.0
 11
363.66666666666663
 21
0.0
 31
0.0
  0
LWPOLYLINE
  5
1F8
330
17
100
AcDbEntity
  8
CASEWORK-CABINETS
 62
7
100
AcDbPolyline
 90
5
 70
1
 10
356.15416666666664
 20
5.4875
 10
365.1791666666666
 20
5.4875
 10
365.1791666666666
 20
31.912499999999998
 10
356.15416666666664
 20
31.912499999999998
 10
356.15416666666664
 20
5.4875
  0
CIRCLE
  5
1F9
330
17
100
AcDbEntity
  8
CASEWORK-CABINETS
 62
7
100
AcDbCircle
 10
357.22916666666663
 20
20.16375
 30
0.0
 40
0.3
  0
LWPOLYLINE
  5
1FA
330
17
100
AcDbEntity
  8
CASEWORK-CABINETS
 62
7
100
AcDbPolyline
 90
5
 70
1
 10
383.7155555555555
 20
0.0
 10
395.7155555555555
 20
0.0
 10
395.7155555555555
 20
38.0
 10
383.7155555555555
 20
38.0
 10
383.7155555555555
 20
0.0
  0
LINE
  5
1FB
330
17
100
AcDbEntity
  8
CASEWORK-CABINETS
 62
7
100
AcDbLine
 10
383.7155555555555
 20
4.0
 30
0.0
 11
395.7155555555555
 21
4.0
 31
0.0
  0
LINE
  5
1FC
330
17
100
AcDbEntity
  8
CASEWORK-HIDDEN
 62
8
100
AcDbLine
 10
386.7155555555555
 20
0.0
 30
0.0
 11
386.7155555555555
 21
4.0
 31
0.0
  0
LINE
  5
1FD
330
17
100
AcDbEntity
  8
CASEWORK-HIDDEN
 62
8
100
AcDbLine
 10
392.7155555555555
 20
0.0
 30
0.0
 11
392.7155555555555
 21
4.0
 31
0.0
  0
LINE
  5
1FE
330
17
100
AcDbEntity
  8
CASEWORK-HIDDEN
 62
8
100
AcDbLine
 10
386.7155555555555
 20
0.0
 30
0.0
 11
392.7155555555555
 21
0.0
 31
0.0
  0
LINE
  5
1FF
330
17
100
AcDbEntity
  8
CASEWORK-CABINETS
 62
7
100
AcDbLine
 10
383.7155555555555
 20
9.666666666666668
 30
0.0
 11
395.7155555555555
 21
9.666666666666668
 31
0.0
  0
LINE
  5
200
330
17
100
AcDbEntity
  8
CASEWORK-CABINETS
 62
7
100
AcDbLine
 10
383.7155555555555
 20
15.333333333333334
 30
0.0
 11
395.7155555555555
 21
15.333333333333334
 31
0.0
  0
LINE
  5
201
330
17
100
AcDbEntity
  8
CASEWORK-CABINETS
 62
7
100
AcDbLine
 10
383.7155555555555
 20
21.0
 30
0.0
 11
395.7155555555555
 21
21.0
 31
0.0
  0
LINE
  5
202
330
17
100
AcDbEntity
  8
CASEWORK-CABINETS
 62
7
100
AcDbLine
 10
383.7155555555555
 20
26.666666666666668
 30
0.0
 11
395.7155555555555
 21
26.666666666666668
 31
0.0
  0
LINE
  5
203
330
17
100
AcDbEntity
  8
CASEWORK-CABINETS
 62
7
100
AcDbLine
 10
383.7155555555555
 20
32.333333333333336
 30
0.0
 11
395.7155555555555
 21
32.333333333333336
 31
0.0
  0
LINE
  5
204
330
17
100
AcDbEntity
  8
CASEWORK-CABINETS
 62
7
100
AcDbLine
 10
387.9155555555555
 20
6.833333333333334
 30
0.0
 11
391.5155555555555
 21
6.833333333333334
 31
0.0
  0
LINE
  5
205
330
17
100
AcDbEntity
  8
CASEWORK-CABINETS
 62
7
100
AcDbLine
 10
387.9155555555555
 20
6.633333333333334
 30
0.0
 11
387.9155555555555
 21
7.033333333333334
 31
0.0
  0
LINE
  5
206
330
17
100
AcDbEntity
  8
CASEWORK-CABINETS
 62
7
100
AcDbLine
 10
391.5155555555555
 20
6.633333333333334
 30
0.0
 11
391.5155555555555
 21
7.033333333333334
 31
0.0
  0
LINE
  5
207
330
17
100
AcDbEntity
  8
CASEWORK-CABINETS
 62
7
100
AcDbLine
 10
387.9155555555555
 20
12.500000000000002
 30
0.0
 11
391.5155555555555
 21
12.500000000000002
 31
0.0
  0
LINE
  5
208
330
17
100
AcDbEntity
  8
CASEWORK-CABINETS
 62
7
100
AcDbLine
 10
387.9155555555555
 20
12.300000000000002
 30
0.0
 11
387.9155555555555
 21
12.700000000000001
 31
0.0
  0
LINE
  5
209
330
17
100
AcDbEntity
  8
CASEWORK-CABINETS
 62
7
100
AcDbLine
 10
391.5155555555555
 20
12.300000000000002
 30
0.0
 11
391.5155555555555
 21
12.700000000000001
 31
0.0
  0
LINE
  5
20A
330
17
100
AcDbEntity
  8
CASEWORK-CABINETS
 62
7
100
AcDbLine
 10
387.9155555555555
 20
18.166666666666668
 30
0.0
 11
391.5155555555555
 21
18.166666666666668
 31
0.0
  0
LINE
  5
20B
330
17
100
AcDbEntity
  8
CASEWORK-CABINETS
 62
7
100
AcDbLine
 10
387.9155555555555
 20
17.96666666666667
 30
0.0
 11
387.9155555555555
 21
18.366666666666667
 31
0.0
  0
LINE
  5
20C
330
17
100
AcDbEntity
  8
CASEWORK-CABINETS
 62
7
100
AcDbLine
 10
391.5155555555555
 20
17.96666666666667
 30
0.0
 11
391.5155555555555
 21
18.366666666666667
 31
0.0
  0
LINE
  5
20D
330
17
100
AcDbEntity
  8
CASEWORK-CABINETS
 62
7
100
AcDbLine
 10
387.9155555555555
 20
23.833333333333332
 30
0.0
 11
391.5155555555555
 21
23.833333333333332
 31
0.0
  0
LINE
  5
20E
330
17
100
AcDbEntity
  8
CASEWORK-CABINETS
 62
7
100
AcDbLine
 10
387.9155555555555
 20
23.633333333333333
 30
0.0
 11
387.9155555555555
 21
24.03333333333333
 31
0.0
  0
LINE
  5
20F
330
17
100
AcDbEntity
  8
CASEWORK-CABINETS
 62
7
100
AcDbLine
 10
391.5155555555555
 20
23.633333333333333
 30
0.0
 11
391.5155555555555
 21
24.03333333333333
 31
0.0
  0
LINE
  5
210
330
17
100
AcDbEntity
  8
CASEWORK-CABINETS
 62
7
100
AcDbLine
 10
387.9155555555555
 20
29.5
 30
0.0
 11
391.5155555555555
 21
29.5
 31
0.0
  0
LINE
  5
211
330
17
100
AcDbEntity
  8
CASEWORK-CABINETS
 62
7
100
AcDbLine
 10
387.9155555555555
 20
29.3
 30
0.0
 11
387.9155555555555
 21
29.7
 31
0.0
  0
LINE
  5
212
330
17
100
AcDbEntity
  8
CASEWORK-CABINETS
 62
7
100
AcDbLine
 10
391.5155555555555
 20
29.3
 30
0.0
 11
391.5155555555555
 21
29.7
 31
0.0
  0
LINE
  5
213
330
17
100
AcDbEntity
  8
CASEWORK-CABINETS
 62
7
100
AcDbLine
 10
387.9155555555555
 20
35.16666666666667
 30
0.0
 11
391.5155555555555
 21
35.16666666666667
 31
0.0
  0
LINE
  5
214
330
17
100
AcDbEntity
  8
CASEWORK-CABINETS
 62
7
100
AcDbLine
 10
387.9155555555555
 20
34.96666666666667
 30
0.0
 11
387.9155555555555
 21
35.366666666666674
 31
0.0
  0
LINE
  5
215
330
17
100
AcDbEntity
  8
CASEWORK-CABINETS
 62
7
100
AcDbLine
 10
391.5155555555555
 20
34.96666666666667
 30
0.0
 11
391.5155555555555
 21
35.366666666666674
 31
0.0
  0
LWPOLYLINE
  5
216
330
17
100
AcDbEntity
  8
CASEWORK-CABINETS
 62
7
100
AcDbPolyline
 90
5
 70
1
 10
395.7155555555555
 20
0.0
 10
407.7155555555555
 20
0.0
 10
407.7155555555555
 20
38.0
 10
395.7155555555555
 20
38.0
 10
395.7155555555555
 20
0.0
  0
LINE
  5
217
330
17
100
AcDbEntity
  8
CASEWORK-CABINETS
 62
7
100
AcDbLine
 10
395.7155555555555
 20
4.0
 30
0.0
 11
407.7155555555555
 21
4.0
 31
0.0
  0
LINE
  5
218
330
17
100
AcDbEntity
  8
CASEWORK-HIDDEN
 62
8
100
AcDbLine
 10
398.7155555555555
 20
0.0
 30
0.0
 11
398.7155555555555
 21
4.0
 31
0.0
  0
LINE
  5
219
330
17
100
AcDbEntity
  8
CASEWORK-HIDDEN
 62
8
100
AcDbLine
 10
404.7155555555555
 20
0.0
 30
0.0
 11
404.7155555555555
 21
4.0
 31
0.0
  0
LINE
  5
21A
330
17
100
AcDbEntity
  8
CASEWORK-HIDDEN
 62
8
100
AcDbLine
 10
398.7155555555555
 20
0.0
 30
0.0
 11
404.7155555555555
 21
0.0
 31
0.0
  0
LINE
  5
21B
330
17
100
AcDbEntity
  8
CASEWORK-CABINETS
 62
7
100
AcDbLine
 10
395.7155555555555
 20
6.428571428571429
 30
0.0
 11
407.7155555555555
 21
6.428571428571429
 31
0.0
  0
LINE
  5
21C
330
17
100
AcDbEntity
  8
CASEWORK-CABINETS
 62
7
100
AcDbLine
 10
395.7155555555555
 20
8.857142857142858
 30
0.0
 11
407.7155555555555
 21
8.857142857142858
 31
0.0
  0
LINE
  5
21D
330
17
100
AcDbEntity
  8
CASEWORK-CABINETS
 62
7
100
AcDbLine
 10
395.7155555555555
 20
11.285714285714285
 30
0.0
 11
407.7155555555555
 21
11.285714285714285
 31
0.0
  0
LINE
  5
21E
330
17
100
AcDbEntity
  8
CASEWORK-CABINETS
 62
7
100
AcDbLine
 10
395.7155555555555
 20
13.714285714285714
 30
0.0
 11
407.7155555555555
 21
13.714285714285714
 31
0.0
  0
LINE
  5
21F
330
17
100
AcDbEntity
  8
CASEWORK-CABINETS
 62
7
100
AcDbLine
 10
395.7155555555555
 20
16.142857142857142
 30
0.0
 11
407.7155555555555
 21
16.142857142857142
 31
0.0
  0
LINE
  5
220
330
17
100
AcDbEntity
  8
CASEWORK-CABINETS
 62
7
100
AcDbLine
 10
395.7155555555555
 20
18.57142857142857
 30
0.0
 11
407.7155555555555
 21
18.57142857142857
 31
0.0
  0
LINE
  5
221
330
17
100
AcDbEntity
  8
CASEWORK-CABINETS
 62
7
100
AcDbLine
 10
395.7155555555555
 20
21.0
 30
0.0
 11
407.7155555555555
 21
21.0
 31
0.0
  0
LINE
  5
222
330
17
100
AcDbEntity
  8
CASEWORK-CABINETS
 62
7
100
AcDbLine
 10
395.7155555555555
 20
23.428571428571427
 30
0.0
 11
407.7155555555555
 21
23.428571428571427
 31
0.0
  0
LINE
  5
223
330
17
100
AcDbEntity
  8
CASEWORK-CABINETS
 62
7
100
AcDbLine
 10
395.7155555555555
 20
25.857142857142854
 30
0.0
 11
407.7155555555555
 21
25.857142857142854
 31
0.0
  0
LINE
  5
224
330
17
100
AcDbEntity
  8
CASEWORK-CABINETS
 62
7
100
AcDbLine
 10
395.7155555555555
 20
28.285714285714285
 30
0.0
 11
407.7155555555555
 21
28.285714285714285
 31
0.0
  0
LINE
  5
225
330
17
100
AcDbEntity
  8
CASEWORK-CABINETS
 62
7
100
AcDbLine
 10
395.7155555555555
 20
30.71428571428571
 30
0.0
 11
407.7155555555555
 21
30.71428571428571
 31
0.0
  0
LINE
  5
226
330
17
100
AcDbEntity
  8
CASEWORK-CABINETS
 62
7
100
AcDbLine
 10
395.7155555555555
 20
33.14285714285714
 30
0.0
 11
407.7155555555555
 21
33.14285714285714
 31
0.0
  0
LINE
  5
227
330
17
100
AcDbEntity
  8
CASEWORK-CABINETS
 62
7
100
AcDbLine
 10
395.7155555555555
 20
35.57142857142857
 30
0.0
 11
407.7155555555555
 21
35.57142857142857
 31
0.0
  0
LINE
  5
228
330
17
100
AcDbEntity
  8
CASEWORK-CABINETS
 62
7
100
AcDbLine
 10
399.9155555555555
 20
5.214285714285714
 30
0.0
 11
403.5155555555555
 21
5.214285714285714
 31
0.0
  0
LINE
  5
229
330
17
100
AcDbEntity
  8
CASEWORK-CABINETS
 62
7
100
AcDbLine
 10
399.9155555555555
 20
5.014285714285714
 30
0.0
 11
399.9155555555555
 21
5.414285714285715
 31
0.0
  0
LINE
  5
22A
330
17
100
AcDbEntity
  8
CASEWORK-CABINETS
 62
7
100
AcDbLine
 10
403.5155555555555
 20
5.014285714285714
 30
0.0
 11
403.5155555555555
 21
5.414285714285715
 31
0.0
  0
LINE
  5
22B
330
17
100
AcDbEntity
  8
CASEWORK-CABINETS
 62
7
100
AcDbLine
 10
399.9155555555555
 20
7.642857142857143
 30
0.0
 11
403.5155555555555
 21
7.642857142857143
 31
0.0
  0
LINE
  5
22C
330
17
100
AcDbEntity
  8
CASEWORK-CABINETS
 62
7
100
AcDbLine
 10
399.9155555555555
 20
7.442857142857143
 30
0.0
 11
399.9155555555555
 21
7.842857142857143
 31
0.0
  0
LINE
  5
22D
330
17
100
AcDbEntity
  8
CASEWORK-CABINETS
 62
7
100
AcDbLine
 10
403.5155555555555
 20
7.442857142857143
 30
0.0
 11
403.5155555555555
 21
7.842857142857143
 31
0.0
  0
LINE
  5
22E
330
17
100
AcDbEntity
  8
CASEWORK-CABINETS
 62
7
100
AcDbLine
 10
399.9155555555555
 20
10.071428571428571
 30
0.0
 11
403.5155555555555
 21
10.071428571428571
 31
0.0
  0
LINE
  5
22F
330
17
100
AcDbEntity
  8
CASEWORK-CABINETS
 62
7
100
AcDbLine
 10
399.9155555555555
 20
9.871428571428572
 30
0.0
 11
399.9155555555555
 21
10.27142857142857
 31
0.0
  0
LINE
  5
230
330
17
100
AcDbEntity
  8
CASEWORK-CABINETS
 62
7
100
AcDbLine
 10
403.5155555555555
 20
9.871428571428572
 30
0.0
 11
403.5155555555555
 21
10.27142857142857
 31
0.0
  0
LINE
  5
231
330
17
100
AcDbEntity
  8
CASEWORK-CABINETS
 62
7
100
AcDbLine
 10
399.9155555555555
 20
12.499999999999998
 30
0.0
 11
403.5155555555555
 21
12.499999999999998
 31
0.0
  0
LINE
  5
232
330
17
100
AcDbEntity
  8
CASEWORK-CABINETS
 62
7
100
AcDbLine
 10
399.9155555555555
 20
12.299999999999999
 30
0.0
 11
399.9155555555555
 21
12.699999999999998
 31
0.0
  0
LINE
  5
233
330
17
100
AcDbEntity
  8
CASEWORK-CABINETS
 62
7
100
AcDbLine
 10
403.5155555555555
 20
12.299999999999999
 30
0.0
 11
403.5155555555555
 21
12.699999999999998
 31
0.0
  0
LINE
  5
234
330
17
100
AcDbEntity
  8
CASEWORK-CABINETS
 62
7
100
AcDbLine
 10
399.9155555555555
 20
14.928571428571427
 30
0.0
 11
403.5155555555555
 21
14.928571428571427
 31
0.0
  0
LINE
  5
235
330
17
100
AcDbEntity
  8
CASEWORK-CABINETS
 62
7
100
AcDbLine
 10
399.9155555555555
 20
14.728571428571428
 30
0.0
 11
399.9155555555555
 21
15.128571428571426
 31
0.0
  0
LINE
  5
236
330
17
100
AcDbEntity
  8
CASEWORK-CABINETS
 62
7
100
AcDbLine
 10
403.5155555555555
 20
14.728571428571428
 30
0.0
 11
403.5155555555555
 21
15.128571428571426
 31
0.0
  0
LINE
  5
237
330
17
100
AcDbEntity
  8
CASEWORK-CABINETS
 62
7
100
AcDbLine
 10
399.9155555555555
 20
17.357142857142858
 30
0.0
 11
403.5155555555555
 21
17.357142857142858
 31
0.0
  0
LINE
  5
238
330
17
100
AcDbEntity
  8
CASEWORK-CABINETS
 62
7
100
AcDbLine
 10
399.9155555555555
 20
17.15714285714286
 30
0.0
 11
399.9155555555555
 21
17.557142857142857
 31
0.0
  0
LINE
  5
239
330
17
100
AcDbEntity
  8
CASEWORK-CABINETS
 62
7
100
AcDbLine
 10
403.5155555555555
 20
17.15714285714286
 30
0.0
 11
403.5155555555555
 21
17.557142857142857
 31
0.0
  0
LINE
  5
23A
330
17
100
AcDbEntity
  8
CASEWORK-CABINETS
 62
7
100
AcDbLine
 10
399.9155555555555
 20
19.785714285714285
 30
0.0
 11
403.5155555555555
 21
19.785714285714285
 31
0.0
  0
LINE
  5
23B
330
17
100
AcDbEntity
  8
CASEWORK-CABINETS
 62
7
100
AcDbLine
 10
399.9155555555555
 20
19.585714285714285
 30
0.0
 11
399.9155555555555
 21
19.985714285714284
 31
0.0
  0
LINE
  5
23C
330
17
100
AcDbEntity
  8
CASEWORK-CABINETS
 62
7
100
AcDbLine
 10
403.5155555555555
 20
19.585714285714285
 30
0.0
 11
403.5155555555555
 21
19.985714285714284
 31
0.0
  0
LINE
  5
23D
330
17
100
AcDbEntity
  8
CASEWORK-CABINETS
 62
7
100
AcDbLine
 10
399.9155555555555
 20
22.214285714285715
 30
0.0
 11
403.5155555555555
 21
22.214285714285715
 31
0.0
  0
LINE
  5
23E
330
17
100
AcDbEntity
  8
CASEWORK-CABINETS
 62
7
100
AcDbLine
 10
399.9155555555555
 20
22.014285714285716
 30
0.0
 11
399.9155555555555
 21
22.414285714285715
 31
0.0
  0
LINE
  5
23F
330
17
100
AcDbEntity
  8
CASEWORK-CABINETS
 62
7
100
AcDbLine
 10
403.5155555555555
 20
22.014285714285716
 30
0.0
 11
403.5155555555555
 21
22.414285714285715
 31
0.0
  0
LINE
  5
240
330
17
100
AcDbEntity
  8
CASEWORK-CABINETS
 62
7
100
AcDbLine
 10
399.9155555555555
 20
24.642857142857142
 30
0.0
 11
403.5155555555555
 21
24.642857142857142
 31
0.0
  0
LINE
  5
241
330
17
100
AcDbEntity
  8
CASEWORK-CABINETS
 62
7
100
AcDbLine
 10
399.9155555555555
 20
24.442857142857143
 30
0.0
 11
399.9155555555555
 21
24.84285714285714
 31
0.0
  0
LINE
  5
242
330
17
100
AcDbEntity
  8
CASEWORK-CABINETS
 62
7
100
AcDbLine
 10
403.5155555555555
 20
24.442857142857143
 30
0.0
 11
403.5155555555555
 21
24.84285714285714
 31
0.0
  0
LINE
  5
243
330
17
100
AcDbEntity
  8
CASEWORK-CABINETS
 62
7
100
AcDbLine
 10
399.9155555555555
 20
27.07142857142857
 30
0.0
 11
403.5155555555555
 21
27.07142857142857
 31
0.0
  0
LINE
  5
244
330
17
100
AcDbEntity
  8
CASEWORK-CABINETS
 62
7
100
AcDbLine
 10
399.9155555555555
 20
26.87142857142857
 30
0.0
 11
399.9155555555555
 21
27.27142857142857
 31
0.0
  0
LINE
  5
245
330
17
100
AcDbEntity
  8
CASEWORK-CABINETS
 62
7
100
AcDbLine
 10
403.5155555555555
 20
26.87142857142857
 30
0.0
 11
403.5155555555555
 21
27.27142857142857
 31
0.0
  0
LINE
  5
246
330
17
100
AcDbEntity
  8
CASEWORK-CABINETS
 62
7
100
AcDbLine
 10
399.9155555555555
 20
29.5
 30
0.0
 11
403.5155555555555
 21
29.5
 31
0.0
  0
LINE
  5
247
330
17
100
AcDbEntity
  8
CASEWORK-CABINETS
 62
7
100
AcDbLine
 10
399.9155555555555
 20
29.3
 30
0.0
 11
399.9155555555555
 21
29.7
 31
0.0
  0
LINE
  5
248
330
17
100
AcDbEntity
  8
CASEWORK-CABINETS
 62
7
100
AcDbLine
 10
403.5155555555555
 20
29.3
 30
0.0
 11
403.5155555555555
 21
29.7
 31
0.0
  0
LINE
  5
249
330
17
100
AcDbEntity
  8
CASEWORK-CABINETS
 62
7
100
AcDbLine
 10
399.9155555555555
 20
31.928571428571427
 30
0.0
 11
403.5155555555555
 21
31.928571428571427
 31
0.0
  0
LINE
  5
24A
330
17
100
AcDbEntity
  8
CASEWORK-CABINETS
 62
7
100
AcDbLine
 10
399.9155555555555
 20
31.728571428571428
 30
0.0
 11
399.9155555555555
 21
32.128571428571426
 31
0.0
  0
LINE
  5
24B
330
17
100
AcDbEntity
  8
CASEWORK-CABINETS
 62
7
100
AcDbLine
 10
403.5155555555555
 20
31.728571428571428
 30
0.0
 11
403.5155555555555
 21
32.128571428571426
 31
0.0
  0
LINE
  5
24C
330
17
100
AcDbEntity
  8
CASEWORK-CABINETS
 62
7
100
AcDbLine
 10
399.9155555555555
 20
34.357142857142854
 30
0.0
 11
403.5155555555555
 21
34.357142857142854
 31
0.0
  0
LINE
  5
24D
330
17
100
AcDbEntity
  8
CASEWORK-CABINETS
 62
7
100
AcDbLine
 10
399.9155555555555
 20
34.15714285714285
 30
0.0
 11
399.9155555555555
 21
34.55714285714286
 31
0.0
  0
LINE
  5
24E
330
17
100
AcDbEntity
  8
CASEWORK-CABINETS
 62
7
100
AcDbLine
 10
403.5155555555555
 20
34.15714285714285
 30
0.0
 11
403.5155555555555
 21
34.55714285714286
 31
0.0
  0
LINE
  5
24F
330
17
100
AcDbEntity
  8
CASEWORK-CABINETS
 62
7
100
AcDbLine
 10
399.9155555555555
 20
36.785714285714285
 30
0.0
 11
403.5155555555555
 21
36.785714285714285
 31
0.0
  0
LINE
  5
250
330
17
100
AcDbEntity
  8
CASEWORK-CABINETS
 62
7
100
AcDbLine
 10
399.9155555555555
 20
36.58571428571428
 30
0.0
 11
399.9155555555555
 21
36.98571428571429
 31
0.0
  0
LINE
  5
251
330
17
100
AcDbEntity
  8
CASEWORK-CABINETS
 62
7
100
AcDbLine
 10
403.5155555555555
 20
36.58571428571428
 30
0.0
 11
403.5155555555555
 21
36.98571428571429
 31
0.0
  0
LWPOLYLINE
  5
252
330
17
100
AcDbEntity
  8
CASEWORK-CABINETS
 62
7
100
AcDbPolyline
 90
5
 70
1
 10
407.7155555555555
 20
0.0
 10
413.7155555555555
 20
0.0
 10
413.7155555555555
 20
38.0
 10
407.7155555555555
 20
38.0
 10
407.7155555555555
 20
0.0
  0
LINE
  5
253
330
17
100
AcDbEntity
  8
CASEWORK-CABINETS
 62
7
100
AcDbLine
 10
407.7155555555555
 20
4.0
 30
0.0
 11
413.7155555555555
 21
4.0
 31
0.0
  0
LINE
  5
254
330
17
100
AcDbEntity
  8
CASEWORK-HIDDEN
 62
8
100
AcDbLine
 10
410.7155555555555
 20
0.0
 30
0.0
 11
410.7155555555555
 21
4.0
 31
0.0
  0
LINE
  5
255
330
17
100
AcDbEntity
  8
CASEWORK-HIDDEN
 62
8
100
AcDbLine
 10
410.7155555555555
 20
0.0
 30
0.0
 11
410.7155555555555
 21
4.0
 31
0.0
  0
LINE
  5
256
330
17
100
AcDbEntity
  8
CASEWORK-HIDDEN
 62
8
100
AcDbLine
 10
410.7155555555555
 20
0.0
 30
0.0
 11
410.7155555555555
 21
0.0
 31
0.0
  0
LINE
  5
257
330
17
100
AcDbEntity
  8
CASEWORK-CABINETS
 62
7
100
AcDbLine
 10
407.7155555555555
 20
8.25
 30
0.0
 11
413.7155555555555
 21
8.25
 31
0.0
  0
LINE
  5
258
330
17
100
AcDbEntity
  8
CASEWORK-CABINETS
 62
7
100
AcDbLine
 10
407.7155555555555
 20
12.5
 30
0.0
 11
413.7155555555555
 21
12.5
 31
0.0
  0
LINE
  5
259
330
17
100
AcDbEntity
  8
CASEWORK-CABINETS
 62
7
100
AcDbLine
 10
407.7155555555555
 20
16.75
 30
0.0
 11
413.7155555555555
 21
16.75
 31
0.0
  0
LINE
  5
25A
330
17
100
AcDbEntity
  8
CASEWORK-CABINETS
 62
7
100
AcDbLine
 10
407.7155555555555
 20
21.0
 30
0.0
 11
413.7155555555555
 21
21.0
 31
0.0
  0
LINE
  5
25B
330
17
100
AcDbEntity
  8
CASEWORK-CABINETS
 62
7
100
AcDbLine
 10
407.7155555555555
 20
25.25
 30
0.0
 11
413.7155555555555
 21
25.25
 31
0.0
  0
LINE
  5
25C
330
17
100
AcDbEntity
  8
CASEWORK-CABINETS
 62
7
100
AcDbLine
 10
407.7155555555555
 20
29.5
 30
0.0
 11
413.7155555555555
 21
29.5
 31
0.0
  0
LINE
  5
25D
330
17
100
AcDbEntity
  8
CASEWORK-CABINETS
 62
7
100
AcDbLine
 10
407.7155555555555
 20
33.75
 30
0.0
 11
413.7155555555555
 21
33.75
 31
0.0
  0
LINE
  5
25E
330
17
100
AcDbEntity
  8
CASEWORK-CABINETS
 62
7
100
AcDbLine
 10
409.81555555555553
 20
6.125
 30
0.0
 11
411.6155555555555
 21
6.125
 31
0.0
  0
LINE
  5
25F
330
17
100
AcDbEntity
  8
CASEWORK-CABINETS
 62
7
100
AcDbLine
 10
409.81555555555553
 20
5.925
 30
0.0
 11
409.81555555555553
 21
6.325
 31
0.0
  0
LINE
  5
260
330
17
100
AcDbEntity
  8
CASEWORK-CABINETS
 62
7
100
AcDbLine
 10
411.6155555555555
 20
5.925
 30
0.0
 11
411.6155555555555
 21
6.325
 31
0.0
  0
LINE
  5
261
330
17
100
AcDbEntity
  8
CASEWORK-CABINETS
 62
7
100
AcDbLine
 10
409.81555555555553
 20
10.375
 30
0.0
 11
411.6155555555555
 21
10.375
 31
0.0
  0
LINE
  5
262
330
17
100
AcDbEntity
  8
CASEWORK-CABINETS
 62
7
100
AcDbLine
 10
409.81555555555553
 20
10.175
 30
0.0
 11
409.81555555555553
 21
10.575
 31
0.0
  0
LINE
  5
263
330
17
100
AcDbEntity
  8
CASEWORK-CABINETS
 62
7
100
AcDbLine
 10
411.6155555555555
 20
10.175
 30
0.0
 11
411.6155555555555
 21
10.575
 31
0.0
  0
LINE
  5
264
330
17
100
AcDbEntity
  8
CASEWORK-CABINETS
 62
7
100
AcDbLine
 10
409.81555555555553
 20
14.625
 30
0.0
 11
411.6155555555555
 21
14.625
 31
0.0
  0
LINE
  5
265
330
17
100
AcDbEntity
  8
CASEWORK-CABINETS
 62
7
100
AcDbLine
 10
409.81555555555553
 20
14.425
 30
0.0
 11
409.81555555555553
 21
14.825
 31
0.0
  0
LINE
  5
266
330
17
100
AcDbEntity
  8
CASEWORK-CABINETS
 62
7
100
AcDbLine
 10
411.6155555555555
 20
14.425
 30
0.0
 11
411.6155555555555
 21
14.825
 31
0.0
  0
LINE
  5
267
330
17
100
AcDbEntity
  8
CASEWORK-CABINETS
 62
7
100
AcDbLine
 10
409.81555555555553
 20
18.875
 30
0.0
 11
411.6155555555555
 21
18.875
 31
0.0
  0
LINE
  5
268
330
17
100
AcDbEntity
  8
CASEWORK-CABINETS
 62
7
100
AcDbLine
 10
409.81555555555553
 20
18.675
 30
0.0
 11
409.81555555555553
 21
19.075
 31
0.0
  0
LINE
  5
269
330
17
100
AcDbEntity
  8
CASEWORK-CABINETS
 62
7
100
AcDbLine
 10
411.6155555555555
 20
18.675
 30
0.0
 11
411.6155555555555
 21
19.075
 31
0.0
  0
LINE
  5
26A
330
17
100
AcDbEntity
  8
CASEWORK-CABINETS
 62
7
100
AcDbLine
 10
409.81555555555553
 20
23.125
 30
0.0
 11
411.6155555555555
 21
23.125
 31
0.0
  0
LINE
  5
26B
330
17
100
AcDbEntity
  8
CASEWORK-CABINETS
 62
7
100
AcDbLine
 10
409.81555555555553
 20
22.925
 30
0.0
 11
409.81555555555553
 21
23.325
 31
0.0
  0
LINE
  5
26C
330
17
100
AcDbEntity
  8
CASEWORK-CABINETS
 62
7
100
AcDbLine
 10
411.6155555555555
 20
22.925
 30
0.0
 11
411.6155555555555
 21
23.325
 31
0.0
  0
LINE
  5
26D
330
17
100
AcDbEntity
  8
CASEWORK-CABINETS
 62
7
100
AcDbLine
 10
409.81555555555553
 20
27.375
 30
0.0
 11
411.6155555555555
 21
27.375
 31
0.0
  0
LINE
  5
26E
330
17
100
AcDbEntity
  8
CASEWORK-CABINETS
 62
7
100
AcDbLine
 10
409.81555555555553
 20
27.175
 30
0.0
 11
409.81555555555553
 21
27.575
 31
0.0
  0
LINE
  5
26F
330
17
100
AcDbEntity
  8
CASEWORK-CABINETS
 62
7
100
AcDbLine
 10
411.6155555555555
 20
27.175
 30
0.0
 11
411.6155555555555
 21
27.575
 31
0.0
  0
LINE
  5
270
330
17
100
AcDbEntity
  8
CASEWORK-CABINETS
 62
7
100
AcDbLine
 10
409.81555555555553
 20
31.625
 30
0.0
 11
411.6155555555555
 21
31.625
 31
0.0
  0
LINE
  5
271
330
17
100
AcDbEntity
  8
CASEWORK-CABINETS
 62
7
100
AcDbLine
 10
409.81555555555553
 20
31.425
 30
0.0
 11
409.81555555555553
 21
31.825
 31
0.0
  0
LINE
  5
272
330
17
100
AcDbEntity
  8
CASEWORK-CABINETS
 62
7
100
AcDbLine
 10
411.6155555555555
 20
31.425
 30
0.0
 11
411.6155555555555
 21
31.825
 31
0.0
  0
LINE
  5
273
330
17
100
AcDbEntity
  8
CASEWORK-CABINETS
 62
7
100
AcDbLine
 10
409.81555555555553
 20
35.875
 30
0.0
 11
411.6155555555555
 21
35.875
 31
0.0
  0
LINE
  5
274
330
17
100
AcDbEntity
  8
CASEWORK-CABINETS
 62
7
100
AcDbLine
 10
409.81555555555553
 20
35.675
 30
0.0
 11
409.81555555555553
 21
36.075
 31
0.0
  0
LINE
  5
275
330
17
100
AcDbEntity
  8
CASEWORK-CABINETS
 62
7
100
AcDbLine
 10
411.6155555555555
 20
35.675
 30
0.0
 11
411.6155555555555
 21
36.075
 31
0.0
  0
LWPOLYLINE
  5
276
330
17
100
AcDbEntity
  8
CASEWORK-CABINETS
 62
7
100
AcDbPolyline
 90
5
 70
1
 10
413.7155555555555
 20
0.0
 10
425.7155555555555
 20
0.0
 10
425.7155555555555
 20
38.0
 10
413.7155555555555
 20
38.0
 10
413.7155555555555
 20
0.0
  0
LINE
  5
277
330
17
100
AcDbEntity
  8
CASEWORK-CABINETS
 62
7
100
AcDbLine
 10
413.7155555555555
 20
4.0
 30
0.0
 11
425.7155555555555
 21
4.0
 31
0.0
  0
LINE
  5
278
330
17
100
AcDbEntity
  8
CASEWORK-HIDDEN
 62
8
100
AcDbLine
 10
416.7155555555555
 20
0.0
 30
0.0
 11
416.7155555555555
 21
4.0
 31
0.0
  0
LINE
  5
279
330
17
100
AcDbEntity
  8
CASEWORK-HIDDEN
 62
8
100
AcDbLine
 10
422.7155555555555
 20
0.0
 30
0.0
 11
422.7155555555555
 21
4.0
 31
0.0
  0
LINE
  5
27A
330
17
100
AcDbEntity
  8
CASEWORK-HIDDEN
 62
8
100
AcDbLine
 10
416.7155555555555
 20
0.0
 30
0.0
 11
422.7155555555555
 21
0.0
 31
0.0
  0
LINE
  5
27B
330
17
100
AcDbEntity
  8
CASEWORK-CABINETS
 62
7
100
AcDbLine
 10
413.7155555555555
 20
9.666666666666668
 30
0.0
 11
425.7155555555555
 21
9.666666666666668
 31
0.0
  0
LINE
  5
27C
330
17
100
AcDbEntity
  8
CASEWORK-CABINETS
 62
7
100
AcDbLine
 10
413.7155555555555
 20
15.333333333333334
 30
0.0
 11
425.7155555555555
 21
15.333333333333334
 31
0.0
  0
LINE
  5
27D
330
17
100
AcDbEntity
  8
CASEWORK-CABINETS
 62
7
100
AcDbLine
 10
413.7155555555555
 20
21.0
 30
0.0
 11
425.7155555555555
 21
21.0
 31
0.0
  0
LINE
  5
27E
330
17
100
AcDbEntity
  8
CASEWORK-CABINETS
 62
7
100
AcDbLine
 10
413.7155555555555
 20
26.666666666666668
 30
0.0
 11
425.7155555555555
 21
26.666666666666668
 31
0.0
  0
LINE
  5
27F
330
17
100
AcDbEntity
  8
CASEWORK-CABINETS
 62
7
100
AcDbLine
 10
413.7155555555555
 20
32.333333333333336
 30
0.0
 11
425.7155555555555
 21
32.333333333333336
 31
0.0
  0
LINE
  5
280
330
17
100
AcDbEntity
  8
CASEWORK-CABINETS
 62
7
100
AcDbLine
 10
417.9155555555555
 20
6.833333333333334
 30
0.0
 11
421.5155555555555
 21
6.833333333333334
 31
0.0
  0
LINE
  5
281
330
17
100
AcDbEntity
  8
CASEWORK-CABINETS
 62
7
100
AcDbLine
 10
417.9155555555555
 20
6.633333333333334
 30
0.0
 11
417.9155555555555
 21
7.033333333333334
 31
0.0
  0
LINE
  5
282
330
17
100
AcDbEntity
  8
CASEWORK-CABINETS
 62
7
100
AcDbLine
 10
421.5155555555555
 20
6.633333333333334
 30
0.0
 11
421.5155555555555
 21
7.033333333333334
 31
0.0
  0
LINE
  5
283
330
17
100
AcDbEntity
  8
CASEWORK-CABINETS
 62
7
100
AcDbLine
 10
417.9155555555555
 20
12.500000000000002
 30
0.0
 11
421.5155555555555
 21
12.500000000000002
 31
0.0
  0
LINE
  5
284
330
17
100
AcDbEntity
  8
CASEWORK-CABINETS
 62
7
100
AcDbLine
 10
417.9155555555555
 20
12.300000000000002
 30
0.0
 11
417.9155555555555
 21
12.700000000000001
 31
0.0
  0
LINE
  5
285
330
17
100
AcDbEntity
  8
CASEWORK-CABINETS
 62
7
100
AcDbLine
 10
421.5155555555555
 20
12.300000000000002
 30
0.0
 11
421.5155555555555
 21
12.700000000000001
 31
0.0
  0
LINE
  5
286
330
17
100
AcDbEntity
  8
CASEWORK-CABINETS
 62
7
100
AcDbLine
 10
417.9155555555555
 20
18.166666666666668
 30
0.0
 11
421.5155555555555
 21
18.166666666666668
 31
0.0
  0
LINE
  5
287
330
17
100
AcDbEntity
  8
CASEWORK-CABINETS
 62
7
100
AcDbLine
 10
417.9155555555555
 20
17.96666666666667
 30
0.0
 11
417.9155555555555
 21
18.366666666666667
 31
0.0
  0
LINE
  5
288
330
17
100
AcDbEntity
  8
CASEWORK-CABINETS
 62
7
100
AcDbLine
 10
421.5155555555555
 20
17.96666666666667
 30
0.0
 11
421.5155555555555
 21
18.366666666666667
 31
0.0
  0
LINE
  5
289
330
17
100
AcDbEntity
  8
CASEWORK-CABINETS
 62
7
100
AcDbLine
 10
417.9155555555555
 20
23.833333333333332
 30
0.0
 11
421.5155555555555
 21
23.833333333333332
 31
0.0
  0
LINE
  5
28A
330
17
100
AcDbEntity
  8
CASEWORK-CABINETS
 62
7
100
AcDbLine
 10
417.9155555555555
 20
23.633333333333333
 30
0.0
 11
417.9155555555555
 21
24.03333333333333
 31
0.0
  0
LINE
  5
28B
330
17
100
AcDbEntity
  8
CASEWORK-CABINETS
 62
7
100
AcDbLine
 10
421.5155555555555
 20
23.633333333333333
 30
0.0
 11
421.5155555555555
 21
24.03333333333333
 31
0.0
  0
LINE
  5
28C
330
17
100
AcDbEntity
  8
CASEWORK-CABINETS
 62
7
100
AcDbLine
 10
417.9155555555555
 20
29.5
 30
0.0
 11
421.5155555555555
 21
29.5
 31
0.0
  0
LINE
  5
28D
330
17
100
AcDbEntity
  8
CASEWORK-CABINETS
 62
7
100
AcDbLine
 10
417.9155555555555
 20
29.3
 30
0.0
 11
417.9155555555555
 21
29.7
 31
0.0
  0
LINE
  5
28E
330
17
100
AcDbEntity
  8
CASEWORK-CABINETS
 62
7
100
AcDbLine
 10
421.5155555555555
 20
29.3
 30
0.0
 11
421.5155555555555
 21
29.7
 31
0.0
  0
LINE
  5
28F
330
17
100
AcDbEntity
  8
CASEWORK-CABINETS
 62
7
100
AcDbLine
 10
417.9155555555555
 20
35.16666666666667
 30
0.0
 11
421.5155555555555
 21
35.16666666666667
 31
0.0
  0
LINE
  5
290
330
17
100
AcDbEntity
  8
CASEWORK-CABINETS
 62
7
100
AcDbLine
 10
417.9155555555555
 20
34.96666666666667
 30
0.0
 11
417.9155555555555
 21
35.366666666666674
 31
0.0
  0
LINE
  5
291
330
17
100
AcDbEntity
  8
CASEWORK-CABINETS
 62
7
100
AcDbLine
 10
421.5155555555555
 20
34.96666666666667
 30
0.0
 11
421.5155555555555
 21
35.366666666666674
 31
0.0
  0
LWPOLYLINE
  5
292
330
17
100
AcDbEntity
  8
CASEWORK-CABINETS
 62
7
100
AcDbPolyline
 90
5
 70
1
 10
425.7155555555555
 20
0.0
 10
432.7155555555555
 20
0.0
 10
432.7155555555555
 20
38.0
 10
425.7155555555555
 20
38.0
 10
425.7155555555555
 20
0.0
  0
LINE
  5
293
330
17
100
AcDbEntity
  8
CASEWORK-CABINETS
 62
7
100
AcDbLine
 10
425.7155555555555
 20
4.0
 30
0.0
 11
432.7155555555555
 21
4.0
 31
0.0
  0
LINE
  5
294
330
17
100
AcDbEntity
  8
CASEWORK-HIDDEN
 62
8
100
AcDbLine
 10
428.7155555555555
 20
0.0
 30
0.0
 11
428.7155555555555
 21
4.0
 31
0.0
  0
LINE
  5
295
330
17
100
AcDbEntity
  8
CASEWORK-HIDDEN
 62
8
100
AcDbLine
 10
429.7155555555555
 20
0.0
 30
0.0
 11
429.7155555555555
 21
4.0
 31
0.0
  0
LINE
  5
296
330
17
100
AcDbEntity
  8
CASEWORK-HIDDEN
 62
8
100
AcDbLine
 10
428.7155555555555
 20
0.0
 30
0.0
 11
429.7155555555555
 21
0.0
 31
0.0
  0
LINE
  5
297
330
17
100
AcDbEntity
  8
CASEWORK-CABINETS
 62
7
100
AcDbLine
 10
425.7155555555555
 20
7.777777777777778
 30
0.0
 11
432.7155555555555
 21
7.777777777777778
 31
0.0
  0
LINE
  5
298
330
17
100
AcDbEntity
  8
CASEWORK-CABINETS
 62
7
100
AcDbLine
 10
425.7155555555555
 20
11.555555555555555
 30
0.0
 11
432.7155555555555
 21
11.555555555555555
 31
0.0
  0
LINE
  5
299
330
17
100
AcDbEntity
  8
CASEWORK-CABINETS
 62
7
100
AcDbLine
 10
425.7155555555555
 20
15.333333333333332
 30
0.0
 11
432.7155555555555
 21
15.333333333333332
 31
0.0
  0
LINE
  5
29A
330
17
100
AcDbEntity
  8
CASEWORK-CABINETS
 62
7
100
AcDbLine
 10
425.7155555555555
 20
19.11111111111111
 30
0.0
 11
432.7155555555555
 21
19.11111111111111
 31
0.0
  0
LINE
  5
29B
330
17
100
AcDbEntity
  8
CASEWORK-CABINETS
 62
7
100
AcDbLine
 10
425.7155555555555
 20
22.88888888888889
 30
0.0
 11
432.7155555555555
 21
22.88888888888889
 31
0.0
  0
LINE
  5
29C
330
17
100
AcDbEntity
  8
CASEWORK-CABINETS
 62
7
100
AcDbLine
 10
425.7155555555555
 20
26.666666666666664
 30
0.0
 11
432.7155555555555
 21
26.666666666666664
 31
0.0
  0
LINE
  5
29D
330
17
100
AcDbEntity
  8
CASEWORK-CABINETS
 62
7
100
AcDbLine
 10
425.7155555555555
 20
30.444444444444443
 30
0.0
 11
432.7155555555555
 21
30.444444444444443
 31
0.0
  0
LINE
  5
29E
330
17
100
AcDbEntity
  8
CASEWORK-CABINETS
 62
7
100
AcDbLine
 10
425.7155555555555
 20
34.22222222222222
 30
0.0
 11
432.7155555555555
 21
34.22222222222222
 31
0.0
  0
LINE
  5
29F
330
17
100
AcDbEntity
  8
CASEWORK-CABINETS
 62
7
100
AcDbLine
 10
428.1655555555555
 20
5.888888888888889
 30
0.0
 11
430.2655555555555
 21
5.888888888888889
 31
0.0
  0
LINE
  5
2A0
330
17
100
AcDbEntity
  8
CASEWORK-CABINETS
 62
7
100
AcDbLine
 10
428.1655555555555
 20
5.688888888888889
 30
0.0
 11
428.1655555555555
 21
6.0888888888888895
 31
0.0
  0
LINE
  5
2A1
330
17
100
AcDbEntity
  8
CASEWORK-CABINETS
 62
7
100
AcDbLine
 10
430.2655555555555
 20
5.688888888888889
 30
0.0
 11
430.2655555555555
 21
6.0888888888888895
 31
0.0
  0
LINE
  5
2A2
330
17
100
AcDbEntity
  8
CASEWORK-CABINETS
 62
7
100
AcDbLine
 10
428.1655555555555
 20
9.666666666666666
 30
0.0
 11
430.2655555555555
 21
9.666666666666666
 31
0.0
  0
LINE
  5
2A3
330
17
100
AcDbEntity
  8
CASEWORK-CABINETS
 62
7
100
AcDbLine
 10
428.1655555555555
 20
9.466666666666667
 30
0.0
 11
428.1655555555555
 21
9.866666666666665
 31
0.0
  0
LINE
  5
2A4
330
17
100
AcDbEntity
  8
CASEWORK-CABINETS
 62
7
100
AcDbLine
 10
430.2655555555555
 20
9.466666666666667
 30
0.0
 11
430.2655555555555
 21
9.866666666666665
 31
0.0
  0
LINE
  5
2A5
330
17
100
AcDbEntity
  8
CASEWORK-CABINETS
 62
7
100
AcDbLine
 10
428.1655555555555
 20
13.444444444444445
 30
0.0
 11
430.2655555555555
 21
13.444444444444445
 31
0.0
  0
LINE
  5
2A6
330
17
100
AcDbEntity
  8
CASEWORK-CABINETS
 62
7
100
AcDbLine
 10
428.1655555555555
 20
13.244444444444445
 30
0.0
 11
428.1655555555555
 21
13.644444444444444
 31
0.0
  0
LINE
  5
2A7
330
17
100
AcDbEntity
  8
CASEWORK-CABINETS
 62
7
100
AcDbLine
 10
430.2655555555555
 20
13.244444444444445
 30
0.0
 11
430.2655555555555
 21
13.644444444444444
 31
0.0
  0
LINE
  5
2A8
330
17
100
AcDbEntity
  8
CASEWORK-CABINETS
 62
7
100
AcDbLine
 10
428.1655555555555
 20
17.22222222222222
 30
0.0
 11
430.2655555555555
 21
17.22222222222222
 31
0.0
  0
LINE
  5
2A9
330
17
100
AcDbEntity
  8
CASEWORK-CABINETS
 62
7
100
AcDbLine
 10
428.1655555555555
 20
17.022222222222222
 30
0.0
 11
428.1655555555555
 21
17.42222222222222
 31
0.0
  0
LINE
  5
2AA
330
17
100
AcDbEntity
  8
CASEWORK-CABINETS
 62
7
100
AcDbLine
 10
430.2655555555555
 20
17.022222222222222
 30
0.0
 11
430.2655555555555
 21
17.42222222222222
 31
0.0
  0
LINE
  5
2AB
330
17
100
AcDbEntity
  8
CASEWORK-CABINETS
 62
7
100
AcDbLine
 10
428.1655555555555
 20
21.0
 30
0.0
 11
430.2655555555555
 21
21.0
 31
0.0
  0
LINE
  5
2AC
330
17
100
AcDbEntity
  8
CASEWORK-CABINETS
 62
7
100
AcDbLine
 10
428.1655555555555
 20
20.8
 30
0.0
 11
428.1655555555555
 21
21.2
 31
0.0
  0
LINE
  5
2AD
330
17
100
AcDbEntity
  8
CASEWORK-CABINETS
 62
7
100
AcDbLine
 10
430.2655555555555
 20
20.8
 30
0.0
 11
430.2655555555555
 21
21.2
 31
0.0
  0
LINE
  5
2AE
330
17
100
AcDbEntity
  8
CASEWORK-CABINETS
 62
7
100
AcDbLine
 10
428.1655555555555
 20
24.77777777777778
 30
0.0
 11
430.2655555555555
 21
24.77777777777778
 31
0.0
  0
LINE
  5
2AF
330
17
100
AcDbEntity
  8
CASEWORK-CABINETS
 62
7
100
AcDbLine
 10
428.1655555555555
 20
24.57777777777778
 30
0.0
 11
428.1655555555555
 21
24.977777777777778
 31
0.0
  0
LINE
  5
2B0
330
17
100
AcDbEntity
  8
CASEWORK-CABINETS
 62
7
100
AcDbLine
 10
430.2655555555555
 20
24.57777777777778
 30
0.0
 11
430.2655555555555
 21
24.977777777777778
 31
0.0
  0
LINE
  5
2B1
330
17
100
AcDbEntity
  8
CASEWORK-CABINETS
 62
7
100
AcDbLine
 10
428.1655555555555
 20
28.555555555555554
 30
0.0
 11
430.2655555555555
 21
28.555555555555554
 31
0.0
  0
LINE
  5
2B2
330
17
100
AcDbEntity
  8
CASEWORK-CABINETS
 62
7
100
AcDbLine
 10
428.1655555555555
 20
28.355555555555554
 30
0.0
 11
428.1655555555555
 21
28.755555555555553
 31
0.0
  0
LINE
  5
2B3
330
17
100
AcDbEntity
  8
CASEWORK-CABINETS
 62
7
100
AcDbLine
 10
430.2655555555555
 20
28.355555555555554
 30
0.0
 11
430.2655555555555
 21
28.755555555555553
 31
0.0
  0
LINE
  5
2B4
330
17
100
AcDbEntity
  8
CASEWORK-CABINETS
 62
7
100
AcDbLine
 10
428.1655555555555
 20
32.33333333333333
 30
0.0
 11
430.2655555555555
 21
32.33333333333333
 31
0.0
  0
LINE
  5
2B5
330
17
100
AcDbEntity
  8
CASEWORK-CABINETS
 62
7
100
AcDbLine
 10
428.1655555555555
 20
32.133333333333326
 30
0.0
 11
428.1655555555555
 21
32.53333333333333
 31
0.0
  0
LINE
  5
2B6
330
17
100
AcDbEntity
  8
CASEWORK-CABINETS
 62
7
100
AcDbLine
 10
430.2655555555555
 20
32.133333333333326
 30
0.0
 11
430.2655555555555
 21
32.53333333333333
 31
0.0
  0
LINE
  5
2B7
330
17
100
AcDbEntity
  8
CASEWORK-CABINETS
 62
7
100
AcDbLine
 10
428.1655555555555
 20
36.11111111111111
 30
0.0
 11
430.2655555555555
 21
36.11111111111111
 31
0.0
  0
LINE
  5
2B8
330
17
100
AcDbEntity
  8
CASEWORK-CABINETS
 62
7
100
AcDbLine
 10
428.1655555555555
 20
35.911111111111104
 30
0.0
 11
428.1655555555555
 21
36.31111111111111
 31
0.0
  0
LINE
  5
2B9
330
17
100
AcDbEntity
  8
CASEWORK-CABINETS
 62
7
100
AcDbLine
 10
430.2655555555555
 20
35.911111111111104
 30
0.0
 11
430.2655555555555
 21
36.31111111111111
 31
0.0
  0
LWPOLYLINE
  5
2BA
330
17
100
AcDbEntity
  8
CASEWORK-CABINETS
 62
7
100
AcDbPolyline
 90
5
 70
1
 10
432.7155555555555
 20
0.0
 10
462.7155555555555
 20
0.0
 10
462.7155555555555
 20
38.0
 10
432.7155555555555
 20
38.0
 10
432.7155555555555
 20
0.0
  0
LINE
  5
2BB
330
17
100
AcDbEntity
  8
CASEWORK-CABINETS
 62
7
100
AcDbLine
 10
432.7155555555555
 20
4.0
 30
0.0
 11
462.7155555555555
 21
4.0
 31
0.0
  0
LINE
  5
2BC
330
17
100
AcDbEntity
  8
CASEWORK-HIDDEN
 62
8
100
AcDbLine
 10
435.7155555555555
 20
0.0
 30
0.0
 11
435.7155555555555
 21
4.0
 31
0.0
  0
LINE
  5
2BD
330
17
100
AcDbEntity
  8
CASEWORK-HIDDEN
 62
8
100
AcDbLine
 10
459.7155555555555
 20
0.0
 30
0.0
 11
459.7155555555555
 21
4.0
 31
0.0
  0
LINE
  5
2BE
330
17
100
AcDbEntity
  8
CASEWORK-HIDDEN
 62
8
100
AcDbLine
 10
435.7155555555555
 20
0.0
 30
0.0
 11
459.7155555555555
 21
0.0
 31
0.0
  0
LINE
  5
2BF
330
17
100
AcDbEntity
  8
CASEWORK-CABINETS
 62
7
100
AcDbLine
 10
447.7155555555555
 20
4.0
 30
0.0
 11
447.7155555555555
 21
38.0
 31
0.0
  0
LWPOLYLINE
  5
2C0
330
17
100
AcDbEntity
  8
CASEWORK-CABINETS
 62
7
100
AcDbPolyline
 90
5
 70
1
 10
434.2780555555555
 20
5.5625
 10
446.1530555555555
 20
5.5625
 10
446.1530555555555
 20
36.4375
 10
434.2780555555555
 20
36.4375
 10
434.2780555555555
 20
5.5625
  0
CIRCLE
  5
2C1
330
17
100
AcDbEntity
  8
CASEWORK-CABINETS
 62
7
100
AcDbCircle
 10
445.1530555555555
 20
22.69375
 30
0.0
 40
0.3
  0
LWPOLYLINE
  5
2C2
330
17
100
AcDbEntity
  8
CASEWORK-CABINETS
 62
7
100
AcDbPolyline
 90
5
 70
1
 10
449.2780555555555
 20
5.5625
 10
461.1530555555555
 20
5.5625
 10
461.1530555555555
 20
36.4375
 10
449.2780555555555
 20
36.4375
 10
449.2780555555555
 20
5.5625
  0
CIRCLE
  5
2C3
330
17
100
AcDbEntity
  8
CASEWORK-CABINETS
 62
7
100
AcDbCircle
 10
450.2780555555555
 20
22.69375
 30
0.0
 40
0.3
  0
TEXT
  5
2C4
330
17
100
AcDbEntity
  8
CASEWORK-DIMENSIONS
 62
2
100
AcDbText
 10
15.0
 20
-4.0
 30
0.0
 40
1.5
  1
30"
 72
1
 11
15.0
 21
-4.0
 31
0.0
100
AcDbText
 73
2
  0
LINE
  5
2C5
330
17
100
AcDbEntity
  8
CASEWORK-DIMENSIONS
 62
2
100
AcDbLine
 10
0.5
 20
-2.8
 30
0.0
 11
29.5
 21
-2.8
 31
0.0
  0
LINE
  5
2C6
330
17
100
AcDbEntity
  8
CASEWORK-DIMENSIONS
 62
2
100
AcDbLine
 10
0.0
 20
-3.5
 30
0.0
 11
0.0
 21
-2.2
 31
0.0
  0
LINE
  5
2C7
330
17
100
AcDbEntity
  8
CASEWORK-DIMENSIONS
 62
2
100
AcDbLine
 10
30.0
 20
-3.5
 30
0.0
 11
30.0
 21
-2.2
 31
0.0
  0
LINE
  5
2C8
330
17
100
AcDbEntity
  8
CASEWORK-DIMENSIONS
 62
8
100
AcDbLine
 10
0.0
 20
-0.5
 30
0.0
 11
0.0
 21
-2.0
 31
0.0
  0
LINE
  5
2C9
330
17
100
AcDbEntity
  8
CASEWORK-DIMENSIONS
 62
8
100
AcDbLine
 10
30.0
 20
-0.5
 30
0.0
 11
30.0
 21
-2.0
 31
0.0
  0
TEXT
  5
2CA
330
17
100
AcDbEntity
  8
CASEWORK-DIMENSIONS
 62
2
100
AcDbText
 10
33.5
 20
-4.0
 30
0.0
 40
1.5
  1
7"
 72
1
 11
33.5
 21
-4.0
 31
0.0
100
AcDbText
 73
2
  0
LINE
  5
2CB
330
17
100
AcDbEntity
  8
CASEWORK-DIMENSIONS
 62
2
100
AcDbLine
 10
30.5
 20
-2.8
 30
0.0
 11
36.5
 21
-2.8
 31
0.0
  0
LINE
  5
2CC
330
17
100
AcDbEntity
  8
CASEWORK-DIMENSIONS
 62
2
100
AcDbLine
 10
30.0
 20
-3.5
 30
0.0
 11
30.0
 21
-2.2
 31
0.0
  0
LINE
  5
2CD
330
17
100
AcDbEntity
  8
CASEWORK-DIMENSIONS
 62
2
100
AcDbLine
 10
37.0
 20
-3.5
 30
0.0
 11
37.0
 21
-2.2
 31
0.0
  0
LINE
  5
2CE
330
17
100
AcDbEntity
  8
CASEWORK-DIMENSIONS
 62
8
100
AcDbLine
 10
30.0
 20
-0.5
 30
0.0
 11
30.0
 21
-2.0
 31
0.0
  0
LINE
  5
2CF
330
17
100
AcDbEntity
  8
CASEWORK-DIMENSIONS
 62
8
100
AcDbLine
 10
37.0
 20
-0.5
 30
0.0
 11
37.0
 21
-2.0
 31
0.0
  0
TEXT
  5
2D0
330
17
100
AcDbEntity
  8
CASEWORK-DIMENSIONS
 62
2
100
AcDbText
 10
43.0
 20
-4.0
 30
0.0
 40
1.5
  1
12"
 72
1
 11
43.0
 21
-4.0
 31
0.0
100
AcDbText
 73
2
  0
LINE
  5
2D1
330
17
100
AcDbEntity
  8
CASEWORK-DIMENSIONS
 62
2
100
AcDbLine
 10
37.5
 20
-2.8
 30
0.0
 11
48.5
 21
-2.8
 31
0.0
  0
LINE
  5
2D2
330
17
100
AcDbEntity
  8
CASEWORK-DIMENSIONS
 62
2
100
AcDbLine
 10
37.0
 20
-3.5
 30
0.0
 11
37.0
 21
-2.2
 31
0.0
  0
LINE
  5
2D3
330
17
100
AcDbEntity
  8
CASEWORK-DIMENSIONS
 62
2
100
AcDbLine
 10
49.0
 20
-3.5
 30
0.0
 11
49.0
 21
-2.2
 31
0.0
  0
LINE
  5
2D4
330
17
100
AcDbEntity
  8
CASEWORK-DIMENSIONS
 62
8
100
AcDbLine
 10
37.0
 20
-0.5
 30
0.0
 11
37.0
 21
-2.0
 31
0.0
  0
LINE
  5
2D5
330
17
100
AcDbEntity
  8
CASEWORK-DIMENSIONS
 62
8
100
AcDbLine
 10
49.0
 20
-0.5
 30
0.0
 11
49.0
 21
-2.0
 31
0.0
  0
TEXT
  5
2D6
330
17
100
AcDbEntity
  8
CASEWORK-DIMENSIONS
 62
2
100
AcDbText
 10
64.0
 20
-4.0
 30
0.0
 40
1.5
  1
30"
 72
1
 11
64.0
 21
-4.0
 31
0.0
100
AcDbText
 73
2
  0
LINE
  5
2D7
330
17
100
AcDbEntity
  8
CASEWORK-DIMENSIONS
 62
2
100
AcDbLine
 10
49.5
 20
-2.8
 30
0.0
 11
78.5
 21
-2.8
 31
0.0
  0
LINE
  5
2D8
330
17
100
AcDbEntity
  8
CASEWORK-DIMENSIONS
 62
2
100
AcDbLine
 10
49.0
 20
-3.5
 30
0.0
 11
49.0
 21
-2.2
 31
0.0
  0
LINE
  5
2D9
330
17
100
AcDbEntity
  8
CASEWORK-DIMENSIONS
 62
2
100
AcDbLine
 10
79.0
 20
-3.5
 30
0.0
 11
79.0
 21
-2.2
 31
0.0
  0
LINE
  5
2DA
330
17
100
AcDbEntity
  8
CASEWORK-DIMENSIONS
 62
8
100
AcDbLine
 10
49.0
 20
-0.5
 30
0.0
 11
49.0
 21
-2.0
 31
0.0
  0
LINE
  5
2DB
330
17
100
AcDbEntity
  8
CASEWORK-DIMENSIONS
 62
8
100
AcDbLine
 10
79.0
 20
-0.5
 30
0.0
 11
79.0
 21
-2.0
 31
0.0
  0
TEXT
  5
2DC
330
17
100
AcDbEntity
  8
CASEWORK-DIMENSIONS
 62
2
100
AcDbText
 10
85.0
 20
-4.0
 30
0.0
 40
1.5
  1
12"
 72
1
 11
85.0
 21
-4.0
 31
0.0
100
AcDbText
 73
2
  0
LINE
  5
2DD
330
17
100
AcDbEntity
  8
CASEWORK-DIMENSIONS
 62
2
100
AcDbLine
 10
79.5
 20
-2.8
 30
0.0
 11
90.5
 21
-2.8
 31
0.0
  0
LINE
  5
2DE
330
17
100
AcDbEntity
  8
CASEWORK-DIMENSIONS
 62
2
100
AcDbLine
 10
79.0
 20
-3.5
 30
0.0
 11
79.0
 21
-2.2
 31
0.0
  0
LINE
  5
2DF
330
17
100
AcDbEntity
  8
CASEWORK-DIMENSIONS
 62
2
100
AcDbLine
 10
91.0
 20
-3.5
 30
0.0
 11
91.0
 21
-2.2
 31
0.0
  0
LINE
  5
2E0
330
17
100
AcDbEntity
  8
CASEWORK-DIMENSIONS
 62
8
100
AcDbLine
 10
79.0
 20
-0.5
 30
0.0
 11
79.0
 21
-2.0
 31
0.0
  0
LINE
  5
2E1
330
17
100
AcDbEntity
  8
CASEWORK-DIMENSIONS
 62
8
100
AcDbLine
 10
91.0
 20
-0.5
 30
0.0
 11
91.0
 21
-2.0
 31
0.0
  0
TEXT
  5
2E2
330
17
100
AcDbEntity
  8
CASEWORK-DIMENSIONS
 62
2
100
AcDbText
 10
100.0
 20
-4.0
 30
0.0
 40
1.5
  1
18"
 72
1
 11
100.0
 21
-4.0
 31
0.0
100
AcDbText
 73
2
  0
LINE
  5
2E3
330
17
100
AcDbEntity
  8
CASEWORK-DIMENSIONS
 62
2
100
AcDbLine
 10
91.5
 20
-2.8
 30
0.0
 11
108.5
 21
-2.8
 31
0.0
  0
LINE
  5
2E4
330
17
100
AcDbEntity
  8
CASEWORK-DIMENSIONS
 62
2
100
AcDbLine
 10
91.0
 20
-3.5
 30
0.0
 11
91.0
 21
-2.2
 31
0.0
  0
LINE
  5
2E5
330
17
100
AcDbEntity
  8
CASEWORK-DIMENSIONS
 62
2
100
AcDbLine
 10
109.0
 20
-3.5
 30
0.0
 11
109.0
 21
-2.2
 31
0.0
  0
LINE
  5
2E6
330
17
100
AcDbEntity
  8
CASEWORK-DIMENSIONS
 62
8
100
AcDbLine
 10
91.0
 20
-0.5
 30
0.0
 11
91.0
 21
-2.0
 31
0.0
  0
LINE
  5
2E7
330
17
100
AcDbEntity
  8
CASEWORK-DIMENSIONS
 62
8
100
AcDbLine
 10
109.0
 20
-0.5
 30
0.0
 11
109.0
 21
-2.0
 31
0.0
  0
TEXT
  5
2E8
330
17
100
AcDbEntity
  8
CASEWORK-DIMENSIONS
 62
2
100
AcDbText
 10
119.5
 20
-4.0
 30
0.0
 40
1.5
  1
21"
 72
1
 11
119.5
 21
-4.0
 31
0.0
100
AcDbText
 73
2
  0
LINE
  5
2E9
330
17
100
AcDbEntity
  8
CASEWORK-DIMENSIONS
 62
2
100
AcDbLine
 10
109.5
 20
-2.8
 30
0.0
 11
129.5
 21
-2.8
 31
0.0
  0
LINE
  5
2EA
330
17
100
AcDbEntity
  8
CASEWORK-DIMENSIONS
 62
2
100
AcDbLine
 10
109.0
 20
-3.5
 30
0.0
 11
109.0
 21
-2.2
 31
0.0
  0
LINE
  5
2EB
330
17
100
AcDbEntity
  8
CASEWORK-DIMENSIONS
 62
2
100
AcDbLine
 10
130.0
 20
-3.5
 30
0.0
 11
130.0
 21
-2.2
 31
0.0
  0
LINE
  5
2EC
330
17
100
AcDbEntity
  8
CASEWORK-DIMENSIONS
 62
8
100
AcDbLine
 10
109.0
 20
-0.5
 30
0.0
 11
109.0
 21
-2.0
 31
0.0
  0
LINE
  5
2ED
330
17
100
AcDbEntity
  8
CASEWORK-DIMENSIONS
 62
8
100
AcDbLine
 10
130.0
 20
-0.5
 30
0.0
 11
130.0
 21
-2.0
 31
0.0
  0
TEXT
  5
2EE
330
17
100
AcDbEntity
  8
CASEWORK-DIMENSIONS
 62
2
100
AcDbText
 10
139.0
 20
-4.0
 30
0.0
 40
1.5
  1
18"
 72
1
 11
139.0
 21
-4.0
 31
0.0
100
AcDbText
 73
2
  0
LINE
  5
2EF
330
17
100
AcDbEntity
  8
CASEWORK-DIMENSIONS
 62
2
100
AcDbLine
 10
130.5
 20
-2.8
 30
0.0
 11
147.5
 21
-2.8
 31
0.0
  0
LINE
  5
2F0
330
17
100
AcDbEntity
  8
CASEWORK-DIMENSIONS
 62
2
100
AcDbLine
 10
130.0
 20
-3.5
 30
0.0
 11
130.0
 21
-2.2
 31
0.0
  0
LINE
  5
2F1
330
17
100
AcDbEntity
  8
CASEWORK-DIMENSIONS
 62
2
100
AcDbLine
 10
148.0
 20
-3.5
 30
0.0
 11
148.0
 21
-2.2
 31
0.0
  0
LINE
  5
2F2
330
17
100
AcDbEntity
  8
CASEWORK-DIMENSIONS
 62
8
100
AcDbLine
 10
130.0
 20
-0.5
 30
0.0
 11
130.0
 21
-2.0
 31
0.0
  0
LINE
  5
2F3
330
17
100
AcDbEntity
  8
CASEWORK-DIMENSIONS
 62
8
100
AcDbLine
 10
148.0
 20
-0.5
 30
0.0
 11
148.0
 21
-2.0
 31
0.0
  0
TEXT
  5
2F4
330
17
100
AcDbEntity
  8
CASEWORK-DIMENSIONS
 62
2
100
AcDbText
 10
166.0
 20
-4.0
 30
0.0
 40
1.5
  1
36"
 72
1
 11
166.0
 21
-4.0
 31
0.0
100
AcDbText
 73
2
  0
LINE
  5
2F5
330
17
100
AcDbEntity
  8
CASEWORK-DIMENSIONS
 62
2
100
AcDbLine
 10
148.5
 20
-2.8
 30
0.0
 11
183.5
 21
-2.8
 31
0.0
  0
LINE
  5
2F6
330
17
100
AcDbEntity
  8
CASEWORK-DIMENSIONS
 62
2
100
AcDbLine
 10
148.0
 20
-3.5
 30
0.0
 11
148.0
 21
-2.2
 31
0.0
  0
LINE
  5
2F7
330
17
100
AcDbEntity
  8
CASEWORK-DIMENSIONS
 62
2
100
AcDbLine
 10
184.0
 20
-3.5
 30
0.0
 11
184.0
 21
-2.2
 31
0.0
  0
LINE
  5
2F8
330
17
100
AcDbEntity
  8
CASEWORK-DIMENSIONS
 62
8
100
AcDbLine
 10
148.0
 20
-0.5
 30
0.0
 11
148.0
 21
-2.0
 31
0.0
  0
LINE
  5
2F9
330
17
100
AcDbEntity
  8
CASEWORK-DIMENSIONS
 62
8
100
AcDbLine
 10
184.0
 20
-0.5
 30
0.0
 11
184.0
 21
-2.0
 31
0.0
  0
TEXT
  5
2FA
330
17
100
AcDbEntity
  8
CASEWORK-DIMENSIONS
 62
2
100
AcDbText
 10
191.5
 20
-4.0
 30
0.0
 40
1.5
  1
15"
 72
1
 11
191.5
 21
-4.0
 31
0.0
100
AcDbText
 73
2
  0
LINE
  5
2FB
330
17
100
AcDbEntity
  8
CASEWORK-DIMENSIONS
 62
2
100
AcDbLine
 10
184.5
 20
-2.8
 30
0.0
 11
198.5
 21
-2.8
 31
0.0
  0
LINE
  5
2FC
330
17
100
AcDbEntity
  8
CASEWORK-DIMENSIONS
 62
2
100
AcDbLine
 10
184.0
 20
-3.5
 30
0.0
 11
184.0
 21
-2.2
 31
0.0
  0
LINE
  5
2FD
330
17
100
AcDbEntity
  8
CASEWORK-DIMENSIONS
 62
2
100
AcDbLine
 10
199.0
 20
-3.5
 30
0.0
 11
199.0
 21
-2.2
 31
0.0
  0
LINE
  5
2FE
330
17
100
AcDbEntity
  8
CASEWORK-DIMENSIONS
 62
8
100
AcDbLine
 10
184.0
 20
-0.5
 30
0.0
 11
184.0
 21
-2.0
 31
0.0
  0
LINE
  5
2FF
330
17
100
AcDbEntity
  8
CASEWORK-DIMENSIONS
 62
8
100
AcDbLine
 10
199.0
 20
-0.5
 30
0.0
 11
199.0
 21
-2.0
 31
0.0
  0
TEXT
  5
300
330
17
100
AcDbEntity
  8
CASEWORK-DIMENSIONS
 62
2
100
AcDbText
 10
206.5
 20
-4.0
 30
0.0
 40
1.5
  1
15"
 72
1
 11
206.5
 21
-4.0
 31
0.0
100
AcDbText
 73
2
  0
LINE
  5
301
330
17
100
AcDbEntity
  8
CASEWORK-DIMENSIONS
 62
2
100
AcDbLine
 10
199.5
 20
-2.8
 30
0.0
 11
213.5
 21
-2.8
 31
0.0
  0
LINE
  5
302
330
17
100
AcDbEntity
  8
CASEWORK-DIMENSIONS
 62
2
100
AcDbLine
 10
199.0
 20
-3.5
 30
0.0
 11
199.0
 21
-2.2
 31
0.0
  0
LINE
  5
303
330
17
100
AcDbEntity
  8
CASEWORK-DIMENSIONS
 62
2
100
AcDbLine
 10
214.0
 20
-3.5
 30
0.0
 11
214.0
 21
-2.2
 31
0.0
  0
LINE
  5
304
330
17
100
AcDbEntity
  8
CASEWORK-DIMENSIONS
 62
8
100
AcDbLine
 10
199.0
 20
-0.5
 30
0.0
 11
199.0
 21
-2.0
 31
0.0
  0
LINE
  5
305
330
17
100
AcDbEntity
  8
CASEWORK-DIMENSIONS
 62
8
100
AcDbLine
 10
214.0
 20
-0.5
 30
0.0
 11
214.0
 21
-2.0
 31
0.0
  0
TEXT
  5
306
330
17
100
AcDbEntity
  8
CASEWORK-DIMENSIONS
 62
2
100
AcDbText
 10
220.0
 20
-4.0
 30
0.0
 40
1.5
  1
12"
 72
1
 11
220.0
 21
-4.0
 31
0.0
100
AcDbText
 73
2
  0
LINE
  5
307
330
17
100
AcDbEntity
  8
CASEWORK-DIMENSIONS
 62
2
100
AcDbLine
 10
214.5
 20
-2.8
 30
0.0
 11
225.5
 21
-2.8
 31
0.0
  0
LINE
  5
308
330
17
100
AcDbEntity
  8
CASEWORK-DIMENSIONS
 62
2
100
AcDbLine
 10
214.0
 20
-3.5
 30
0.0
 11
214.0
 21
-2.2
 31
0.0
  0
LINE
  5
309
330
17
100
AcDbEntity
  8
CASEWORK-DIMENSIONS
 62
2
100
AcDbLine
 10
226.0
 20
-3.5
 30
0.0
 11
226.0
 21
-2.2
 31
0.0
  0
LINE
  5
30A
330
17
100
AcDbEntity
  8
CASEWORK-DIMENSIONS
 62
8
100
AcDbLine
 10
214.0
 20
-0.5
 30
0.0
 11
214.0
 21
-2.0
 31
0.0
  0
LINE
  5
30B
330
17
100
AcDbEntity
  8
CASEWORK-DIMENSIONS
 62
8
100
AcDbLine
 10
226.0
 20
-0.5
 30
0.0
 11
226.0
 21
-2.0
 31
0.0
  0
TEXT
  5
30C
330
17
100
AcDbEntity
  8
CASEWORK-DIMENSIONS
 62
2
100
AcDbText
 10
232.0
 20
-4.0
 30
0.0
 40
1.5
  1
12"
 72
1
 11
232.0
 21
-4.0
 31
0.0
100
AcDbText
 73
2
  0
LINE
  5
30D
330
17
100
AcDbEntity
  8
CASEWORK-DIMENSIONS
 62
2
100
AcDbLine
 10
226.5
 20
-2.8
 30
0.0
 11
237.5
 21
-2.8
 31
0.0
  0
LINE
  5
30E
330
17
100
AcDbEntity
  8
CASEWORK-DIMENSIONS
 62
2
100
AcDbLine
 10
226.0
 20
-3.5
 30
0.0
 11
226.0
 21
-2.2
 31
0.0
  0
LINE
  5
30F
330
17
100
AcDbEntity
  8
CASEWORK-DIMENSIONS
 62
2
100
AcDbLine
 10
238.0
 20
-3.5
 30
0.0
 11
238.0
 21
-2.2
 31
0.0
  0
LINE
  5
310
330
17
100
AcDbEntity
  8
CASEWORK-DIMENSIONS
 62
8
100
AcDbLine
 10
226.0
 20
-0.5
 30
0.0
 11
226.0
 21
-2.0
 31
0.0
  0
LINE
  5
311
330
17
100
AcDbEntity
  8
CASEWORK-DIMENSIONS
 62
8
100
AcDbLine
 10
238.0
 20
-0.5
 30
0.0
 11
238.0
 21
-2.0
 31
0.0
  0
TEXT
  5
312
330
17
100
AcDbEntity
  8
CASEWORK-DIMENSIONS
 62
2
100
AcDbText
 10
241.0
 20
-4.0
 30
0.0
 40
1.5
  1
6"
 72
1
 11
241.0
 21
-4.0
 31
0.0
100
AcDbText
 73
2
  0
LINE
  5
313
330
17
100
AcDbEntity
  8
CASEWORK-DIMENSIONS
 62
2
100
AcDbLine
 10
238.5
 20
-2.8
 30
0.0
 11
243.5
 21
-2.8
 31
0.0
  0
LINE
  5
314
330
17
100
AcDbEntity
  8
CASEWORK-DIMENSIONS
 62
2
100
AcDbLine
 10
238.0
 20
-3.5
 30
0.0
 11
238.0
 21
-2.2
 31
0.0
  0
LINE
  5
315
330
17
100
AcDbEntity
  8
CASEWORK-DIMENSIONS
 62
2
100
AcDbLine
 10
244.0
 20
-3.5
 30
0.0
 11
244.0
 21
-2.2
 31
0.0
  0
LINE
  5
316
330
17
100
AcDbEntity
  8
CASEWORK-DIMENSIONS
 62
8
100
AcDbLine
 10
238.0
 20
-0.5
 30
0.0
 11
238.0
 21
-2.0
 31
0.0
  0
LINE
  5
317
330
17
100
AcDbEntity
  8
CASEWORK-DIMENSIONS
 62
8
100
AcDbLine
 10
244.0
 20
-0.5
 30
0.0
 11
244.0
 21
-2.0
 31
0.0
  0
TEXT
  5
318
330
17
100
AcDbEntity
  8
CASEWORK-DIMENSIONS
 62
2
100
AcDbText
 10
250.0
 20
-4.0
 30
0.0
 40
1.5
  1
12"
 72
1
 11
250.0
 21
-4.0
 31
0.0
100
AcDbText
 73
2
  0
LINE
  5
319
330
17
100
AcDbEntity
  8
CASEWORK-DIMENSIONS
 62
2
100
AcDbLine
 10
244.5
 20
-2.8
 30
0.0
 11
255.5
 21
-2.8
 31
0.0
  0
LINE
  5
31A
330
17
100
AcDbEntity
  8
CASEWORK-DIMENSIONS
 62
2
100
AcDbLine
 10
244.0
 20
-3.5
 30
0.0
 11
244.0
 21
-2.2
 31
0.0
  0
LINE
  5
31B
330
17
100
AcDbEntity
  8
CASEWORK-DIMENSIONS
 62
2
100
AcDbLine
 10
256.0
 20
-3.5
 30
0.0
 11
256.0
 21
-2.2
 31
0.0
  0
LINE
  5
31C
330
17
100
AcDbEntity
  8
CASEWORK-DIMENSIONS
 62
8
100
AcDbLine
 10
244.0
 20
-0.5
 30
0.0
 11
244.0
 21
-2.0
 31
0.0
  0
LINE
  5
31D
330
17
100
AcDbEntity
  8
CASEWORK-DIMENSIONS
 62
8
100
AcDbLine
 10
256.0
 20
-0.5
 30
0.0
 11
256.0
 21
-2.0
 31
0.0
  0
TEXT
  5
31E
330
17
100
AcDbEntity
  8
CASEWORK-DIMENSIONS
 62
2
100
AcDbText
 10
262.0
 20
-4.0
 30
0.0
 40
1.5
  1
12"
 72
1
 11
262.0
 21
-4.0
 31
0.0
100
AcDbText
 73
2
  0
LINE
  5
31F
330
17
100
AcDbEntity
  8
CASEWORK-DIMENSIONS
 62
2
100
AcDbLine
 10
256.5
 20
-2.8
 30
0.0
 11
267.5
 21
-2.8
 31
0.0
  0
LINE
  5
320
330
17
100
AcDbEntity
  8
CASEWORK-DIMENSIONS
 62
2
100
AcDbLine
 10
256.0
 20
-3.5
 30
0.0
 11
256.0
 21
-2.2
 31
0.0
  0
LINE
  5
321
330
17
100
AcDbEntity
  8
CASEWORK-DIMENSIONS
 62
2
100
AcDbLine
 10
268.0
 20
-3.5
 30
0.0
 11
268.0
 21
-2.2
 31
0.0
  0
LINE
  5
322
330
17
100
AcDbEntity
  8
CASEWORK-DIMENSIONS
 62
8
100
AcDbLine
 10
256.0
 20
-0.5
 30
0.0
 11
256.0
 21
-2.0
 31
0.0
  0
LINE
  5
323
330
17
100
AcDbEntity
  8
CASEWORK-DIMENSIONS
 62
8
100
AcDbLine
 10
268.0
 20
-0.5
 30
0.0
 11
268.0
 21
-2.0
 31
0.0
  0
TEXT
  5
324
330
17
100
AcDbEntity
  8
CASEWORK-DIMENSIONS
 62
2
100
AcDbText
 10
274.0
 20
-4.0
 30
0.0
 40
1.5
  1
12"
 72
1
 11
274.0
 21
-4.0
 31
0.0
100
AcDbText
 73
2
  0
LINE
  5
325
330
17
100
AcDbEntity
  8
CASEWORK-DIMENSIONS
 62
2
100
AcDbLine
 10
268.5
 20
-2.8
 30
0.0
 11
279.5
 21
-2.8
 31
0.0
  0
LINE
  5
326
330
17
100
AcDbEntity
  8
CASEWORK-DIMENSIONS
 62
2
100
AcDbLine
 10
268.0
 20
-3.5
 30
0.0
 11
268.0
 21
-2.2
 31
0.0
  0
LINE
  5
327
330
17
100
AcDbEntity
  8
CASEWORK-DIMENSIONS
 62
2
100
AcDbLine
 10
280.0
 20
-3.5
 30
0.0
 11
280.0
 21
-2.2
 31
0.0
  0
LINE
  5
328
330
17
100
AcDbEntity
  8
CASEWORK-DIMENSIONS
 62
8
100
AcDbLine
 10
268.0
 20
-0.5
 30
0.0
 11
268.0
 21
-2.0
 31
0.0
  0
LINE
  5
329
330
17
100
AcDbEntity
  8
CASEWORK-DIMENSIONS
 62
8
100
AcDbLine
 10
280.0
 20
-0.5
 30
0.0
 11
280.0
 21
-2.0
 31
0.0
  0
TEXT
  5
32A
330
17
100
AcDbEntity
  8
CASEWORK-DIMENSIONS
 62
2
100
AcDbText
 10
295.0
 20
-4.0
 30
0.0
 40
1.5
  1
30"
 72
1
 11
295.0
 21
-4.0
 31
0.0
100
AcDbText
 73
2
  0
LINE
  5
32B
330
17
100
AcDbEntity
  8
CASEWORK-DIMENSIONS
 62
2
100
AcDbLine
 10
280.5
 20
-2.8
 30
0.0
 11
309.5
 21
-2.8
 31
0.0
  0
LINE
  5
32C
330
17
100
AcDbEntity
  8
CASEWORK-DIMENSIONS
 62
2
100
AcDbLine
 10
280.0
 20
-3.5
 30
0.0
 11
280.0
 21
-2.2
 31
0.0
  0
LINE
  5
32D
330
17
100
AcDbEntity
  8
CASEWORK-DIMENSIONS
 62
2
100
AcDbLine
 10
310.0
 20
-3.5
 30
0.0
 11
310.0
 21
-2.2
 31
0.0
  0
LINE
  5
32E
330
17
100
AcDbEntity
  8
CASEWORK-DIMENSIONS
 62
8
100
AcDbLine
 10
280.0
 20
-0.5
 30
0.0
 11
280.0
 21
-2.0
 31
0.0
  0
LINE
  5
32F
330
17
100
AcDbEntity
  8
CASEWORK-DIMENSIONS
 62
8
100
AcDbLine
 10
310.0
 20
-0.5
 30
0.0
 11
310.0
 21
-2.0
 31
0.0
  0
TEXT
  5
330
330
17
100
AcDbEntity
  8
CASEWORK-DIMENSIONS
 62
2
100
AcDbText
 10
322.0
 20
-4.0
 30
0.0
 40
1.5
  1
24"
 72
1
 11
322.0
 21
-4.0
 31
0.0
100
AcDbText
 73
2
  0
LINE
  5
331
330
17
100
AcDbEntity
  8
CASEWORK-DIMENSIONS
 62
2
100
AcDbLine
 10
310.5
 20
-2.8
 30
0.0
 11
333.5
 21
-2.8
 31
0.0
  0
LINE
  5
332
330
17
100
AcDbEntity
  8
CASEWORK-DIMENSIONS
 62
2
100
AcDbLine
 10
310.0
 20
-3.5
 30
0.0
 11
310.0
 21
-2.2
 31
0.0
  0
LINE
  5
333
330
17
100
AcDbEntity
  8
CASEWORK-DIMENSIONS
 62
2
100
AcDbLine
 10
334.0
 20
-3.5
 30
0.0
 11
334.0
 21
-2.2
 31
0.0
  0
LINE
  5
334
330
17
100
AcDbEntity
  8
CASEWORK-DIMENSIONS
 62
8
100
AcDbLine
 10
310.0
 20
-0.5
 30
0.0
 11
310.0
 21
-2.0
 31
0.0
  0
LINE
  5
335
330
17
100
AcDbEntity
  8
CASEWORK-DIMENSIONS
 62
8
100
AcDbLine
 10
334.0
 20
-0.5
 30
0.0
 11
334.0
 21
-2.0
 31
0.0
  0
TEXT
  5
336
330
17
100
AcDbEntity
  8
CASEWORK-DIMENSIONS
 62
2
100
AcDbText
 10
167.0
 20
-9.0
 30
0.0
 40
1.8
  1
334"
 72
1
 11
167.0
 21
-9.0
 31
0.0
100
AcDbText
 73
2
  0
LINE
  5
337
330
17
100
AcDbEntity
  8
CASEWORK-DIMENSIONS
 62
2
100
AcDbLine
 10
0.5
 20
-7.5
 30
0.0
 11
333.5
 21
-7.5
 31
0.0
  0
LINE
  5
338
330
17
100
AcDbEntity
  8
CASEWORK-DIMENSIONS
 62
2
100
AcDbLine
 10
0.0
 20
-8.2
 30
0.0
 11
0.0
 21
-6.8
 31
0.0
  0
LINE
  5
339
330
17
100
AcDbEntity
  8
CASEWORK-DIMENSIONS
 62
2
100
AcDbLine
 10
334.0
 20
-8.2
 30
0.0
 11
334.0
 21
-6.8
 31
0.0
  0
TEXT
  5
33A
330
17
100
AcDbEntity
  8
CASEWORK-DIMENSIONS
 62
2
100
AcDbText
 10
360.66666666666663
 20
-4.0
 30
0.0
 40
1.5
  1
12"
 72
1
 11
360.66666666666663
 21
-4.0
 31
0.0
100
AcDbText
 73
2
  0
LINE
  5
33B
330
17
100
AcDbEntity
  8
CASEWORK-DIMENSIONS
 62
2
100
AcDbLine
 10
355.16666666666663
 20
-2.8
 30
0.0
 11
366.16666666666663
 21
-2.8
 31
0.0
  0
LINE
  5
33C
330
17
100
AcDbEntity
  8
CASEWORK-DIMENSIONS
 62
2
100
AcDbLine
 10
354.66666666666663
 20
-3.5
 30
0.0
 11
354.66666666666663
 21
-2.2
 31
0.0
  0
LINE
  5
33D
330
17
100
AcDbEntity
  8
CASEWORK-DIMENSIONS
 62
2
100
AcDbLine
 10
366.66666666666663
 20
-3.5
 30
0.0
 11
366.66666666666663
 21
-2.2
 31
0.0
  0
LINE
  5
33E
330
17
100
AcDbEntity
  8
CASEWORK-DIMENSIONS
 62
8
100
AcDbLine
 10
354.66666666666663
 20
-0.5
 30
0.0
 11
354.66666666666663
 21
-2.0
 31
0.0
  0
LINE
  5
33F
330
17
100
AcDbEntity
  8
CASEWORK-DIMENSIONS
 62
8
100
AcDbLine
 10
366.66666666666663
 20
-0.5
 30
0.0
 11
366.66666666666663
 21
-2.0
 31
0.0
  0
TEXT
  5
340
330
17
100
AcDbEntity
  8
CASEWORK-DIMENSIONS
 62
2
100
AcDbText
 10
389.7155555555555
 20
-4.0
 30
0.0
 40
1.5
  1
12"
 72
1
 11
389.7155555555555
 21
-4.0
 31
0.0
100
AcDbText
 73
2
  0
LINE
  5
341
330
17
100
AcDbEntity
  8
CASEWORK-DIMENSIONS
 62
2
100
AcDbLine
 10
384.2155555555555
 20
-2.8
 30
0.0
 11
395.2155555555555
 21
-2.8
 31
0.0
  0
LINE
  5
342
330
17
100
AcDbEntity
  8
CASEWORK-DIMENSIONS
 62
2
100
AcDbLine
 10
383.7155555555555
 20
-3.5
 30
0.0
 11
383.7155555555555
 21
-2.2
 31
0.0
  0
LINE
  5
343
330
17
100
AcDbEntity
  8
CASEWORK-DIMENSIONS
 62
2
100
AcDbLine
 10
395.7155555555555
 20
-3.5
 30
0.0
 11
395.7155555555555
 21
-2.2
 31
0.0
  0
LINE
  5
344
330
17
100
AcDbEntity
  8
CASEWORK-DIMENSIONS
 62
8
100
AcDbLine
 10
383.7155555555555
 20
-0.5
 30
0.0
 11
383.7155555555555
 21
-2.0
 31
0.0
  0
LINE
  5
345
330
17
100
AcDbEntity
  8
CASEWORK-DIMENSIONS
 62
8
100
AcDbLine
 10
395.7155555555555
 20
-0.5
 30
0.0
 11
395.7155555555555
 21
-2.0
 31
0.0
  0
TEXT
  5
346
330
17
100
AcDbEntity
  8
CASEWORK-DIMENSIONS
 62
2
100
AcDbText
 10
401.7155555555555
 20
-4.0
 30
0.0
 40
1.5
  1
12"
 72
1
 11
401.7155555555555
 21
-4.0
 31
0.0
100
AcDbText
 73
2
  0
LINE
  5
347
330
17
100
AcDbEntity
  8
CASEWORK-DIMENSIONS
 62
2
100
AcDbLine
 10
396.2155555555555
 20
-2.8
 30
0.0
 11
407.2155555555555
 21
-2.8
 31
0.0
  0
LINE
  5
348
330
17
100
AcDbEntity
  8
CASEWORK-DIMENSIONS
 62
2
100
AcDbLine
 10
395.7155555555555
 20
-3.5
 30
0.0
 11
395.7155555555555
 21
-2.2
 31
0.0
  0
LINE
  5
349
330
17
100
AcDbEntity
  8
CASEWORK-DIMENSIONS
 62
2
100
AcDbLine
 10
407.7155555555555
 20
-3.5
 30
0.0
 11
407.7155555555555
 21
-2.2
 31
0.0
  0
LINE
  5
34A
330
17
100
AcDbEntity
  8
CASEWORK-DIMENSIONS
 62
8
100
AcDbLine
 10
395.7155555555555
 20
-0.5
 30
0.0
 11
395.7155555555555
 21
-2.0
 31
0.0
  0
LINE
  5
34B
330
17
100
AcDbEntity
  8
CASEWORK-DIMENSIONS
 62
8
100
AcDbLine
 10
407.7155555555555
 20
-0.5
 30
0.0
 11
407.7155555555555
 21
-2.0
 31
0.0
  0
TEXT
  5
34C
330
17
100
AcDbEntity
  8
CASEWORK-DIMENSIONS
 62
2
100
AcDbText
 10
410.7155555555555
 20
-4.0
 30
0.0
 40
1.5
  1
6"
 72
1
 11
410.7155555555555
 21
-4.0
 31
0.0
100
AcDbText
 73
2
  0
LINE
  5
34D
330
17
100
AcDbEntity
  8
CASEWORK-DIMENSIONS
 62
2
100
AcDbLine
 10
408.2155555555555
 20
-2.8
 30
0.0
 11
413.2155555555555
 21
-2.8
 31
0.0
  0
LINE
  5
34E
330
17
100
AcDbEntity
  8
CASEWORK-DIMENSIONS
 62
2
100
AcDbLine
 10
407.7155555555555
 20
-3.5
 30
0.0
 11
407.7155555555555
 21
-2.2
 31
0.0
  0
LINE
  5
34F
330
17
100
AcDbEntity
  8
CASEWORK-DIMENSIONS
 62
2
100
AcDbLine
 10
413.7155555555555
 20
-3.5
 30
0.0
 11
413.7155555555555
 21
-2.2
 31
0.0
  0
LINE
  5
350
330
17
100
AcDbEntity
  8
CASEWORK-DIMENSIONS
 62
8
100
AcDbLine
 10
407.7155555555555
 20
-0.5
 30
0.0
 11
407.7155555555555
 21
-2.0
 31
0.0
  0
LINE
  5
351
330
17
100
AcDbEntity
  8
CASEWORK-DIMENSIONS
 62
8
100
AcDbLine
 10
413.7155555555555
 20
-0.5
 30
0.0
 11
413.7155555555555
 21
-2.0
 31
0.0
  0
TEXT
  5
352
330
17
100
AcDbEntity
  8
CASEWORK-DIMENSIONS
 62
2
100
AcDbText
 10
419.7155555555555
 20
-4.0
 30
0.0
 40
1.5
  1
12"
 72
1
 11
419.7155555555555
 21
-4.0
 31
0.0
100
AcDbText
 73
2
  0
LINE
  5
353
330
17
100
AcDbEntity
  8
CASEWORK-DIMENSIONS
 62
2
100
AcDbLine
 10
414.2155555555555
 20
-2.8
 30
0.0
 11
425.2155555555555
 21
-2.8
 31
0.0
  0
LINE
  5
354
330
17
100
AcDbEntity
  8
CASEWORK-DIMENSIONS
 62
2
100
AcDbLine
 10
413.7155555555555
 20
-3.5
 30
0.0
 11
413.7155555555555
 21
-2.2
 31
0.0
  0
LINE
  5
355
330
17
100
AcDbEntity
  8
CASEWORK-DIMENSIONS
 62
2
100
AcDbLine
 10
425.7155555555555
 20
-3.5
 30
0.0
 11
425.7155555555555
 21
-2.2
 31
0.0
  0
LINE
  5
356
330
17
100
AcDbEntity
  8
CASEWORK-DIMENSIONS
 62
8
100
AcDbLine
 10
413.7155555555555
 20
-0.5
 30
0.0
 11
413.7155555555555
 21
-2.0
 31
0.0
  0
LINE
  5
357
330
17
100
AcDbEntity
  8
CASEWORK-DIMENSIONS
 62
8
100
AcDbLine
 10
425.7155555555555
 20
-0.5
 30
0.0
 11
425.7155555555555
 21
-2.0
 31
0.0
  0
TEXT
  5
358
330
17
100
AcDbEntity
  8
CASEWORK-DIMENSIONS
 62
2
100
AcDbText
 10
429.2155555555555
 20
-4.0
 30
0.0
 40
1.5
  1
7"
 72
1
 11
429.2155555555555
 21
-4.0
 31
0.0
100
AcDbText
 73
2
  0
LINE
  5
359
330
17
100
AcDbEntity
  8
CASEWORK-DIMENSIONS
 62
2
100
AcDbLine
 10
426.2155555555555
 20
-2.8
 30
0.0
 11
432.2155555555555
 21
-2.8
 31
0.0
  0
LINE
  5
35A
330
17
100
AcDbEntity
  8
CASEWORK-DIMENSIONS
 62
2
100
AcDbLine
 10
425.7155555555555
 20
-3.5
 30
0.0
 11
425.7155555555555
 21
-2.2
 31
0.0
  0
LINE
  5
35B
330
17
100
AcDbEntity
  8
CASEWORK-DIMENSIONS
 62
2
100
AcDbLine
 10
432.7155555555555
 20
-3.5
 30
0.0
 11
432.7155555555555
 21
-2.2
 31
0.0
  0
LINE
  5
35C
330
17
100
AcDbEntity
  8
CASEWORK-DIMENSIONS
 62
8
100
AcDbLine
 10
425.7155555555555
 20
-0.5
 30
0.0
 11
425.7155555555555
 21
-2.0
 31
0.0
  0
LINE
  5
35D
330
17
100
AcDbEntity
  8
CASEWORK-DIMENSIONS
 62
8
100
AcDbLine
 10
432.7155555555555
 20
-0.5
 30
0.0
 11
432.7155555555555
 21
-2.0
 31
0.0
  0
TEXT
  5
35E
330
17
100
AcDbEntity
  8
CASEWORK-DIMENSIONS
 62
2
100
AcDbText
 10
447.7155555555555
 20
-4.0
 30
0.0
 40
1.5
  1
30"
 72
1
 11
447.7155555555555
 21
-4.0
 31
0.0
100
AcDbText
 73
2
  0
LINE
  5
35F
330
17
100
AcDbEntity
  8
CASEWORK-DIMENSIONS
 62
2
100
AcDbLine
 10
433.2155555555555
 20
-2.8
 30
0.0
 11
462.2155555555555
 21
-2.8
 31
0.0
  0
LINE
  5
360
330
17
100
AcDbEntity
  8
CASEWORK-DIMENSIONS
 62
2
100
AcDbLine
 10
432.7155555555555
 20
-3.5
 30
0.0
 11
432.7155555555555
 21
-2.2
 31
0.0
  0
LINE
  5
361
330
17
100
AcDbEntity
  8
CASEWORK-DIMENSIONS
 62
2
100
AcDbLine
 10
462.7155555555555
 20
-3.5
 30
0.0
 11
462.7155555555555
 21
-2.2
 31
0.0
  0
LINE
  5
362
330
17
100
AcDbEntity
  8
CASEWORK-DIMENSIONS
 62
8
100
AcDbLine
 10
432.7155555555555
 20
-0.5
 30
0.0
 11
432.7155555555555
 21
-2.0
 31
0.0
  0
LINE
  5
363
330
17
100
AcDbEntity
  8
CASEWORK-DIMENSIONS
 62
8
100
AcDbLine
 10
462.7155555555555
 20
-0.5
 30
0.0
 11
462.7155555555555
 21
-2.0
 31
0.0
  0
TEXT
  5
364
330
17
100
AcDbEntity
  8
CASEWORK-DIMENSIONS
 62
2
100
AcDbText
 10
423.2155555555555
 20
-9.0
 30
0.0
 40
1.8
  1
79"
 72
1
 11
423.2155555555555
 21
-9.0
 31
0.0
100
AcDbText
 73
2
  0
LINE
  5
365
330
17
100
AcDbEntity
  8
CASEWORK-DIMENSIONS
 62
2
100
AcDbLine
 10
384.2155555555555
 20
-7.5
 30
0.0
 11
462.2155555555555
 21
-7.5
 31
0.0
  0
LINE
  5
366
330
17
100
AcDbEntity
  8
CASEWORK-DIMENSIONS
 62
2
100
AcDbLine
 10
383.7155555555555
 20
-8.2
 30
0.0
 11
383.7155555555555
 21
-6.8
 31
0.0
  0
LINE
  5
367
330
17
100
AcDbEntity
  8
CASEWORK-DIMENSIONS
 62
2
100
AcDbLine
 10
462.7155555555555
 20
-8.2
 30
0.0
 11
462.7155555555555
 21
-6.8
 31
0.0
  0
LINE
  5
368
330
17
100
AcDbEntity
  8
CASEWORK-DIMENSIONS
 62
2
100
AcDbLine
 10
465.7155555555555
 20
0.0
 30
0.0
 11
465.7155555555555
 21
38.0
 31
0.0
  0
LINE
  5
369
330
17
100
AcDbEntity
  8
CASEWORK-DIMENSIONS
 62
2
100
AcDbLine
 10
465.2155555555555
 20
0.0
 30
0.0
 11
466.2155555555555
 21
0.0
 31
0.0
  0
LINE
  5
36A
330
17
100
AcDbEntity
  8
CASEWORK-DIMENSIONS
 62
2
100
AcDbLine
 10
465.2155555555555
 20
38.0
 30
0.0
 11
466.2155555555555
 21
38.0
 31
0.0
  0
TEXT
  5
36B
330
17
100
AcDbEntity
  8
CASEWORK-DIMENSIONS
 62
2
100
AcDbText
 10
467.2155555555555
 20
19.0
 30
0.0
 40
1.2
  1
38.0"
 50
90.0
 72
1
 11
467.2155555555555
 21
19.0
 31
0.0
100
AcDbText
 73
2
  0
TEXT
  5
36C
330
17
100
AcDbEntity
  8
CASEWORK-PRODUCT-NUMBERS
 62
2
100
AcDbText
 10
15.0
 20
31.512
 30
0.0
 40
1.2
  1
1131011W
 72
1
 11
15.0
 21
31.512
 31
0.0
100
AcDbText
 73
2
  0
TEXT
  5
36D
330
17
100
AcDbEntity
  8
CASEWORK-PRODUCT-NUMBERS
 62
2
100
AcDbText
 10
33.5
 20
31.512
 30
0.0
 40
0.56
  1
CFC1001W
 72
1
 11
33.5
 21
31.512
 31
0.0
100
AcDbText
 73
2
  0
TEXT
  5
36E
330
17
100
AcDbEntity
  8
CASEWORK-PRODUCT-NUMBERS
 62
2
100
AcDbText
 10
43.0
 20
31.512
 30
0.0
 40
0.96
  1
1010211W
 72
1
 11
43.0
 21
31.512
 31
0.0
100
AcDbText
 73
2
  0
TEXT
  5
36F
330
17
100
AcDbEntity
  8
CASEWORK-PRODUCT-NUMBERS
 62
2
100
AcDbText
 10
64.0
 20
31.512
 30
0.0
 40
1.2
  1
1131011W
 72
1
 11
64.0
 21
31.512
 31
0.0
100
AcDbText
 73
2
  0
TEXT
  5
370
330
17
100
AcDbEntity
  8
CASEWORK-PRODUCT-NUMBERS
 62
2
100
AcDbText
 10
85.0
 20
31.512
 30
0.0
 40
0.96
  1
1010211W
 72
1
 11
85.0
 21
31.512
 31
0.0
100
AcDbText
 73
2
  0
TEXT
  5
371
330
17
100
AcDbEntity
  8
CASEWORK-PRODUCT-NUMBERS
 62
2
100
AcDbText
 10
100.0
 20
31.512
 30
0.0
 40
1.2
  1
1310311W
 72
1
 11
100.0
 21
31.512
 31
0.0
100
AcDbText
 73
2
  0
TEXT
  5
372
330
17
100
AcDbEntity
  8
CASEWORK-PRODUCT-NUMBERS
 62
2
100
AcDbText
 10
119.5
 20
31.512
 30
0.0
 40
1.2
  1
1160211W
 72
1
 11
119.5
 21
31.512
 31
0.0
100
AcDbText
 73
2
  0
TEXT
  5
373
330
17
100
AcDbEntity
  8
CASEWORK-PRODUCT-NUMBERS
 62
2
100
AcDbText
 10
139.0
 20
31.512
 30
0.0
 40
1.2
  1
1310311W
 72
1
 11
139.0
 21
31.512
 31
0.0
100
AcDbText
 73
2
  0
TEXT
  5
374
330
17
100
AcDbEntity
  8
CASEWORK-PRODUCT-NUMBERS
 62
2
100
AcDbText
 10
166.0
 20
31.512
 30
0.0
 40
1.2
  1
1080211W
 72
1
 11
166.0
 21
31.512
 31
0.0
100
AcDbText
 73
2
  0
TEXT
  5
375
330
17
100
AcDbEntity
  8
CASEWORK-PRODUCT-NUMBERS
 62
2
100
AcDbText
 10
191.5
 20
31.512
 30
0.0
 40
1.2
  1
1910211W
 72
1
 11
191.5
 21
31.512
 31
0.0
100
AcDbText
 73
2
  0
TEXT
  5
376
330
17
100
AcDbEntity
  8
CASEWORK-PRODUCT-NUMBERS
 62
2
100
AcDbText
 10
206.5
 20
24.492
 30
0.0
 40
1.2
  1
1910211W
 72
1
 11
206.5
 21
24.492
 31
0.0
100
AcDbText
 73
2
  0
TEXT
  5
377
330
17
100
AcDbEntity
  8
CASEWORK-PRODUCT-NUMBERS
 62
2
100
AcDbText
 10
220.0
 20
29.64
 30
0.0
 40
0.96
  1
1010211W
 72
1
 11
220.0
 21
29.64
 31
0.0
100
AcDbText
 73
2
  0
TEXT
  5
378
330
17
100
AcDbEntity
  8
CASEWORK-PRODUCT-NUMBERS
 62
2
100
AcDbText
 10
232.0
 20
29.64
 30
0.0
 40
0.96
  1
1010211W
 72
1
 11
232.0
 21
29.64
 31
0.0
100
AcDbText
 73
2
  0
TEXT
  5
379
330
17
100
AcDbEntity
  8
CASEWORK-PRODUCT-NUMBERS
 62
2
100
AcDbText
 10
241.0
 20
29.64
 30
0.0
 40
0.48
  1
CFC1001W
 72
1
 11
241.0
 21
29.64
 31
0.0
100
AcDbText
 73
2
  0
TEXT
  5
37A
330
17
100
AcDbEntity
  8
CASEWORK-PRODUCT-NUMBERS
 62
2
100
AcDbText
 10
250.0
 20
29.64
 30
0.0
 40
0.96
  1
1010211W
 72
1
 11
250.0
 21
29.64
 31
0.0
100
AcDbText
 73
2
  0
TEXT
  5
37B
330
17
100
AcDbEntity
  8
CASEWORK-PRODUCT-NUMBERS
 62
2
100
AcDbText
 10
262.0
 20
29.64
 30
0.0
 40
0.96
  1
1010211W
 72
1
 11
262.0
 21
29.64
 31
0.0
100
AcDbText
 73
2
  0
TEXT
  5
37C
330
17
100
AcDbEntity
  8
CASEWORK-PRODUCT-NUMBERS
 62
2
100
AcDbText
 10
274.0
 20
29.64
 30
0.0
 40
0.96
  1
1010211W
 72
1
 11
274.0
 21
29.64
 31
0.0
100
AcDbText
 73
2
  0
TEXT
  5
37D
330
17
100
AcDbEntity
  8
CASEWORK-PRODUCT-NUMBERS
 62
2
100
AcDbText
 10
295.0
 20
29.64
 30
0.0
 40
1.2
  1
1131011W
 72
1
 11
295.0
 21
29.64
 31
0.0
100
AcDbText
 73
2
  0
TEXT
  5
37E
330
17
100
AcDbEntity
  8
CASEWORK-PRODUCT-NUMBERS
 62
2
100
AcDbText
 10
322.0
 20
29.64
 30
0.0
 40
1.2
  1
1120211W
 72
1
 11
322.0
 21
29.64
 31
0.0
100
AcDbText
 73
2
  0
TEXT
  5
37F
330
17
100
AcDbEntity
  8
CASEWORK-PRODUCT-NUMBERS
 62
2
100
AcDbText
 10
360.66666666666663
 20
26.052
 30
0.0
 40
0.96
  1
1010211W
 72
1
 11
360.66666666666663
 21
26.052
 31
0.0
100
AcDbText
 73
2
  0
TEXT
  5
380
330
17
100
AcDbEntity
  8
CASEWORK-PRODUCT-NUMBERS
 62
2
100
AcDbText
 10
389.7155555555555
 20
29.64
 30
0.0
 40
0.96
  1
1010211W
 72
1
 11
389.7155555555555
 21
29.64
 31
0.0
100
AcDbText
 73
2
  0
TEXT
  5
381
330
17
100
AcDbEntity
  8
CASEWORK-PRODUCT-NUMBERS
 62
2
100
AcDbText
 10
401.7155555555555
 20
29.64
 30
0.0
 40
0.96
  1
1010211W
 72
1
 11
401.7155555555555
 21
29.64
 31
0.0
100
AcDbText
 73
2
  0
TEXT
  5
382
330
17
100
AcDbEntity
  8
CASEWORK-PRODUCT-NUMBERS
 62
2
100
AcDbText
 10
410.7155555555555
 20
29.64
 30
0.0
 40
0.48
  1
CFC1001W
 72
1
 11
410.7155555555555
 21
29.64
 31
0.0
100
AcDbText
 73
2
  0
TEXT
  5
383
330
17
100
AcDbEntity
  8
CASEWORK-PRODUCT-NUMBERS
 62
2
100
AcDbText
 10
419.7155555555555
 20
29.64
 30
0.0
 40
0.96
  1
1010211W
 72
1
 11
419.7155555555555
 21
29.64
 31
0.0
100
AcDbText
 73
2
  0
TEXT
  5
384
330
17
100
AcDbEntity
  8
CASEWORK-PRODUCT-NUMBERS
 62
2
100
AcDbText
 10
429.2155555555555
 20
29.64
 30
0.0
 40
0.56
  1
CFC1001W
 72
1
 11
429.2155555555555
 21
29.64
 31
0.0
100
AcDbText
 73
2
  0
TEXT
  5
385
330
17
100
AcDbEntity
  8
CASEWORK-PRODUCT-NUMBERS
 62
2
100
AcDbText
 10
447.7155555555555
 20
29.64
 30
0.0
 40
1.2
  1
1131011W
 72
1
 11
447.7155555555555
 21
29.64
 31
0.0
100
AcDbText
 73
2
  0
LWPOLYLINE
  5
386
330
17
100
AcDbEntity
  8
CASEWORK-ANNOTATIONS
 62
8
100
AcDbPolyline
 90
5
 70
1
 10
0.0
 20
-18.0
 10
462.7155555555555
 20
-18.0
 10
462.7155555555555
 20
-30.0
 10
0.0
 20
-30.0
 10
0.0
 20
-18.0
  0
TEXT
  5
387
330
17
100
AcDbEntity
  8
CASEWORK-ANNOTATIONS
 62
7
100
AcDbText
 10
2.0
 20
-21.0
 30
0.0
 40
2.5
  1
Elevation E4 - Mott Casework
 11
2.0
 21
-21.0
 31
0.0
100
AcDbText
  0
TEXT
  5
388
330
17
100
AcDbEntity
  8
CASEWORK-ANNOTATIONS
 62
1
100
AcDbText
 10
2.0
 20
-24.5
 30
0.0
 40
1.3
  1
Items: 26  |  Matched: 26  |  Flagged: 0  |  Avg Confidence: 85%  |  Total Width: 425"
 11
2.0
 21
-24.5
 31
0.0
100
AcDbText
  0
TEXT
  5
389
330
17
100
AcDbEntity
  8
CASEWORK-ANNOTATIONS
 62
8
100
AcDbText
 10
2.0
 20
-27.5
 30
0.0
 40
1.0
  1
Generated by Casework AI Pipeline - Mott Manufacturing
 11
2.0
 21
-27.5
 31
0.0
100
AcDbText
  0
ENDSEC
  0
SECTION
  2
OBJECTS
  0
DICTIONARY
  5
A
330
0
100
AcDbDictionary
281
1
  3
ACAD_COLOR
350
B
  3
ACAD_GROUP
350
C
  3
ACAD_LAYOUT
350
D
  3
ACAD_MATERIAL
350
E
  3
ACAD_MLEADERSTYLE
350
F
  3
ACAD_MLINESTYLE
350
10
  3
ACAD_PLOTSETTINGS
350
11
  3
ACAD_PLOTSTYLENAME
350
12
  3
ACAD_SCALELIST
350
14
  3
ACAD_TABLESTYLE
350
15
  3
ACAD_VISUALSTYLE
350
16
  3
EZDXF_META
350
2D
  0
DICTIONARY
  5
B
330
A
100
AcDbDictionary
281
1
  0
DICTIONARY
  5
C
330
A
100
AcDbDictionary
281
1
  0
DICTIONARY
  5
D
330
A
100
AcDbDictionary
281
1
  3
Model
350
1A
  3
Layout1
350
1E
  0
DICTIONARY
  5
E
330
A
100
AcDbDictionary
281
1
  3
ByBlock
350
1F
  3
ByLayer
350
20
  3
Global
350
21
  0
DICTIONARY
  5
F
330
A
100
AcDbDictionary
281
1
  3
Standard
350
2C
  0
DICTIONARY
  5
10
330
A
100
AcDbDictionary
281
1
  3
Standard
350
22
  0
DICTIONARY
  5
11
330
A
100
AcDbDictionary
281
1
  0
ACDBDICTIONARYWDFLT
  5
12
330
A
100
AcDbDictionary
281
1
  3
Normal
350
13
100
AcDbDictionaryWithDefault
340
13
  0
ACDBPLACEHOLDER
  5
13
330
12
  0
DICTIONARY
  5
14
330
A
100
AcDbDictionary
281
1
  0
DICTIONARY
  5
15
330
A
100
AcDbDictionary
281
1
  0
DICTIONARY
  5
16
330
A
100
AcDbDictionary
281
1
  0
LAYOUT
  5
1A
330
D
100
AcDbPlotSettings
  1

  4
A3
  6

 40
7.5
 41
20.0
 42
7.5
 43
20.0
 44
420.0
 45
297.0
 46
0.0
 47
0.0
 48
0.0
 49
0.0
140
0.0
141
0.0
142
1.0
143
1.0
 70
1024
 72
1
 73
0
 74
5
  7

 75
16
 76
0
 77
2
 78
300
147
1.0
148
0.0
149
0.0
100
AcDbLayout
  1
Model
 70
1
 71
0
 10
0.0
 20
0.0
 11
420.0
 21
297.0
 12
0.0
 22
0.0
 32
0.0
 14
1e+20
 24
1e+20
 34
1e+20
 15
-1e+20
 25
-1e+20
 35
-1e+20
146
0.0
 13
0.0
 23
0.0
 33
0.0
 16
1.0
 26
0.0
 36
0.0
 17
0.0
 27
1.0
 37
0.0
 76
1
330
17
  0
LAYOUT
  5
1E
330
D
100
AcDbPlotSettings
  1

  4
A3
  6

 40
7.5
 41
20.0
 42
7.5
 43
20.0
 44
420.0
 45
297.0
 46
0.0
 47
0.0
 48
0.0
 49
0.0
140
0.0
141
0.0
142
1.0
143
1.0
 70
0
 72
1
 73
0
 74
5
  7

 75
16
 76
0
 77
2
 78
300
147
1.0
148
0.0
149
0.0
100
AcDbLayout
  1
Layout1
 70
1
 71
1
 10
0.0
 20
0.0
 11
420.0
 21
297.0
 12
0.0
 22
0.0
 32
0.0
 14
1e+20
 24
1e+20
 34
1e+20
 15
-1e+20
 25
-1e+20
 35
-1e+20
146
0.0
 13
0.0
 23
0.0
 33
0.0
 16
1.0
 26
0.0
 36
0.0
 17
0.0
 27
1.0
 37
0.0
 76
1
330
1B
  0
MATERIAL
  5
1F
102
{ACAD_REACTORS
330
E
102
}
330
E
100
AcDbMaterial
  1
ByBlock
  2

 70
0
 40
1.0
 71
1
 41
1.0
 91
-1023410177
 42
1.0
 72
1
  3

 73
1
 74
1
 75
1
 44
0.5
 73
0
 45
1.0
 46
1.0
 77
1
  4

 78
1
 79
1
170
1
 48
1.0
171
1
  6

172
1
173
1
174
1
140
1.0
141
1.0
175
1
  7

176
1
177
1
178
1
143
1.0
179
1
  8

270
1
271
1
272
1
145
1.0
146
1.0
273
1
  9

274
1
275
1
276
1
 42
1.0
 72
1
  3

 73
1
 74
1
 75
1
 94
63
  0
MATERIAL
  5
20
102
{ACAD_REACTORS
330
E
102
}
330
E
100
AcDbMaterial
  1
ByLayer
  2

 70
0
 40
1.0
 71
1
 41
1.0
 91
-1023410177
 42
1.0
 72
1
  3

 73
1
 74
1
 75
1
 44
0.5
 73
0
 45
1.0
 46
1.0
 77
1
  4

 78
1
 79
1
170
1
 48
1.0
171
1
  6

172
1
173
1
174
1
140
1.0
141
1.0
175
1
  7

176
1
177
1
178
1
143
1.0
179
1
  8

270
1
271
1
272
1
145
1.0
146
1.0
273
1
  9

274
1
275
1
276
1
 42
1.0
 72
1
  3

 73
1
 74
1
 75
1
 94
63
  0
MATERIAL
  5
21
102
{ACAD_REACTORS
330
E
102
}
330
E
100
AcDbMaterial
  1
Global
  2

 70
0
 40
1.0
 71
1
 41
1.0
 91
-1023410177
 42
1.0
 72
1
  3

 73
1
 74
1
 75
1
 44
0.5
 73
0
 45
1.0
 46
1.0
 77
1
  4

 78
1
 79
1
170
1
 48
1.0
171
1
  6

172
1
173
1
174
1
140
1.0
141
1.0
175
1
  7

176
1
177
1
178
1
143
1.0
179
1
  8

270
1
271
1
272
1
145
1.0
146
1.0
273
1
  9

274
1
275
1
276
1
 42
1.0
 72
1
  3

 73
1
 74
1
 75
1
 94
63
  0
MLINESTYLE
  5
22
102
{ACAD_REACTORS
330
10
102
}
330
10
100
AcDbMlineStyle
  2
Standard
 70
0
  3

 62
256
 51
90.0
 52
90.0
 71
2
 49
0.5
 62
256
  6
BYLAYER
 49
-0.5
 62
256
  6
BYLAYER
  0
MLEADERSTYLE
  5
2C
102
{ACAD_REACTORS
330
F
102
}
330
F
100
AcDbMLeaderStyle
179
2
170
2
171
1
172
0
 90
2
 40
0.0
 41
0.0
173
1
 91
-1056964608
 92
-2
290
1
 42
2.0
291
1
 43
8.0
  3
Standard
 44
4.0
300

342
29
174
1
175
1
176
0
178
1
 93
-1056964608
 45
4.0
292
0
297
0
 46
4.0
 94
-1056964608
 47
1.0
 49
1.0
140
1.0
294
1
141
0.0
177
0
142
1.0
295
0
296
0
143
3.75
271
0
272
9
273
9
  0
DICTIONARY
  5
2D
330
A
100
AcDbDictionary
280
1
281
1
  3
CREATED_BY_EZDXF
350
2E
  3
WRITTEN_BY_EZDXF
350
38C
  0
DICTIONARYVAR
  5
2E
330
2D
100
DictionaryVariables
280
0
  1
1.4.3 @ 2026-04-15T21:54:41.742419+00:00
  0
DICTIONARYVAR
  5
38C
330
2D
100
DictionaryVariables
280
0
  1
1.4.3 @ 2026-04-15T21:54:41.774972+00:00
  0
ENDSEC
  0
EOF
